%FSTAX23Y23*%
%MOIN*%
%SFA1B1*%

%IPPOS*%
%AMD10*
4,1,4,0.031900,0.004200,0.004200,0.031900,-0.031900,-0.004200,-0.004200,-0.031900,0.031900,0.004200,0.0*
%
%AMD13*
4,1,4,-0.025000,0.000000,0.000000,-0.025000,0.025000,0.000000,0.000000,0.025000,-0.025000,0.000000,0.0*
%
%AMD15*
4,1,4,0.000000,0.025000,-0.025000,0.000000,0.000000,-0.025000,0.025000,0.000000,0.000000,0.025000,0.0*
%
%AMD16*
4,1,4,0.000000,0.033400,-0.033400,0.000000,0.000000,-0.033400,0.033400,0.000000,0.000000,0.033400,0.0*
%
%AMD18*
4,1,4,0.033400,0.000000,0.000000,0.033400,-0.033400,0.000000,0.000000,-0.033400,0.033400,0.000000,0.0*
%
%AMD22*
4,1,4,-0.024300,-0.016000,-0.016000,-0.024300,0.024300,0.016000,0.016000,0.024300,-0.024300,-0.016000,0.0*
1,1,0.011810,-0.020200,-0.020200*
1,1,0.011810,0.020200,0.020200*
%
%AMD23*
4,1,4,-0.016000,0.024300,-0.024300,0.016000,0.016000,-0.024300,0.024300,-0.016000,-0.016000,0.024300,0.0*
1,1,0.011810,-0.020200,0.020200*
1,1,0.011810,0.020200,-0.020200*
%
%AMD24*
4,1,4,0.029200,-0.043100,0.043100,-0.029200,-0.029200,0.043100,-0.043100,0.029200,0.029200,-0.043100,0.0*
%
%AMD26*
4,1,8,0.013800,0.033500,-0.013800,0.033500,-0.027600,0.019700,-0.027600,-0.019700,-0.013800,-0.033500,0.013800,-0.033500,0.027600,-0.019700,0.027600,0.019700,0.013800,0.033500,0.0*
1,1,0.027560,0.013800,0.019700*
1,1,0.027560,-0.013800,0.019700*
1,1,0.027560,-0.013800,-0.019700*
1,1,0.027560,0.013800,-0.019700*
%
G04~CAMADD=10~9~0.0~0.0~393.7~511.8~0.0~0.0~0~0.0~0.0~0.0~0.0~0~0.0~0.0~0.0~0.0~0~0.0~0.0~0.0~315.0~638.0~637.0*
%ADD10D10*%
%ADD11R,0.031500X0.031500*%
%ADD12R,0.060000X0.060000*%
G04~CAMADD=13~10~0.0~354.3~0.0~0.0~0.0~0.0~0~0.0~0.0~0.0~0.0~0~0.0~0.0~0.0~0.0~0~0.0~0.0~0.0~135.0~354.3~0.0*
%ADD13D13*%
%ADD14R,0.035430X0.035430*%
G04~CAMADD=15~10~0.0~354.3~0.0~0.0~0.0~0.0~0~0.0~0.0~0.0~0.0~0~0.0~0.0~0.0~0.0~0~0.0~0.0~0.0~405.0~354.3~0.0*
%ADD15D15*%
G04~CAMADD=16~10~0.0~472.4~0.0~0.0~0.0~0.0~0~0.0~0.0~0.0~0.0~0~0.0~0.0~0.0~0.0~0~0.0~0.0~0.0~405.0~472.4~0.0*
%ADD16D16*%
%ADD17R,0.047240X0.047240*%
G04~CAMADD=18~10~0.0~472.4~0.0~0.0~0.0~0.0~0~0.0~0.0~0.0~0.0~0~0.0~0.0~0.0~0.0~0~0.0~0.0~0.0~315.0~472.4~0.0*
%ADD18D18*%
%ADD19R,0.035430X0.035430*%
%ADD20R,0.031500X0.062990*%
%ADD21R,0.078740X0.118110*%
G04~CAMADD=22~3~0.0~0.0~118.1~689.0~0.0~0.0~0~0.0~0.0~0.0~0.0~0~0.0~0.0~0.0~0.0~0~0.0~0.0~0.0~135.0~520.0~520.0*
%ADD22D22*%
G04~CAMADD=23~3~0.0~0.0~118.1~689.0~0.0~0.0~0~0.0~0.0~0.0~0.0~0~0.0~0.0~0.0~0.0~0~0.0~0.0~0.0~45.0~520.0~520.0*
%ADD23D23*%
G04~CAMADD=24~9~0.0~0.0~196.8~1023.6~0.0~0.0~0~0.0~0.0~0.0~0.0~0~0.0~0.0~0.0~0.0~0~0.0~0.0~0.0~225.0~862.0~861.0*
%ADD24D24*%
%ADD25R,0.030000X0.030000*%
G04~CAMADD=26~8~0.0~0.0~551.2~669.3~137.8~0.0~15~0.0~0.0~0.0~0.0~0~0.0~0.0~0.0~0.0~0~0.0~0.0~0.0~0.0~551.2~669.3*
%ADD26D26*%
%ADD27R,0.030000X0.030000*%
%ADD28R,0.031500X0.031500*%
%ADD29C,0.062990*%
%ADD30R,0.074800X0.074800*%
%ADD31O,0.157480X0.070870*%
%ADD32O,0.157480X0.073230*%
%ADD33R,0.043310X0.086610*%
%ADD34C,0.030000*%
%ADD35C,0.010000*%
%ADD36C,0.040000*%
%ADD37C,0.020000*%
%ADD38C,0.073230*%
%ADD39C,0.157480*%
%ADD40C,0.060000*%
%ADD41R,0.070000X0.070000*%
%ADD42C,0.070000*%
%ADD43C,0.059050*%
%ADD44R,0.059050X0.059050*%
%ADD45R,0.059050X0.059050*%
%ADD46C,0.030000*%
%ADD47C,0.025000*%
%ADD48C,0.050000*%
%LNpcb_ttc_rf4463f30-1*%
%LPD*%
G36*
X03062Y01511D02*
X03058Y01508D01*
X03056Y01509*
X03046Y0151*
X03043Y0151*
X02988*
X02971Y01526*
X02971Y01526*
X02966Y01539*
X02958Y0155*
X02947Y01558*
X02934Y01564*
X02921Y01565*
X02834*
X02821Y01564*
X02808Y01558*
X028Y01553*
X02795Y01555*
Y01843*
X03062*
Y01511*
G37*
G36*
X02683Y01137D02*
X02668Y01122D01*
X02663Y01115*
X02661Y01107*
Y0089*
X02658Y00886*
X02655Y00879*
X02654Y00871*
X02655Y00864*
X02658Y00857*
X02661Y00852*
Y00199*
X02644Y00181*
X02641Y00181*
X02629Y0018*
X02618Y00175*
X02608Y00168*
X02601Y00158*
X02596Y00147*
X02594Y00135*
X02596Y00123*
X02601Y00112*
X02608Y00102*
X02618Y00095*
X02629Y0009*
X02641Y00088*
X02653Y0009*
X02664Y00095*
X02674Y00102*
X02681Y00112*
X02686Y00123*
X02687Y00135*
X02686Y00147*
X02682Y00157*
X02699Y00174*
X02751Y00122*
X02758Y00117*
X02766Y00116*
X02771*
X02771Y00114*
X02779Y00105*
X02788Y00097*
X028Y00093*
X02812Y00091*
X02824Y00093*
X02835Y00097*
X02845Y00105*
X02852Y00114*
X02857Y00126*
X02858Y00138*
X02857Y0015*
X02852Y00161*
X02845Y00171*
X02835Y00178*
X02824Y00183*
X02812Y00184*
X028Y00183*
X02788Y00178*
X02779Y00171*
X02775Y00166*
X0277Y00165*
X02731Y00205*
Y00529*
X02735Y00531*
X02736Y0053*
X02743Y00527*
X02751Y00526*
X02758Y00527*
X02765Y0053*
X02766Y00531*
X02797*
X02808Y00523*
X02821Y00517*
X02834Y00516*
X02921*
X02934Y00517*
X02947Y00523*
X02958Y00531*
X02966Y00542*
X02971Y00554*
X02973Y00568*
X02971Y00582*
X02966Y00594*
X02958Y00605*
X02947Y00613*
X02934Y00619*
X02921Y0062*
X02834*
X02821Y00619*
X02808Y00613*
X02797Y00605*
X02789Y00594*
X02784Y00582*
X02783Y00575*
X02773*
X02771Y00576*
X02765Y00581*
X02758Y00584*
X02751Y00585*
X02743Y00584*
X02736Y00581*
X02735Y0058*
X02731Y00582*
Y00704*
X02787*
X02789Y00699*
X02797Y00688*
X02808Y0068*
X02821Y00675*
X02834Y00673*
X02921*
X02934Y00675*
X02947Y0068*
X02958Y00688*
X02966Y00699*
X02971Y00712*
X02973Y00725*
X02971Y00739*
X02966Y00752*
X02958Y00763*
X02947Y00771*
X02934Y00776*
X02921Y00778*
X02834*
X02821Y00776*
X02808Y00771*
X02797Y00763*
X02789Y00752*
X02787Y00747*
X02731*
Y0086*
X02731Y00861*
Y00882*
X02731Y00883*
Y00905*
X02736Y00906*
X02736Y00905*
X02741Y00899*
X02743Y00897*
X02744Y0089*
X02744Y0089*
X02743Y00888*
X0274Y00881*
X02739Y00874*
X0274Y00866*
X02743Y00859*
X02747Y00853*
X02753Y00848*
X0276Y00845*
X02768Y00844*
X02776Y00845*
X02783Y00848*
X02787Y00852*
X02793*
X02797Y00846*
X02808Y00838*
X02821Y00832*
X02834Y00831*
X02921*
X02934Y00832*
X02947Y00838*
X02958Y00846*
X02966Y00857*
X02971Y00869*
X02973Y00883*
X02971Y00897*
X02966Y00909*
X02958Y0092*
X02947Y00928*
X02934Y00934*
X02921Y00935*
X02834*
X02821Y00934*
X02808Y00928*
X02799Y00922*
X02795Y00924*
X02795Y00929*
Y00998*
X028Y01001*
X02808Y00995*
X02821Y0099*
X02834Y00988*
X02921*
X02934Y0099*
X02947Y00995*
X02958Y01003*
X02966Y01014*
X02971Y01027*
X02973Y0104*
X02971Y01054*
X02966Y01067*
X02958Y01078*
X02947Y01086*
X02934Y01091*
X02921Y01093*
X02834*
X02821Y01091*
X02808Y01086*
X028Y0108*
X02795Y01083*
Y01156*
X028Y01158*
X02808Y01153*
X02821Y01147*
X02834Y01146*
X02921*
X02934Y01147*
X02947Y01153*
X02958Y01161*
X02966Y01172*
X02971Y01184*
X02973Y01198*
X02971Y01211*
X02966Y01224*
X02958Y01235*
X02947Y01243*
X02934Y01249*
X02921Y0125*
X02834*
X02821Y01249*
X02808Y01243*
X028Y01238*
X02795Y0124*
Y01323*
X028Y01325*
X02802Y01323*
X02811Y01316*
X02822Y01311*
X02834Y0131*
X02867*
Y01355*
Y01401*
X02834*
X02822Y014*
X02811Y01395*
X02802Y01388*
X028Y01386*
X02795Y01387*
Y01471*
X028Y01473*
X02808Y01467*
X02821Y01462*
X02834Y0146*
X02921*
X02931Y01462*
X02946Y01447*
X02954Y01441*
X02963Y01437*
X02972Y01436*
X03032*
X03056Y01411*
Y00552*
X03058Y00543*
X03061Y00534*
X03062Y00533*
Y00024*
X00348*
X00347Y00024*
X00336Y00026*
X00325Y0003*
X00323Y00032*
X00262Y00098*
Y00298*
X00245Y00314*
X00027*
Y01843*
X00663*
Y01298*
X0061Y01246*
X00606Y01239*
X00605Y01237*
X006Y01236*
X0059Y01243*
X00578Y01249*
X00564Y0125*
X00477*
X00464Y01249*
X00451Y01243*
X0044Y01235*
X00432Y01224*
X00427Y01211*
X00425Y01198*
X00427Y01184*
X00432Y01172*
X0044Y01161*
X00451Y01153*
X00464Y01147*
X00477Y01146*
X00564*
X00578Y01147*
X0059Y01153*
X00599Y01159*
X00604Y01157*
Y01087*
X00597Y0108*
X0059Y01086*
X00578Y01091*
X00564Y01093*
X00477*
X00464Y01091*
X00451Y01086*
X0044Y01078*
X00432Y01067*
X00427Y01054*
X00425Y0104*
X00427Y01027*
X00432Y01014*
X0044Y01003*
X00451Y00995*
X00464Y0099*
X00477Y00988*
X00564*
X00578Y0099*
X0059Y00995*
X00601Y01003*
X00609Y01014*
X00615Y01027*
X00616Y01037*
X00623Y01044*
X00628Y01042*
Y00952*
X00598Y00923*
X0059Y00928*
X00578Y00934*
X00564Y00935*
X00477*
X00464Y00934*
X00451Y00928*
X0044Y0092*
X00432Y00909*
X00427Y00897*
X00425Y00883*
X00427Y00869*
X00432Y00857*
X0044Y00846*
X00451Y00838*
X00464Y00832*
X00477Y00831*
X00564*
X00578Y00832*
X0059Y00838*
X00601Y00846*
X00609Y00857*
X00615Y00869*
X00616Y00879*
X00648Y00911*
X00653Y00909*
Y00829*
X00593Y00769*
X0059Y00771*
X00578Y00776*
X00564Y00778*
X00477*
X00464Y00776*
X00451Y00771*
X0044Y00763*
X00432Y00752*
X00427Y00739*
X00425Y00725*
X00427Y00712*
X00432Y00699*
X0044Y00688*
X00451Y0068*
X00464Y00675*
X00477Y00673*
X00564*
X00578Y00675*
X0059Y0068*
X00601Y00688*
X00609Y00699*
X00615Y00712*
X00616Y00725*
X00616Y0073*
X00673Y00788*
X00678Y00786*
Y00702*
X0059Y00614*
X00578Y00619*
X00564Y0062*
X00477*
X00464Y00619*
X00451Y00613*
X0044Y00605*
X00432Y00594*
X00427Y00582*
X00425Y00568*
X00427Y00554*
X00432Y00542*
X0044Y00531*
X00451Y00523*
X00464Y00517*
X00477Y00516*
X00564*
X00578Y00517*
X0059Y00523*
X00601Y00531*
X00609Y00542*
X00615Y00554*
X00616Y00568*
X00615Y00577*
X00699Y00661*
X00704Y00659*
Y0057*
X0059Y00456*
X00578Y00461*
X00564Y00463*
X00477*
X00464Y00461*
X00451Y00456*
X0044Y00448*
X00432Y00437*
X00427Y00424*
X00425Y00411*
X00427Y00397*
X00432Y00384*
X0044Y00373*
X00451Y00365*
X00464Y0036*
X00477Y00358*
X00564*
X00578Y0036*
X0059Y00365*
X00601Y00373*
X00609Y00384*
X00615Y00397*
X00616Y00411*
X00615Y00419*
X00741Y00545*
X00746Y00552*
X00748Y00561*
Y01235*
X00762Y01249*
X00762Y01249*
X0077Y0125*
X00777Y01253*
X00783Y01258*
X00788Y01264*
X00791Y01271*
X00792Y01279*
X00791Y01286*
X00788Y01293*
X00783Y01299*
X00777Y01304*
X0077Y01307*
X00762Y01308*
X00755Y01307*
X00748Y01304*
X00742Y01299*
X00741Y01298*
X00736Y013*
Y01843*
X01065*
Y00738*
X01064Y00738*
X01061Y00731*
X0106Y00723*
X01061Y00716*
X01064Y00708*
X01069Y00702*
X01075Y00698*
X01082Y00695*
X0109Y00694*
X01097Y00695*
X01104Y00698*
X0111Y00702*
X01115Y00708*
X01118Y00716*
X01119Y00723*
X01118Y00731*
X01115Y00738*
X0111Y00744*
X01108Y00745*
Y01843*
X01451*
Y00962*
X01417Y00928*
X01404Y00934*
X01391Y00935*
X01304*
X01291Y00934*
X01278Y00928*
X01267Y0092*
X01259Y00909*
X01254Y00897*
X01252Y00883*
X01254Y00869*
X01259Y00857*
X01267Y00846*
X01278Y00838*
X01291Y00832*
X01304Y00831*
X01391*
X01404Y00832*
X01417Y00838*
X01428Y00846*
X01436Y00857*
X01441Y00869*
X01443Y00883*
X01442Y00891*
X01485Y00934*
X0149Y00932*
Y00676*
X01423Y00609*
X01417Y00613*
X01404Y00619*
X01391Y0062*
X01304*
X01291Y00619*
X01278Y00613*
X01267Y00605*
X01259Y00594*
X01254Y00582*
X01252Y00568*
X01254Y00554*
X01259Y00542*
X01267Y00531*
X01278Y00523*
X01291Y00517*
X01304Y00516*
X01391*
X01404Y00517*
X01417Y00523*
X01428Y00531*
X01436Y00542*
X01441Y00554*
X01443Y00567*
X01528Y00651*
X01528*
X01532Y00658*
X01534Y00667*
Y00973*
X01537Y00977*
X0154Y00984*
X01541Y00992*
X0154Y01*
X01537Y01007*
X01533Y01013*
X01527Y01017*
X0152Y0102*
X01512Y01021*
X01505Y0102*
X015Y01018*
X01495Y01021*
Y0183*
X01499Y01832*
X01501Y01831*
X01511Y01827*
X01522Y01825*
X01532Y01827*
X01542Y01831*
X01551Y01838*
X01555Y01843*
X02176*
Y01533*
X02176Y01531*
Y01503*
X02176Y01502*
Y01071*
X02171Y01069*
X02165Y01073*
X02158Y01076*
X02151Y01077*
X02143Y01076*
X02136Y01073*
X02135Y01072*
X02131Y01078*
X0212Y01086*
X02108Y01091*
X02094Y01093*
X02007*
X01994Y01091*
X01981Y01086*
X0197Y01078*
X01964Y0107*
X01902*
X01895Y01078*
X01886Y01086*
X01875Y0109*
X01862Y01092*
X0185Y0109*
X01839Y01086*
X0183Y01078*
X01822Y01069*
X01818Y01058*
X01816Y01046*
X01818Y01034*
X01822Y01022*
X0183Y01013*
X01839Y01005*
X0185Y01001*
X01862Y00999*
X01875Y01001*
X01886Y01005*
X01895Y01013*
X01903Y01022*
X01904Y01026*
X01957*
X01962Y01014*
X0197Y01003*
X01981Y00995*
X01994Y0099*
X02007Y00988*
X02094*
X02108Y0099*
X0212Y00995*
X02131Y01003*
X02139Y01014*
X02141Y01019*
X02143Y0102*
X02151Y01019*
X02158Y0102*
X02165Y01023*
X02171Y01027*
X02176Y01025*
Y00899*
X02171Y00898*
X02165Y00902*
X02158Y00905*
X02151Y00906*
X02143Y00905*
X02141Y00905*
X02139Y00909*
X02131Y0092*
X0212Y00928*
X02108Y00934*
X02094Y00935*
X02007*
X01994Y00934*
X01981Y00928*
X0197Y0092*
X01962Y00909*
X0196Y00905*
X01903*
X01903Y00906*
X01895Y00916*
X01886Y00923*
X01875Y00928*
X01862Y0093*
X0185Y00928*
X01839Y00923*
X0183Y00916*
X01822Y00906*
X01818Y00895*
X01816Y00883*
X01818Y00871*
X01822Y0086*
X0183Y0085*
X01839Y00843*
X0185Y00838*
X01862Y00837*
X01875Y00838*
X01886Y00843*
X01895Y0085*
X01903Y0086*
X01903Y00861*
X0196*
X01962Y00857*
X0197Y00846*
X01981Y00838*
X01994Y00832*
X02007Y00831*
X02094*
X02108Y00832*
X0212Y00838*
X02131Y00846*
X02135Y00851*
X02136Y00851*
X02143Y00848*
X02151Y00847*
X02158Y00848*
X02165Y00851*
X02171Y00855*
X02176Y00854*
Y00757*
X02171Y00756*
X02165Y0076*
X02158Y00763*
X02151Y00764*
X02143Y00763*
X02136Y0076*
X02134Y00758*
X02131Y00763*
X0212Y00771*
X02108Y00776*
X02094Y00778*
X02007*
X01994Y00776*
X01981Y00771*
X0197Y00763*
X01962Y00752*
X0196Y00747*
X019*
X01895Y00754*
X01886Y00761*
X01875Y00766*
X01862Y00767*
X0185Y00766*
X01839Y00761*
X0183Y00754*
X01822Y00744*
X01818Y00733*
X01816Y00721*
X01818Y00709*
X01822Y00698*
X0183Y00688*
X01839Y00681*
X0185Y00676*
X01862Y00674*
X01875Y00676*
X01886Y00681*
X01895Y00688*
X01903Y00698*
X01905Y00704*
X0196*
X01962Y00699*
X0197Y00688*
X01981Y0068*
X01994Y00675*
X02007Y00673*
X02094*
X02108Y00675*
X0212Y0068*
X02131Y00688*
X02139Y00699*
X02142Y00706*
X02143Y00706*
X02151Y00705*
X02158Y00706*
X02165Y00709*
X02171Y00713*
X02176Y00712*
Y00596*
X02171Y00595*
X02165Y00599*
X02158Y00602*
X02151Y00603*
X02143Y00602*
X02136Y00599*
X02136Y00599*
X02131Y00605*
X0212Y00613*
X02108Y00619*
X02094Y0062*
X02007*
X01994Y00619*
X01981Y00613*
X0197Y00605*
X01962Y00594*
X0196Y0059*
X01896*
X01895Y00591*
X01886Y00599*
X01875Y00603*
X01862Y00605*
X0185Y00603*
X01839Y00599*
X0183Y00591*
X01822Y00582*
X01818Y0057*
X01816Y00558*
X01818Y00546*
X01822Y00535*
X0183Y00526*
X01839Y00518*
X0185Y00513*
X01862Y00512*
X01875Y00513*
X01886Y00518*
X01895Y00526*
X01903Y00535*
X01907Y00546*
X0196*
X01962Y00542*
X0197Y00531*
X01981Y00523*
X01994Y00517*
X02007Y00516*
X02094*
X02108Y00517*
X0212Y00523*
X02131Y00531*
X02139Y00542*
X0214Y00544*
X02143Y00545*
X02151Y00544*
X02158Y00545*
X02164Y00548*
X02168Y00545*
X02168Y00544*
X02168Y00543*
X02169Y00535*
X02172Y00528*
X02174Y00526*
Y00444*
X02169Y00441*
X02165Y00444*
X02158Y00447*
X02151Y00448*
X02143Y00447*
X02136Y00444*
X02135Y00443*
X02131Y00448*
X0212Y00456*
X02108Y00461*
X02094Y00463*
X02007*
X01994Y00461*
X01981Y00456*
X0197Y00448*
X01965Y0044*
X01885*
X01879Y00439*
X01875Y00441*
X01862Y00442*
X0185Y00441*
X01839Y00436*
X0183Y00429*
X01822Y00419*
X01818Y00408*
X01816Y00396*
X01818Y00384*
X01822Y00373*
X0183Y00363*
X01839Y00356*
X0185Y00351*
X01862Y0035*
X01875Y00351*
X01886Y00356*
X01895Y00363*
X01903Y00373*
X01907Y00384*
X01909Y00396*
X01909Y00396*
X01957*
X01962Y00384*
X0197Y00373*
X01981Y00365*
X01994Y0036*
X02007Y00358*
X02094*
X02108Y0036*
X0212Y00365*
X02131Y00373*
X02139Y00384*
X02142Y00389*
X02143Y0039*
X02151Y00389*
X02158Y0039*
X02165Y00393*
X02169Y00396*
X02174Y00393*
Y00166*
X02165Y00159*
X02157Y0015*
X02153Y00138*
X02151Y00126*
X02153Y00114*
X02157Y00103*
X02165Y00093*
X02174Y00086*
X02186Y00081*
X02198Y0008*
X0221Y00081*
X02221Y00086*
X0223Y00093*
X02238Y00103*
X02242Y00114*
X02244Y00126*
X02242Y00138*
X02238Y0015*
X0223Y00159*
X02221Y00167*
X02217Y00168*
Y00522*
X02218Y00522*
X02223Y00528*
X02226Y00535*
X02227Y00543*
X02226Y00547*
X0223Y00552*
X02231Y00552*
X02239Y00553*
X02243Y00554*
X02248Y00551*
Y00441*
X02247Y0044*
X02246Y00439*
X02245Y00438*
X0224Y00431*
X02237Y00424*
X02236Y00417*
X02237Y00409*
X0224Y00402*
X02245Y00396*
X02251Y00391*
X02258Y00389*
X02265Y00388*
X02273Y00389*
X0228Y00391*
X02286Y00396*
X02291Y00402*
X02294Y00409*
X02295Y00417*
X02294Y00424*
X02291Y0043*
X02292Y00432*
Y01768*
X0229Y01776*
X02285Y01783*
X02278Y01791*
Y01843*
X0235*
X0235Y01842*
X02355Y01835*
X02361Y01831*
X02368Y01828*
X02375Y01827*
X02383Y01828*
X0239Y01831*
X02396Y01835*
X02401Y01842*
X02401Y01843*
X02683*
Y01137*
G37*
G36*
X02463Y0208D02*
X02458Y02075D01*
Y02076*
X02444Y0209*
X02437Y02083*
X02437*
X02448Y02094*
X02463Y0208*
G37*
G36*
X03139Y03488D02*
X03139D01*
X03141*
X03144Y03488*
X03149Y03488*
X03164Y03487*
X03183Y03483*
X032Y03475*
X03216Y03466*
X0323Y03453*
X03242Y03439*
X03252Y03423*
X03258Y03409*
X0326Y03405*
X0326Y03405*
X0326Y03402*
X03263Y0339*
X03267Y03379*
X03274Y03369*
X03278Y03364*
X03303Y03339*
X03311Y03333*
X03327Y03322*
X03345Y03314*
X03364Y03311*
X03374Y0331*
X03376*
X03382Y03309*
X03386Y03308*
X03388Y03308*
X03391*
X03499*
X035Y03308*
X03514Y03307*
X03532Y03303*
X03548Y03296*
X03563Y03287*
X03576Y03276*
X03587Y03262*
X03597Y03247*
X03603Y03231*
X03607Y03214*
X03608Y032*
X03608Y03197*
Y00309*
Y00307*
X03608Y00305*
X0361Y00286*
X03608Y00266*
X03603Y00246*
X03596Y00228*
X03585Y0021*
X03577Y00201*
X03566Y0019*
X03557Y00182*
X0354Y00172*
X03521Y00164*
X03502Y0016*
X03389*
X03387Y00159*
X03378Y00159*
X03378Y00159*
X03371*
X03361Y00158*
X03342Y00154*
X03324Y00147*
X03307Y00136*
X033Y00129*
X03224Y00053*
X03217Y00046*
X032Y00035*
X03182Y00027*
X03163Y00024*
X03153*
X03079*
Y0052*
X03084Y00522*
X03133Y00473*
X03135Y00471*
X03137Y00469*
X03143Y00464*
X0315Y00461*
X03157Y0046*
X03181*
X03182Y0046*
X03191Y00456*
X03201Y00455*
X0321Y00456*
X0322Y0046*
X0322Y0046*
X03281*
X03282Y0046*
X03291Y00456*
X03301Y00455*
X0331Y00456*
X0332Y0046*
X03327Y00466*
X03333Y00474*
X03337Y00483*
X03339Y00493*
X03337Y00502*
X03333Y00511*
X03327Y00519*
X0332Y00525*
X0331Y00529*
X03301Y0053*
X03291Y00529*
X03282Y00525*
X03274Y00519*
X03272Y00517*
X03229*
X03227Y00519*
X0322Y00525*
X0321Y00529*
X03201Y0053*
X03191Y00529*
X03182Y00525*
X03174Y00519*
X03173Y00518*
X03168Y00518*
X03121Y00564*
Y01427*
X0312Y01434*
X03118Y01441*
X03113Y01447*
X03079Y01481*
Y01862*
X03079Y01863*
X03079Y01863*
X03078Y01863*
X03078Y01863*
X03078Y01863*
X02787*
Y02298*
X02786Y02303*
X02783Y02307*
X02762Y02328*
X02763Y02334*
X02764Y02335*
X02767Y0234*
X02768Y02345*
X02773Y02346*
X02778Y02349*
X02781Y02354*
X02782Y02359*
X02787Y0236*
X02792Y02363*
X02793Y02364*
X02799Y02365*
X02856Y02308*
X02853Y02303*
X02852Y02293*
X02853Y02283*
X02857Y02274*
X02863Y02266*
X02871Y0226*
X0288Y02256*
X0289Y02255*
X029Y02256*
X02909Y0226*
X02917Y02266*
X02923Y02274*
X02927Y02283*
X02928Y02293*
X02927Y02303*
X02923Y02312*
X02917Y0232*
X02909Y02326*
X029Y02329*
X0289Y02331*
X0288Y02329*
X02875Y02327*
X02828Y02374*
X0283Y02378*
X02855*
X02857Y02373*
X02863Y02365*
X02871Y02359*
X0288Y02355*
X0289Y02354*
X029Y02355*
X02909Y02359*
X02917Y02365*
X02923Y02373*
X02927Y02382*
X02928Y02392*
X02927Y02401*
X02923Y02411*
X02917Y02418*
X02909Y02424*
X029Y02428*
X0289Y02429*
X0288Y02428*
X02871Y02424*
X02863Y02418*
X02857Y02411*
X02855Y02405*
X02824*
X02822Y02407*
X0282Y02411*
X02779Y02451*
X02775Y02454*
X02769Y02455*
X02764Y02454*
X02759Y02451*
X02756Y02447*
X02755Y02441*
X0275Y0244*
X02745Y02437*
X02742Y02433*
X02741Y02427*
X02736Y02426*
X02732Y02423*
X02729Y02419*
X02727Y02414*
X02722Y02413*
X02718Y02409*
X02715Y02405*
X02714Y024*
X02708Y02399*
X02704Y02396*
X02701Y02391*
X027Y02386*
X02694Y02385*
X0269Y02382*
X02687Y02377*
X02686Y02372*
X0268Y02371*
X02676Y02368*
X02673Y02363*
X02672Y02358*
X02667Y02357*
X02662Y02354*
X02659Y02349*
X02658Y02344*
X02653Y02343*
X02648Y0234*
X02645Y02335*
X02644Y0233*
X02639Y02329*
X02634Y02326*
X02631Y02321*
X0263Y02316*
X02625Y02315*
X0262Y02312*
X02617Y02307*
X02616Y02302*
X02611Y02301*
X02606Y02298*
X02603Y02294*
X02602Y02288*
X02597Y02287*
X02592Y02284*
X02589Y0228*
X02588Y02274*
X02583Y02273*
X02578Y0227*
X02575Y02266*
X02574Y0226*
X02569Y02259*
X02565Y02256*
X02561Y02252*
X0256Y02247*
X02555Y02246*
X02551Y02242*
X02548Y02238*
X02547Y02233*
X02541Y02232*
X02537Y02229*
X02534Y02224*
X02533Y02219*
X02527Y02218*
X02523Y02215*
X0252Y0221*
X02519Y02205*
X02513Y02204*
X02509Y02201*
X02506Y02196*
X02505Y02191*
X025Y0219*
X02495Y02187*
X02492Y02182*
X02491Y02177*
X02486Y02176*
X02481Y02173*
X02478Y02168*
X02477Y02163*
X02472Y02162*
X02467Y02159*
X02464Y02154*
X02463Y02149*
X02458Y02148*
X02453Y02145*
X0245Y0214*
X02449Y02135*
X02444Y02134*
X02439Y02131*
X02436Y02126*
X02436Y02123*
X02435Y02123*
X02429Y02122*
X02429Y02122*
X02428Y02122*
X02424Y02119*
X02421Y02114*
X02421Y02114*
X0242Y02113*
X02419Y02107*
X0242Y02101*
X02424Y02096*
X02437Y02083*
X02451Y02068*
X02464Y02055*
X02469Y02052*
Y02028*
X02443Y02003*
X02418*
X02416Y02002*
X02375*
X02361Y02016*
Y0206*
X02398Y02097*
X02401Y02102*
X02402Y02107*
X02401Y02113*
X02398Y02117*
X02393Y0212*
X02388Y02121*
X02387Y02126*
X02384Y02131*
X0238Y02134*
X02374Y02135*
X02373Y0214*
X0237Y02145*
X02369Y02146*
X02368Y02152*
X02392Y02176*
X02397Y02175*
X02405Y02177*
X02412Y02182*
X02416Y02188*
X02418Y02196*
X02416Y02204*
X02412Y02211*
X02405Y02216*
X02397Y02217*
X02389Y02216*
X02382Y02211*
X02377Y02204*
X02377Y02202*
X02376Y02201*
X02371Y02204*
Y02292*
X02373Y02293*
X02377Y023*
X02379Y02308*
X02377Y02316*
X02373Y02323*
X02366Y02327*
X02358Y02329*
X0235Y02327*
X02343Y02323*
X02338Y02316*
X02337Y02308*
X02338Y023*
X02343Y02293*
X02345Y02292*
Y02194*
X02336Y02185*
X02329Y02186*
X02328Y02187*
X02324Y0219*
X02319Y02191*
X02318Y02196*
X02315Y02201*
X0231Y02204*
X02305Y02205*
X02304Y0221*
X02301Y02215*
X02296Y02218*
X02291Y02219*
X0229Y02224*
X02287Y02229*
X02282Y02232*
X02277Y02233*
X02276Y02238*
X02273Y02242*
X02271Y02243*
X0227Y02247*
X02271Y0225*
X02273Y02253*
X02274Y02258*
Y02271*
X02273Y02276*
X0227Y02281*
X02248Y02302*
X02244Y02305*
X02239Y02306*
X02211*
X02207Y02305*
X02206Y02307*
X02203Y02312*
X02199Y02315*
X02195Y02316*
X02195Y02316*
X02195Y0232*
X02194Y02316*
X02193Y02316*
X02188Y02315*
X02183Y02312*
X02163Y02292*
X02155Y023*
X02175Y0232*
X02178Y02324*
X0218Y0233*
X02179Y0233*
X02181Y02332*
X02179Y02332*
X02179Y02332*
X02178Y02335*
X02175Y0234*
X02174Y02341*
X02174Y02347*
X02184Y02358*
X02185Y02358*
X02192Y02363*
X02197Y02369*
X02198Y02377*
X02197Y02385*
X02192Y02392*
X02185Y02397*
X02177Y02398*
X02172Y02397*
X02171Y02399*
X02169Y02402*
X0217Y02409*
X02168Y02417*
X02164Y02423*
X02157Y02428*
X02149Y02429*
X02141Y02428*
X02138Y02426*
X02136Y02426*
X02133Y02428*
X02131Y02435*
X02127Y02442*
X02122Y02445*
X0212Y02451*
X02121Y02452*
X02122Y0246*
X02121Y02468*
X02116Y02475*
X02109Y02479*
X02101Y02481*
X02093Y02479*
X02087Y02475*
X02082Y02468*
X02081Y0246*
X02081Y02459*
X02071Y02449*
X02065Y0245*
X02064Y02451*
X02059Y02454*
X02054Y02455*
X02049Y02454*
X02044Y02451*
X02004Y02411*
X02001Y02406*
X01999Y02401*
X02001Y02395*
X02004Y02391*
X02008Y02388*
X02013Y02387*
X02014Y02381*
X02018Y02377*
X02022Y02374*
X02027Y02373*
X02028Y02368*
X02031Y02363*
X02036Y0236*
X02041Y02359*
X02042Y02354*
X02042Y02354*
X0204Y02349*
X01996*
X01982Y02362*
X0198Y02364*
X01976Y02365*
X01973Y02364*
X01971Y02362*
X01952Y02344*
X01952Y02344*
X01947Y02341*
X01936Y02329*
X01912Y02353*
X0191Y02355*
X01907Y02355*
X01904Y02355*
X01901Y02353*
X01868Y02319*
X01866Y02317*
X01865Y02314*
X01866Y0231*
X01868Y02308*
X01883Y02292*
X01882Y02287*
X01881Y02287*
X01874Y02282*
X0187Y02276*
X01868Y02268*
X0187Y0226*
X01874Y02253*
X01881Y02248*
X01889Y02247*
X01897Y02248*
X01904Y02253*
X01909Y0226*
X01909Y02262*
X0191Y02263*
X01911Y02263*
X01915Y0226*
X01916Y02258*
X01918Y02255*
X01927Y02245*
X01951Y02269*
X01966Y02255*
X01942Y02231*
X01951Y02221*
X01955Y02219*
X01955Y02219*
X01956Y02218*
X01959Y02214*
X01959Y02213*
X01958Y02212*
X01959Y02209*
X01961Y02206*
X01968Y02199*
X01968Y02196*
X01963Y02189*
X01962Y02181*
X01963Y02173*
X01968Y02166*
X01975Y02162*
X01983Y0216*
X01991Y02162*
X01997Y02166*
X02Y0217*
X02003Y02171*
X02006Y02173*
X02039Y02206*
X02041Y02209*
X02042Y02212*
X02046Y02213*
X02047Y02213*
X02052Y02209*
X02052Y02208*
X0205Y02204*
X02048Y02203*
X02045Y02201*
X02035Y02191*
X02059Y02167*
X02052Y0216*
X02059Y02153*
X02035Y02129*
X02045Y0212*
X02045Y02117*
X02023Y02095*
X0201*
X01991Y02114*
X01988Y02116*
X01985Y02116*
X01982Y02116*
X0198Y02114*
X01943Y02078*
X01942Y02075*
X01941Y02072*
X01941Y02071*
X01938Y02067*
X01937Y02067*
X01935Y02066*
X01932Y02064*
X01907Y02039*
X01905Y02037*
X01905Y02034*
X01905Y02033*
X01905Y02033*
X019Y0203*
X01899Y0203*
X01895Y02029*
X01892Y02027*
X01886Y02021*
X01906Y02002*
X01926Y01982*
X01931Y01987*
X01933Y01991*
X01934Y01995*
X01934Y01996*
X01938Y02*
X01938Y02*
X01938Y02*
X01941Y02001*
X01944Y02003*
X01969Y02028*
X0197Y0203*
X01971Y02033*
X01972Y02034*
X01976Y02036*
X01977Y02036*
X0198Y02037*
X01983Y02038*
X02012Y02068*
X02025*
X02028Y02068*
X02029Y02063*
Y02053*
X01999Y02022*
X01997Y02019*
X01997Y02016*
X01997Y02015*
X01993Y02011*
X01993Y02011*
X01993Y02011*
X01989Y02011*
X01987Y02009*
X01962Y01984*
X0196Y01981*
X01959Y01978*
X01959Y01978*
X01959Y01978*
X01955Y01974*
X01954Y01974*
X0195Y01974*
X01946Y01971*
X01941Y01966*
X01961Y01946*
X0198Y01926*
X01986Y01932*
X01988Y01935*
X01989Y01939*
X01989Y01941*
X01992Y01945*
X01992Y01945*
X01993Y01945*
X01996Y01945*
X01998Y01947*
X02023Y01972*
X02025Y01975*
X02026Y01977*
X02027Y01979*
X0203Y01981*
X02033Y0198*
X02036Y01981*
X02038Y01983*
X02075Y02019*
X02076Y02022*
X02077Y02025*
X02076Y02028*
X02075Y0203*
X02056Y02049*
Y02063*
X0219Y02196*
X02196Y02196*
X02197Y02194*
X02202Y02191*
X02208Y0219*
X02209Y0219*
X02209Y02187*
X02212Y02182*
X02214Y02181*
X02214Y02175*
X02188Y02149*
X02185Y02144*
X02184Y02139*
Y01863*
X01558*
X01555Y01867*
X01555Y01867*
X01554Y01876*
X0155Y01884*
X01545Y01891*
X01538Y01896*
X0153Y01899*
X01527Y019*
Y02174*
X01528Y02177*
X0153Y02185*
X01528Y02193*
X01527Y02195*
Y02259*
X01527Y0226*
X01529Y02268*
X01527Y02276*
X01527Y02276*
Y02323*
X0153Y02324*
X01532Y02325*
X01539Y02319*
X01548Y02315*
X01558Y02314*
X01568Y02315*
X01577Y02319*
X01585Y02325*
X01591Y02333*
X01595Y02342*
X01596Y02351*
X01595Y02361*
X01591Y0237*
X01585Y02378*
X01577Y02384*
X01568Y02388*
X01558Y02389*
X01548Y02388*
X01539Y02384*
X01532Y02378*
X0153Y02379*
X01527Y0238*
Y02777*
X01527Y0278*
Y02811*
X01527Y02814*
Y02817*
X01527Y02819*
Y02864*
X01531*
X01534Y02865*
X01537Y02867*
X01538Y0287*
X01539Y02873*
Y02933*
X01538Y02936*
X01537Y02938*
X01534Y0294*
X01531Y02941*
X01527*
Y03043*
X01526Y0305*
X01522Y03056*
X01513Y03065*
Y03121*
X01512Y03124*
X0151Y03127*
X01508Y03129*
X01505Y03129*
X01435*
X01431Y03129*
X01429Y03127*
X01427Y03124*
X01426Y03121*
Y03051*
X01427Y03048*
X01429Y03045*
X01431Y03044*
X01435Y03043*
X01482*
X0149Y03035*
Y02941*
X01471*
X01468Y0294*
X01465Y02938*
X01463Y02936*
X01463Y02933*
Y02873*
X01463Y0287*
X01465Y02867*
X01468Y02865*
X01471Y02864*
X0149*
Y02821*
X0149Y02819*
X01487*
X01484Y02819*
X01482Y02817*
X0148Y02814*
X01479Y02811*
Y02808*
X01423*
X0142Y02815*
X01414Y02823*
X01406Y02829*
X01396Y02833*
X01387Y02835*
X01377Y02833*
X01367Y02829*
X01359Y02823*
X01353Y02815*
X01349Y02806*
X01348Y02796*
X01349Y02786*
X01353Y02777*
X01359Y02769*
X01367Y02763*
X01377Y02759*
X01387Y02758*
X01396Y02759*
X01406Y02763*
X01414Y02769*
X0142Y02777*
X01422Y02782*
X01479*
Y0278*
X0148Y02777*
X01482Y02774*
X01484Y02772*
X01487Y02772*
X0149*
Y02516*
X01485Y02513*
X01481Y02516*
X01473Y02518*
X01465Y02516*
X01458Y02512*
X01453Y02505*
X01452Y02497*
X01453Y02489*
X01458Y02482*
X01459Y02481*
Y01863*
X011*
Y02324*
X01105Y02325*
X01105Y02325*
X01113Y02319*
X01122Y02315*
X01132Y02314*
X01142Y02315*
X01151Y02319*
X01159Y02325*
X01165Y02333*
X01168Y02342*
X0117Y02351*
X01168Y02361*
X01165Y0237*
X01159Y02378*
X01151Y02384*
X01142Y02388*
X01132Y02389*
X01122Y02388*
X01113Y02384*
X01105Y02378*
X01105Y02378*
X011Y02379*
Y02473*
X01105Y02475*
X01105Y02474*
X01113Y02468*
X01122Y02465*
X01132Y02463*
X01142Y02465*
X01151Y02468*
X01159Y02474*
X01165Y02482*
X01168Y02491*
X0117Y02501*
X01168Y02511*
X01165Y0252*
X01159Y02528*
X01151Y02534*
X01142Y02538*
X01132Y02539*
X01122Y02538*
X01113Y02534*
X01105Y02528*
X01105Y02527*
X011Y02529*
Y02583*
X01102Y02584*
X01106Y02591*
X01108Y02599*
X01106Y02607*
X01102Y02613*
X01095Y02618*
X01087Y0262*
X01079Y02618*
X01072Y02613*
X01068Y02607*
X01066Y02599*
X01068Y02591*
X01072Y02584*
X01073Y02583*
Y01863*
X00727*
Y02615*
X00732Y0262*
X00736Y02619*
X00744Y02621*
X00751Y02625*
X00755Y02632*
X00757Y0264*
X00755Y02648*
X00751Y02655*
X00744Y02659*
X00736Y02661*
X00728Y02659*
X00721Y02655*
X00717Y02648*
X00715Y02641*
X00704Y0263*
X00703Y02627*
X00698Y02629*
Y02666*
X00705Y02673*
X00706Y02673*
X00714Y02672*
X00722Y02673*
X00728Y02678*
X00733Y02685*
X00734Y02693*
X00733Y02701*
X00728Y02707*
X00722Y02712*
X00714Y02713*
X00706Y02712*
X00699Y02707*
X00694Y02701*
X00694Y02699*
X00675Y02681*
X00672Y02676*
X00671Y02671*
Y01863*
X00026*
Y03356*
Y03366*
X0003Y03385*
X00037Y03403*
X00048Y03419*
X00055Y03426*
X0009Y03461*
X00097Y03468*
X00113Y03479*
X00128Y03485*
X00136Y03487*
X00155Y03488*
X0016Y03488*
X03139*
G37*
G36*
X02277Y02066D02*
X02284Y02062D01*
X02286Y02061*
X0229Y02055*
X02289Y02052*
X02291Y02044*
X02295Y02037*
X02302Y02033*
X0231Y02031*
X02318Y02033*
X02325Y02037*
X02329Y02044*
X0233Y02045*
X02335Y02045*
Y02011*
X02336Y02005*
X02339Y02001*
X02354Y01985*
Y01957*
X02355Y01954*
X02357Y01951*
X02359Y01949*
X02362Y01949*
Y01943*
X02344*
X0234Y01942*
X02338Y0194*
X02336Y01938*
X02335Y01935*
Y01887*
X02336Y01884*
X02338Y01882*
X0234Y0188*
X02344Y01879*
X02362*
Y01872*
X02361Y01871*
X02356Y01864*
X02356Y01863*
X02269*
Y02069*
X02274Y02071*
X02277Y02066*
G37*
G36*
X02692Y02256D02*
Y01863D01*
X02674*
Y01866*
X02648*
X02622*
Y01863*
X02395*
X02395Y01864*
X0239Y01871*
X02388Y01872*
Y01879*
X02391*
X02394Y0188*
X02397Y01882*
X02398Y01884*
X02399Y01887*
Y01935*
X02398Y01938*
X02397Y0194*
X02394Y01942*
X02391Y01943*
X02388*
Y01949*
X02398*
X02401Y01949*
X02404Y01951*
X02404Y01951*
X02404Y01951*
X02409Y01951*
X02411Y01948*
X02411Y01943*
X0241Y01942*
X02407Y01938*
X02407Y01935*
Y01921*
X02474*
Y01935*
X02473Y01938*
X02471Y01942*
X02468Y01944*
X02464Y01945*
X02462*
X0246Y0195*
X0246Y0195*
X02462Y01953*
X02463Y01957*
Y01985*
X02491Y02013*
X02494Y02017*
X02495Y02022*
Y0205*
X025Y02052*
X02511Y02041*
Y02012*
X02512Y02009*
X02513Y02006*
X02514Y02006*
X02514Y02006*
X02513Y02*
X02512Y02*
X0251Y01996*
X02509Y01992*
Y01985*
X02537*
X02565*
Y01992*
X02564Y01996*
X02562Y02*
X02561Y02*
X0256Y02006*
X0256Y02006*
X0256Y02006*
X02562Y02009*
X02563Y02012*
Y02048*
X02562Y02051*
X0256Y02053*
X02558Y02055*
X02555Y02056*
X02533*
X02512Y02077*
X02512Y02084*
X02514Y02085*
X02517Y02089*
X02518Y02094*
X02523Y02095*
X02528Y02098*
X02531Y02103*
X02532Y02108*
X02537Y02109*
X02541Y02112*
X02545Y02117*
X02546Y02122*
X02551Y02123*
X02555Y02126*
X02556Y02128*
X02563Y02128*
X02629Y02062*
X02629Y02061*
X02628Y02056*
X02626Y02055*
X02625Y02053*
X02624Y02049*
Y02018*
X02625Y02015*
X02626Y02012*
X02629Y0201*
X02632Y0201*
X02664*
X02667Y0201*
X02669Y02012*
X02671Y02015*
X02672Y02018*
Y02049*
X02671Y02053*
X02669Y02055*
X02667Y02057*
X02664Y02058*
X02661*
Y02062*
X0266Y02067*
X02657Y02071*
X02581Y02147*
X02582Y02153*
X02583Y02154*
X02586Y02159*
X02587Y02164*
X02593Y02165*
X02597Y02168*
X02598Y02169*
X02604Y0217*
X02615Y02159*
X02616Y02157*
X0262Y0215*
X02627Y02146*
X02635Y02144*
X02643Y02146*
X0265Y0215*
X02654Y02157*
X02656Y02165*
X02654Y02173*
X0265Y0218*
X02643Y02184*
X02635Y02186*
X02628Y02184*
X02623Y02189*
X02624Y02195*
X02625Y02196*
X02628Y02201*
X02629Y02206*
X02634Y02207*
X02639Y0221*
X02642Y02214*
X02643Y0222*
X02648Y02221*
X02653Y02224*
X02656Y02228*
X02657Y02234*
X02662Y02235*
X02667Y02238*
X0267Y02242*
X02671Y02248*
X02676Y02249*
X02681Y02252*
X02684Y02256*
X02684Y02258*
X02687Y02259*
X02692Y02256*
G37*
%LNpcb_ttc_rf4463f30-2*%
%LPC*%
G36*
X00161Y0147D02*
X00134D01*
Y01432*
X00171*
Y0146*
X0017Y01464*
X00168Y01467*
X00165Y01469*
X00161Y0147*
G37*
G36*
X0187Y01593D02*
X01822D01*
X01774*
Y01566*
X01731*
X01718Y01565*
X01705Y01559*
X01693Y01551*
X01685Y0154*
X0168Y01527*
X01678Y01513*
X0168Y01499*
X01685Y01486*
X01693Y01475*
X01705Y01466*
X01718Y01461*
X01731Y01459*
X01774*
Y01432*
X01822*
X0187*
Y01459*
X02093*
X02107Y01461*
X0212Y01466*
X02131Y01475*
X02139Y01486*
X02145Y01499*
X02146Y01513*
X02145Y01527*
X02139Y0154*
X02131Y01551*
X0212Y01559*
X02107Y01565*
X02093Y01566*
X0187*
Y01593*
G37*
G36*
Y01412D02*
X01832D01*
Y01375*
X01859*
X01863Y01376*
X01867Y01378*
X01869Y01381*
X0187Y01385*
Y01412*
G37*
G36*
X00114Y0147D02*
X00086D01*
X00082Y01469*
X00079Y01467*
X00077Y01464*
X00076Y0146*
Y01432*
X00114*
Y0147*
G37*
G36*
X01631D02*
X01603D01*
X016Y01469*
X01596Y01467*
X01594Y01464*
X01593Y0146*
Y01432*
X01631*
Y0147*
G37*
G36*
X01678D02*
X01651D01*
Y01432*
X01688*
Y0146*
X01688Y01464*
X01685Y01467*
X01682Y01469*
X01678Y0147*
G37*
G36*
X01812Y01412D02*
X01774D01*
Y01385*
X01775Y01381*
X01777Y01378*
X01781Y01376*
X01785Y01375*
X01812*
Y01412*
G37*
G36*
X01338Y01401D02*
X01304D01*
X01292Y014*
X01281Y01395*
X01272Y01388*
X01265Y01378*
X0126Y01367*
X0126Y01365*
X01338*
Y01401*
G37*
G36*
X00511D02*
X00477D01*
X00466Y014*
X00455Y01395*
X00445Y01388*
X00438Y01378*
X00433Y01367*
X00433Y01365*
X00511*
Y01401*
G37*
G36*
X01391D02*
X01358D01*
Y01365*
X01435*
X01435Y01367*
X01431Y01378*
X01423Y01388*
X01414Y01395*
X01403Y014*
X01391Y01401*
G37*
G36*
X00564D02*
X00531D01*
Y01365*
X00609*
X00608Y01367*
X00604Y01378*
X00596Y01388*
X00587Y01395*
X00576Y014*
X00564Y01401*
G37*
G36*
X02041D02*
X02007D01*
X01996Y014*
X01984Y01395*
X01975Y01388*
X01968Y01378*
X01963Y01367*
X01963Y01365*
X02041*
Y01401*
G37*
G36*
X00352Y01412D02*
X00315D01*
Y01375*
X00342*
X00346Y01376*
X00349Y01378*
X00351Y01381*
X00352Y01385*
Y01412*
G37*
G36*
X00295D02*
X00257D01*
Y01385*
X00258Y01381*
X0026Y01378*
X00263Y01376*
X00267Y01375*
X00295*
Y01412*
G37*
G36*
X01688D02*
X01651D01*
Y01375*
X01678*
X01682Y01376*
X01685Y01378*
X01688Y01381*
X01688Y01385*
Y01412*
G37*
G36*
X01631D02*
X01593D01*
Y01385*
X01594Y01381*
X01596Y01378*
X016Y01376*
X01603Y01375*
X01631*
Y01412*
G37*
G36*
X02921Y01401D02*
X02887D01*
Y01365*
X02965*
X02965Y01367*
X0296Y01378*
X02953Y01388*
X02944Y01395*
X02933Y014*
X02921Y01401*
G37*
G36*
X02094D02*
X02061D01*
Y01365*
X02139*
X02138Y01367*
X02134Y01378*
X02126Y01388*
X02117Y01395*
X02106Y014*
X02094Y01401*
G37*
G36*
X00171Y01412D02*
X00134D01*
Y01375*
X00161*
X00165Y01376*
X00168Y01378*
X0017Y01381*
X00171Y01385*
Y01412*
G37*
G36*
X00114D02*
X00076D01*
Y01385*
X00077Y01381*
X00079Y01378*
X00082Y01376*
X00086Y01375*
X00114*
Y01412*
G37*
G36*
X01688Y01593D02*
X01651D01*
Y01556*
X01678*
X01682Y01557*
X01685Y01559*
X01688Y01562*
X01688Y01566*
Y01593*
G37*
G36*
X01631D02*
X01593D01*
Y01566*
X01594Y01562*
X01596Y01559*
X016Y01557*
X01603Y01556*
X01631*
Y01593*
G37*
G36*
X00171D02*
X00134D01*
Y01556*
X00161*
X00165Y01557*
X00168Y01559*
X0017Y01562*
X00171Y01566*
Y01593*
G37*
G36*
X00114D02*
X00076D01*
Y01566*
X00077Y01562*
X00079Y01559*
X00082Y01557*
X00086Y01556*
X00114*
Y01593*
G37*
G36*
X01631Y01651D02*
X01603D01*
X016Y0165*
X01596Y01648*
X01594Y01645*
X01593Y01641*
Y01613*
X01631*
Y01651*
G37*
G36*
X01812D02*
X01785D01*
X01781Y0165*
X01777Y01648*
X01775Y01645*
X01774Y01641*
Y01613*
X01812*
Y01651*
G37*
G36*
X00305Y01603D02*
D01*
Y01593*
X00257*
Y01566*
X00214*
X002Y01565*
X00187Y01559*
X00176Y01551*
X00168Y0154*
X00162Y01527*
X0016Y01513*
X00162Y01499*
X00168Y01486*
X00176Y01475*
X00187Y01466*
X002Y01461*
X00214Y01459*
X00257*
Y01432*
X00305*
X00352*
Y01459*
X00479*
X00563*
X00577Y01461*
X0059Y01466*
X00601Y01475*
X00609Y01486*
X00615Y01499*
X00616Y01513*
X00615Y01527*
X00609Y0154*
X00601Y01551*
X0059Y01559*
X00577Y01565*
X00563Y01566*
X00537*
X00352*
Y01593*
X00305*
Y01603*
G37*
G36*
X01391Y01565D02*
X01304D01*
X01291Y01564*
X01278Y01558*
X01267Y0155*
X01259Y01539*
X01254Y01526*
X01252Y01515*
X01142Y01405*
X01136Y01398*
X01133Y01389*
X01132Y01379*
Y00671*
X01133Y00661*
X01136Y00652*
X01142Y00645*
X0116Y00627*
X01163Y00619*
X0117Y0061*
X01179Y00603*
X01189Y00599*
X012Y00598*
X0121Y00599*
X0122Y00603*
X01229Y0061*
X01236Y00619*
X0124Y00629*
X01241Y0064*
X0124Y00651*
X01236Y00661*
X01229Y00669*
X0122Y00676*
X01212Y0068*
X01205Y00686*
Y01364*
X01302Y01461*
X01304Y0146*
X01391*
X01404Y01462*
X01417Y01467*
X01428Y01476*
X01436Y01487*
X01441Y01499*
X01443Y01513*
X01441Y01526*
X01436Y01539*
X01428Y0155*
X01417Y01558*
X01404Y01564*
X01391Y01565*
G37*
G36*
X0027Y0063D02*
X00235D01*
Y00596*
X00241Y00596*
X0025Y006*
X00259Y00607*
X00265Y00615*
X00269Y00625*
X0027Y0063*
G37*
G36*
X00225D02*
X00191D01*
X00191Y00625*
X00195Y00615*
X00202Y00607*
X0021Y006*
X0022Y00596*
X00225Y00596*
Y0063*
G37*
G36*
Y00675D02*
X0022Y00674D01*
X0021Y0067*
X00202Y00664*
X00195Y00656*
X00191Y00646*
X00191Y0064*
X00225*
Y00675*
G37*
G36*
X01391Y00778D02*
X01304D01*
X01291Y00776*
X01278Y00771*
X01267Y00763*
X01259Y00752*
X01259Y00751*
X01254Y00749*
X01252Y0075*
X01244Y00751*
X01237Y0075*
X0123Y00747*
X01224Y00743*
X01219Y00737*
X01216Y0073*
X01215Y00722*
X01216Y00714*
X01219Y00707*
X01224Y00701*
X0123Y00697*
X01237Y00694*
X01244Y00693*
X01252Y00694*
X01259Y00697*
X0126Y00697*
X01267Y00688*
X01278Y0068*
X01291Y00675*
X01304Y00673*
X01391*
X01404Y00675*
X01417Y0068*
X01428Y00688*
X01436Y00699*
X01441Y00712*
X01443Y00725*
X01441Y00739*
X01436Y00752*
X01428Y00763*
X01417Y00771*
X01404Y00776*
X01391Y00778*
G37*
G36*
X00235Y00675D02*
Y0064D01*
X0027*
X00269Y00646*
X00265Y00656*
X00259Y00664*
X0025Y0067*
X00241Y00674*
X00235Y00675*
G37*
G36*
X03008Y00182D02*
X02996D01*
X02992Y00181*
X02989Y00179*
X02987Y00176*
X02986Y00172*
Y00139*
X03008*
Y00182*
G37*
G36*
X03039D02*
X03028D01*
Y00139*
X03049*
Y00172*
X03049Y00176*
X03046Y00179*
X03043Y00181*
X03039Y00182*
G37*
G36*
X03049Y00119D02*
X03028D01*
Y00075*
X03039*
X03043Y00076*
X03046Y00078*
X03049Y00081*
X03049Y00085*
Y00119*
G37*
G36*
X03008D02*
X02986D01*
Y00085*
X02987Y00081*
X02989Y00078*
X02992Y00076*
X02996Y00075*
X03008*
Y00119*
G37*
G36*
X01391Y00456D02*
X01358D01*
Y00421*
X01435*
X01435Y00422*
X01431Y00433*
X01423Y00443*
X01414Y0045*
X01403Y00455*
X01391Y00456*
G37*
G36*
X01338D02*
X01304D01*
X01292Y00455*
X01281Y0045*
X01272Y00443*
X01265Y00433*
X0126Y00422*
X0126Y00421*
X01338*
Y00456*
G37*
G36*
X02921D02*
X02887D01*
Y00421*
X02965*
X02965Y00422*
X0296Y00433*
X02953Y00443*
X02944Y0045*
X02933Y00455*
X02921Y00456*
G37*
G36*
X02867D02*
X02834D01*
X02822Y00455*
X02811Y0045*
X02802Y00443*
X02794Y00433*
X0279Y00422*
X0279Y00421*
X02867*
Y00456*
G37*
G36*
X01435Y00401D02*
X01358D01*
Y00365*
X01391*
X01403Y00366*
X01414Y00371*
X01423Y00378*
X01431Y00388*
X01435Y00399*
X01435Y00401*
G37*
G36*
X01338D02*
X0126D01*
X0126Y00399*
X01265Y00388*
X01272Y00378*
X01281Y00371*
X01292Y00366*
X01304Y00365*
X01338*
Y00401*
G37*
G36*
X02965D02*
X02887D01*
Y00365*
X02921*
X02933Y00366*
X02944Y00371*
X02953Y00378*
X0296Y00388*
X02965Y00399*
X02965Y00401*
G37*
G36*
X02867D02*
X0279D01*
X0279Y00399*
X02794Y00388*
X02802Y00378*
X02811Y00371*
X02822Y00366*
X02834Y00365*
X02867*
Y00401*
G37*
G36*
X01391Y0125D02*
X01304D01*
X01291Y01249*
X01278Y01243*
X01267Y01235*
X01259Y01224*
X01254Y01211*
X01252Y01198*
X01254Y01184*
X01259Y01172*
X01267Y01161*
X01278Y01153*
X01291Y01147*
X01304Y01146*
X01391*
X01404Y01147*
X01417Y01153*
X01428Y01161*
X01436Y01172*
X01441Y01184*
X01443Y01198*
X01441Y01211*
X01436Y01224*
X01428Y01235*
X01417Y01243*
X01404Y01249*
X01391Y0125*
G37*
G36*
X02094D02*
X02007D01*
X01994Y01249*
X01981Y01243*
X0197Y01235*
X01962Y01224*
X01957Y01211*
X01955Y01198*
X01957Y01184*
X01962Y01172*
X0197Y01161*
X01981Y01153*
X01994Y01147*
X02007Y01146*
X02094*
X02108Y01147*
X0212Y01153*
X02131Y01161*
X02139Y01172*
X02145Y01184*
X02146Y01198*
X02145Y01211*
X02139Y01224*
X02131Y01235*
X0212Y01243*
X02108Y01249*
X02094Y0125*
G37*
G36*
X02139Y01345D02*
X02061D01*
Y0131*
X02094*
X02106Y01311*
X02117Y01316*
X02126Y01323*
X02134Y01332*
X02138Y01344*
X02139Y01345*
G37*
G36*
X02041D02*
X01963D01*
X01963Y01344*
X01968Y01332*
X01975Y01323*
X01984Y01316*
X01996Y01311*
X02007Y0131*
X02041*
Y01345*
G37*
G36*
X02965D02*
X02887D01*
Y0131*
X02921*
X02933Y01311*
X02944Y01316*
X02953Y01323*
X0296Y01332*
X02965Y01344*
X02965Y01345*
G37*
G36*
X00609D02*
X00531D01*
Y0131*
X00564*
X00576Y01311*
X00587Y01316*
X00596Y01323*
X00604Y01332*
X00608Y01344*
X00609Y01345*
G37*
G36*
X00511D02*
X00433D01*
X00433Y01344*
X00438Y01332*
X00445Y01323*
X00455Y01316*
X00466Y01311*
X00477Y0131*
X00511*
Y01345*
G37*
G36*
X01435D02*
X01358D01*
Y0131*
X01391*
X01403Y01311*
X01414Y01316*
X01423Y01323*
X01431Y01332*
X01435Y01344*
X01435Y01345*
G37*
G36*
X01338D02*
X0126D01*
X0126Y01344*
X01265Y01332*
X01272Y01323*
X01281Y01316*
X01292Y01311*
X01304Y0131*
X01338*
Y01345*
G37*
G36*
X00235Y00856D02*
Y00821D01*
X0027*
X00269Y00827*
X00265Y00837*
X00259Y00845*
X0025Y00851*
X00241Y00855*
X00235Y00856*
G37*
G36*
X00225Y00811D02*
X00191D01*
X00191Y00806*
X00195Y00796*
X00202Y00788*
X0021Y00781*
X0022Y00777*
X00225Y00777*
Y00811*
G37*
G36*
Y00856D02*
X0022Y00855D01*
X0021Y00851*
X00202Y00845*
X00195Y00837*
X00191Y00827*
X00191Y00821*
X00225*
Y00856*
G37*
G36*
X0027Y00811D02*
X00235D01*
Y00777*
X00241Y00777*
X0025Y00781*
X00259Y00788*
X00265Y00796*
X00269Y00806*
X0027Y00811*
G37*
G36*
X01391Y01093D02*
X01304D01*
X01291Y01091*
X01278Y01086*
X01267Y01078*
X01259Y01067*
X01254Y01054*
X01252Y0104*
X01254Y01027*
X01259Y01014*
X01267Y01003*
X01278Y00995*
X01291Y0099*
X01304Y00988*
X01391*
X01404Y0099*
X01417Y00995*
X01428Y01003*
X01436Y01014*
X01441Y01027*
X01443Y0104*
X01441Y01054*
X01436Y01067*
X01428Y01078*
X01417Y01086*
X01404Y01091*
X01391Y01093*
G37*
G36*
X01678Y01651D02*
X01651D01*
Y01613*
X01688*
Y01641*
X01688Y01645*
X01685Y01648*
X01682Y0165*
X01678Y01651*
G37*
G36*
X01859D02*
X01832D01*
Y01613*
X0187*
Y01641*
X01869Y01645*
X01867Y01648*
X01863Y0165*
X01859Y01651*
G37*
G36*
X00295D02*
X00267D01*
X00263Y0165*
X0026Y01648*
X00258Y01645*
X00257Y01641*
Y01613*
X00295*
Y01651*
G37*
G36*
X00114D02*
X00086D01*
X00082Y0165*
X00079Y01648*
X00077Y01645*
X00076Y01641*
Y01613*
X00114*
Y01651*
G37*
G36*
X00342D02*
X00315D01*
Y01613*
X00352*
Y01641*
X00351Y01645*
X00349Y01648*
X00346Y0165*
X00342Y01651*
G37*
G36*
X00161D02*
X00134D01*
Y01613*
X00171*
Y01641*
X0017Y01645*
X00168Y01648*
X00165Y0165*
X00161Y01651*
G37*
G36*
X03191Y01483D02*
X03162D01*
X03162Y01482*
X03166Y01473*
X03172Y01464*
X03181Y01458*
X0319Y01454*
X03191Y01454*
Y01483*
G37*
G36*
X03539D02*
X03511D01*
Y01454*
X03511Y01454*
X03521Y01458*
X03529Y01464*
X03535Y01473*
X03539Y01482*
X03539Y01483*
G37*
G36*
X03391D02*
X03362D01*
X03362Y01482*
X03366Y01473*
X03372Y01464*
X03381Y01458*
X0339Y01454*
X03391Y01454*
Y01483*
G37*
G36*
X03291D02*
X03262D01*
X03262Y01482*
X03266Y01473*
X03272Y01464*
X03281Y01458*
X0329Y01454*
X03291Y01454*
Y01483*
G37*
G36*
X03239D02*
X03211D01*
Y01454*
X03211Y01454*
X03221Y01458*
X03229Y01464*
X03235Y01473*
X03239Y01482*
X03239Y01483*
G37*
G36*
X03439D02*
X03411D01*
Y01454*
X03411Y01454*
X03421Y01458*
X03429Y01464*
X03435Y01473*
X03439Y01482*
X03439Y01483*
G37*
G36*
X03339D02*
X03311D01*
Y01454*
X03311Y01454*
X03321Y01458*
X03329Y01464*
X03335Y01473*
X03339Y01482*
X03339Y01483*
G37*
G36*
X03301Y0143D02*
X03291Y01429D01*
X03282Y01425*
X03274Y01419*
X03268Y01411*
X03264Y01402*
X03263Y01393*
X03264Y01383*
X03268Y01374*
X03274Y01366*
X03282Y0136*
X03291Y01356*
X03301Y01355*
X0331Y01356*
X0332Y0136*
X03327Y01366*
X03333Y01374*
X03337Y01383*
X03339Y01393*
X03337Y01402*
X03333Y01411*
X03327Y01419*
X0332Y01425*
X0331Y01429*
X03301Y0143*
G37*
G36*
X03201D02*
X03191Y01429D01*
X03182Y01425*
X03174Y01419*
X03168Y01411*
X03164Y01402*
X03163Y01393*
X03164Y01383*
X03168Y01374*
X03174Y01366*
X03182Y0136*
X03191Y01356*
X03201Y01355*
X0321Y01356*
X0322Y0136*
X03227Y01366*
X03233Y01374*
X03237Y01383*
X03239Y01393*
X03237Y01402*
X03233Y01411*
X03227Y01419*
X0322Y01425*
X0321Y01429*
X03201Y0143*
G37*
G36*
X03501D02*
X03491Y01429D01*
X03482Y01425*
X03474Y01419*
X03468Y01411*
X03464Y01402*
X03463Y01393*
X03464Y01383*
X03468Y01374*
X03474Y01366*
X03482Y0136*
X03491Y01356*
X03501Y01355*
X0351Y01356*
X0352Y0136*
X03527Y01366*
X03533Y01374*
X03537Y01383*
X03539Y01393*
X03537Y01402*
X03533Y01411*
X03527Y01419*
X0352Y01425*
X0351Y01429*
X03501Y0143*
G37*
G36*
X03401D02*
X03391Y01429D01*
X03382Y01425*
X03374Y01419*
X03368Y01411*
X03364Y01402*
X03363Y01393*
X03364Y01383*
X03368Y01374*
X03374Y01366*
X03382Y0136*
X03391Y01356*
X03401Y01355*
X0341Y01356*
X0342Y0136*
X03427Y01366*
X03433Y01374*
X03437Y01383*
X03439Y01393*
X03437Y01402*
X03433Y01411*
X03427Y01419*
X0342Y01425*
X0341Y01429*
X03401Y0143*
G37*
G36*
X03291Y01631D02*
X0329Y01631D01*
X03281Y01627*
X03272Y01621*
X03266Y01612*
X03262Y01603*
X03262Y01603*
X03291*
Y01631*
G37*
G36*
X03191D02*
X0319Y01631D01*
X03181Y01627*
X03172Y01621*
X03166Y01612*
X03162Y01603*
X03162Y01603*
X03191*
Y01631*
G37*
G36*
X03491Y01583D02*
X03462D01*
X03462Y01582*
X03466Y01573*
X03472Y01564*
X03481Y01558*
X0349Y01554*
X03491Y01554*
Y01583*
G37*
G36*
X03391D02*
X03362D01*
X03362Y01582*
X03366Y01573*
X03372Y01564*
X03381Y01558*
X0339Y01554*
X03391Y01554*
Y01583*
G37*
G36*
X03511Y01631D02*
Y01603D01*
X03539*
X03539Y01603*
X03535Y01612*
X03529Y01621*
X03521Y01627*
X03511Y01631*
X03511Y01631*
G37*
G36*
X03411D02*
Y01603D01*
X03439*
X03439Y01603*
X03435Y01612*
X03429Y01621*
X03421Y01627*
X03411Y01631*
X03411Y01631*
G37*
G36*
X03491D02*
X0349Y01631D01*
X03481Y01627*
X03472Y01621*
X03466Y01612*
X03462Y01603*
X03462Y01603*
X03491*
Y01631*
G37*
G36*
X03391D02*
X0339Y01631D01*
X03381Y01627*
X03372Y01621*
X03366Y01612*
X03362Y01603*
X03362Y01603*
X03391*
Y01631*
G37*
G36*
X03311D02*
Y01603D01*
X03339*
X03339Y01603*
X03335Y01612*
X03329Y01621*
X03321Y01627*
X03311Y01631*
X03311Y01631*
G37*
G36*
X03211D02*
Y01603D01*
X03239*
X03239Y01603*
X03235Y01612*
X03229Y01621*
X03221Y01627*
X03211Y01631*
X03211Y01631*
G37*
G36*
X03291Y01583D02*
X03262D01*
X03262Y01582*
X03266Y01573*
X03272Y01564*
X03281Y01558*
X0329Y01554*
X03291Y01554*
Y01583*
G37*
G36*
X03391Y01531D02*
X0339Y01531D01*
X03381Y01527*
X03372Y01521*
X03366Y01512*
X03362Y01503*
X03362Y01503*
X03391*
Y01531*
G37*
G36*
X03291D02*
X0329Y01531D01*
X03281Y01527*
X03272Y01521*
X03266Y01512*
X03262Y01503*
X03262Y01503*
X03291*
Y01531*
G37*
G36*
X03211D02*
Y01503D01*
X03239*
X03239Y01503*
X03235Y01512*
X03229Y01521*
X03221Y01527*
X03211Y01531*
X03211Y01531*
G37*
G36*
X03491D02*
X0349Y01531D01*
X03481Y01527*
X03472Y01521*
X03466Y01512*
X03462Y01503*
X03462Y01503*
X03491*
Y01531*
G37*
G36*
Y01483D02*
X03462D01*
X03462Y01482*
X03466Y01473*
X03472Y01464*
X03481Y01458*
X0349Y01454*
X03491Y01454*
Y01483*
G37*
G36*
X03191Y01531D02*
X0319Y01531D01*
X03181Y01527*
X03172Y01521*
X03166Y01512*
X03162Y01503*
X03162Y01503*
X03191*
Y01531*
G37*
G36*
X03439Y01583D02*
X03411D01*
Y01554*
X03411Y01554*
X03421Y01558*
X03429Y01564*
X03435Y01573*
X03439Y01582*
X03439Y01583*
G37*
G36*
X03339D02*
X03311D01*
Y01554*
X03311Y01554*
X03321Y01558*
X03329Y01564*
X03335Y01573*
X03339Y01582*
X03339Y01583*
G37*
G36*
X03191D02*
X03162D01*
X03162Y01582*
X03166Y01573*
X03172Y01564*
X03181Y01558*
X0319Y01554*
X03191Y01554*
Y01583*
G37*
G36*
X03539D02*
X03511D01*
Y01554*
X03511Y01554*
X03521Y01558*
X03529Y01564*
X03535Y01573*
X03539Y01582*
X03539Y01583*
G37*
G36*
X03411Y01531D02*
Y01503D01*
X03439*
X03439Y01503*
X03435Y01512*
X03429Y01521*
X03421Y01527*
X03411Y01531*
X03411Y01531*
G37*
G36*
X03311D02*
Y01503D01*
X03339*
X03339Y01503*
X03335Y01512*
X03329Y01521*
X03321Y01527*
X03311Y01531*
X03311Y01531*
G37*
G36*
X03239Y01583D02*
X03211D01*
Y01554*
X03211Y01554*
X03221Y01558*
X03229Y01564*
X03235Y01573*
X03239Y01582*
X03239Y01583*
G37*
G36*
X03511Y01531D02*
Y01503D01*
X03539*
X03539Y01503*
X03535Y01512*
X03529Y01521*
X03521Y01527*
X03511Y01531*
X03511Y01531*
G37*
G36*
X03501Y0063D02*
X03491Y00629D01*
X03482Y00625*
X03474Y00619*
X03468Y00611*
X03464Y00602*
X03463Y00593*
X03464Y00583*
X03468Y00574*
X03474Y00566*
X03482Y0056*
X03491Y00556*
X03501Y00555*
X0351Y00556*
X0352Y0056*
X03527Y00566*
X03533Y00574*
X03537Y00583*
X03539Y00593*
X03537Y00602*
X03533Y00611*
X03527Y00619*
X0352Y00625*
X0351Y00629*
X03501Y0063*
G37*
G36*
X03401D02*
X03391Y00629D01*
X03382Y00625*
X03374Y00619*
X03368Y00611*
X03364Y00602*
X03363Y00593*
X03364Y00583*
X03368Y00574*
X03374Y00566*
X03382Y0056*
X03391Y00556*
X03401Y00555*
X0341Y00556*
X0342Y0056*
X03427Y00566*
X03433Y00574*
X03437Y00583*
X03439Y00593*
X03437Y00602*
X03433Y00611*
X03427Y00619*
X0342Y00625*
X0341Y00629*
X03401Y0063*
G37*
G36*
X03501Y0053D02*
X03491Y00529D01*
X03482Y00525*
X03474Y00519*
X03468Y00511*
X03464Y00502*
X03463Y00493*
X03464Y00483*
X03468Y00474*
X03474Y00466*
X03482Y0046*
X03491Y00456*
X03501Y00455*
X0351Y00456*
X0352Y0046*
X03527Y00466*
X03533Y00474*
X03537Y00483*
X03539Y00493*
X03537Y00502*
X03533Y00511*
X03527Y00519*
X0352Y00525*
X0351Y00529*
X03501Y0053*
G37*
G36*
X03401D02*
X03391Y00529D01*
X03382Y00525*
X03374Y00519*
X03368Y00511*
X03364Y00502*
X03363Y00493*
X03364Y00483*
X03368Y00474*
X03374Y00466*
X03382Y0046*
X03391Y00456*
X03401Y00455*
X0341Y00456*
X0342Y0046*
X03427Y00466*
X03433Y00474*
X03437Y00483*
X03439Y00493*
X03437Y00502*
X03433Y00511*
X03427Y00519*
X0342Y00525*
X0341Y00529*
X03401Y0053*
G37*
G36*
X03301Y0063D02*
X03291Y00629D01*
X03282Y00625*
X03274Y00619*
X03268Y00611*
X03264Y00602*
X03263Y00593*
X03264Y00583*
X03268Y00574*
X03274Y00566*
X03282Y0056*
X03291Y00556*
X03301Y00555*
X0331Y00556*
X0332Y0056*
X03327Y00566*
X03333Y00574*
X03337Y00583*
X03339Y00593*
X03337Y00602*
X03333Y00611*
X03327Y00619*
X0332Y00625*
X0331Y00629*
X03301Y0063*
G37*
G36*
X03201D02*
X03191Y00629D01*
X03182Y00625*
X03174Y00619*
X03168Y00611*
X03164Y00602*
X03163Y00593*
X03164Y00583*
X03168Y00574*
X03174Y00566*
X03182Y0056*
X03191Y00556*
X03201Y00555*
X0321Y00556*
X0322Y0056*
X03227Y00566*
X03233Y00574*
X03237Y00583*
X03239Y00593*
X03237Y00602*
X03233Y00611*
X03227Y00619*
X0322Y00625*
X0321Y00629*
X03201Y0063*
G37*
G36*
X03501Y0073D02*
X03491Y00729D01*
X03482Y00725*
X03474Y00719*
X03468Y00711*
X03464Y00702*
X03463Y00693*
X03464Y00683*
X03468Y00674*
X03474Y00666*
X03482Y0066*
X03491Y00656*
X03501Y00655*
X0351Y00656*
X0352Y0066*
X03527Y00666*
X03533Y00674*
X03537Y00683*
X03539Y00693*
X03537Y00702*
X03533Y00711*
X03527Y00719*
X0352Y00725*
X0351Y00729*
X03501Y0073*
G37*
G36*
X03301Y0083D02*
X03291Y00829D01*
X03282Y00825*
X03274Y00819*
X03268Y00811*
X03264Y00802*
X03263Y00793*
X03264Y00783*
X03268Y00774*
X03274Y00766*
X03282Y0076*
X03291Y00756*
X03301Y00755*
X0331Y00756*
X0332Y0076*
X03327Y00766*
X03333Y00774*
X03337Y00783*
X03339Y00793*
X03337Y00802*
X03333Y00811*
X03327Y00819*
X0332Y00825*
X0331Y00829*
X03301Y0083*
G37*
G36*
X03201D02*
X03191Y00829D01*
X03182Y00825*
X03174Y00819*
X03168Y00811*
X03164Y00802*
X03163Y00793*
X03164Y00783*
X03168Y00774*
X03174Y00766*
X03182Y0076*
X03191Y00756*
X03201Y00755*
X0321Y00756*
X0322Y0076*
X03227Y00766*
X03233Y00774*
X03237Y00783*
X03239Y00793*
X03237Y00802*
X03233Y00811*
X03227Y00819*
X0322Y00825*
X0321Y00829*
X03201Y0083*
G37*
G36*
Y0073D02*
X03191Y00729D01*
X03182Y00725*
X03174Y00719*
X03168Y00711*
X03164Y00702*
X03163Y00693*
X03164Y00683*
X03168Y00674*
X03174Y00666*
X03182Y0066*
X03191Y00656*
X03201Y00655*
X0321Y00656*
X0322Y0066*
X03227Y00666*
X03233Y00674*
X03237Y00683*
X03239Y00693*
X03237Y00702*
X03233Y00711*
X03227Y00719*
X0322Y00725*
X0321Y00729*
X03201Y0073*
G37*
G36*
X03401D02*
X03391Y00729D01*
X03382Y00725*
X03374Y00719*
X03368Y00711*
X03364Y00702*
X03363Y00693*
X03364Y00683*
X03368Y00674*
X03374Y00666*
X03382Y0066*
X03391Y00656*
X03401Y00655*
X0341Y00656*
X0342Y0066*
X03427Y00666*
X03433Y00674*
X03437Y00683*
X03439Y00693*
X03437Y00702*
X03433Y00711*
X03427Y00719*
X0342Y00725*
X0341Y00729*
X03401Y0073*
G37*
G36*
X03301D02*
X03291Y00729D01*
X03282Y00725*
X03274Y00719*
X03268Y00711*
X03264Y00702*
X03263Y00693*
X03264Y00683*
X03268Y00674*
X03274Y00666*
X03282Y0066*
X03291Y00656*
X03301Y00655*
X0331Y00656*
X0332Y0066*
X03327Y00666*
X03333Y00674*
X03337Y00683*
X03339Y00693*
X03337Y00702*
X03333Y00711*
X03327Y00719*
X0332Y00725*
X0331Y00729*
X03301Y0073*
G37*
G36*
X03134Y00182D02*
X03122D01*
X03118Y00181*
X03115Y00179*
X03113Y00176*
X03112Y00172*
Y00139*
X03134*
Y00182*
G37*
G36*
X03165D02*
X03154D01*
Y00139*
X03175*
Y00172*
X03175Y00176*
X03172Y00179*
X03169Y00181*
X03165Y00182*
G37*
G36*
X03175Y00119D02*
X03154D01*
Y00075*
X03165*
X03169Y00076*
X03172Y00078*
X03175Y00081*
X03175Y00085*
Y00119*
G37*
G36*
X03134D02*
X03112D01*
Y00085*
X03113Y00081*
X03115Y00078*
X03118Y00076*
X03122Y00075*
X03134*
Y00119*
G37*
G36*
X03501Y0038D02*
X03484Y00378D01*
X03467Y00373*
X03452Y00365*
X03439Y00355*
X03428Y00341*
X0342Y00326*
X03415Y0031*
X03414Y00293*
X03415Y00276*
X0342Y0026*
X03428Y00245*
X03439Y00231*
X03452Y0022*
X03467Y00212*
X03484Y00207*
X03501Y00206*
X03518Y00207*
X03534Y00212*
X03549Y0022*
X03562Y00231*
X03573Y00245*
X03581Y0026*
X03586Y00276*
X03588Y00293*
X03586Y0031*
X03581Y00326*
X03573Y00341*
X03562Y00355*
X03549Y00365*
X03534Y00373*
X03518Y00378*
X03501Y0038*
G37*
G36*
X03401Y0083D02*
X03391Y00829D01*
X03382Y00825*
X03374Y00819*
X03368Y00811*
X03364Y00802*
X03363Y00793*
X03364Y00783*
X03368Y00774*
X03374Y00766*
X03382Y0076*
X03391Y00756*
X03401Y00755*
X0341Y00756*
X0342Y0076*
X03427Y00766*
X03433Y00774*
X03437Y00783*
X03439Y00793*
X03437Y00802*
X03433Y00811*
X03427Y00819*
X0342Y00825*
X0341Y00829*
X03401Y0083*
G37*
G36*
Y0123D02*
X03391Y01229D01*
X03382Y01225*
X03374Y01219*
X03368Y01211*
X03364Y01202*
X03363Y01193*
X03364Y01183*
X03368Y01174*
X03374Y01166*
X03382Y0116*
X03391Y01156*
X03401Y01155*
X0341Y01156*
X0342Y0116*
X03427Y01166*
X03433Y01174*
X03437Y01183*
X03439Y01193*
X03437Y01202*
X03433Y01211*
X03427Y01219*
X0342Y01225*
X0341Y01229*
X03401Y0123*
G37*
G36*
X03301D02*
X03291Y01229D01*
X03282Y01225*
X03274Y01219*
X03268Y01211*
X03264Y01202*
X03263Y01193*
X03264Y01183*
X03268Y01174*
X03274Y01166*
X03282Y0116*
X03291Y01156*
X03301Y01155*
X0331Y01156*
X0332Y0116*
X03327Y01166*
X03333Y01174*
X03337Y01183*
X03339Y01193*
X03337Y01202*
X03333Y01211*
X03327Y01219*
X0332Y01225*
X0331Y01229*
X03301Y0123*
G37*
G36*
X03201Y0133D02*
X03191Y01329D01*
X03182Y01325*
X03174Y01319*
X03168Y01311*
X03164Y01302*
X03163Y01293*
X03164Y01283*
X03168Y01274*
X03174Y01266*
X03182Y0126*
X03191Y01256*
X03201Y01255*
X0321Y01256*
X0322Y0126*
X03227Y01266*
X03233Y01274*
X03237Y01283*
X03239Y01293*
X03237Y01302*
X03233Y01311*
X03227Y01319*
X0322Y01325*
X0321Y01329*
X03201Y0133*
G37*
G36*
X03501Y0123D02*
X03491Y01229D01*
X03482Y01225*
X03474Y01219*
X03468Y01211*
X03464Y01202*
X03463Y01193*
X03464Y01183*
X03468Y01174*
X03474Y01166*
X03482Y0116*
X03491Y01156*
X03501Y01155*
X0351Y01156*
X0352Y0116*
X03527Y01166*
X03533Y01174*
X03537Y01183*
X03539Y01193*
X03537Y01202*
X03533Y01211*
X03527Y01219*
X0352Y01225*
X0351Y01229*
X03501Y0123*
G37*
G36*
Y0113D02*
X03491Y01129D01*
X03482Y01125*
X03474Y01119*
X03468Y01111*
X03464Y01102*
X03463Y01093*
X03464Y01083*
X03468Y01074*
X03474Y01066*
X03482Y0106*
X03491Y01056*
X03501Y01055*
X0351Y01056*
X0352Y0106*
X03527Y01066*
X03533Y01074*
X03537Y01083*
X03539Y01093*
X03537Y01102*
X03533Y01111*
X03527Y01119*
X0352Y01125*
X0351Y01129*
X03501Y0113*
G37*
G36*
X03201Y0123D02*
X03191Y01229D01*
X03182Y01225*
X03174Y01219*
X03168Y01211*
X03164Y01202*
X03163Y01193*
X03164Y01183*
X03168Y01174*
X03174Y01166*
X03182Y0116*
X03191Y01156*
X03201Y01155*
X0321Y01156*
X0322Y0116*
X03227Y01166*
X03233Y01174*
X03237Y01183*
X03239Y01193*
X03237Y01202*
X03233Y01211*
X03227Y01219*
X0322Y01225*
X0321Y01229*
X03201Y0123*
G37*
G36*
X03301Y0133D02*
X03291Y01329D01*
X03282Y01325*
X03274Y01319*
X03268Y01311*
X03264Y01302*
X03263Y01293*
X03264Y01283*
X03268Y01274*
X03274Y01266*
X03282Y0126*
X03291Y01256*
X03301Y01255*
X0331Y01256*
X0332Y0126*
X03327Y01266*
X03333Y01274*
X03337Y01283*
X03339Y01293*
X03337Y01302*
X03333Y01311*
X03327Y01319*
X0332Y01325*
X0331Y01329*
X03301Y0133*
G37*
G36*
X03565Y03094D02*
X03557Y03093D01*
X03549Y03089*
X03542Y03084*
X03536Y03077*
X03533Y03069*
X03532Y03061*
X03533Y03052*
X03536Y03044*
X03542Y03037*
X03549Y03032*
X03552Y0303*
Y01377*
X03505Y0133*
X03501Y0133*
X03491Y01329*
X03482Y01325*
X03474Y01319*
X03471Y01316*
X0343*
X03427Y01319*
X0342Y01325*
X0341Y01329*
X03401Y0133*
X03391Y01329*
X03382Y01325*
X03374Y01319*
X03368Y01311*
X03364Y01302*
X03363Y01293*
X03364Y01283*
X03368Y01274*
X03374Y01266*
X03382Y0126*
X03391Y01256*
X03401Y01255*
X0341Y01256*
X0342Y0126*
X03427Y01266*
X0343Y01269*
X03471*
X03474Y01266*
X03482Y0126*
X03491Y01256*
X03501Y01255*
X0351Y01256*
X0352Y0126*
X03527Y01266*
X03533Y01274*
X03537Y01283*
X03539Y01293*
X03538Y01297*
X03592Y0135*
Y0135*
X03597Y01358*
X03599Y01367*
Y03051*
X03598Y03055*
X03599Y03061*
X03597Y03069*
X03594Y03077*
X03589Y03084*
X03582Y03089*
X03574Y03093*
X03565Y03094*
G37*
G36*
X03201Y0093D02*
X03191Y00929D01*
X03182Y00925*
X03174Y00919*
X03168Y00911*
X03164Y00902*
X03163Y00893*
X03164Y00883*
X03168Y00874*
X03174Y00866*
X03182Y0086*
X03191Y00856*
X03201Y00855*
X0321Y00856*
X0322Y0086*
X03227Y00866*
X03233Y00874*
X03237Y00883*
X03239Y00893*
X03237Y00902*
X03233Y00911*
X03227Y00919*
X0322Y00925*
X0321Y00929*
X03201Y0093*
G37*
G36*
X03401D02*
X03391Y00929D01*
X03382Y00925*
X03374Y00919*
X03368Y00911*
X03364Y00902*
X03363Y00893*
X03364Y00883*
X03368Y00874*
X03374Y00866*
X03382Y0086*
X03391Y00856*
X03401Y00855*
X0341Y00856*
X0342Y0086*
X03427Y00866*
X03433Y00874*
X03437Y00883*
X03439Y00893*
X03437Y00902*
X03433Y00911*
X03427Y00919*
X0342Y00925*
X0341Y00929*
X03401Y0093*
G37*
G36*
X03301D02*
X03291Y00929D01*
X03282Y00925*
X03274Y00919*
X03268Y00911*
X03264Y00902*
X03263Y00893*
X03264Y00883*
X03268Y00874*
X03274Y00866*
X03282Y0086*
X03291Y00856*
X03301Y00855*
X0331Y00856*
X0332Y0086*
X03327Y00866*
X03333Y00874*
X03337Y00883*
X03339Y00893*
X03337Y00902*
X03333Y00911*
X03327Y00919*
X0332Y00925*
X0331Y00929*
X03301Y0093*
G37*
G36*
X03501Y0083D02*
X03491Y00829D01*
X03482Y00825*
X03474Y00819*
X03468Y00811*
X03464Y00802*
X03463Y00793*
X03464Y00783*
X03468Y00774*
X03474Y00766*
X03482Y0076*
X03491Y00756*
X03501Y00755*
X0351Y00756*
X0352Y0076*
X03527Y00766*
X03533Y00774*
X03537Y00783*
X03539Y00793*
X03537Y00802*
X03533Y00811*
X03527Y00819*
X0352Y00825*
X0351Y00829*
X03501Y0083*
G37*
G36*
Y0093D02*
X03491Y00929D01*
X03482Y00925*
X03474Y00919*
X03468Y00911*
X03464Y00902*
X03463Y00893*
X03464Y00883*
X03468Y00874*
X03474Y00866*
X03482Y0086*
X03491Y00856*
X03501Y00855*
X0351Y00856*
X0352Y0086*
X03527Y00866*
X03533Y00874*
X03537Y00883*
X03539Y00893*
X03537Y00902*
X03533Y00911*
X03527Y00919*
X0352Y00925*
X0351Y00929*
X03501Y0093*
G37*
G36*
X03201Y0113D02*
X03191Y01129D01*
X03182Y01125*
X03174Y01119*
X03168Y01111*
X03164Y01102*
X03163Y01093*
X03164Y01083*
X03168Y01074*
X03174Y01066*
X03182Y0106*
X03191Y01056*
X03201Y01055*
X0321Y01056*
X0322Y0106*
X03227Y01066*
X03233Y01074*
X03237Y01083*
X03239Y01093*
X03237Y01102*
X03233Y01111*
X03227Y01119*
X0322Y01125*
X0321Y01129*
X03201Y0113*
G37*
G36*
X03401D02*
X03391Y01129D01*
X03382Y01125*
X03374Y01119*
X03368Y01111*
X03364Y01102*
X03363Y01093*
X03364Y01083*
X03368Y01074*
X03374Y01066*
X03382Y0106*
X03391Y01056*
X03401Y01055*
X0341Y01056*
X0342Y0106*
X03427Y01066*
X03433Y01074*
X03437Y01083*
X03439Y01093*
X03437Y01102*
X03433Y01111*
X03427Y01119*
X0342Y01125*
X0341Y01129*
X03401Y0113*
G37*
G36*
X03301D02*
X03291Y01129D01*
X03282Y01125*
X03274Y01119*
X03268Y01111*
X03264Y01102*
X03263Y01093*
X03264Y01083*
X03268Y01074*
X03274Y01066*
X03282Y0106*
X03291Y01056*
X03301Y01055*
X0331Y01056*
X0332Y0106*
X03327Y01066*
X03333Y01074*
X03337Y01083*
X03339Y01093*
X03337Y01102*
X03333Y01111*
X03327Y01119*
X0332Y01125*
X0331Y01129*
X03301Y0113*
G37*
G36*
Y0103D02*
X03291Y01029D01*
X03282Y01025*
X03274Y01019*
X03268Y01011*
X03264Y01002*
X03263Y00993*
X03264Y00983*
X03268Y00974*
X03274Y00966*
X03282Y0096*
X03291Y00956*
X03301Y00955*
X0331Y00956*
X0332Y0096*
X03327Y00966*
X03333Y00974*
X03337Y00983*
X03339Y00993*
X03337Y01002*
X03333Y01011*
X03327Y01019*
X0332Y01025*
X0331Y01029*
X03301Y0103*
G37*
G36*
X03201D02*
X03191Y01029D01*
X03182Y01025*
X03174Y01019*
X03168Y01011*
X03164Y01002*
X03163Y00993*
X03164Y00983*
X03168Y00974*
X03174Y00966*
X03182Y0096*
X03191Y00956*
X03201Y00955*
X0321Y00956*
X0322Y0096*
X03227Y00966*
X03233Y00974*
X03237Y00983*
X03239Y00993*
X03237Y01002*
X03233Y01011*
X03227Y01019*
X0322Y01025*
X0321Y01029*
X03201Y0103*
G37*
G36*
X03501D02*
X03491Y01029D01*
X03482Y01025*
X03474Y01019*
X03468Y01011*
X03464Y01002*
X03463Y00993*
X03464Y00983*
X03468Y00974*
X03474Y00966*
X03482Y0096*
X03491Y00956*
X03501Y00955*
X0351Y00956*
X0352Y0096*
X03527Y00966*
X03533Y00974*
X03537Y00983*
X03539Y00993*
X03537Y01002*
X03533Y01011*
X03527Y01019*
X0352Y01025*
X0351Y01029*
X03501Y0103*
G37*
G36*
X03401D02*
X03391Y01029D01*
X03382Y01025*
X03374Y01019*
X03368Y01011*
X03364Y01002*
X03363Y00993*
X03364Y00983*
X03368Y00974*
X03374Y00966*
X03382Y0096*
X03391Y00956*
X03401Y00955*
X0341Y00956*
X0342Y0096*
X03427Y00966*
X03433Y00974*
X03437Y00983*
X03439Y00993*
X03437Y01002*
X03433Y01011*
X03427Y01019*
X0342Y01025*
X0341Y01029*
X03401Y0103*
G37*
G36*
Y0293D02*
X03391Y02929D01*
X03382Y02925*
X03374Y02919*
X03368Y02911*
X03364Y02902*
X03363Y02893*
X03364Y02883*
X03368Y02874*
X03374Y02866*
X03382Y0286*
X03391Y02856*
X03401Y02855*
X0341Y02856*
X0342Y0286*
X03427Y02866*
X03433Y02874*
X03437Y02883*
X03439Y02893*
X03437Y02902*
X03433Y02911*
X03427Y02919*
X0342Y02925*
X0341Y02929*
X03401Y0293*
G37*
G36*
X03301D02*
X03291Y02929D01*
X03282Y02925*
X03274Y02919*
X03268Y02911*
X03264Y02902*
X03263Y02893*
X03264Y02883*
X03268Y02874*
X03274Y02866*
X03282Y0286*
X03291Y02856*
X03301Y02855*
X0331Y02856*
X0332Y0286*
X03327Y02866*
X03333Y02874*
X03337Y02883*
X03339Y02893*
X03337Y02902*
X03333Y02911*
X03327Y02919*
X0332Y02925*
X0331Y02929*
X03301Y0293*
G37*
G36*
X02005Y02959D02*
X02003Y02956D01*
X02002Y02952*
X02003Y02948*
X02005Y02945*
X02035Y02916*
X02042Y02923*
X02005Y02959*
G37*
G36*
X03501Y0293D02*
X03491Y02929D01*
X03482Y02925*
X03474Y02919*
X03468Y02911*
X03464Y02902*
X03463Y02893*
X03464Y02883*
X03468Y02874*
X03474Y02866*
X03482Y0286*
X03491Y02856*
X03501Y02855*
X0351Y02856*
X0352Y0286*
X03527Y02866*
X03533Y02874*
X03537Y02883*
X03539Y02893*
X03537Y02902*
X03533Y02911*
X03527Y02919*
X0352Y02925*
X0351Y02929*
X03501Y0293*
G37*
G36*
X01658Y02821D02*
X01652D01*
X01648Y0282*
X01645Y02818*
X01643Y02815*
X01642Y02811*
Y02805*
X01658*
Y02821*
G37*
G36*
X02754Y02824D02*
X0275Y02823D01*
X02747Y02821*
X02737Y02811*
X02754Y02794*
X02771Y02811*
X02761Y02821*
X02758Y02823*
X02754Y02824*
G37*
G36*
X03201Y0293D02*
X03191Y02929D01*
X03182Y02925*
X03174Y02919*
X03168Y02911*
X03164Y02902*
X03163Y02893*
X03164Y02883*
X03168Y02874*
X03174Y02866*
X03182Y0286*
X03191Y02856*
X03201Y02855*
X0321Y02856*
X0322Y0286*
X03227Y02866*
X03233Y02874*
X03237Y02883*
X03239Y02893*
X03237Y02902*
X03233Y02911*
X03227Y02919*
X0322Y02925*
X0321Y02929*
X03201Y0293*
G37*
G36*
X01684Y02821D02*
X01678D01*
Y02805*
X01694*
Y02811*
X01693Y02815*
X01691Y02818*
X01688Y0282*
X01684Y02821*
G37*
G36*
X0343Y0303D02*
X03371D01*
X03368Y0303*
X03365Y03028*
X03363Y03025*
X03363Y03022*
Y02963*
X03363Y0296*
X03365Y02957*
X03368Y02955*
X03371Y02955*
X0343*
X03433Y02955*
X03436Y02957*
X03438Y0296*
X03438Y02963*
Y03022*
X03438Y03025*
X03436Y03028*
X03433Y0303*
X0343Y0303*
G37*
G36*
X0323D02*
X03171D01*
X03168Y0303*
X03165Y03028*
X03164Y03025*
X03163Y03022*
Y02963*
X03164Y0296*
X03165Y02957*
X03168Y02955*
X03171Y02955*
X0323*
X03233Y02955*
X03236Y02957*
X03238Y0296*
X03238Y02963*
Y03022*
X03238Y03025*
X03236Y03028*
X03233Y0303*
X0323Y0303*
G37*
G36*
X02708Y03322D02*
X02702D01*
Y0328*
X02692*
Y0327*
X02666*
Y03248*
X02667Y03244*
X02669Y03241*
X02673Y03239*
X02677Y03238*
X02698*
X027Y03234*
X02689Y03222*
X02686Y03218*
X02685Y03213*
Y03091*
X0247Y02876*
X02466Y02873*
X02425Y02833*
X02422Y02828*
X02421Y02823*
X02422Y02817*
X02425Y02813*
X0243Y02809*
X02435Y02808*
X02436Y02803*
X02439Y02799*
X02444Y02796*
X02449Y02795*
X0245Y02789*
X02453Y02785*
X02454Y02784*
X02455Y02777*
X02427Y0275*
X02424Y02745*
X02423Y0274*
Y02364*
X02422Y02363*
X02417Y02356*
X02416Y02348*
X02417Y0234*
X02422Y02333*
X02429Y02329*
X02437Y02327*
X02445Y02329*
X0245Y02332*
X02455Y0233*
Y02251*
X02451Y02246*
X0245Y02238*
X02451Y0223*
X02456Y02224*
X02463Y02219*
X02471Y02218*
X02479Y02219*
X02486Y02224*
X0249Y0223*
X02492Y02238*
X0249Y02246*
X02486Y02253*
X02481Y02256*
Y02426*
X02486Y02429*
X0249Y02427*
X02498Y02425*
X02506Y02427*
X02512Y02431*
X02517Y02438*
X02518Y02446*
X02517Y02454*
X02512Y02461*
X02506Y02465*
X02501Y02466*
Y02522*
X02506Y02524*
X02512Y02521*
X0252Y02519*
X02528Y02521*
X02534Y02525*
X02539Y02532*
X0254Y0254*
X02539Y02548*
X02534Y02555*
X02528Y02559*
X02526Y0256*
Y02705*
X02531Y02708*
X02533Y02707*
X02534Y02706*
X02537Y02701*
X02541Y02698*
X02547Y02697*
X02548Y02692*
X02551Y02687*
X02555Y02684*
X0256Y02683*
X02561Y02678*
X02565Y02673*
X02569Y0267*
X02574Y02669*
X02575Y02664*
X02578Y02659*
X02583Y02656*
X02586Y02656*
X02586Y02656*
X02587Y02649*
X02591Y02644*
X02596Y02641*
X02602Y02639*
X02603Y02639*
X02603Y02636*
X02606Y02632*
X02611Y02629*
X02616Y02628*
X02617Y02622*
X0262Y02618*
X02625Y02615*
X0263Y02614*
X02631Y02608*
X02634Y02604*
X02639Y02601*
X02644Y026*
X02645Y02594*
X02648Y0259*
X02653Y02587*
X02658Y02586*
X02659Y02581*
X02662Y02576*
X02667Y02573*
X02672Y02572*
X02673Y02567*
X02676Y02562*
X0268Y02559*
X02686Y02558*
X02687Y02553*
X0269Y02548*
X02694Y02545*
X027Y02544*
X02701Y02539*
X02704Y02534*
X02708Y02531*
X02714Y0253*
X02715Y02525*
X02718Y0252*
X02722Y02517*
X02727Y02516*
X02729Y02511*
X02732Y02506*
X02736Y02503*
X02741Y02502*
X02742Y02497*
X02745Y02492*
X0275Y02489*
X02755Y02488*
X02756Y02483*
X02759Y02478*
X02764Y02475*
X02769Y02474*
X02775Y02475*
X02779Y02478*
X0282Y02519*
X02822Y02523*
X02947Y02648*
X0295Y02652*
X02951Y02657*
Y02748*
X02958Y02749*
X02967Y02753*
X02975Y02759*
X02981Y02767*
X02984Y02776*
X02986Y02786*
X02984Y02796*
X02981Y02805*
X02975Y02812*
X02967Y02819*
X02958Y02822*
X02948Y02824*
X02938Y02822*
X02929Y02819*
X02921Y02812*
X02915Y02805*
X02911Y02796*
X0291Y02786*
X02911Y02776*
X02915Y02767*
X02921Y02759*
X02925Y02756*
Y02663*
X02813Y02551*
X02807Y02552*
X02806Y02553*
X02801Y02556*
X02796Y02557*
X02795Y02562*
X02792Y02567*
X02787Y0257*
X02782Y02571*
X02781Y02576*
X02778Y02581*
X02773Y02584*
X02768Y02585*
X02767Y0259*
X02764Y02595*
X0276Y02598*
X02754Y02599*
X02753Y02604*
X0275Y02609*
X02746Y02612*
X0274Y02613*
X02739Y02618*
X02736Y02622*
X02732Y02626*
X02727Y02627*
X02725Y02632*
X02722Y02636*
X02718Y02639*
X02717Y02639*
X02717Y02641*
X0272Y02646*
X02752*
X02757Y02647*
X02761Y0265*
X02892Y02781*
X02895Y02785*
X02896Y0279*
Y02941*
X02898Y02942*
X02902Y02949*
X02904Y02957*
X02902Y02965*
X02898Y02972*
X02891Y02976*
X02883Y02978*
X02875Y02976*
X02868Y02972*
X02864Y02965*
X02862Y02957*
X02864Y02949*
X02868Y02942*
X0287Y02941*
Y02796*
X0286Y02786*
X02855Y02788*
Y02969*
X02856Y0297*
X02861Y02977*
X02863Y02985*
X02861Y02993*
X02856Y02999*
X0285Y03004*
X02842Y03005*
X02834Y03004*
X02827Y02999*
X02822Y02993*
X02821Y02985*
X02822Y02977*
X02827Y0297*
X02828Y02969*
Y02784*
X02764Y0272*
X02752Y02732*
X02754Y02737*
X02754Y02737*
X02758Y02737*
X02761Y0274*
X02771Y02749*
X02747Y02773*
X02723Y02797*
X02714Y02788*
X02711Y02784*
X02711Y0278*
X02711Y02778*
X02709Y02774*
X02708Y02773*
X02704Y02774*
X02703Y02773*
X02699Y02777*
X02699Y02777*
X02699Y02777*
X02698Y0278*
X02696Y02783*
X02688Y02791*
X02692Y02795*
X02697Y02793*
X02699Y02791*
X02702Y02791*
X02705Y02791*
X02708Y02793*
X02742Y02826*
X02743Y02829*
X02744Y02832*
X02743Y02835*
X02742Y02838*
X02722Y02857*
X02758Y02893*
X02761Y02898*
X02762Y02903*
Y02983*
X02897Y03119*
X02899Y03118*
X02907Y0312*
X02914Y03124*
X02918Y03131*
X0292Y03139*
X02918Y03147*
X02916Y03151*
X02918Y03156*
X02918Y03157*
X02921Y03158*
X02922Y03161*
X02923Y03164*
Y03196*
X02922Y03199*
X02921Y03201*
X02918Y03203*
X02915Y03204*
X02883*
X0288Y03203*
X02878Y03201*
X02876Y03199*
X02875Y03196*
Y03164*
X02876Y03161*
X02878Y03158*
X0288Y03157*
X0288Y03157*
X02882Y03151*
X0288Y03147*
X02878Y03139*
X02879Y03137*
X02739Y02998*
X02736Y02994*
X02735Y02989*
Y02908*
X02701Y02873*
X02699Y02873*
X02697Y02871*
X02663Y02838*
X02661Y02835*
X02661Y02832*
X02661Y02829*
X02663Y02826*
X02675Y02815*
X02669Y02809*
X02669Y0281*
X02665Y0281*
X02662Y0281*
X0266Y02808*
X02635Y02783*
X02633Y0278*
X02632Y02777*
X02633Y02774*
X02635Y02771*
X0265Y02756*
Y0275*
X02632Y02732*
X02626Y02733*
X02625Y02734*
X0262Y02737*
X02615Y02738*
X02614Y02743*
X02611Y02748*
X02606Y02751*
X02601Y02752*
X026Y02757*
X02597Y02762*
X02593Y02765*
X02587Y02766*
X02586Y02771*
X02583Y02776*
X02579Y02779*
X02573Y0278*
X02572Y02785*
X02569Y02789*
X02565Y02793*
X02559Y02794*
X02558Y02799*
X02555Y02803*
X02551Y02806*
X02546Y02807*
X02545Y02813*
X02541Y02817*
X02537Y0282*
X02532Y02821*
X02531Y02827*
X02528Y02831*
X02527Y02832*
X02526Y02838*
X02844Y03156*
X0286*
X02863Y03157*
X02866Y03158*
X02867Y03161*
X02868Y03164*
Y03196*
X02867Y03199*
X02866Y03201*
X02863Y03203*
X0286Y03204*
X02853*
Y0324*
X02856*
X02859Y03241*
X02862Y03243*
X02862Y03243*
X02868*
X02868Y03243*
X0287Y03241*
X02874Y0324*
X02882*
X02889Y03239*
X02928*
X02931Y03239*
X02933*
X02935Y0324*
X02939*
X02957Y03222*
Y03084*
X02957Y03084*
X02952Y03077*
X02948Y03069*
X02947Y03061*
X02948Y03052*
X02952Y03044*
X02957Y03037*
X02964Y03032*
X02972Y03028*
X02981Y03027*
X02989Y03028*
X02997Y03032*
X03004Y03037*
X03009Y03044*
X03013Y03052*
X03014Y03061*
X03013Y03069*
X03009Y03077*
X03004Y03084*
X03004Y03084*
Y03232*
X03002Y03241*
X02997Y03248*
X02962Y03283*
Y03311*
X02962Y03314*
X0296Y03317*
X02957Y03319*
X02954Y03319*
X02923*
X0292Y03319*
X02917Y03317*
X02917Y03317*
X02911*
X02911Y03317*
X02908Y03319*
X02905Y03319*
X02874*
X0287Y03319*
X02868Y03317*
X02868Y03317*
X02862*
X02862Y03317*
X02859Y03319*
X02856Y03319*
X02824*
X02821Y03319*
X02819Y03317*
X02818Y03317*
X02813*
X02812Y03317*
X0281Y03319*
X02807Y03319*
X02775*
X02772Y03319*
X02769Y03317*
X02769Y03317*
X02763*
X02763Y03317*
X0276Y03319*
X02757Y03319*
X02726*
X02723Y03319*
X0272Y03317*
X02716Y03318*
X02715Y03319*
X02712Y03321*
X02708Y03322*
G37*
G36*
X01722Y02989D02*
X01714D01*
X01711Y02988*
X01707Y02986*
X01705Y02983*
X01704Y02979*
Y02971*
X01722*
Y02989*
G37*
G36*
X02027Y02976D02*
X02023Y02975D01*
X02019Y02973*
X02056Y02937*
X02063Y02944*
X02034Y02973*
X0203Y02975*
X02027Y02976*
G37*
G36*
X01722Y02951D02*
X01704D01*
Y02944*
X01705Y0294*
X01707Y02936*
X01711Y02934*
X01714Y02933*
X01722*
Y02951*
G37*
G36*
X03501Y0303D02*
X03491Y03029D01*
X03482Y03025*
X03474Y03019*
X03468Y03011*
X03464Y03002*
X03463Y02993*
X03464Y02983*
X03468Y02974*
X03474Y02966*
X03482Y0296*
X03491Y02956*
X03501Y02955*
X0351Y02956*
X0352Y0296*
X03527Y02966*
X03533Y02974*
X03537Y02983*
X03539Y02993*
X03537Y03002*
X03533Y03011*
X03527Y03019*
X0352Y03025*
X0351Y03029*
X03501Y0303*
G37*
G36*
X03301D02*
X03291Y03029D01*
X03282Y03025*
X03274Y03019*
X03268Y03011*
X03264Y03002*
X03263Y02993*
X03264Y02983*
X03268Y02974*
X03274Y02966*
X03282Y0296*
X03291Y02956*
X03301Y02955*
X0331Y02956*
X0332Y0296*
X03327Y02966*
X03333Y02974*
X03337Y02983*
X03339Y02993*
X03337Y03002*
X03333Y03011*
X03327Y03019*
X0332Y03025*
X0331Y03029*
X03301Y0303*
G37*
G36*
X01574Y02819D02*
X01542D01*
X01539Y02819*
X01537Y02817*
X01535Y02814*
X01534Y02811*
Y0278*
X01535Y02777*
X01537Y02774*
X01539Y02772*
X01542Y02772*
X01574*
X01577Y02772*
X0158Y02774*
X01581Y02777*
X01582Y02779*
X0159*
X0159Y02777*
X01592Y02774*
X01595Y02773*
X01598Y02772*
X01628*
X01631Y02773*
X01634Y02774*
X01635Y02777*
X01636Y0278*
Y0281*
X01635Y02813*
X01634Y02816*
X01631Y02818*
X01628Y02818*
X01598*
X01595Y02818*
X01592Y02816*
X0159Y02813*
X0159Y0281*
Y02806*
X01582*
Y02811*
X01581Y02814*
X0158Y02817*
X01577Y02819*
X01574Y02819*
G37*
G36*
X03301Y0273D02*
X03291Y02729D01*
X03282Y02725*
X03274Y02719*
X03268Y02711*
X03264Y02702*
X03263Y02693*
X03264Y02683*
X03268Y02674*
X03274Y02666*
X03282Y0266*
X03291Y02656*
X03301Y02655*
X0331Y02656*
X0332Y0266*
X03327Y02666*
X03333Y02674*
X03337Y02683*
X03339Y02693*
X03337Y02702*
X03333Y02711*
X03327Y02719*
X0332Y02725*
X0331Y02729*
X03301Y0273*
G37*
G36*
X03201D02*
X03191Y02729D01*
X03182Y02725*
X03174Y02719*
X03168Y02711*
X03164Y02702*
X03163Y02693*
X03164Y02683*
X03168Y02674*
X03174Y02666*
X03182Y0266*
X03191Y02656*
X03201Y02655*
X0321Y02656*
X0322Y0266*
X03227Y02666*
X03233Y02674*
X03237Y02683*
X03239Y02693*
X03237Y02702*
X03233Y02711*
X03227Y02719*
X0322Y02725*
X0321Y02729*
X03201Y0273*
G37*
G36*
X03501D02*
X03491Y02729D01*
X03482Y02725*
X03474Y02719*
X03468Y02711*
X03464Y02702*
X03463Y02693*
X03464Y02683*
X03468Y02674*
X03474Y02666*
X03482Y0266*
X03491Y02656*
X03501Y02655*
X0351Y02656*
X0352Y0266*
X03527Y02666*
X03533Y02674*
X03537Y02683*
X03539Y02693*
X03537Y02702*
X03533Y02711*
X03527Y02719*
X0352Y02725*
X0351Y02729*
X03501Y0273*
G37*
G36*
X03401D02*
X03391Y02729D01*
X03382Y02725*
X03374Y02719*
X03368Y02711*
X03364Y02702*
X03363Y02693*
X03364Y02683*
X03368Y02674*
X03374Y02666*
X03382Y0266*
X03391Y02656*
X03401Y02655*
X0341Y02656*
X0342Y0266*
X03427Y02666*
X03433Y02674*
X03437Y02683*
X03439Y02693*
X03437Y02702*
X03433Y02711*
X03427Y02719*
X0342Y02725*
X0341Y02729*
X03401Y0273*
G37*
G36*
X03301Y0263D02*
X03291Y02629D01*
X03282Y02625*
X03274Y02619*
X03268Y02611*
X03264Y02602*
X03263Y02593*
X03264Y02583*
X03266Y02577*
X03243Y02553*
X0324Y02549*
X03239Y02544*
Y02511*
X03234Y0251*
X03233Y02511*
X03227Y02519*
X0322Y02525*
X0321Y02529*
X03201Y0253*
X03191Y02529*
X03182Y02525*
X03174Y02519*
X03168Y02511*
X03164Y02502*
X03163Y02493*
X03164Y02483*
X03168Y02474*
X03174Y02466*
X03182Y0246*
X03191Y02456*
X03201Y02455*
X0321Y02456*
X0322Y0246*
X03227Y02466*
X03233Y02474*
X03234Y02475*
X03239Y02474*
Y02411*
X03234Y0241*
X03233Y02411*
X03227Y02419*
X0322Y02425*
X0321Y02429*
X03201Y0243*
X03191Y02429*
X03182Y02425*
X03174Y02419*
X03168Y02411*
X03164Y02402*
X03163Y02393*
X03164Y02383*
X03168Y02374*
X03174Y02366*
X03182Y0236*
X03191Y02356*
X03201Y02355*
X0321Y02356*
X0322Y0236*
X03227Y02366*
X03233Y02374*
X03234Y02375*
X03239Y02374*
Y02311*
X03234Y0231*
X03233Y02311*
X03227Y02319*
X0322Y02325*
X0321Y02329*
X03201Y0233*
X03191Y02329*
X03182Y02325*
X03174Y02319*
X03168Y02311*
X03164Y02302*
X03163Y02293*
X03164Y02283*
X03168Y02274*
X03174Y02266*
X03182Y0226*
X03191Y02256*
X03201Y02255*
X0321Y02256*
X0322Y0226*
X03227Y02266*
X03233Y02274*
X03234Y02275*
X03239Y02274*
Y0221*
X03234Y02209*
X03233Y0221*
X03227Y02218*
X0322Y02224*
X0321Y02228*
X03201Y02229*
X03191Y02228*
X03182Y02224*
X03174Y02218*
X03168Y0221*
X03164Y02201*
X03163Y02192*
X03164Y02182*
X03168Y02173*
X03174Y02165*
X03182Y02159*
X03191Y02155*
X03201Y02154*
X0321Y02155*
X0322Y02159*
X03223Y02161*
X03227Y02158*
X03225Y02151*
X03227Y02143*
X03232Y02137*
X03238Y02132*
X03246Y02131*
X03254Y02132*
X03261Y02137*
X03266Y02143*
X03267Y02151*
X03266Y02159*
X03266Y0216*
Y02169*
X03271Y0217*
X03274Y02166*
X03282Y0216*
X03291Y02156*
X03301Y02155*
X0331Y02156*
X0332Y0216*
X03327Y02166*
X03333Y02174*
X03337Y02183*
X03339Y02193*
X03337Y02202*
X03333Y02211*
X03327Y02219*
X0332Y02225*
X0331Y02229*
X03301Y0223*
X03291Y02229*
X03282Y02225*
X03274Y02219*
X03271Y02215*
X03266Y02217*
Y02269*
X03271Y0227*
X03274Y02266*
X03282Y0226*
X03291Y02256*
X03301Y02255*
X0331Y02256*
X0332Y0226*
X03327Y02266*
X03333Y02274*
X03337Y02283*
X03339Y02293*
X03337Y02302*
X03333Y02311*
X03327Y02319*
X0332Y02325*
X0331Y02329*
X03301Y0233*
X03291Y02329*
X03282Y02325*
X03274Y02319*
X03271Y02315*
X03266Y02317*
Y02369*
X03271Y0237*
X03274Y02366*
X03282Y0236*
X03291Y02356*
X03301Y02355*
X0331Y02356*
X0332Y0236*
X03327Y02366*
X03333Y02374*
X03337Y02383*
X03339Y02393*
X03337Y02402*
X03333Y02411*
X03327Y02419*
X0332Y02425*
X0331Y02429*
X03301Y0243*
X03291Y02429*
X03282Y02425*
X03274Y02419*
X03271Y02415*
X03266Y02417*
Y02469*
X03271Y0247*
X03274Y02466*
X03282Y0246*
X03291Y02456*
X03301Y02455*
X0331Y02456*
X0332Y0246*
X03327Y02466*
X03333Y02474*
X03337Y02483*
X03339Y02493*
X03337Y02502*
X03333Y02511*
X03327Y02519*
X0332Y02525*
X0331Y02529*
X03301Y0253*
X03291Y02529*
X03282Y02525*
X03274Y02519*
X03271Y02515*
X03266Y02517*
Y02539*
X03285Y02558*
X03291Y02556*
X03301Y02555*
X0331Y02556*
X0332Y0256*
X03327Y02566*
X03333Y02574*
X03337Y02583*
X03339Y02593*
X03337Y02602*
X03333Y02611*
X03327Y02619*
X0332Y02625*
X0331Y02629*
X03301Y0263*
G37*
G36*
X03201D02*
X03191Y02629D01*
X03182Y02625*
X03174Y02619*
X03168Y02611*
X03164Y02602*
X03163Y02593*
X03164Y02583*
X03168Y02574*
X03174Y02566*
X03182Y0256*
X03191Y02556*
X03201Y02555*
X0321Y02556*
X0322Y0256*
X03227Y02566*
X03233Y02574*
X03237Y02583*
X03239Y02593*
X03237Y02602*
X03233Y02611*
X03227Y02619*
X0322Y02625*
X0321Y02629*
X03201Y0263*
G37*
G36*
X03501D02*
X03491Y02629D01*
X03482Y02625*
X03474Y02619*
X03468Y02611*
X03464Y02602*
X03463Y02593*
X03464Y02583*
X03468Y02574*
X03474Y02566*
X03482Y0256*
X03491Y02556*
X03501Y02555*
X0351Y02556*
X0352Y0256*
X03527Y02566*
X03533Y02574*
X03537Y02583*
X03539Y02593*
X03537Y02602*
X03533Y02611*
X03527Y02619*
X0352Y02625*
X0351Y02629*
X03501Y0263*
G37*
G36*
X034D02*
X03391Y02629D01*
X03382Y02625*
X03374Y02619*
X03368Y02611*
X03364Y02602*
X03363Y02593*
X03364Y02583*
X03368Y02574*
X03374Y02566*
X03382Y0256*
X03391Y02556*
X034Y02555*
X0341Y02556*
X03419Y0256*
X03427Y02566*
X03433Y02574*
X03437Y02583*
X03438Y02593*
X03437Y02602*
X03433Y02611*
X03427Y02619*
X03419Y02625*
X0341Y02629*
X034Y0263*
G37*
G36*
X02785Y02797D02*
X02768Y0278D01*
X02785Y02763*
X02795Y02773*
X02797Y02776*
X02798Y0278*
X02797Y02784*
X02795Y02788*
X02785Y02797*
G37*
G36*
X03501Y0283D02*
X03491Y02829D01*
X03482Y02825*
X03474Y02819*
X03468Y02811*
X03464Y02802*
X03463Y02793*
X03464Y02783*
X03468Y02774*
X03474Y02766*
X03482Y0276*
X03491Y02756*
X03501Y02755*
X0351Y02756*
X0352Y0276*
X03527Y02766*
X03533Y02774*
X03537Y02783*
X03539Y02793*
X03537Y02802*
X03533Y02811*
X03527Y02819*
X0352Y02825*
X0351Y02829*
X03501Y0283*
G37*
G36*
X01694Y02785D02*
X01678D01*
Y02769*
X01684*
X01688Y0277*
X01691Y02772*
X01693Y02776*
X01694Y02779*
Y02785*
G37*
G36*
X01658D02*
X01642D01*
Y02779*
X01643Y02776*
X01645Y02772*
X01648Y0277*
X01652Y02769*
X01658*
Y02785*
G37*
G36*
X03201Y0283D02*
X03191Y02829D01*
X03182Y02825*
X03174Y02819*
X03168Y02811*
X03164Y02802*
X03163Y02793*
X03164Y02783*
X03168Y02774*
X03174Y02766*
X03182Y0276*
X03191Y02756*
X03201Y02755*
X0321Y02756*
X0322Y0276*
X03227Y02766*
X03233Y02774*
X03237Y02783*
X03239Y02793*
X03237Y02802*
X03233Y02811*
X03227Y02819*
X0322Y02825*
X0321Y02829*
X03201Y0283*
G37*
G36*
X02017Y0275D02*
X02008Y0274D01*
X02006Y02737*
X02005Y02733*
X02006Y02729*
X02008Y02726*
X02017Y02716*
X02034Y02733*
X02017Y0275*
G37*
G36*
X03401Y0283D02*
X03391Y02829D01*
X03382Y02825*
X03374Y02819*
X03368Y02811*
X03364Y02802*
X03363Y02793*
X03364Y02783*
X03368Y02774*
X03374Y02766*
X03382Y0276*
X03391Y02756*
X03401Y02755*
X0341Y02756*
X0342Y0276*
X03427Y02766*
X03433Y02774*
X03437Y02783*
X03439Y02793*
X03437Y02802*
X03433Y02811*
X03427Y02819*
X0342Y02825*
X0341Y02829*
X03401Y0283*
G37*
G36*
X03301D02*
X03291Y02829D01*
X03282Y02825*
X03274Y02819*
X03268Y02811*
X03264Y02802*
X03263Y02793*
X03264Y02783*
X03268Y02774*
X03274Y02766*
X03282Y0276*
X03291Y02756*
X03301Y02755*
X0331Y02756*
X0332Y0276*
X03327Y02766*
X03333Y02774*
X03337Y02783*
X03339Y02793*
X03337Y02802*
X03333Y02811*
X03327Y02819*
X0332Y02825*
X0331Y02829*
X03301Y0283*
G37*
G36*
X01624Y03097D02*
X01596D01*
Y03088*
X01598Y03078*
X01603Y03071*
X01611Y03065*
X0162Y03063*
X01624*
Y03097*
G37*
G36*
X01727Y03449D02*
X01717Y03448D01*
X01708Y03444*
X017Y03438*
X01694Y0343*
X0169Y03421*
X01689Y03411*
X0169Y03402*
X01694Y03392*
X017Y03385*
X01708Y03379*
X01717Y03375*
X01727Y03373*
X01736Y03375*
X01746Y03379*
X01753Y03385*
X01759Y03392*
X01763Y03402*
X01765Y03411*
X01763Y03421*
X01759Y0343*
X01753Y03438*
X01746Y03444*
X01736Y03448*
X01727Y03449*
G37*
G36*
X0308Y03469D02*
X03001D01*
X02998Y03468*
X02996Y03467*
X02994Y03464*
X02993Y03461*
Y03343*
X02994Y0334*
X02996Y03337*
X02998Y03335*
X03001Y03335*
X0308*
X03083Y03335*
X03086Y03337*
X03088Y0334*
X03088Y03343*
Y03461*
X03088Y03464*
X03086Y03467*
X03083Y03468*
X0308Y03469*
G37*
G36*
X01927Y03449D02*
X01917Y03448D01*
X01908Y03444*
X019Y03438*
X01894Y0343*
X0189Y03421*
X01889Y03411*
X0189Y03402*
X01894Y03392*
X019Y03385*
X01908Y03379*
X01917Y03375*
X01927Y03373*
X01936Y03375*
X01946Y03379*
X01953Y03385*
X01959Y03392*
X01963Y03402*
X01965Y03411*
X01963Y03421*
X01959Y0343*
X01953Y03438*
X01946Y03444*
X01936Y03448*
X01927Y03449*
G37*
G36*
X01827D02*
X01817Y03448D01*
X01808Y03444*
X018Y03438*
X01794Y0343*
X0179Y03421*
X01789Y03411*
X0179Y03402*
X01794Y03392*
X018Y03385*
X01808Y03379*
X01817Y03375*
X01827Y03373*
X01836Y03375*
X01846Y03379*
X01853Y03385*
X01859Y03392*
X01863Y03402*
X01865Y03411*
X01863Y03421*
X01859Y0343*
X01853Y03438*
X01846Y03444*
X01836Y03448*
X01827Y03449*
G37*
G36*
X01046Y03459D02*
X00968D01*
X00964Y03459*
X00962Y03457*
X0096Y03454*
X00959Y03451*
Y03333*
X0096Y0333*
X00962Y03327*
X00964Y03325*
X00968Y03325*
X01046*
X01049Y03325*
X01052Y03327*
X01054Y0333*
X01055Y03333*
Y03451*
X01054Y03454*
X01052Y03457*
X01049Y03459*
X01046Y03459*
G37*
G36*
X02137Y0335D02*
Y03321D01*
X02165*
X02165Y03322*
X02161Y03331*
X02155Y0334*
X02147Y03346*
X02137Y0335*
X02137Y0335*
G37*
G36*
X02629Y03469D02*
X02551D01*
X02548Y03468*
X02545Y03467*
X02543Y03464*
X02543Y03461*
Y03343*
X02543Y0334*
X02545Y03337*
X02548Y03335*
X02551Y03335*
X02629*
X02633Y03335*
X02635Y03337*
X02637Y0334*
X02638Y03343*
Y03461*
X02637Y03464*
X02635Y03467*
X02633Y03468*
X02629Y03469*
G37*
G36*
X01497Y03459D02*
X01418D01*
X01415Y03459*
X01413Y03457*
X01411Y03454*
X0141Y03451*
Y03333*
X01411Y0333*
X01413Y03327*
X01415Y03325*
X01418Y03325*
X01497*
X015Y03325*
X01503Y03327*
X01505Y0333*
X01505Y03333*
Y03451*
X01505Y03454*
X01503Y03457*
X015Y03459*
X01497Y03459*
G37*
G36*
X00779Y03464D02*
X00709D01*
X00706Y03463*
X00704Y03461*
X00702Y03458*
X00701Y03455*
Y03385*
X00702Y03382*
X00704Y0338*
X00706Y03378*
X00709Y03377*
X00779*
X00783Y03378*
X00785Y0338*
X00787Y03382*
X00788Y03385*
Y03455*
X00787Y03458*
X00785Y03461*
X00783Y03463*
X00779Y03464*
G37*
G36*
X00644Y03464D02*
X00633Y03462D01*
X00623Y03458*
X00614Y03451*
X00607Y03442*
X00602Y03432*
X00601Y0342*
X00602Y03409*
X00607Y03399*
X00614Y0339*
X00623Y03383*
X00633Y03378*
X00644Y03377*
X00656Y03378*
X00666Y03383*
X00675Y0339*
X00682Y03399*
X00686Y03409*
X00688Y0342*
X00686Y03432*
X00682Y03442*
X00675Y03451*
X00666Y03458*
X00656Y03462*
X00644Y03464*
G37*
G36*
X00462Y03464D02*
Y0343D01*
X00496*
X00496Y03432*
X00491Y03443*
X00484Y03452*
X00475Y0346*
X00464Y03464*
X00462Y03464*
G37*
G36*
X00442D02*
X0044Y03464D01*
X00429Y0346*
X0042Y03452*
X00413Y03443*
X00408Y03432*
X00408Y0343*
X00442*
Y03464*
G37*
G36*
X02127Y03449D02*
X02117Y03448D01*
X02108Y03444*
X021Y03438*
X02094Y0343*
X0209Y03421*
X02089Y03411*
X0209Y03402*
X02094Y03392*
X021Y03385*
X02108Y03379*
X02117Y03375*
X02127Y03373*
X02136Y03375*
X02146Y03379*
X02153Y03385*
X02159Y03392*
X02163Y03402*
X02165Y03411*
X02163Y03421*
X02159Y0343*
X02153Y03438*
X02146Y03444*
X02136Y03448*
X02127Y03449*
G37*
G36*
X02027D02*
X02017Y03448D01*
X02008Y03444*
X02Y03438*
X01994Y0343*
X0199Y03421*
X01989Y03411*
X0199Y03402*
X01994Y03392*
X02Y03385*
X02008Y03379*
X02017Y03375*
X02027Y03373*
X02036Y03375*
X02046Y03379*
X02053Y03385*
X02059Y03392*
X02063Y03402*
X02065Y03411*
X02063Y03421*
X02059Y0343*
X02053Y03438*
X02046Y03444*
X02036Y03448*
X02027Y03449*
G37*
G36*
X00496Y0341D02*
X00462D01*
Y03376*
X00464Y03377*
X00475Y03381*
X00484Y03388*
X00491Y03398*
X00496Y03409*
X00496Y0341*
G37*
G36*
X00442D02*
X00408D01*
X00408Y03409*
X00413Y03398*
X0042Y03388*
X00429Y03381*
X0044Y03377*
X00442Y03376*
Y0341*
G37*
G36*
X02117Y0335D02*
X02116Y0335D01*
X02107Y03346*
X02098Y0334*
X02092Y03331*
X02088Y03322*
X02088Y03321*
X02117*
Y0335*
G37*
G36*
X01099Y0326D02*
X01083D01*
Y03238*
X01084Y03235*
X01086Y03231*
X0109Y03229*
X01094Y03228*
X01099*
Y0326*
G37*
G36*
X01756Y03349D02*
X01697D01*
X01694Y03348*
X01691Y03347*
X0169Y03344*
X01689Y03341*
Y03282*
X0169Y03279*
X01691Y03276*
X01694Y03274*
X01697Y03274*
X01746*
X01774Y03245*
Y03149*
X01774*
X01765Y03148*
X01758Y03143*
X01754Y03137*
X0175Y03138*
X01749Y03139*
X01748Y03146*
X01743Y03153*
X01737Y03158*
X01729Y03159*
X01721Y03158*
X01714Y03153*
X01709Y03146*
X01708Y03138*
X01709Y0313*
X01714Y03124*
X01721Y03119*
Y03047*
X01718*
X01715Y03047*
X01712Y03045*
X01711Y03042*
X0171Y03039*
Y03008*
X01711Y03005*
X01712Y03002*
X01715Y03*
X01718Y03*
X0175*
X01753Y03*
X01755Y03002*
X01757Y03005*
X01758Y03008*
Y03039*
X01757Y03042*
X01755Y03045*
X01753Y03047*
X0175Y03047*
X01747*
Y03085*
X01752Y03086*
X01753Y03079*
X01758Y03072*
X01765Y03067*
X01774Y03065*
X01774*
Y03047*
X01773*
X0177Y03047*
X01767Y03045*
X01766Y03042*
X01765Y03039*
Y03008*
X01766Y03005*
X01767Y03002*
X0177Y03*
X01773Y03*
X01774*
Y02987*
X0177*
X01766Y02987*
X01764Y02985*
X01764Y02985*
X01764Y02985*
X01758Y02985*
X01757Y02986*
X01754Y02988*
X0175Y02989*
X01742*
Y02961*
Y02933*
X0175*
X01754Y02934*
X01757Y02936*
X01758Y02938*
X01764Y02938*
X01764Y02938*
X01764Y02938*
X01766Y02936*
X0177Y02935*
X01774*
Y02867*
X01775Y02861*
X01778Y02857*
X02047Y02588*
X02047Y02581*
X02045Y02581*
X02042Y02576*
X02041Y02571*
X02036Y0257*
X02031Y02567*
X02028Y02562*
X02027Y02557*
X02022Y02556*
X02018Y02553*
X02014Y02548*
X02013Y02543*
X02008Y02542*
X02004Y02539*
X02001Y02534*
X01999Y02529*
X02001Y02523*
X02004Y02519*
X02044Y02478*
X02049Y02475*
X02054Y02474*
X02059Y02475*
X02064Y02478*
X02067Y02483*
X02068Y02488*
X02073Y02489*
X02078Y02492*
X02081Y02497*
X02082Y02502*
X02087Y02503*
X02092Y02506*
X02095Y02511*
X02096Y02516*
X02101Y02517*
X02106Y0252*
X02109Y02525*
X0211Y0253*
X02115Y02531*
X0212Y02534*
X02123Y02539*
X02124Y02544*
X02129Y02545*
X02131Y02547*
X02136Y02544*
Y02534*
X02135Y02533*
X0213Y02526*
X02129Y02518*
X0213Y0251*
X02135Y02504*
X02141Y02499*
X02149Y02497*
X02157Y02499*
X02164Y02504*
X02169Y0251*
X0217Y02515*
X02175Y02516*
X02182Y02512*
X0219Y0251*
X02198Y02512*
X02204Y02516*
X02209Y02523*
X02211Y02531*
X0221Y02532*
X02214Y02536*
X02216Y02535*
X02224Y02537*
X0223Y02541*
X02235Y02548*
X02237Y02556*
X02235Y02564*
X0223Y02571*
X02224Y02576*
X02216Y02577*
X02208Y02576*
X02207Y02575*
X02195Y02588*
X02197Y02592*
X02229*
X02234Y02593*
X02239Y02596*
X0224Y02597*
X02242Y02596*
X0225Y02598*
X02257Y02602*
X02262Y02609*
X02263Y02617*
X02262Y02625*
X02257Y02632*
X0225Y02637*
X02242Y02638*
X02234Y02637*
X02228Y02632*
X02223Y02625*
X02222Y02619*
X02212*
X02209Y02623*
X0221Y02628*
X02213Y02629*
X02217Y02632*
X0222Y02636*
X02221Y02641*
X02226Y02642*
X02231Y02646*
X02234Y0265*
X02235Y02655*
X0224Y02656*
X02245Y02659*
X02248Y02664*
X02249Y02669*
X02254Y0267*
X02259Y02673*
X02262Y02678*
X02263Y02683*
X02268Y02684*
X02273Y02687*
X02276Y02692*
X02277Y02697*
X02282Y02698*
X02287Y02701*
X0229Y02706*
X0229Y02709*
X02291Y02709*
X02292Y02709*
X02291Y02711*
X02291Y02711*
X0229Y02717*
X02287Y02721*
X02267Y02741*
X02274Y02749*
X02295Y02729*
X02299Y02726*
X02305Y02725*
X02305Y02725*
X02306Y02723*
X02307Y02725*
X02307Y02725*
X0231Y02726*
X02315Y02729*
X02318Y02734*
X02319Y02739*
X02324Y0274*
X02328Y02743*
X02332Y02748*
X02333Y02753*
X02338Y02754*
X02342Y02757*
X02345Y02761*
X02347Y02767*
X02352Y02768*
X02356Y02771*
X02359Y02775*
X0236Y02781*
X02366Y02782*
X0237Y02785*
X02373Y02789*
X02374Y02795*
X0238Y02796*
X02384Y02799*
X02387Y02803*
X02388Y02808*
X02393Y02809*
X02398Y02813*
X02401Y02817*
X02402Y02823*
X02401Y02828*
X02398Y02833*
X02358Y02873*
X02353Y02876*
X02348Y02877*
X02342Y02876*
X02338Y02873*
X02335Y02868*
X02334Y02863*
X02328Y02862*
X02324Y02859*
X02321Y02854*
X0232Y02849*
X02314Y02848*
X0231Y02845*
X02307Y02841*
X02306Y02835*
X023Y02834*
X02296Y02831*
X02293Y02827*
X02292Y02821*
X02287Y0282*
X02282Y02817*
X02279Y02813*
X02278Y02807*
X02273Y02806*
X02268Y02803*
X02265Y02799*
X02264Y02794*
X02259Y02793*
X02254Y02789*
X02251Y02785*
X0225Y02782*
X0225Y02782*
X02244Y02781*
X02239Y02777*
X02238Y02776*
X02232Y02775*
X02137Y0287*
Y0292*
X02146Y02929*
X02148Y02932*
X02149Y02935*
X02148Y02938*
X02146Y02941*
X02134Y02953*
X02133Y02955*
X02115Y02973*
X02114Y02974*
X02074Y03013*
X02071Y03015*
X02068Y03016*
X02065Y03015*
X02063Y03013*
X02049Y02999*
X02047Y02997*
X02046Y02994*
X02047Y02991*
X02049Y02988*
X02111Y02926*
Y02903*
X02108Y02902*
X02106Y02901*
X02077Y0293*
X02063Y02916*
X02049Y02901*
X02078Y02872*
X0208Y02871*
X02079Y02866*
X02055*
X02031Y0289*
X0203Y0289*
X01991Y0293*
X01988Y02932*
X01985Y02932*
X01982Y02932*
X01979Y0293*
X01965Y02916*
X01963Y02913*
X01963Y02912*
X01959Y0291*
X01958Y0291*
X01929Y02939*
Y03121*
X0193Y03122*
X01935Y03129*
X01937Y03137*
X01935Y03145*
X0193Y03151*
X01924Y03156*
X01916Y03157*
X01908Y03156*
X01901Y03151*
X01896Y03145*
X01895Y03137*
X01896Y03129*
X01901Y03122*
X01902Y03121*
Y02933*
X01903Y02928*
X01906Y02924*
X02049Y02781*
X02049Y02781*
X02047Y02776*
X02045Y02776*
X02041Y02774*
X02032Y02764*
X02055Y0274*
X02048Y02733*
X02055Y02726*
X02032Y02702*
X02041Y02692*
X02041Y02692*
X02042Y02686*
X02028Y02672*
X01873Y02828*
X01874Y02834*
X01881Y02839*
X01887Y02847*
X01891Y02856*
X01892Y02866*
X01891Y02875*
X01887Y02885*
X01881Y02892*
X01873Y02898*
X01864Y02902*
X01854Y02903*
X01844Y02902*
X01835Y02898*
X01827Y02892*
X01821Y02885*
X01818Y02875*
X01816Y02866*
X01817Y02863*
X01812Y02861*
X01801Y02872*
Y02935*
X01805*
X01808Y02936*
X01811Y02938*
X01813Y0294*
X01813Y02944*
Y02979*
X01813Y02982*
X01811Y02985*
X01808Y02987*
X01805Y02987*
X01801*
Y03*
X01805*
X01808Y03*
X0181Y03002*
X01812Y03005*
X01813Y03008*
Y03039*
X01812Y03042*
X0181Y03045*
X01808Y03047*
X01805Y03047*
X01801*
Y03065*
X01801*
X0181Y03067*
X01817Y03072*
X01822Y03079*
X01824Y03088*
Y03127*
X01822Y03136*
X01817Y03143*
X0181Y03148*
X01801Y03149*
X01801*
Y03251*
X018Y03256*
X01797Y0326*
X01764Y03292*
Y03341*
X01764Y03344*
X01762Y03347*
X01759Y03348*
X01756Y03349*
G37*
G36*
X02117Y03301D02*
X02088D01*
X02088Y03301*
X02092Y03291*
X02098Y03283*
X02107Y03277*
X02116Y03273*
X02117Y03273*
Y03301*
G37*
G36*
X00128Y03432D02*
X00111Y03431D01*
X00094Y03426*
X00079Y03418*
X00066Y03407*
X00055Y03394*
X00047Y03378*
X00042Y03362*
X00041Y03345*
X00042Y03328*
X00047Y03312*
X00055Y03297*
X00066Y03283*
X00079Y03273*
X00094Y03265*
X00111Y0326*
X00128Y03258*
X00145Y0326*
X00161Y03265*
X00176Y03273*
X00189Y03283*
X002Y03297*
X00208Y03312*
X00213Y03328*
X00215Y03345*
X00213Y03362*
X00208Y03378*
X002Y03394*
X00189Y03407*
X00176Y03418*
X00161Y03426*
X00145Y03431*
X00128Y03432*
G37*
G36*
X035Y03281D02*
X03483Y03279D01*
X03467Y03274*
X03452Y03266*
X03439Y03255*
X03428Y03242*
X0342Y03227*
X03415Y03211*
X03413Y03194*
X03415Y03177*
X0342Y0316*
X03428Y03145*
X03439Y03132*
X03452Y03121*
X03467Y03113*
X03483Y03108*
X035Y03107*
X03517Y03108*
X03534Y03113*
X03549Y03121*
X03562Y03132*
X03573Y03145*
X03581Y0316*
X03586Y03177*
X03588Y03194*
X03586Y03211*
X03581Y03227*
X03573Y03242*
X03562Y03255*
X03549Y03266*
X03534Y03274*
X03517Y03279*
X035Y03281*
G37*
G36*
X01672Y03097D02*
X01644D01*
Y03063*
X01648*
X01657Y03065*
X01665Y03071*
X0167Y03078*
X01672Y03088*
Y03097*
G37*
G36*
X01648Y03151D02*
X01644D01*
Y03117*
X01672*
Y03127*
X0167Y03136*
X01665Y03144*
X01657Y03149*
X01648Y03151*
G37*
G36*
X01624D02*
X0162D01*
X01611Y03149*
X01603Y03144*
X01598Y03136*
X01596Y03127*
Y03117*
X01624*
Y03151*
G37*
G36*
X02682Y03322D02*
X02677D01*
X02673Y03321*
X02669Y03319*
X02667Y03315*
X02666Y03311*
Y0329*
X02682*
Y03322*
G37*
G36*
X01099Y03312D02*
X01094D01*
X0109Y03311*
X01086Y03309*
X01084Y03305*
X01083Y03301*
Y0328*
X01099*
Y03312*
G37*
G36*
X02327Y03449D02*
X02317Y03448D01*
X02308Y03444*
X023Y03438*
X02294Y0343*
X0229Y03421*
X02289Y03411*
X0229Y03402*
X02294Y03392*
X023Y03385*
X02308Y03379*
X02317Y03375*
X02327Y03373*
X02336Y03375*
X02342Y03377*
X02368Y03351*
Y03322*
X02363Y03321*
X02359Y0333*
X02353Y03338*
X02346Y03344*
X02336Y03348*
X02327Y03349*
X02317Y03348*
X02308Y03344*
X023Y03338*
X02294Y0333*
X02293Y03327*
X02288Y03328*
Y03364*
X02287Y03369*
X02284Y03373*
X02261Y03396*
X02263Y03402*
X02265Y03411*
X02263Y03421*
X02259Y0343*
X02253Y03438*
X02246Y03444*
X02236Y03448*
X02227Y03449*
X02217Y03448*
X02208Y03444*
X022Y03438*
X02194Y0343*
X0219Y03421*
X02189Y03411*
X0219Y03402*
X02194Y03392*
X022Y03385*
X02208Y03379*
X02217Y03375*
X02227Y03373*
X02236Y03375*
X02242Y03377*
X02261Y03358*
Y03336*
X02256Y03335*
X02253Y03338*
X02246Y03344*
X02236Y03348*
X02227Y03349*
X02217Y03348*
X02208Y03344*
X022Y03338*
X02194Y0333*
X0219Y03321*
X02189Y03311*
X0219Y03302*
X02194Y03292*
X022Y03285*
X02208Y03279*
X02217Y03275*
X02227Y03273*
X02236Y03275*
X02246Y03279*
X02253Y03285*
X02256Y03288*
X02261Y03286*
Y02973*
X02259Y02969*
X02257Y02961*
X02259Y02953*
X02263Y02946*
X0227Y02942*
X02278Y0294*
X02286Y02942*
X02293Y02946*
X02297Y02953*
X02299Y02961*
X02297Y02969*
X02293Y02976*
X02288Y02979*
Y03295*
X02293Y03296*
X02294Y03292*
X023Y03285*
X02308Y03279*
X02317Y03275*
X02327Y03273*
X02336Y03275*
X02346Y03279*
X02353Y03285*
X02359Y03292*
X02363Y03302*
X02368Y03301*
Y03002*
X02367Y03001*
X02362Y02994*
X0236Y02986*
X02362Y02978*
X02367Y02971*
X02373Y02967*
X02381Y02965*
X02389Y02967*
X02396Y02971*
X02401Y02978*
X02402Y02986*
X02401Y02994*
X02396Y03001*
X02395Y03002*
Y03357*
X02394Y03362*
X02391Y03366*
X02361Y03396*
X02363Y03402*
X02365Y03411*
X02363Y03421*
X02359Y0343*
X02353Y03438*
X02346Y03444*
X02336Y03448*
X02327Y03449*
G37*
G36*
X01205Y0348D02*
X01197Y03479D01*
X01191Y03474*
X01186Y03467*
X01185Y03459*
X01186Y03451*
X01191Y03445*
X01195Y03442*
Y0331*
X01192*
X01189Y03309*
X01186Y03307*
X01186Y03307*
X0118*
X0118Y03307*
X01177Y03309*
X01174Y0331*
X01172*
Y03349*
X01173Y0335*
X01178Y03357*
X01179Y03365*
X01178Y03373*
X01173Y0338*
X01167Y03384*
X01159Y03386*
X01151Y03384*
X01144Y0338*
X01139Y03373*
X01138Y03365*
X01139Y03357*
X01144Y0335*
X01145Y03349*
Y0331*
X01143*
X0114Y03309*
X01137Y03307*
X01132Y03309*
X01132Y03309*
X01129Y03311*
X01125Y03312*
X01119*
Y0327*
Y03228*
X01125*
X01129Y03229*
X01132Y03231*
X01132Y03231*
X01137Y03233*
X0114Y03231*
X01143Y0323*
X01174*
X01177Y03231*
X0118Y03233*
X0118Y03233*
X01186*
X01186Y03233*
X01189Y03231*
X01192Y0323*
X01224*
X01227Y03231*
X01229Y03233*
X01234Y0323*
X01235Y03229*
Y03214*
X01235Y03213*
X01233Y03205*
X01235Y03197*
X01235Y03197*
Y02633*
X01234Y02632*
X01229Y02625*
X01227Y02617*
X01229Y02609*
X01234Y02602*
X0124Y02598*
X01248Y02596*
X01256Y02598*
X01263Y02602*
X01268Y02609*
X01269Y02617*
X01268Y02625*
X01263Y02632*
X01262Y02633*
Y03186*
X01262Y03186*
X01269Y03191*
X01274Y03197*
X01275Y03205*
X01274Y03213*
X01269Y0322*
X01262Y03225*
X01262Y03225*
Y0323*
X01273*
X01276Y03231*
X01279Y03233*
X01279Y03233*
X01285*
X01285Y03233*
X01287Y03231*
X0129Y0323*
X01322*
X01325Y03231*
X01328Y03233*
X01328Y03233*
X01334*
X01334Y03233*
X01337Y03231*
X01338Y03231*
Y03116*
X01332Y03108*
X01328Y03097*
X01326Y03086*
X01328Y03075*
X01332Y03064*
X01339Y03055*
X01341Y03054*
Y02941*
X01336*
X01333Y0294*
X0133Y02938*
X01328Y02936*
X01328Y02933*
Y02873*
X01328Y0287*
X0133Y02867*
X01333Y02865*
X01336Y02864*
X01396*
X01399Y02865*
X01402Y02867*
X01403Y0287*
X01404Y02873*
Y02933*
X01403Y02936*
X01402Y02938*
X01399Y0294*
X01396Y02941*
X01378*
Y03044*
X01381Y03044*
X01391Y03049*
X014Y03055*
X01407Y03064*
X01411Y03075*
X01413Y03086*
X01411Y03097*
X01407Y03108*
X014Y03117*
X01391Y03124*
X01381Y03128*
X01375Y03129*
Y03231*
X01377Y03233*
X01379Y03235*
X01379Y03238*
Y03301*
X01379Y03305*
X01377Y03307*
X01375Y03309*
Y03397*
X01378Y03401*
X01379Y03409*
X01378Y03417*
X01373Y03424*
X01367Y03429*
X01359Y0343*
X01351Y03429*
X01344Y03424*
X01339Y03417*
X01338Y03409*
X01338Y03406*
Y03309*
X01337Y03309*
X01334Y03307*
X01334Y03307*
X01328*
X01328Y03307*
X01325Y03309*
X01325Y03309*
X01324Y0331*
X01323Y03314*
X01326Y0332*
X01328Y03328*
X01326Y03336*
X01322Y03343*
X01315Y03347*
X01307Y03349*
X01299Y03347*
X01292Y03343*
X01288Y03336*
X01286Y03328*
X01288Y0332*
X01291Y03315*
X01291Y03313*
X0129Y0331*
X01289Y03309*
X01287Y03309*
X01285Y03307*
X01285Y03307*
X01279*
X01279Y03307*
X01276Y03309*
X01273Y0331*
X01241*
X01238Y03309*
X01235Y03307*
X01235Y03307*
X01229*
X01229Y03307*
X01227Y03309*
X01224Y0331*
X01221*
Y03446*
X01225Y03451*
X01226Y03459*
X01225Y03467*
X0122Y03474*
X01213Y03479*
X01205Y0348*
G37*
G36*
X01827Y03349D02*
X01817Y03348D01*
X01808Y03344*
X018Y03338*
X01794Y0333*
X0179Y03321*
X01789Y03311*
X0179Y03302*
X01794Y03292*
X018Y03285*
X01808Y03279*
X01817Y03275*
X01827Y03273*
X01836Y03275*
X01846Y03279*
X01853Y03285*
X01859Y03292*
X01863Y03302*
X01865Y03311*
X01863Y03321*
X01859Y0333*
X01853Y03338*
X01846Y03344*
X01836Y03348*
X01827Y03349*
G37*
G36*
X02165Y03301D02*
X02137D01*
Y03273*
X02137Y03273*
X02147Y03277*
X02155Y03283*
X02161Y03291*
X02165Y03301*
X02165Y03301*
G37*
G36*
X02027Y03349D02*
X02017Y03348D01*
X02008Y03344*
X02Y03338*
X01994Y0333*
X0199Y03321*
X01989Y03311*
X0199Y03302*
X01994Y03292*
X02Y03285*
X02008Y03279*
X02017Y03275*
X02027Y03273*
X02036Y03275*
X02046Y03279*
X02053Y03285*
X02059Y03292*
X02063Y03302*
X02065Y03311*
X02063Y03321*
X02059Y0333*
X02053Y03338*
X02046Y03344*
X02036Y03348*
X02027Y03349*
G37*
G36*
X01927D02*
X01917Y03348D01*
X01908Y03344*
X019Y03338*
X01894Y0333*
X0189Y03321*
X01889Y03311*
X0189Y03302*
X01894Y03292*
X019Y03285*
X01908Y03279*
X01917Y03275*
X01927Y03273*
X01936Y03275*
X01946Y03279*
X01953Y03285*
X01959Y03292*
X01963Y03302*
X01965Y03311*
X01963Y03321*
X01959Y0333*
X01953Y03338*
X01946Y03344*
X01936Y03348*
X01927Y03349*
G37*
G36*
X01954Y01925D02*
X01941Y01912D01*
X01946Y01907*
X0195Y01905*
X01954Y01904*
X01958Y01905*
X01961Y01907*
X01966Y01912*
X01954Y01925*
G37*
G36*
X03501Y0193D02*
X03491Y01929D01*
X03482Y01925*
X03474Y01919*
X03468Y01911*
X03464Y01902*
X03463Y01893*
X03464Y01883*
X03468Y01874*
X03474Y01866*
X03482Y0186*
X03491Y01856*
X03501Y01855*
X0351Y01856*
X0352Y0186*
X03527Y01866*
X03533Y01874*
X03537Y01883*
X03539Y01893*
X03537Y01902*
X03533Y01911*
X03527Y01919*
X0352Y01925*
X0351Y01929*
X03501Y0193*
G37*
G36*
X03401Y0203D02*
X03391Y02029D01*
X03382Y02025*
X03374Y02019*
X03368Y02011*
X03364Y02002*
X03363Y01993*
X03364Y01983*
X03368Y01974*
X03374Y01966*
X03382Y0196*
X03391Y01956*
X03401Y01955*
X0341Y01956*
X0342Y0196*
X03427Y01966*
X03433Y01974*
X03437Y01983*
X03439Y01993*
X03437Y02002*
X03433Y02011*
X03427Y02019*
X0342Y02025*
X0341Y02029*
X03401Y0203*
G37*
G36*
X03301D02*
X03291Y02029D01*
X03282Y02025*
X03274Y02019*
X03268Y02011*
X03264Y02002*
X03263Y01993*
X03264Y01983*
X03268Y01974*
X03274Y01966*
X03282Y0196*
X03291Y01956*
X03301Y01955*
X0331Y01956*
X0332Y0196*
X03327Y01966*
X03333Y01974*
X03337Y01983*
X03339Y01993*
X03337Y02002*
X03333Y02011*
X03327Y02019*
X0332Y02025*
X0331Y02029*
X03301Y0203*
G37*
G36*
X01899Y0198D02*
X01886Y01968D01*
X01892Y01962*
X01895Y0196*
X01899Y01959*
X01903Y0196*
X01906Y01962*
X01912Y01968*
X01899Y0198*
G37*
G36*
X03501Y0203D02*
X03491Y02029D01*
X03482Y02025*
X03474Y02019*
X03468Y02011*
X03464Y02002*
X03463Y01993*
X03464Y01983*
X03468Y01974*
X03474Y01966*
X03482Y0196*
X03491Y01956*
X03501Y01955*
X0351Y01956*
X0352Y0196*
X03527Y01966*
X03533Y01974*
X03537Y01983*
X03539Y01993*
X03537Y02002*
X03533Y02011*
X03527Y02019*
X0352Y02025*
X0351Y02029*
X03501Y0203*
G37*
G36*
X01927Y01952D02*
X01921Y01946D01*
X01919Y01943*
X01918Y01939*
X01919Y01935*
X01921Y01932*
X01927Y01926*
X01939Y01939*
X01927Y01952*
G37*
G36*
X03201Y0203D02*
X03191Y02029D01*
X03182Y02025*
X03174Y02019*
X03168Y02011*
X03164Y02002*
X03163Y01993*
X03164Y01983*
X03168Y01974*
X03174Y01966*
X03182Y0196*
X03191Y01956*
X03201Y01955*
X0321Y01956*
X0322Y0196*
X03227Y01966*
X03233Y01974*
X03237Y01983*
X03239Y01993*
X03237Y02002*
X03233Y02011*
X03227Y02019*
X0322Y02025*
X0321Y02029*
X03201Y0203*
G37*
G36*
X03401Y0193D02*
X03391Y01929D01*
X03382Y01925*
X03374Y01919*
X03368Y01911*
X03364Y01902*
X03363Y01893*
X03364Y01883*
X03368Y01874*
X03374Y01866*
X03382Y0186*
X03391Y01856*
X03401Y01855*
X0341Y01856*
X0342Y0186*
X03427Y01866*
X03433Y01874*
X03437Y01883*
X03439Y01893*
X03437Y01902*
X03433Y01911*
X03427Y01919*
X0342Y01925*
X0341Y01929*
X03401Y0193*
G37*
G36*
X03301Y0173D02*
X03291Y01729D01*
X03282Y01725*
X03274Y01719*
X03268Y01711*
X03264Y01702*
X03263Y01693*
X03264Y01683*
X03268Y01674*
X03274Y01666*
X03282Y0166*
X03291Y01656*
X03301Y01655*
X0331Y01656*
X0332Y0166*
X03327Y01666*
X03333Y01674*
X03337Y01683*
X03339Y01693*
X03337Y01702*
X03333Y01711*
X03327Y01719*
X0332Y01725*
X0331Y01729*
X03301Y0173*
G37*
G36*
X03201D02*
X03191Y01729D01*
X03182Y01725*
X03174Y01719*
X03168Y01711*
X03164Y01702*
X03163Y01693*
X03164Y01683*
X03168Y01674*
X03174Y01666*
X03182Y0166*
X03191Y01656*
X03201Y01655*
X0321Y01656*
X0322Y0166*
X03227Y01666*
X03233Y01674*
X03237Y01683*
X03239Y01693*
X03237Y01702*
X03233Y01711*
X03227Y01719*
X0322Y01725*
X0321Y01729*
X03201Y0173*
G37*
G36*
X03501Y0183D02*
X03491Y01829D01*
X03482Y01825*
X03474Y01819*
X03468Y01811*
X03464Y01802*
X03463Y01793*
X03464Y01783*
X03468Y01774*
X03474Y01766*
X03482Y0176*
X03491Y01756*
X03501Y01755*
X0351Y01756*
X0352Y0176*
X03527Y01766*
X03533Y01774*
X03537Y01783*
X03539Y01793*
X03537Y01802*
X03533Y01811*
X03527Y01819*
X0352Y01825*
X0351Y01829*
X03501Y0183*
G37*
G36*
X03401D02*
X03391Y01829D01*
X03382Y01825*
X03374Y01819*
X03368Y01811*
X03364Y01802*
X03363Y01793*
X03364Y01783*
X03368Y01774*
X03374Y01766*
X03382Y0176*
X03391Y01756*
X03401Y01755*
X0341Y01756*
X0342Y0176*
X03427Y01766*
X03433Y01774*
X03437Y01783*
X03439Y01793*
X03437Y01802*
X03433Y01811*
X03427Y01819*
X0342Y01825*
X0341Y01829*
X03401Y0183*
G37*
G36*
X03301Y0193D02*
X03291Y01929D01*
X03282Y01925*
X03274Y01919*
X03268Y01911*
X03264Y01902*
X03263Y01893*
X03264Y01883*
X03268Y01874*
X03274Y01866*
X03282Y0186*
X03291Y01856*
X03301Y01855*
X0331Y01856*
X0332Y0186*
X03327Y01866*
X03333Y01874*
X03337Y01883*
X03339Y01893*
X03337Y01902*
X03333Y01911*
X03327Y01919*
X0332Y01925*
X0331Y01929*
X03301Y0193*
G37*
G36*
X03201D02*
X03191Y01929D01*
X03182Y01925*
X03174Y01919*
X03168Y01911*
X03164Y01902*
X03163Y01893*
X03164Y01883*
X03168Y01874*
X03174Y01866*
X03182Y0186*
X03191Y01856*
X03201Y01855*
X0321Y01856*
X0322Y0186*
X03227Y01866*
X03233Y01874*
X03237Y01883*
X03239Y01893*
X03237Y01902*
X03233Y01911*
X03227Y01919*
X0322Y01925*
X0321Y01929*
X03201Y0193*
G37*
G36*
X03501Y0173D02*
X03491Y01729D01*
X03482Y01725*
X03474Y01719*
X03468Y01711*
X03464Y01702*
X03463Y01693*
X03464Y01683*
X03468Y01674*
X03474Y01666*
X03482Y0166*
X03491Y01656*
X03501Y01655*
X0351Y01656*
X0352Y0166*
X03527Y01666*
X03533Y01674*
X03537Y01683*
X03539Y01693*
X03537Y01702*
X03533Y01711*
X03527Y01719*
X0352Y01725*
X0351Y01729*
X03501Y0173*
G37*
G36*
X03401D02*
X03391Y01729D01*
X03382Y01725*
X03374Y01719*
X03368Y01711*
X03364Y01702*
X03363Y01693*
X03364Y01683*
X03368Y01674*
X03374Y01666*
X03382Y0166*
X03391Y01656*
X03401Y01655*
X0341Y01656*
X0342Y0166*
X03427Y01666*
X03433Y01674*
X03437Y01683*
X03439Y01693*
X03437Y01702*
X03433Y01711*
X03427Y01719*
X0342Y01725*
X0341Y01729*
X03401Y0173*
G37*
G36*
X03301Y0183D02*
X03291Y01829D01*
X03282Y01825*
X03274Y01819*
X03268Y01811*
X03264Y01802*
X03263Y01793*
X03264Y01783*
X03268Y01774*
X03274Y01766*
X03282Y0176*
X03291Y01756*
X03301Y01755*
X0331Y01756*
X0332Y0176*
X03327Y01766*
X03333Y01774*
X03337Y01783*
X03339Y01793*
X03337Y01802*
X03333Y01811*
X03327Y01819*
X0332Y01825*
X0331Y01829*
X03301Y0183*
G37*
G36*
X03201D02*
X03191Y01829D01*
X03182Y01825*
X03174Y01819*
X03168Y01811*
X03164Y01802*
X03163Y01793*
X03164Y01783*
X03168Y01774*
X03174Y01766*
X03182Y0176*
X03191Y01756*
X03201Y01755*
X0321Y01756*
X0322Y0176*
X03227Y01766*
X03233Y01774*
X03237Y01783*
X03239Y01793*
X03237Y01802*
X03233Y01811*
X03227Y01819*
X0322Y01825*
X0321Y01829*
X03201Y0183*
G37*
G36*
X01416Y02389D02*
X01406Y02388D01*
X01397Y02384*
X01389Y02378*
X01383Y0237*
X01379Y02361*
X01378Y02351*
X01379Y02342*
X01383Y02333*
X01389Y02325*
X01397Y02319*
X01406Y02315*
X01416Y02314*
X01426Y02315*
X01435Y02319*
X01443Y02325*
X01449Y02333*
X01453Y02342*
X01454Y02351*
X01453Y02361*
X01449Y0237*
X01443Y02378*
X01435Y02384*
X01426Y02388*
X01416Y02389*
G37*
G36*
X01274D02*
X01264Y02388D01*
X01255Y02384*
X01247Y02378*
X01241Y0237*
X01237Y02361*
X01236Y02351*
X01237Y02342*
X01241Y02333*
X01247Y02325*
X01255Y02319*
X01264Y02315*
X01274Y02314*
X01284Y02315*
X01293Y02319*
X01301Y02325*
X01307Y02333*
X0131Y02342*
X01312Y02351*
X0131Y02361*
X01307Y0237*
X01301Y02378*
X01293Y02384*
X01284Y02388*
X01274Y02389*
G37*
G36*
X03501Y0243D02*
X03491Y02429D01*
X03482Y02425*
X03474Y02419*
X03468Y02411*
X03464Y02402*
X03463Y02393*
X03464Y02383*
X03466Y02377*
X0345Y0236*
X03447Y02356*
X03446Y02351*
Y02314*
X03445Y0231*
Y02275*
X03446Y02271*
Y02258*
X03443Y02256*
X03438Y0225*
X03436Y02242*
X03438Y02234*
X03443Y02227*
X03449Y02222*
X03457Y02221*
X03465Y02222*
X03472Y02227*
X03477Y02234*
X03478Y02242*
X03477Y0225*
X03472Y02256*
X03473Y02261*
X03477Y02263*
X03482Y0226*
X03491Y02256*
X03501Y02255*
X0351Y02256*
X0352Y0226*
X03527Y02266*
X03533Y02274*
X03537Y02283*
X03539Y02293*
X03537Y02302*
X03533Y02311*
X03527Y02319*
X0352Y02325*
X0351Y02329*
X03501Y0233*
X03491Y02329*
X03482Y02325*
X03477Y02322*
X03472Y02324*
Y02345*
X03485Y02358*
X03491Y02356*
X03501Y02355*
X0351Y02356*
X0352Y0236*
X03527Y02366*
X03533Y02374*
X03537Y02383*
X03539Y02393*
X03537Y02402*
X03533Y02411*
X03527Y02419*
X0352Y02425*
X0351Y02429*
X03501Y0243*
G37*
G36*
X03401D02*
X03391Y02429D01*
X03382Y02425*
X03374Y02419*
X03368Y02411*
X03364Y02402*
X03363Y02393*
X03364Y02383*
X03368Y02374*
X03374Y02366*
X03382Y0236*
X03391Y02356*
X03401Y02355*
X0341Y02356*
X0342Y0236*
X03427Y02366*
X03433Y02374*
X03437Y02383*
X03439Y02393*
X03437Y02402*
X03433Y02411*
X03427Y02419*
X0342Y02425*
X0341Y02429*
X03401Y0243*
G37*
G36*
X00387Y03464D02*
X00317D01*
X00314Y03463*
X00311Y03461*
X00309Y03458*
X00309Y03455*
Y03385*
X00309Y03382*
X00311Y0338*
X00314Y03378*
X00317Y03377*
X00343*
Y02324*
X00341Y02323*
X00337Y02316*
X00335Y02308*
X00337Y023*
X00341Y02293*
X00348Y02289*
X00356Y02287*
X00364Y02289*
X00371Y02293*
X00376Y023*
X00377Y02308*
X00376Y02316*
X00371Y02323*
X00369Y02324*
Y03377*
X00387*
X0039Y03378*
X00393Y0338*
X00394Y03382*
X00395Y03385*
Y03455*
X00394Y03458*
X00393Y03461*
X0039Y03463*
X00387Y03464*
G37*
G36*
X00119Y02292D02*
X0009D01*
Y02263*
X00091Y02263*
X001Y02267*
X00109Y02274*
X00115Y02282*
X00119Y02292*
X00119Y02292*
G37*
G36*
X0009Y02341D02*
Y02312D01*
X00119*
X00119Y02313*
X00115Y02322*
X00109Y02331*
X001Y02337*
X00091Y02341*
X0009Y02341*
G37*
G36*
X0007D02*
X0007Y02341D01*
X0006Y02337*
X00052Y02331*
X00045Y02322*
X00041Y02313*
X00041Y02312*
X0007*
Y02341*
G37*
G36*
X03501Y0253D02*
X03491Y02529D01*
X03482Y02525*
X03474Y02519*
X03468Y02511*
X03464Y02502*
X03463Y02493*
X03464Y02483*
X03468Y02474*
X03474Y02466*
X03482Y0246*
X03491Y02456*
X03501Y02455*
X0351Y02456*
X0352Y0246*
X03527Y02466*
X03533Y02474*
X03537Y02483*
X03539Y02493*
X03537Y02502*
X03533Y02511*
X03527Y02519*
X0352Y02525*
X0351Y02529*
X03501Y0253*
G37*
G36*
X034D02*
X03391Y02529D01*
X03382Y02525*
X03374Y02519*
X03368Y02511*
X03364Y02502*
X03363Y02493*
X03364Y02483*
X03368Y02474*
X03374Y02466*
X03382Y0246*
X03391Y02456*
X034Y02455*
X0341Y02456*
X03419Y0246*
X03427Y02466*
X03433Y02474*
X03437Y02483*
X03438Y02493*
X03437Y02502*
X03433Y02511*
X03427Y02519*
X03419Y02525*
X0341Y02529*
X034Y0253*
G37*
G36*
X01027Y02539D02*
X01017Y02538D01*
X01008Y02534*
X01Y02528*
X00994Y0252*
X00991Y02511*
X00989Y02501*
X00991Y02491*
X00994Y02482*
X01Y02474*
X01008Y02468*
X01017Y02465*
X01027Y02463*
X01037Y02465*
X01046Y02468*
X01054Y02474*
X0106Y02482*
X01064Y02491*
X01065Y02501*
X01064Y02511*
X0106Y0252*
X01054Y02528*
X01046Y02534*
X01037Y02538*
X01027Y02539*
G37*
G36*
X00922D02*
X00913Y02538D01*
X00903Y02534*
X00896Y02528*
X0089Y0252*
X00886Y02511*
X00884Y02501*
X00886Y02491*
X0089Y02482*
X00896Y02474*
X00903Y02468*
X00913Y02465*
X00922Y02463*
X00932Y02465*
X00941Y02468*
X00949Y02474*
X00955Y02482*
X00959Y02491*
X0096Y02501*
X00959Y02511*
X00955Y0252*
X00949Y02528*
X00941Y02534*
X00932Y02538*
X00922Y02539*
G37*
G36*
X00119Y02388D02*
X0009D01*
Y02359*
X00091Y02359*
X001Y02363*
X00109Y02369*
X00115Y02378*
X00119Y02387*
X00119Y02388*
G37*
G36*
X0007D02*
X00041D01*
X00041Y02387*
X00045Y02378*
X00052Y02369*
X0006Y02363*
X0007Y02359*
X0007Y02359*
Y02388*
G37*
G36*
X0009Y02437D02*
Y02408D01*
X00119*
X00119Y02408*
X00115Y02418*
X00109Y02426*
X001Y02433*
X00091Y02437*
X0009Y02437*
G37*
G36*
X0007D02*
X0007Y02437D01*
X0006Y02433*
X00052Y02426*
X00045Y02418*
X00041Y02408*
X00041Y02408*
X0007*
Y02437*
G37*
G36*
Y02292D02*
X00041D01*
X00041Y02292*
X00045Y02282*
X00052Y02274*
X0006Y02267*
X0007Y02263*
X0007Y02263*
Y02292*
G37*
G36*
X03501Y0213D02*
X03491Y02129D01*
X03482Y02125*
X03474Y02119*
X03468Y02111*
X03464Y02102*
X03463Y02093*
X03464Y02083*
X03468Y02074*
X03474Y02066*
X03482Y0206*
X03491Y02056*
X03501Y02055*
X0351Y02056*
X0352Y0206*
X03527Y02066*
X03533Y02074*
X03537Y02083*
X03539Y02093*
X03537Y02102*
X03533Y02111*
X03527Y02119*
X0352Y02125*
X0351Y02129*
X03501Y0213*
G37*
G36*
X03401D02*
X03391Y02129D01*
X03382Y02125*
X03374Y02119*
X03368Y02111*
X03364Y02102*
X03363Y02093*
X03364Y02083*
X03368Y02074*
X03374Y02066*
X03382Y0206*
X03391Y02056*
X03401Y02055*
X0341Y02056*
X0342Y0206*
X03427Y02066*
X03433Y02074*
X03437Y02083*
X03439Y02093*
X03437Y02102*
X03433Y02111*
X03427Y02119*
X0342Y02125*
X0341Y02129*
X03401Y0213*
G37*
G36*
X02021Y02177D02*
X02011Y02167D01*
X02009Y02164*
X02008Y0216*
X02009Y02156*
X02011Y02153*
X02021Y02143*
X02038Y0216*
X02021Y02177*
G37*
G36*
X01581Y0215D02*
X01572Y02149D01*
X01562Y02145*
X01555Y02139*
X01549Y02131*
X01545Y02122*
X01544Y02112*
X01545Y02102*
X01549Y02093*
X01555Y02085*
X01562Y02079*
X01572Y02076*
X01581Y02074*
X01591Y02076*
X016Y02079*
X01608Y02085*
X01614Y02093*
X01618Y02102*
X01619Y02112*
X01618Y02122*
X01614Y02131*
X01608Y02139*
X016Y02145*
X01591Y02149*
X01581Y0215*
G37*
G36*
X01585Y02058D02*
X01575Y02057D01*
X01566Y02053*
X01558Y02047*
X01552Y02039*
X01548Y0203*
X01547Y0202*
X01548Y0201*
X01552Y02001*
X01558Y01993*
X01566Y01987*
X01575Y01983*
X01585Y01982*
X01594Y01983*
X01603Y01987*
X01611Y01993*
X01617Y02001*
X01621Y0201*
X01622Y0202*
X01621Y0203*
X01617Y02039*
X01611Y02047*
X01603Y02053*
X01594Y02057*
X01585Y02058*
G37*
G36*
X01872Y02007D02*
X01867Y02002D01*
X01864Y01998*
X01864Y01995*
X01864Y01991*
X01867Y01987*
X01872Y01982*
X01885Y01995*
X01872Y02007*
G37*
G36*
X03301Y0213D02*
X03291Y02129D01*
X03282Y02125*
X03274Y02119*
X03268Y02111*
X03264Y02102*
X03263Y02093*
X03264Y02083*
X03268Y02074*
X03274Y02066*
X03282Y0206*
X03291Y02056*
X03301Y02055*
X0331Y02056*
X0332Y0206*
X03327Y02066*
X03333Y02074*
X03337Y02083*
X03339Y02093*
X03337Y02102*
X03333Y02111*
X03327Y02119*
X0332Y02125*
X0331Y02129*
X03301Y0213*
G37*
G36*
X03201D02*
X03191Y02129D01*
X03182Y02125*
X03174Y02119*
X03168Y02111*
X03164Y02102*
X03163Y02093*
X03164Y02083*
X03168Y02074*
X03174Y02066*
X03182Y0206*
X03191Y02056*
X03201Y02055*
X0321Y02056*
X0322Y0206*
X03227Y02066*
X03233Y02074*
X03237Y02083*
X03239Y02093*
X03237Y02102*
X03233Y02111*
X03227Y02119*
X0322Y02125*
X0321Y02129*
X03201Y0213*
G37*
G36*
X0007Y02245D02*
X0007Y02245D01*
X0006Y02241*
X00052Y02235*
X00045Y02226*
X00041Y02217*
X00041Y02216*
X0007*
Y02245*
G37*
G36*
X03042Y02761D02*
X03034Y02759D01*
X03027Y02755*
X03023Y02748*
X03021Y0274*
X03023Y02732*
X03027Y02725*
X03029Y02724*
Y02216*
X03027Y02215*
X03023Y02208*
X03021Y022*
X03023Y02192*
X03027Y02185*
X03034Y02181*
X03042Y02179*
X0305Y02181*
X03057Y02185*
X03061Y02192*
X03063Y022*
X03061Y02208*
X03057Y02215*
X03055Y02216*
Y02724*
X03057Y02725*
X03061Y02732*
X03063Y0274*
X03061Y02748*
X03057Y02755*
X0305Y02759*
X03042Y02761*
G37*
G36*
X03401Y0233D02*
X03391Y02329D01*
X03382Y02325*
X03374Y02319*
X03368Y02311*
X03364Y02302*
X03363Y02293*
X03364Y02283*
X03368Y02274*
X03374Y02266*
X03382Y0226*
X03391Y02256*
X03401Y02255*
X0341Y02256*
X0342Y0226*
X03427Y02266*
X03433Y02274*
X03437Y02283*
X03439Y02293*
X03437Y02302*
X03433Y02311*
X03427Y02319*
X0342Y02325*
X0341Y02329*
X03401Y0233*
G37*
G36*
X0009Y02245D02*
Y02216D01*
X00119*
X00119Y02217*
X00115Y02226*
X00109Y02235*
X001Y02241*
X00091Y02245*
X0009Y02245*
G37*
G36*
X03501Y0223D02*
X03491Y02229D01*
X03482Y02225*
X03474Y02219*
X03468Y02211*
X03464Y02202*
X03463Y02193*
X03464Y02183*
X03468Y02174*
X03474Y02166*
X03482Y0216*
X03491Y02156*
X03501Y02155*
X0351Y02156*
X0352Y0216*
X03527Y02166*
X03533Y02174*
X03537Y02183*
X03539Y02193*
X03537Y02202*
X03533Y02211*
X03527Y02219*
X0352Y02225*
X0351Y02229*
X03501Y0223*
G37*
G36*
X03401Y02229D02*
X03391Y02228D01*
X03382Y02224*
X03374Y02218*
X03368Y0221*
X03364Y02201*
X03363Y02192*
X03364Y02182*
X03368Y02173*
X03374Y02165*
X03382Y02159*
X03391Y02155*
X03401Y02154*
X0341Y02155*
X0342Y02159*
X03427Y02165*
X03433Y02173*
X03437Y02182*
X03439Y02192*
X03437Y02201*
X03433Y0221*
X03427Y02218*
X0342Y02224*
X0341Y02228*
X03401Y02229*
G37*
G36*
X00119Y02196D02*
X0009D01*
Y02167*
X00091Y02167*
X001Y02171*
X00109Y02178*
X00115Y02186*
X00119Y02196*
X00119Y02196*
G37*
G36*
X0007D02*
X00041D01*
X00041Y02196*
X00045Y02186*
X00052Y02178*
X0006Y02171*
X0007Y02167*
X0007Y02167*
Y02196*
G37*
G36*
X02664Y01901D02*
X02658D01*
Y01886*
X02674*
Y01891*
X02673Y01895*
X02671Y01899*
X02668Y01901*
X02664Y01901*
G37*
G36*
X02638D02*
X02632D01*
X02628Y01901*
X02625Y01899*
X02623Y01895*
X02622Y01891*
Y01886*
X02638*
Y01901*
G37*
G36*
X02497Y0191D02*
X02489Y01909D01*
X02482Y01904*
X02479Y019*
X02476Y01901*
X0245*
Y01877*
X02464*
X02468Y01878*
X02471Y0188*
X02472Y01882*
X02475Y01881*
X02478Y01881*
X02482Y01874*
X02489Y0187*
X02497Y01868*
X02505Y0187*
X02512Y01874*
X02516Y01881*
X02518Y01889*
X02516Y01897*
X02512Y01904*
X02505Y01909*
X02497Y0191*
G37*
G36*
X02546D02*
X02538Y01909D01*
X02531Y01904*
X02526Y01897*
X02525Y01889*
X02526Y01881*
X02531Y01874*
X02538Y0187*
X02546Y01868*
X02554Y0187*
X02561Y01874*
X02565Y01881*
X02567Y01889*
X02565Y01897*
X02561Y01904*
X02554Y01909*
X02546Y0191*
G37*
G36*
X0243Y01901D02*
X02407D01*
Y01887*
X02407Y01883*
X0241Y0188*
X02413Y01878*
X02417Y01877*
X0243*
Y01901*
G37*
G36*
X02595Y0191D02*
X02587Y01909D01*
X0258Y01904*
X02575Y01897*
X02574Y01889*
X02575Y01881*
X0258Y01874*
X02587Y0187*
X02595Y01868*
X02603Y0187*
X0261Y01874*
X02614Y01881*
X02616Y01889*
X02614Y01897*
X0261Y01904*
X02603Y01909*
X02595Y0191*
G37*
G36*
X02527Y01965D02*
X02509D01*
Y01957*
X0251Y01953*
X02512Y0195*
X02515Y01948*
X02519Y01947*
X02527*
Y01965*
G37*
G36*
X02565D02*
X02547D01*
Y01947*
X02555*
X02559Y01948*
X02562Y0195*
X02564Y01953*
X02565Y01957*
Y01965*
G37*
G36*
X02664Y02003D02*
X02632D01*
X02629Y02002*
X02626Y02*
X02625Y01998*
X02624Y01994*
Y01984*
X02619Y01981*
X02619Y01981*
X02615Y01988*
X02608Y01992*
X026Y01994*
X02592Y01992*
X02585Y01988*
X02581Y01981*
X02579Y01973*
X02581Y01965*
X02585Y01958*
X02592Y01954*
X026Y01952*
X02608Y01954*
X02615Y01958*
X02619Y01965*
X02619Y01965*
X02624Y01963*
X02625Y0196*
X02626Y01957*
X02627Y01957*
X02627Y01951*
X02627Y01951*
X02625Y01949*
X02625Y01946*
Y01916*
X02625Y01912*
X02627Y0191*
X0263Y01908*
X02633Y01907*
X02663*
X02666Y01908*
X02669Y0191*
X0267Y01912*
X02671Y01916*
Y01946*
X0267Y01949*
X02669Y01951*
X02669Y01951*
X02669Y01957*
X02669Y01957*
X02671Y0196*
X02672Y01963*
Y01994*
X02671Y01998*
X02669Y02*
X02667Y02002*
X02664Y02003*
G37*
%LNpcb_ttc_rf4463f30-3*%
%LPD*%
G54D10*
X02037Y0202D03*
X01981Y02076D03*
G54D11*
X02788Y0318D03*
X02733D03*
X02844D03*
X02899D03*
X01558Y02796D03*
X01503D03*
X01668Y02795D03*
X01734Y03024D03*
X01789D03*
G54D12*
X01366Y02903D03*
X01501D03*
G54D13*
X01993Y01978D03*
X01954Y01939D03*
X01938Y02034D03*
X01899Y01995D03*
X02098Y02695D03*
X02137Y02734D03*
G54D14*
X01732Y02961D03*
X01787D03*
X02435Y01975D03*
X0238D03*
G54D15*
X02099Y02199D03*
X0206Y02237D03*
X02015Y02293D03*
X01976Y02332D03*
X02704Y02738D03*
X02665Y02777D03*
G54D16*
X02052Y0216D03*
X02Y02212D03*
X02754Y0278D03*
X02702Y02832D03*
X01958Y02262D03*
X01907Y02314D03*
G54D17*
X0244Y01911D03*
X02367D03*
G54D18*
X02048Y02733D03*
X021Y02785D03*
G54D19*
X02537Y01975D03*
Y0203D03*
G54D20*
X01159Y0327D03*
X01257D03*
X01355D03*
X01109D03*
X01208D03*
X01306D03*
X02742Y0328D03*
X0284D03*
X02938D03*
X02692D03*
X02791D03*
X02889D03*
G54D21*
X01458Y03392D03*
X01007D03*
X03041Y03402D03*
X0259D03*
G54D22*
X02034Y02421D03*
X02048Y02407D03*
X02062Y02393D03*
X02076Y02379D03*
X02089Y02365D03*
X02103Y02351D03*
X02117Y02337D03*
X02131Y02324D03*
X02145Y0231D03*
X02159Y02296D03*
X02173Y02282D03*
X02187Y02268D03*
X02201Y02254D03*
X02215Y0224D03*
X02229Y02226D03*
X02243Y02212D03*
X02257Y02198D03*
X0227Y02184D03*
X02284Y0217D03*
X02298Y02157D03*
X02312Y02143D03*
X02326Y02129D03*
X0234Y02115D03*
X02354Y02101D03*
X02368Y02087D03*
X0279Y02509D03*
X02776Y02523D03*
X02762Y02537D03*
X02748Y0255D03*
X02734Y02564D03*
X0272Y02578D03*
X02706Y02592D03*
X02692Y02606D03*
X02678Y0262D03*
X02664Y02634D03*
X0265Y02648D03*
X02637Y02662D03*
X02623Y02676D03*
X02609Y0269D03*
X02595Y02704D03*
X02581Y02717D03*
X02567Y02731D03*
X02553Y02745D03*
X02539Y02759D03*
X02525Y02773D03*
X02511Y02787D03*
X02497Y02801D03*
X02483Y02815D03*
X02469Y02829D03*
X02456Y02843D03*
G54D23*
X02456Y02087D03*
X02469Y02101D03*
X02483Y02115D03*
X02497Y02129D03*
X02511Y02143D03*
X02525Y02157D03*
X02539Y0217D03*
X02553Y02184D03*
X02567Y02198D03*
X02581Y02212D03*
X02595Y02226D03*
X02609Y0224D03*
X02623Y02254D03*
X02637Y02268D03*
X0265Y02282D03*
X02664Y02296D03*
X02678Y0231D03*
X02692Y02324D03*
X02706Y02337D03*
X0272Y02351D03*
X02734Y02365D03*
X02748Y02379D03*
X02762Y02393D03*
X02776Y02407D03*
X0279Y02421D03*
X02368Y02843D03*
X02354Y02829D03*
X0234Y02815D03*
X02326Y02801D03*
X02312Y02787D03*
X02298Y02773D03*
X02284Y02759D03*
X0227Y02745D03*
X02257Y02731D03*
X02243Y02717D03*
X02229Y02704D03*
X02215Y0269D03*
X02201Y02676D03*
X02187Y02662D03*
X02173Y02648D03*
X02159Y02634D03*
X02145Y0262D03*
X02131Y02606D03*
X02117Y02592D03*
X02103Y02578D03*
X02089Y02564D03*
X02076Y0255D03*
X02062Y02537D03*
X02048Y02523D03*
X02034Y02509D03*
G54D24*
X02098Y02964D03*
X02056Y02923D03*
X02014Y02881D03*
G54D25*
X01613Y02795D03*
G54D26*
X01788Y03107D03*
X01634D03*
G54D27*
X02648Y01931D03*
G54D28*
X02648Y01876D03*
Y01979D03*
Y02034D03*
G54D29*
X00214Y01513D03*
X01731D03*
G54D30*
X00305Y01422D03*
X00124D03*
X00305Y01603D03*
X00124D03*
X01641D03*
X01822D03*
X01641Y01422D03*
X01822D03*
G54D31*
X02877Y00411D03*
Y00568D03*
Y00725D03*
Y00883D03*
Y0104D03*
Y01198D03*
Y01355D03*
Y01513D03*
X02051Y00411D03*
Y00568D03*
Y00725D03*
Y00883D03*
Y0104D03*
Y01198D03*
Y01355D03*
X01348Y00411D03*
Y00568D03*
Y00725D03*
Y00883D03*
Y0104D03*
Y01198D03*
Y01355D03*
Y01513D03*
X00521Y00411D03*
Y00568D03*
Y00725D03*
Y00883D03*
Y0104D03*
Y01198D03*
Y01355D03*
G54D32*
X02051Y01513D03*
X00521D03*
G54D33*
X03144Y00129D03*
X03018D03*
G54D34*
X02981Y03061D02*
Y03232D01*
X02928Y03262D02*
D01*
X03575Y01367D02*
Y03051D01*
X03501Y01293D02*
X03575Y01367D01*
X03401Y01293D02*
X03497D01*
X02938Y03274D02*
X02981Y03232D01*
X02888Y03263D02*
X02889Y03262D01*
X03046Y01473D02*
X03046Y01473D01*
X02889Y03262D02*
X02928D01*
G54D35*
X02705Y01128D02*
Y02283D01*
X00714Y01278D02*
Y0262D01*
X02198Y00543D02*
Y01502D01*
X02774Y00929D02*
Y02298D01*
X02217Y00595D02*
Y02131D01*
X02196Y00541D02*
X02198Y00543D01*
X02196Y00128D02*
Y00541D01*
Y00128D02*
X02198Y00126D01*
Y01533D02*
Y02139D01*
Y01533D02*
X02198Y01532D01*
Y01502D02*
Y01532D01*
X02198Y01502D02*
X02198Y01502D01*
X02198Y02139D02*
X02257Y02198D01*
X02278Y02961D02*
X02279D01*
X02274Y02964D02*
Y03364D01*
Y02964D02*
X02276Y02962D01*
X02227Y03411D02*
X02274Y03364D01*
X02327Y03411D02*
X02381Y03357D01*
Y02986D02*
Y03357D01*
X01208Y0327D02*
Y03456D01*
X01727Y03311D02*
X01787Y03251D01*
X01087Y02598D02*
X01087Y02599D01*
X01257Y0327D02*
X01263Y03264D01*
X02537Y0203D02*
Y02033D01*
X02648Y01931D02*
Y01979D01*
Y02034D02*
Y02062D01*
X02776Y02407D02*
X02776D01*
X0279Y02421D02*
X02819Y02392D01*
X02105Y02964D02*
X02124Y02945D01*
Y02864D02*
Y02945D01*
X02049Y02853D02*
X02107D01*
X02022Y0288D02*
X02049Y02853D01*
X02107D02*
X02243Y02717D01*
X02124Y02864D02*
X02257Y02731D01*
X02488Y02456D02*
X02498Y02446D01*
X02488Y02456D02*
Y02736D01*
X02525Y02773*
X02326Y02129D02*
X02394Y02196D01*
X02397*
X03565Y03061D02*
X03575Y03051D01*
X02899Y03147D02*
X02902Y03144D01*
X02899Y03147D02*
Y0318D01*
X02733Y03147D02*
X02735Y03145D01*
X02733Y03147D02*
Y0318D01*
X02698Y03086D02*
Y03213D01*
X02742Y03256*
Y0328*
X02456Y02843D02*
X02698Y03086D01*
X02469Y02829D02*
X02791Y0315D01*
X02484Y02815D02*
X0284Y03171D01*
X02483Y02815D02*
X02484D01*
X01306Y0327D02*
X01307Y03271D01*
Y03328*
X02094Y02453D02*
X02098D01*
X02048Y02407D02*
X02094Y02453D01*
X02062Y02393D02*
X02096Y02427D01*
X02117Y02337D02*
X02152Y02372D01*
X02131Y02324D02*
X02176Y02368D01*
X02709Y00714D02*
X0272Y00725D01*
X00685Y02671D02*
X00707Y02694D01*
X00685Y01289D02*
Y02671D01*
X00726Y00561D02*
Y01244D01*
X00521Y0104D02*
X00588D01*
X00589Y00883D02*
X0065Y00943D01*
X00576Y00411D02*
X00726Y00561D01*
X00521Y00883D02*
X00589D01*
X01403D02*
X01473Y00953D01*
X01344Y00722D02*
X01348Y00725D01*
X01244Y00722D02*
X01344D01*
X01413Y00568D02*
X01512Y00667D01*
Y00992*
X01348Y00883D02*
X01403D01*
X01348Y00568D02*
X01413D01*
X00521Y00411D02*
X00576D01*
X00521Y00568D02*
X00575D01*
X00459Y00725D02*
X00521D01*
X02292Y02081D02*
X02306D01*
X0234Y02115*
X02307Y02056D02*
X02309D01*
X02354Y02101*
X02358Y02188D02*
Y02308D01*
X02312Y02143D02*
X02358Y02188D01*
X00352Y0342D02*
X00356Y03416D01*
Y02308D02*
Y03416D01*
X02265Y00417D02*
X0227Y00422D01*
X02709Y01101D02*
X02728Y0112D01*
X02692Y02324D02*
X02728Y02288D01*
X02817Y00883D02*
X02877D01*
X02051Y00725D02*
X0206Y00735D01*
X02051Y00568D02*
X02056Y00574D01*
X02768Y00874D02*
X02808D01*
X02817Y00883*
X01862Y01046D02*
X01866Y01049D01*
X01862Y00396D02*
X01885Y00418D01*
X01862Y00883D02*
X01863Y00883D01*
X02051D02*
X02057Y00876D01*
X01862Y00721D02*
X01867Y00725D01*
X01862Y00558D02*
X01872Y00568D01*
X01302Y01513D02*
X01348D01*
X03153Y00493D02*
X03157Y00489D01*
X01862Y01046D02*
X01868Y0104D01*
X01724Y01504D02*
D01*
X00211Y01504D02*
X00212Y01504D01*
X01734Y03024D02*
Y03137D01*
X01916Y02933D02*
Y03137D01*
X02609Y0269D02*
X02665Y02746D01*
Y02777*
X02749Y02989D02*
X02899Y03139D01*
X02702Y02832D02*
Y02856D01*
X02749Y02903*
Y02989*
X02665Y02777D02*
Y02787D01*
X02702Y02824*
Y02832*
X02883Y0279D02*
Y02957D01*
X0279Y02509D02*
X02938Y02657D01*
Y02784*
X03042Y022D02*
Y0274D01*
X02348Y02067D02*
X02368Y02087D01*
X02348Y02011D02*
Y02067D01*
Y02011D02*
X02375Y01983D01*
X02043Y02068D02*
X02215Y0224D01*
X02043Y02038D02*
Y02068D01*
X01939Y02034D02*
X01981Y02076D01*
X01938Y02034D02*
X01939D01*
X02035Y0202D02*
X02037D01*
X01993Y01978D02*
X02035Y0202D01*
X01387Y02796D02*
X014Y02795D01*
X01957Y02332D02*
X01976D01*
X01822Y01603D02*
X01854Y01571D01*
X00714Y0262D02*
X00726Y02633D01*
X0065Y00943D02*
Y01214D01*
X00714Y01278*
X00588Y0104D02*
X00626Y01078D01*
Y01231*
X00685Y01289*
X02842Y02778D02*
Y02985D01*
X0265Y02648D02*
X0268Y02677D01*
X02741*
X02842Y02778*
X02056Y00574D02*
X02151D01*
X0206Y00735D02*
X02151D01*
X02157*
X02057Y00876D02*
X02151D01*
Y00418D02*
X02157D01*
X02734Y01049D02*
X0275Y01065D01*
Y02293*
X02938Y03274D02*
Y0328D01*
X02198Y00126D02*
X0221Y00114D01*
X02375Y01857D02*
X02375Y01856D01*
X02877Y01513D02*
X02933D01*
X007Y00693D02*
Y011D01*
X00575Y00568D02*
X007Y00693D01*
X00726Y01244D02*
X00761Y01279D01*
X00762*
X02709Y00195D02*
Y00714D01*
Y00195D02*
X02766Y00138D01*
X02812*
X0272Y00725D02*
X02877D01*
X01863Y00883D02*
X02051D01*
X01867Y00725D02*
X02051D01*
X01872Y00568D02*
X02051D01*
X02709Y00737D02*
X0272Y00725D01*
X00521D02*
X0058D01*
X02217Y00595D02*
X02231Y00581D01*
X02217Y02131D02*
X0227Y02184D01*
X01996Y02081D02*
X02028D01*
X02201Y02254*
X02238Y00741D02*
X02244Y00734D01*
X0227Y00432D02*
Y01768D01*
X02256Y01782D02*
X0227Y01768D01*
X02256Y01782D02*
Y02114D01*
X02298Y02157*
X02262Y00424D02*
X0227Y00432D01*
X02238Y02124D02*
X02284Y0217D01*
X02238Y00741D02*
Y02124D01*
X02468Y02744D02*
X02511Y02787D01*
X02437Y02348D02*
Y0274D01*
X02497Y02801*
X02468Y02239D02*
Y02744D01*
X03246Y02151D02*
X03252Y02157D01*
Y02544*
X03301Y02593*
X02664Y02634D02*
X0269Y02659D01*
X02752*
X02883Y0279*
X01854Y02827D02*
Y02866D01*
Y02827D02*
X02103Y02578D01*
X01787Y02867D02*
X02089Y02564D01*
X01787Y02867D02*
Y02961D01*
X01473Y00953D02*
Y02497D01*
X02187Y02533D02*
Y02551D01*
X02117Y02592D02*
X02155Y02555D01*
X02706Y02337D02*
X0275Y02293D01*
X02728Y0112D02*
Y02288D01*
X02539Y0217D02*
X02648Y02062D01*
X02131Y02606D02*
X02187Y02551D01*
X02776Y02407D02*
X0289Y02293D01*
X02469Y02101D02*
X02537Y02033D01*
X02819Y02392D02*
X0289D01*
X02159Y02634D02*
X02188Y02605D01*
X02229*
X02145Y0262D02*
X02146D01*
Y02618D02*
X02208Y02556D01*
X02216*
X0272Y02351D02*
X02774Y02298D01*
X02581Y02212D02*
X02628Y02165D01*
X02635*
X02683Y00871D02*
Y01107D01*
Y00191D02*
X02684Y0019D01*
X02683Y00191D02*
Y00871D01*
X02709Y00737D02*
Y0086D01*
X02709Y00861*
Y00882*
X02709Y00882D02*
X02709Y00882D01*
X02709Y00882D02*
Y01101D01*
X0058Y00725D02*
X00674Y0082D01*
Y01166*
X02118Y02282D02*
X02145Y0231D01*
X02048Y02335D02*
X02101Y02282D01*
X02118*
X02158Y02296D02*
X02159D01*
X02128Y02237D02*
X02173Y02282D01*
X01958Y02262D02*
X01985D01*
X02015Y02293*
X02052*
X02082Y02262*
X02126*
X02159Y02296*
X02052Y0216D02*
X02079D01*
X02172Y02648D02*
X02173D01*
X02149Y02673D02*
X02172Y0265D01*
X02146Y02673D02*
X02149D01*
X02048Y02733D02*
X02086D01*
X02172Y02648D02*
Y0265D01*
X02086Y02733D02*
X02146Y02673D01*
X02623Y02676D02*
X02624D01*
Y02678D02*
X02647Y02701D01*
X02675*
X02624Y02676D02*
Y02678D01*
X02675Y02701D02*
X02754Y0278D01*
X02187Y02268D02*
X02188D01*
Y0227D02*
X02211Y02293D01*
X02239*
X02261Y02271*
Y02258D02*
Y02271D01*
X02229Y02226D02*
X02261Y02258D01*
X02229Y02226D02*
Y02226D01*
X02188Y02268D02*
Y0227D01*
X02079Y0216D02*
X02187Y02268D01*
X02456Y02087D02*
X02482Y02061D01*
X02433Y02109D02*
X02456Y02087D01*
X0244Y01911D02*
Y01981D01*
X02482Y02022*
Y02061*
X02149Y0255D02*
X02155Y02555D01*
X02149Y02518D02*
Y0255D01*
X02229Y02605D02*
X02241Y02617D01*
X02242*
X02512Y02733D02*
X02539Y02759D01*
X03459Y02351D02*
X03501Y02393D01*
X03459Y02246D02*
Y02274D01*
X03458Y02275D02*
X03459Y02274D01*
X03458Y02275D02*
Y0231D01*
X03459Y02311*
Y02351*
X01563Y02792D02*
X01614D01*
X02678Y0231D02*
X02705Y02283D01*
X02683Y01107D02*
X02705Y01128D01*
X0284Y03171D02*
Y0328D01*
X02029Y02025D02*
X02043Y02038D01*
X02791Y0315D02*
Y0328D01*
X01208Y03456D02*
X01212Y0346D01*
X01159Y0327D02*
Y03368D01*
X01248Y02617D02*
Y03249D01*
X01263Y03264*
X02747Y00553D02*
X02892D01*
X02146Y02618D02*
Y0262D01*
X00674Y01166D02*
X00696Y01187D01*
X01087Y00719D02*
Y02598D01*
X01885Y00418D02*
X02151D01*
X02512Y02538D02*
Y02733D01*
X0276Y00916D02*
X02774Y00929D01*
X01787Y02961D02*
Y03251D01*
X01866Y01049D02*
X01866Y01048D01*
X02151*
X02635Y00141D02*
X02684Y0019D01*
X0198Y02185D02*
X01995D01*
X02047Y02237D02*
X02128D01*
X0189Y02265D02*
X01957Y02332D01*
X01995Y02185D02*
X02047Y02237D01*
X014Y02795D02*
X01508D01*
X01916Y02933D02*
X02187Y02662D01*
X01976Y02335D02*
X02048D01*
X01729Y03141D02*
X01734Y03137D01*
X02375Y01857D02*
Y01983D01*
X02096Y02427D02*
X02116D01*
X02152Y02372D02*
Y02409D01*
G54D36*
X01168Y01379D02*
X01302Y01513D01*
X01168Y00671D02*
Y01379D01*
Y00671D02*
X012Y0064D01*
X03093Y00552D02*
X03153Y00493D01*
X03093Y00552D02*
Y01427D01*
X03046Y01473D02*
X03093Y01427D01*
X02972Y01473D02*
X03046D01*
X02933Y01513D02*
X02972Y01473D01*
X03157Y00489D02*
X03309D01*
G54D37*
X01356Y03409D02*
X01357D01*
X01359*
X01508Y02819D02*
X01509Y02819D01*
X01508Y01888D02*
X01534Y01862D01*
X01508Y01888D02*
Y02784D01*
Y02795D02*
Y02819D01*
X0146Y03092D02*
X01509Y03043D01*
Y02819D02*
Y03043D01*
X01354Y03097D02*
X01357Y03099D01*
Y03409*
X0136Y02918D02*
Y03092D01*
G54D38*
X01731Y01513D02*
X02051D01*
X00214D02*
X00537D01*
G54D39*
X00128Y03345D03*
X035Y03194D03*
X00128Y00195D03*
X03501Y00293D03*
G54D40*
X01387Y02796D03*
X0008Y02398D03*
Y02302D03*
Y02206D03*
X0023Y00816D03*
Y00635D03*
G54D41*
X00352Y0342D03*
X0147Y03086D03*
X00744Y0342D03*
G54D42*
X00452Y0342D03*
X0137Y03086D03*
X00644Y0342D03*
G54D43*
X01558Y02351D03*
X01416D03*
X01854Y02866D03*
X01132Y02501D03*
X01027D03*
X00922D03*
X01132Y02351D03*
X01274D03*
X01585Y0202D03*
X01581Y02112D03*
X02198Y00126D03*
X01862Y00396D03*
Y00558D03*
Y00721D03*
Y00883D03*
Y01046D03*
X02812Y00138D03*
X02641Y00135D03*
X02327Y03411D03*
Y03311D03*
X02227Y03411D03*
Y03311D03*
X02127Y03411D03*
Y03311D03*
X02027Y03411D03*
Y03311D03*
X01927Y03411D03*
Y03311D03*
X01827Y03411D03*
Y03311D03*
X01727Y03411D03*
X0289Y02293D03*
Y02392D03*
X02948Y02786D03*
X03501Y00593D03*
X03401D03*
X03501Y00693D03*
X03401D03*
X03501Y00793D03*
X03401D03*
X03501Y00893D03*
X03401D03*
X03501Y00993D03*
X03401D03*
X03501Y01093D03*
X03401D03*
X03501Y01193D03*
X03401D03*
X03501Y01293D03*
X03401D03*
X03501Y01393D03*
X03401D03*
X03501Y01493D03*
X03401D03*
X03501Y01593D03*
X03401D03*
X03501Y01693D03*
X03401D03*
X03501Y01793D03*
X03401D03*
X03501Y01893D03*
X03401D03*
X03501Y01993D03*
X03401D03*
X03501Y02093D03*
X03401D03*
X03501Y02193D03*
X03401Y02192D03*
X03501Y02293D03*
X03401D03*
X03501Y02393D03*
X03401D03*
X03501Y02493D03*
X034D03*
X03501Y02593D03*
X034D03*
X03501Y02693D03*
X03401D03*
X03501Y02793D03*
X03401D03*
X03501Y02893D03*
X03401D03*
X03501Y02993D03*
X03401Y00493D03*
X03501D03*
X03301D03*
X03201D03*
X03301Y02993D03*
X03201Y02893D03*
X03301D03*
X03201Y02793D03*
X03301D03*
X03201Y02693D03*
X03301D03*
X03201Y02593D03*
X03301D03*
X03201Y02493D03*
X03301D03*
X03201Y02393D03*
X03301D03*
X03201Y02293D03*
X03301D03*
X03201Y02192D03*
X03301Y02193D03*
X03201Y02093D03*
X03301D03*
X03201Y01993D03*
X03301D03*
X03201Y01893D03*
X03301D03*
X03201Y01793D03*
X03301D03*
X03201Y01693D03*
X03301D03*
X03201Y01593D03*
X03301D03*
X03201Y01493D03*
X03301D03*
X03201Y01393D03*
X03301D03*
X03201Y01293D03*
X03301D03*
X03201Y01193D03*
X03301D03*
X03201Y01093D03*
X03301D03*
X03201Y00993D03*
X03301D03*
X03201Y00893D03*
X03301D03*
X03201Y00793D03*
X03301D03*
X03201Y00693D03*
X03301D03*
X03201Y00593D03*
X03301D03*
G54D44*
X01727Y03311D03*
G54D45*
X034Y02993D03*
X03201D03*
G54D46*
X02967Y01814D03*
X02888D03*
X02666D03*
X02487D03*
X02398D03*
X0214D03*
X01952D03*
X01858D03*
X01764D03*
X0167D03*
X01575D03*
X01417D03*
X01325D03*
X01233D03*
X01141D03*
X01038D03*
X00106Y01682D03*
Y01514D03*
X00187Y01585D03*
X00586Y01596D03*
X0019Y01441D03*
X00142Y01536D03*
X00383Y01438D03*
X00516D03*
X00238Y01441D03*
X00388Y01594D03*
X00454Y01596D03*
X00628Y01567D03*
X00644Y01516D03*
X00629Y0147D03*
X00103Y0135D03*
X00096Y01758D03*
X00145Y0149D03*
X00103Y01253D03*
Y01157D03*
Y01061D03*
Y00964D03*
Y00868D03*
Y00772D03*
Y00675D03*
Y00579D03*
Y00483D03*
X00347Y00385D03*
X00103Y00387D03*
X00177Y00385D03*
X00262D03*
X00354Y003D03*
Y00226D03*
X00352Y00151D03*
X00141Y00333D03*
X00215Y00332D03*
X00298D03*
Y00258D03*
Y00179D03*
X00049Y01603D03*
Y01798D03*
X00298Y00101D03*
X02955Y00099D03*
X02876Y00101D03*
X0258D03*
X02481D03*
X02382D03*
X02283D03*
X01986D03*
X01887D03*
X01788D03*
X01689D03*
X0159D03*
X01491D03*
X01392D03*
X01293D03*
X01095D03*
X00996D03*
X00897D03*
X00798D03*
X00699D03*
X006D03*
X00501D03*
X00402D03*
X01249Y00044D03*
X01052D03*
X00855D03*
X00049Y00625D03*
X02107Y01437D03*
X02814Y01614D03*
Y01427D03*
Y00802D03*
Y00488D03*
X03041Y01035D03*
Y00584D03*
Y00801D03*
Y01403D03*
Y01668D03*
Y01814D03*
X02814D03*
X01914Y01437D03*
X02504Y01603D03*
X02307D03*
X02111Y01601D03*
X01914D03*
X01707Y01594D03*
X0152Y01603D03*
X01323D03*
X01126D03*
X00929D03*
X0052Y01596D03*
X02577Y01814D03*
X02308D03*
X02046D03*
X00947D03*
X00856D03*
X00765D03*
X00622D03*
X00527D03*
X00433D03*
X00339D03*
X00245D03*
X00151D03*
X00235Y01594D03*
X00449Y01438D03*
X00049Y01016D03*
Y00821D03*
Y01701D03*
Y01505D03*
Y01309D03*
Y01114D03*
Y00918D03*
Y00723D03*
Y00527D03*
Y00332D03*
X02824Y00044D03*
X02627D03*
X0243D03*
X02233D03*
X02036D03*
X01839D03*
X01642D03*
X00658D03*
X02085Y00101D03*
X01194D03*
X01446Y00044D03*
X00461D03*
X02922D03*
X02725D03*
X02528D03*
X02331D03*
X02135D03*
X01938D03*
X01741D03*
X01544D03*
X01347D03*
X0115D03*
X00953D03*
X00757D03*
X0056D03*
X00363D03*
X00755Y01605D03*
X00049Y01212D03*
X00872Y01138D03*
X0123Y01343D03*
X01245Y00967D03*
X01467Y00771D03*
X01627Y01057D03*
X00049Y01407D03*
Y0043D03*
X00583Y01438D03*
X01858Y01228D03*
X02661Y01602D03*
X02562Y01368D03*
X02471Y0114D03*
X02356Y00926D03*
X02574Y00763D03*
X01704Y00828D03*
X02665Y02098D03*
X02488Y01977D03*
X00985Y02008D03*
X003Y02099D03*
X00499Y03038D03*
X00168Y03134D03*
X00314Y02838D03*
X00187Y02506D03*
X00501Y02637D03*
X01093Y02917D03*
X00812Y0319D03*
X00943Y02382D03*
X00471Y02414D03*
X0128Y02423D03*
X01353Y02364D03*
X01207Y02486D03*
X00838Y02587D03*
X00941Y03412D03*
X0127Y03415D03*
X01873Y03254D03*
X01461Y03272D03*
X03177Y03259D03*
X02331Y02428D03*
X01792Y0194D03*
X01303Y02118D03*
X00862Y0219D03*
X03079Y02892D03*
X02194Y02867D03*
X02538Y03275D03*
X02622Y024D03*
X03123Y02392D03*
X01988Y01897D03*
X01844Y02006D03*
X0192Y01905D03*
X0186Y01955D03*
X02125Y01969D03*
X02007Y0212D03*
X01716Y02224D03*
X0197Y02772D03*
X01995Y02796D03*
X01844Y02225D03*
X02986Y01977D03*
X02865Y0208D03*
X03169Y00214D03*
X03222D03*
Y00159D03*
X03118Y00214D03*
X03222Y00104D03*
X00192Y01758D03*
X00288D03*
X00383D03*
X00479D03*
X00575D03*
X00807D03*
X00894D03*
X00988D03*
X01183D03*
X01274D03*
X01371D03*
X01537Y01761D03*
X01628D03*
X0172D03*
X01812D03*
X01904D03*
X01996D03*
X02088D03*
X0235Y01758D03*
X02444D03*
X02535D03*
X02626D03*
X0286D03*
X02928D03*
X03035Y00049D03*
X03041Y00309D03*
X03042Y0095D03*
X03037Y01222D03*
X03042Y01527D03*
Y00217D03*
X03041Y004D03*
Y00492D03*
Y00727D03*
Y00876D03*
Y01333D03*
Y01594D03*
Y01741D03*
Y01142D03*
X02997Y01691D03*
Y01623D03*
Y01555D03*
Y01372D03*
Y00905D03*
Y0084D03*
Y00775D03*
Y00539D03*
Y00444D03*
Y00349D03*
Y00254D03*
X02955Y00152D03*
Y00205D03*
X0166Y01537D03*
X01707Y01434D03*
X01757D03*
X01979Y01601D03*
X02045D03*
X02154Y01566D03*
X02043Y01437D03*
X01978D03*
X02152Y01477D03*
X02997Y0071D03*
X01751Y01602D03*
X01657Y01485D03*
X00288Y01151D03*
X00744Y00356D03*
X01013Y00523D03*
X0117Y0029D03*
X01611Y00295D03*
X02544Y0033D03*
G54D47*
X02375Y01856D03*
X02278Y02961D03*
X02381Y02986D03*
X01205Y03459D03*
X01159Y03365D03*
X01359Y03409D03*
X01087Y02599D03*
X0219Y02531D03*
X02216Y02556D03*
X01254Y03205D03*
X02471Y02238D03*
X03457Y02242D03*
X03246Y02151D03*
X02397Y02196D03*
X02734Y03138D03*
X02899Y03139D03*
X02498Y02446D03*
X01307Y03328D03*
X02177Y02377D03*
X02149Y02409D03*
X02112Y02427D03*
X00714Y02693D03*
X00736Y0264D03*
X00697Y01181D03*
X01244Y00722D03*
X0109Y00723D03*
X01512Y00992D03*
X02292Y02081D03*
X02358Y02308D03*
X00356D03*
X02265Y00417D03*
X02151Y00876D03*
X02761Y0092D03*
X02734Y01049D03*
X02768Y00874D03*
X02151Y00418D03*
Y00735D03*
Y00574D03*
X02751Y00555D03*
X01729Y03138D03*
X01916Y03137D03*
X02883Y02957D03*
X02842Y02985D03*
X03042Y0274D03*
Y022D03*
X01889Y02268D03*
X01983Y02181D03*
X01508Y02268D03*
X01509Y02185D03*
X02151Y01048D03*
X007Y011D03*
X00762Y01279D03*
X02198Y00543D03*
X02231Y00581D03*
X02244Y00734D03*
X0231Y02052D03*
X02437Y02348D03*
X02635Y02165D03*
X02101Y0246D03*
X01473Y02497D03*
X02683Y00871D03*
X02497Y01889D03*
X02546D03*
X02595D03*
X026Y01973D03*
X02149Y02518D03*
X02242Y02617D03*
X01248D03*
X0252Y0254D03*
G54D48*
X02981Y03061D03*
X03565D03*
X012Y0064D03*
X01522Y01867D03*
M02*