%FSTAX23Y23*%
%MOIN*%
%SFA1B1*%

%IPPOS*%
%ADD35C,0.010000*%
%ADD37C,0.020000*%
%ADD93C,0.005000*%
%ADD94C,0.025000*%
%ADD95C,0.016000*%
%ADD96C,0.006000*%
%LNpcb_ttc_rf4463f30-1*%
%LPD*%
G54D35*
X-00041Y-02777D02*
Y-01724D01*
X01796Y-02599D02*
Y-02224D01*
X05608Y-02777D02*
Y-01722D01*
X-00041Y-02599D02*
X05208D01*
X03608Y-02787D02*
Y-01724D01*
X-00041Y-02412D02*
X05608D01*
X-00041Y-02224D02*
X05604D01*
X03608Y-02599D02*
X05608D01*
X-00041Y-01724D02*
X05608D01*
X0467Y-02781D02*
Y-02406D01*
X0476Y-02231D02*
Y-01724D01*
X-01728Y04108D02*
X05608D01*
X-00069Y-02777D02*
X05608D01*
X-01728D02*
X-00045D01*
X-01728D02*
Y04108D01*
X-00355Y03506D02*
X03824Y03505D01*
X-00279Y0D02*
X03792Y0D01*
X0Y-00221D02*
X0Y03848D01*
X03621Y-0016D02*
X03621Y03877D01*
X05608Y-02773D02*
Y04108D01*
X03783Y02895D02*
Y02995D01*
Y03195D02*
Y03295D01*
X03763Y02935D02*
X03783Y02995D01*
X03803Y02935*
X03763Y03255D02*
X03783Y03195D01*
X03803Y03255*
X03773Y02995D02*
X03793D01*
X03773Y03195D02*
X03793D01*
X-00207Y0D02*
X-00205Y01357D01*
X-00203Y02149D02*
X-00201Y03507D01*
X-00227Y00059D02*
X-00207Y0D01*
X-00187Y00059*
X-00222Y03447D02*
X-00201Y03507D01*
X-00182Y03447*
X-00217Y0D02*
X-00197Y0D01*
X-00211Y03507D02*
X-00191Y03507D01*
X0Y03768D02*
X01414Y03769D01*
X02206Y0377D02*
X0362Y03772D01*
X0Y03768D02*
X0006Y03788D01*
X0Y03768D02*
X0006Y03748D01*
X0356Y03792D02*
X0362Y03772D01*
X0356Y03752D02*
X0362Y03772D01*
X0Y03778D02*
X0Y03758D01*
X0362Y03782D02*
X0362Y03762D01*
X03705Y00194D02*
Y00294D01*
Y00494D02*
Y00594D01*
X03685Y00234D02*
X03705Y00294D01*
X03725Y00234*
X03685Y00554D02*
X03705Y00494D01*
X03725Y00554*
X03695Y00294D02*
X03715D01*
X03695Y00494D02*
X03715D01*
X00004Y-02709D02*
X00033D01*
X00043Y-02706*
X00046Y-02703*
X00049Y-02696*
Y-02686*
X00046Y-0268*
X00043Y-02677*
X00033Y-02673*
X00004*
Y-02742*
X00113Y-0269D02*
X0011Y-02683D01*
X00104Y-02677*
X00097Y-02673*
X00084*
X00078Y-02677*
X00071Y-02683*
X00068Y-0269*
X00065Y-02699*
Y-02716*
X00068Y-02725*
X00071Y-02732*
X00078Y-02738*
X00084Y-02742*
X00097*
X00104Y-02738*
X0011Y-02732*
X00113Y-02725*
X00132Y-02673D02*
Y-02742D01*
Y-02673D02*
X00162D01*
X00171Y-02677*
X00175Y-0268*
X00178Y-02686*
Y-02693*
X00175Y-02699*
X00171Y-02703*
X00162Y-02706*
X00132D02*
X00162D01*
X00171Y-02709*
X00175Y-02712*
X00178Y-02719*
Y-02729*
X00175Y-02735*
X00171Y-02738*
X00162Y-02742*
X00132*
X00292Y-02683D02*
X00286Y-02677D01*
X00276Y-02673*
X00263*
X00253Y-02677*
X00247Y-02683*
Y-0269*
X0025Y-02696*
X00253Y-02699*
X0026Y-02703*
X00279Y-02709*
X00286Y-02712*
X00289Y-02716*
X00292Y-02722*
Y-02732*
X00286Y-02738*
X00276Y-02742*
X00263*
X00253Y-02738*
X00247Y-02732*
X00307Y-02696D02*
Y-02729D01*
X00311Y-02738*
X00317Y-02742*
X00327*
X00333Y-02738*
X00343Y-02729*
Y-02696D02*
Y-02742D01*
X00361Y-02696D02*
Y-02742D01*
Y-02716D02*
X00364Y-02706D01*
X00371Y-02699*
X00377Y-02696*
X00387*
X00419Y-02673D02*
X00412D01*
X00406Y-02677*
X00403Y-02686*
Y-02742*
X00393Y-02696D02*
X00416D01*
X00468D02*
Y-02742D01*
Y-02706D02*
X00461Y-02699D01*
X00455Y-02696*
X00445*
X00438Y-02699*
X00432Y-02706*
X00429Y-02716*
Y-02722*
X00432Y-02732*
X00438Y-02738*
X00445Y-02742*
X00455*
X00461Y-02738*
X00468Y-02732*
X00525Y-02706D02*
X00518Y-02699D01*
X00512Y-02696*
X00502*
X00495Y-02699*
X00489Y-02706*
X00486Y-02716*
Y-02722*
X00489Y-02732*
X00495Y-02738*
X00502Y-02742*
X00512*
X00518Y-02738*
X00525Y-02732*
X00539Y-02716D02*
X00578D01*
Y-02709*
X00575Y-02703*
X00572Y-02699*
X00565Y-02696*
X00555*
X00549Y-02699*
X00542Y-02706*
X00539Y-02716*
Y-02722*
X00542Y-02732*
X00549Y-02738*
X00555Y-02742*
X00565*
X00572Y-02738*
X00578Y-02732*
X00596Y-02696D02*
X00593Y-02699D01*
X00596Y-02703*
X00599Y-02699*
X00596Y-02696*
Y-02735D02*
X00593Y-02738D01*
X00596Y-02742*
X00599Y-02738*
X00596Y-02735*
X0071Y-02673D02*
X00668D01*
Y-02742*
X0071*
X00668Y-02706D02*
X00694D01*
X00721Y-02673D02*
Y-02742D01*
Y-02673D02*
X00767Y-02742D01*
Y-02673D02*
Y-02742D01*
X00785Y-02673D02*
Y-02742D01*
X00848Y-0269D02*
X00845Y-02683D01*
X00839Y-02677*
X00832Y-02673*
X00819*
X00813Y-02677*
X00806Y-02683*
X00803Y-0269*
X008Y-02699*
Y-02716*
X00803Y-02725*
X00806Y-02732*
X00813Y-02738*
X00819Y-02742*
X00832*
X00839Y-02738*
X00845Y-02732*
X00848Y-02725*
Y-02716*
X00832D02*
X00848D01*
X03702Y-02672D02*
X03695Y-02665D01*
X03685Y-02662*
X03672*
X03663Y-02665*
X03656Y-02672*
Y-02678*
X03659Y-02685*
X03663Y-02688*
X03669Y-02691*
X03689Y-02698*
X03695Y-02701*
X03698Y-02704*
X03702Y-02711*
Y-0272*
X03695Y-02727*
X03685Y-0273*
X03672*
X03663Y-02727*
X03656Y-0272*
X03756Y-02685D02*
Y-0273D01*
Y-02694D02*
X03749Y-02688D01*
X03743Y-02685*
X03733*
X03727Y-02688*
X0372Y-02694*
X03717Y-02704*
Y-02711*
X0372Y-0272*
X03727Y-02727*
X03733Y-0273*
X03743*
X03749Y-02727*
X03756Y-0272*
X03774Y-02685D02*
Y-0273D01*
Y-02704D02*
X03777Y-02694D01*
X03784Y-02688*
X0379Y-02685*
X038*
X03845D02*
Y-0273D01*
Y-02694D02*
X03838Y-02688D01*
X03832Y-02685*
X03822*
X03816Y-02688*
X03809Y-02694*
X03806Y-02704*
Y-02711*
X03809Y-0272*
X03816Y-02727*
X03822Y-0273*
X03832*
X03838Y-02727*
X03845Y-0272*
X03917Y-02662D02*
X03943Y-0273D01*
X03969Y-02662D02*
X03943Y-0273D01*
X03977Y-02704D02*
X04016D01*
Y-02698*
X04013Y-02691*
X0401Y-02688*
X04003Y-02685*
X03993*
X03987Y-02688*
X03981Y-02694*
X03977Y-02704*
Y-02711*
X03981Y-0272*
X03987Y-02727*
X03993Y-0273*
X04003*
X0401Y-02727*
X04016Y-0272*
X0407Y-02685D02*
Y-02736D01*
X04066Y-02746*
X04063Y-02749*
X04057Y-02753*
X04047*
X04041Y-02749*
X0407Y-02694D02*
X04063Y-02688D01*
X04057Y-02685*
X04047*
X04041Y-02688*
X04034Y-02694*
X04031Y-02704*
Y-02711*
X04034Y-0272*
X04041Y-02727*
X04047Y-0273*
X04057*
X04063Y-02727*
X0407Y-0272*
X04127Y-02685D02*
Y-0273D01*
Y-02694D02*
X0412Y-02688D01*
X04114Y-02685*
X04104*
X04098Y-02688*
X04091Y-02694*
X04088Y-02704*
Y-02711*
X04091Y-0272*
X04098Y-02727*
X04104Y-0273*
X04114*
X0412Y-02727*
X04127Y-0272*
X04198Y-02662D02*
Y-0273D01*
Y-02662D02*
X04224Y-0273D01*
X0425Y-02662D02*
X04224Y-0273D01*
X0425Y-02662D02*
Y-0273D01*
X04309Y-02685D02*
Y-0273D01*
Y-02694D02*
X04302Y-02688D01*
X04296Y-02685*
X04286*
X0428Y-02688*
X04273Y-02694*
X0427Y-02704*
Y-02711*
X04273Y-0272*
X0428Y-02727*
X04286Y-0273*
X04296*
X04302Y-02727*
X04309Y-0272*
X04327Y-02685D02*
Y-0273D01*
Y-02704D02*
X0433Y-02694D01*
X04337Y-02688*
X04343Y-02685*
X04353*
X04369Y-02662D02*
Y-02717D01*
X04372Y-02727*
X04378Y-0273*
X04385*
X04359Y-02685D02*
X04382D01*
X04401Y-02662D02*
X04404Y-02665D01*
X04408Y-02662*
X04404Y-02659*
X04401Y-02662*
X04404Y-02685D02*
Y-0273D01*
X0442Y-02685D02*
Y-0273D01*
Y-02698D02*
X04429Y-02688D01*
X04436Y-02685*
X04446*
X04452Y-02688*
X04455Y-02698*
Y-0273*
X04473Y-02704D02*
X04512D01*
Y-02698*
X04509Y-02691*
X04506Y-02688*
X04499Y-02685*
X04489*
X04483Y-02688*
X04476Y-02694*
X04473Y-02704*
Y-02711*
X04476Y-0272*
X04483Y-02727*
X04489Y-0273*
X04499*
X04506Y-02727*
X04512Y-0272*
X04562Y-02685D02*
X04527Y-0273D01*
Y-02685D02*
X04562D01*
X04527Y-0273D02*
X04562D01*
X03751Y-01315D02*
X0378D01*
X0379Y-01311*
X03793Y-01308*
X03796Y-01302*
Y-01292*
X03793Y-01285*
X0379Y-01282*
X0378Y-01279*
X03751*
Y-01347*
X0386Y-01295D02*
X03857Y-01289D01*
X0385Y-01282*
X03844Y-01279*
X03831*
X03824Y-01282*
X03818Y-01289*
X03815Y-01295*
X03812Y-01305*
Y-01321*
X03815Y-01331*
X03818Y-01337*
X03824Y-01344*
X03831Y-01347*
X03844*
X0385Y-01344*
X03857Y-01337*
X0386Y-01331*
X03879Y-01279D02*
Y-01347D01*
Y-01279D02*
X03908D01*
X03918Y-01282*
X03921Y-01285*
X03925Y-01292*
Y-01298*
X03921Y-01305*
X03918Y-01308*
X03908Y-01311*
X03879D02*
X03908D01*
X03918Y-01315*
X03921Y-01318*
X03925Y-01324*
Y-01334*
X03921Y-01341*
X03918Y-01344*
X03908Y-01347*
X03879*
X04039Y-01289D02*
X04032Y-01282D01*
X04023Y-01279*
X0401*
X04Y-01282*
X03993Y-01289*
Y-01295*
X03997Y-01302*
X04Y-01305*
X04006Y-01308*
X04026Y-01315*
X04032Y-01318*
X04036Y-01321*
X04039Y-01328*
Y-01337*
X04032Y-01344*
X04023Y-01347*
X0401*
X04Y-01344*
X03993Y-01337*
X04054Y-01302D02*
Y-01334D01*
X04057Y-01344*
X04064Y-01347*
X04074*
X0408Y-01344*
X0409Y-01334*
Y-01302D02*
Y-01347D01*
X04108Y-01302D02*
Y-01347D01*
Y-01321D02*
X04111Y-01311D01*
X04117Y-01305*
X04124Y-01302*
X04134*
X04166Y-01279D02*
X04159D01*
X04153Y-01282*
X04149Y-01292*
Y-01347*
X0414Y-01302D02*
X04162D01*
X04214D02*
Y-01347D01*
Y-01311D02*
X04208Y-01305D01*
X04201Y-01302*
X04192*
X04185Y-01305*
X04179Y-01311*
X04175Y-01321*
Y-01328*
X04179Y-01337*
X04185Y-01344*
X04192Y-01347*
X04201*
X04208Y-01344*
X04214Y-01337*
X04271Y-01311D02*
X04265Y-01305D01*
X04258Y-01302*
X04249*
X04242Y-01305*
X04236Y-01311*
X04233Y-01321*
Y-01328*
X04236Y-01337*
X04242Y-01344*
X04249Y-01347*
X04258*
X04265Y-01344*
X04271Y-01337*
X04286Y-01321D02*
X04325D01*
Y-01315*
X04322Y-01308*
X04318Y-01305*
X04312Y-01302*
X04302*
X04296Y-01305*
X04289Y-01311*
X04286Y-01321*
Y-01328*
X04289Y-01337*
X04296Y-01344*
X04302Y-01347*
X04312*
X04318Y-01344*
X04325Y-01337*
X04343Y-01302D02*
X0434Y-01305D01*
X04343Y-01308*
X04346Y-01305*
X04343Y-01302*
Y-01341D02*
X0434Y-01344D01*
X04343Y-01347*
X04346Y-01344*
X04343Y-01341*
X04457Y-01279D02*
X04414D01*
Y-01347*
X04457*
X04414Y-01311D02*
X0444D01*
X04468Y-01279D02*
Y-01347D01*
Y-01279D02*
X04513Y-01347D01*
Y-01279D02*
Y-01347D01*
X04532Y-01279D02*
Y-01347D01*
X04595Y-01295D02*
X04592Y-01289D01*
X04585Y-01282*
X04579Y-01279*
X04566*
X04559Y-01282*
X04553Y-01289*
X0455Y-01295*
X04546Y-01305*
Y-01321*
X0455Y-01331*
X04553Y-01337*
X04559Y-01344*
X04566Y-01347*
X04579*
X04585Y-01344*
X04592Y-01337*
X04595Y-01331*
Y-01321*
X04579D02*
X04595D01*
X03754Y-01206D02*
X03783D01*
X03793Y-01203*
X03796Y-012*
X03799Y-01193*
Y-01184*
X03796Y-01177*
X03793Y-01174*
X03783Y-01171*
X03754*
Y-01239*
X03863Y-01187D02*
X0386Y-0118D01*
X03853Y-01174*
X03847Y-01171*
X03834*
X03827Y-01174*
X03821Y-0118*
X03818Y-01187*
X03814Y-01197*
Y-01213*
X03818Y-01223*
X03821Y-01229*
X03827Y-01236*
X03834Y-01239*
X03847*
X03853Y-01236*
X0386Y-01229*
X03863Y-01223*
X03882Y-01171D02*
Y-01239D01*
Y-01171D02*
X03911D01*
X03921Y-01174*
X03924Y-01177*
X03928Y-01184*
Y-0119*
X03924Y-01197*
X03921Y-012*
X03911Y-01203*
X03882D02*
X03911D01*
X03921Y-01206*
X03924Y-0121*
X03928Y-01216*
Y-01226*
X03924Y-01232*
X03921Y-01236*
X03911Y-01239*
X03882*
X04019Y-01171D02*
Y-01239D01*
X03996Y-01171D02*
X04042D01*
X04056D02*
X0406Y-01174D01*
X04063Y-01171*
X0406Y-01167*
X04056Y-01171*
X0406Y-01193D02*
Y-01239D01*
X04114Y-01203D02*
X04107Y-01197D01*
X04101Y-01193*
X04091*
X04085Y-01197*
X04078Y-01203*
X04075Y-01213*
Y-01219*
X04078Y-01229*
X04085Y-01236*
X04091Y-01239*
X04101*
X04107Y-01236*
X04114Y-01229*
X04128Y-01171D02*
Y-01239D01*
X04161Y-01193D02*
X04128Y-01226D01*
X04141Y-01213D02*
X04164Y-01239D01*
X04175Y-01193D02*
Y-01239D01*
Y-01206D02*
X04185Y-01197D01*
X04191Y-01193*
X04201*
X04207Y-01197*
X0421Y-01206*
Y-01239*
X04228Y-01213D02*
X04267D01*
Y-01206*
X04264Y-012*
X04261Y-01197*
X04254Y-01193*
X04245*
X04238Y-01197*
X04232Y-01203*
X04228Y-01213*
Y-01219*
X04232Y-01229*
X04238Y-01236*
X04245Y-01239*
X04254*
X04261Y-01236*
X04267Y-01229*
X04317Y-01203D02*
X04314Y-01197D01*
X04305Y-01193*
X04295*
X04285Y-01197*
X04282Y-01203*
X04285Y-0121*
X04292Y-01213*
X04308Y-01216*
X04314Y-01219*
X04317Y-01226*
Y-01229*
X04314Y-01236*
X04305Y-01239*
X04295*
X04285Y-01236*
X04282Y-01229*
X04367Y-01203D02*
X04364Y-01197D01*
X04354Y-01193*
X04345*
X04335Y-01197*
X04332Y-01203*
X04335Y-0121*
X04341Y-01213*
X04358Y-01216*
X04364Y-01219*
X04367Y-01226*
Y-01229*
X04364Y-01236*
X04354Y-01239*
X04345*
X04335Y-01236*
X04332Y-01229*
X04385Y-01193D02*
X04382Y-01197D01*
X04385Y-012*
X04388Y-01197*
X04385Y-01193*
Y-01232D02*
X04382Y-01236D01*
X04385Y-01239*
X04388Y-01236*
X04385Y-01232*
X04457Y-01184D02*
X04463Y-0118D01*
X04473Y-01171*
Y-01239*
X0451Y-01232D02*
X04507Y-01236D01*
X0451Y-01239*
X04513Y-01236*
X0451Y-01232*
X04567Y-0118D02*
X04564Y-01174D01*
X04554Y-01171*
X04547*
X04538Y-01174*
X04531Y-01184*
X04528Y-012*
Y-01216*
X04531Y-01229*
X04538Y-01236*
X04547Y-01239*
X04551*
X0456Y-01236*
X04567Y-01229*
X0457Y-01219*
Y-01216*
X04567Y-01206*
X0456Y-012*
X04551Y-01197*
X04547*
X04538Y-012*
X04531Y-01206*
X04528Y-01216*
X04585Y-01193D02*
Y-01239D01*
Y-01206D02*
X04595Y-01197D01*
X04601Y-01193*
X04611*
X04617Y-01197*
X04621Y-01206*
Y-01239*
Y-01206D02*
X0463Y-01197D01*
X04637Y-01193*
X04647*
X04653Y-01197*
X04656Y-01206*
Y-01239*
X04678Y-01193D02*
Y-01239D01*
Y-01206D02*
X04688Y-01197D01*
X04694Y-01193*
X04704*
X0471Y-01197*
X04713Y-01206*
Y-01239*
Y-01206D02*
X04723Y-01197D01*
X0473Y-01193*
X04739*
X04746Y-01197*
X04749Y-01206*
Y-01239*
X03748Y-01098D02*
X03777D01*
X03787Y-01095*
X0379Y-01092*
X03793Y-01085*
Y-01075*
X0379Y-01069*
X03787Y-01066*
X03777Y-01062*
X03748*
Y-01131*
X03857Y-01079D02*
X03854Y-01072D01*
X03848Y-01066*
X03841Y-01062*
X03828*
X03822Y-01066*
X03815Y-01072*
X03812Y-01079*
X03809Y-01088*
Y-01105*
X03812Y-01114*
X03815Y-01121*
X03822Y-01127*
X03828Y-01131*
X03841*
X03848Y-01127*
X03854Y-01121*
X03857Y-01114*
X03876Y-01062D02*
Y-01131D01*
Y-01062D02*
X03906D01*
X03915Y-01066*
X03919Y-01069*
X03922Y-01075*
Y-01082*
X03919Y-01088*
X03915Y-01092*
X03906Y-01095*
X03876D02*
X03906D01*
X03915Y-01098*
X03919Y-01101*
X03922Y-01108*
Y-01118*
X03919Y-01124*
X03915Y-01127*
X03906Y-01131*
X03876*
X03991Y-01062D02*
Y-01131D01*
Y-01062D02*
X04016Y-01131D01*
X04042Y-01062D02*
X04016Y-01131D01*
X04042Y-01062D02*
Y-01131D01*
X04101Y-01085D02*
Y-01131D01*
Y-01095D02*
X04094Y-01088D01*
X04088Y-01085*
X04078*
X04072Y-01088*
X04065Y-01095*
X04062Y-01105*
Y-01111*
X04065Y-01121*
X04072Y-01127*
X04078Y-01131*
X04088*
X04094Y-01127*
X04101Y-01121*
X04129Y-01062D02*
Y-01118D01*
X04132Y-01127*
X04138Y-01131*
X04145*
X04119Y-01085D02*
X04142D01*
X04155Y-01105D02*
X04194D01*
Y-01098*
X0419Y-01092*
X04187Y-01088*
X04181Y-01085*
X04171*
X04164Y-01088*
X04158Y-01095*
X04155Y-01105*
Y-01111*
X04158Y-01121*
X04164Y-01127*
X04171Y-01131*
X04181*
X04187Y-01127*
X04194Y-01121*
X04208Y-01085D02*
Y-01131D01*
Y-01105D02*
X04211Y-01095D01*
X04218Y-01088*
X04224Y-01085*
X04234*
X04247Y-01062D02*
X0425Y-01066D01*
X04253Y-01062*
X0425Y-01059*
X04247Y-01062*
X0425Y-01085D02*
Y-01131D01*
X04304Y-01085D02*
Y-01131D01*
Y-01095D02*
X04298Y-01088D01*
X04291Y-01085*
X04281*
X04275Y-01088*
X04268Y-01095*
X04265Y-01105*
Y-01111*
X04268Y-01121*
X04275Y-01127*
X04281Y-01131*
X04291*
X04298Y-01127*
X04304Y-01121*
X04322Y-01062D02*
Y-01131D01*
X0434Y-01085D02*
X04337Y-01088D01*
X0434Y-01092*
X04343Y-01088*
X0434Y-01085*
Y-01124D02*
X04337Y-01127D01*
X0434Y-01131*
X04343Y-01127*
X0434Y-01124*
X04412Y-01098D02*
X04441D01*
X0445Y-01095*
X04454Y-01092*
X04457Y-01085*
Y-01075*
X04454Y-01069*
X0445Y-01066*
X04441Y-01062*
X04412*
Y-01131*
X04472Y-01085D02*
Y-01131D01*
Y-01105D02*
X04475Y-01095D01*
X04482Y-01088*
X04488Y-01085*
X04498*
X04504Y-01105D02*
X04543D01*
Y-01098*
X0454Y-01092*
X04537Y-01088*
X0453Y-01085*
X04521*
X04514Y-01088*
X04508Y-01095*
X04504Y-01105*
Y-01111*
X04508Y-01121*
X04514Y-01127*
X04521Y-01131*
X0453*
X04537Y-01127*
X04543Y-01121*
X04558Y-01085D02*
Y-01153D01*
Y-01095D02*
X04564Y-01088D01*
X04571Y-01085*
X04581*
X04587Y-01088*
X04593Y-01095*
X04597Y-01105*
Y-01111*
X04593Y-01121*
X04587Y-01127*
X04581Y-01131*
X04571*
X04564Y-01127*
X04558Y-01121*
X04611Y-01105D02*
X0465D01*
Y-01098*
X04647Y-01092*
X04644Y-01088*
X04637Y-01085*
X04628*
X04621Y-01088*
X04615Y-01095*
X04611Y-01105*
Y-01111*
X04615Y-01121*
X04621Y-01127*
X04628Y-01131*
X04637*
X04644Y-01127*
X0465Y-01121*
X04704Y-01085D02*
Y-01137D01*
X04701Y-01147*
X04697Y-0115*
X04691Y-01153*
X04681*
X04675Y-0115*
X04704Y-01095D02*
X04697Y-01088D01*
X04691Y-01085*
X04681*
X04675Y-01088*
X04668Y-01095*
X04665Y-01105*
Y-01111*
X04668Y-01121*
X04675Y-01127*
X04681Y-01131*
X04691*
X04697Y-01127*
X04704Y-01121*
X04775Y-01062D02*
Y-01131D01*
Y-01062D02*
X04818D01*
X04775Y-01095D02*
X04801D01*
X04825Y-01062D02*
Y-01131D01*
Y-01062D02*
X04855D01*
X04864Y-01066*
X04868Y-01069*
X04871Y-01075*
Y-01082*
X04868Y-01088*
X04864Y-01092*
X04855Y-01095*
X04825*
X04848D02*
X04871Y-01131D01*
X04918Y-01062D02*
X04886Y-01108D01*
X04935*
X04918Y-01062D02*
Y-01131D01*
X03804Y-00976D02*
X038Y-0097D01*
X03794Y-00963*
X03787Y-0096*
X03774*
X03768Y-00963*
X03762Y-0097*
X03758Y-00976*
X03755Y-00986*
Y-01002*
X03758Y-01012*
X03762Y-01018*
X03768Y-01025*
X03774Y-01028*
X03787*
X03794Y-01025*
X038Y-01018*
X03804Y-01012*
X03823Y-00983D02*
Y-01015D01*
X03826Y-01025*
X03833Y-01028*
X03842*
X03849Y-01025*
X03858Y-01015*
Y-00983D02*
Y-01028D01*
X03876Y-00983D02*
Y-01051D01*
Y-00992D02*
X03883Y-00986D01*
X03889Y-00983*
X03899*
X03906Y-00986*
X03912Y-00992*
X03915Y-01002*
Y-01008*
X03912Y-01018*
X03906Y-01025*
X03899Y-01028*
X03889*
X03883Y-01025*
X03876Y-01018*
X0393Y-00983D02*
Y-01051D01*
Y-00992D02*
X03936Y-00986D01*
X03943Y-00983*
X03953*
X03959Y-00986*
X03966Y-00992*
X03969Y-01002*
Y-01008*
X03966Y-01018*
X03959Y-01025*
X03953Y-01028*
X03943*
X03936Y-01025*
X0393Y-01018*
X03983Y-01002D02*
X04022D01*
Y-00996*
X04019Y-00989*
X04016Y-00986*
X04009Y-00983*
X04*
X03993Y-00986*
X03987Y-00992*
X03983Y-01002*
Y-01008*
X03987Y-01018*
X03993Y-01025*
X04Y-01028*
X04009*
X04016Y-01025*
X04022Y-01018*
X04037Y-00983D02*
Y-01028D01*
Y-01002D02*
X0404Y-00992D01*
X04047Y-00986*
X04053Y-00983*
X04063*
X04122Y-0096D02*
Y-01028D01*
Y-00992D02*
X04129Y-00986D01*
X04135Y-00983*
X04145*
X04152Y-00986*
X04158Y-00992*
X04161Y-01002*
Y-01008*
X04158Y-01018*
X04152Y-01025*
X04145Y-01028*
X04135*
X04129Y-01025*
X04122Y-01018*
X04215Y-00983D02*
Y-01028D01*
Y-00992D02*
X04208Y-00986D01*
X04202Y-00983*
X04192*
X04186Y-00986*
X04179Y-00992*
X04176Y-01002*
Y-01008*
X04179Y-01018*
X04186Y-01025*
X04192Y-01028*
X04202*
X04208Y-01025*
X04215Y-01018*
X04269Y-00992D02*
X04266Y-00986D01*
X04256Y-00983*
X04246*
X04236Y-00986*
X04233Y-00992*
X04236Y-00999*
X04243Y-01002*
X04259Y-01005*
X04266Y-01008*
X04269Y-01015*
Y-01018*
X04266Y-01025*
X04256Y-01028*
X04246*
X04236Y-01025*
X04233Y-01018*
X04283Y-01002D02*
X04322D01*
Y-00996*
X04319Y-00989*
X04315Y-00986*
X04309Y-00983*
X04299*
X04293Y-00986*
X04286Y-00992*
X04283Y-01002*
Y-01008*
X04286Y-01018*
X04293Y-01025*
X04299Y-01028*
X04309*
X04315Y-01025*
X04322Y-01018*
X0439Y-00973D02*
X04397Y-0097D01*
X04406Y-0096*
Y-01028*
X04459Y-0096D02*
X04453Y-00963D01*
X04446Y-0097*
X04443Y-00976*
X0444Y-00986*
Y-01002*
X04443Y-01012*
X04446Y-01018*
X04453Y-01025*
X04459Y-01028*
X04472*
X04479Y-01025*
X04485Y-01018*
X04489Y-01012*
X04492Y-01002*
Y-00986*
X04489Y-00976*
X04485Y-0097*
X04479Y-00963*
X04472Y-0096*
X04459*
X04553D02*
X04508Y-01028D01*
Y-0096D02*
X04553D01*
X04508Y-01028D02*
X04553D01*
X04572Y-00983D02*
X04568Y-00986D01*
X04572Y-00989*
X04575Y-00986*
X04572Y-00983*
Y-01021D02*
X04568Y-01025D01*
X04572Y-01028*
X04575Y-01025*
X04572Y-01021*
X03859Y-0078D02*
X03853Y-00768D01*
X03841Y-00757*
X0383Y-00751*
X03807*
X03795Y-00757*
X03783Y-00768*
X03778Y-0078*
X03772Y-00797*
Y-00826*
X03778Y-00844*
X03783Y-00855*
X03795Y-00867*
X03807Y-00873*
X0383*
X03841Y-00867*
X03853Y-00855*
X03859Y-00844*
Y-00826*
X0383D02*
X03859D01*
X03887D02*
X03956D01*
Y-00815*
X0395Y-00803*
X03945Y-00797*
X03933Y-00792*
X03916*
X03904Y-00797*
X03892Y-00809*
X03887Y-00826*
Y-00838*
X03892Y-00855*
X03904Y-00867*
X03916Y-00873*
X03933*
X03945Y-00867*
X03956Y-00855*
X03982Y-00792D02*
Y-00873D01*
Y-00815D02*
X04Y-00797D01*
X04011Y-00792*
X04029*
X0404Y-00797*
X04046Y-00815*
Y-00873*
X04078Y-00826D02*
X04148D01*
Y-00815*
X04142Y-00803*
X04136Y-00797*
X04125Y-00792*
X04107*
X04096Y-00797*
X04084Y-00809*
X04078Y-00826*
Y-00838*
X04084Y-00855*
X04096Y-00867*
X04107Y-00873*
X04125*
X04136Y-00867*
X04148Y-00855*
X04174Y-00792D02*
Y-00873D01*
Y-00826D02*
X0418Y-00809D01*
X04191Y-00797*
X04203Y-00792*
X0422*
X04301D02*
Y-00873D01*
Y-00809D02*
X04289Y-00797D01*
X04278Y-00792*
X0426*
X04249Y-00797*
X04237Y-00809*
X04231Y-00826*
Y-00838*
X04237Y-00855*
X04249Y-00867*
X0426Y-00873*
X04278*
X04289Y-00867*
X04301Y-00855*
X04333Y-00751D02*
Y-00873D01*
X04536Y-00768D02*
X04524Y-00757D01*
X04507Y-00751*
X04484*
X04466Y-00757*
X04455Y-00768*
Y-0078*
X0446Y-00792*
X04466Y-00797*
X04478Y-00803*
X04513Y-00815*
X04524Y-00821*
X0453Y-00826*
X04536Y-00838*
Y-00855*
X04524Y-00867*
X04507Y-00873*
X04484*
X04466Y-00867*
X04455Y-00855*
X04563Y-00815D02*
X04615D01*
X04633Y-00809*
X04639Y-00803*
X04644Y-00792*
Y-00774*
X04639Y-00763*
X04633Y-00757*
X04615Y-00751*
X04563*
Y-00873*
X04747Y-00751D02*
X04672D01*
Y-00873*
X04747*
X04672Y-00809D02*
X04718D01*
X04854Y-0078D02*
X04849Y-00768D01*
X04837Y-00757*
X04825Y-00751*
X04802*
X04791Y-00757*
X04779Y-00768*
X04773Y-0078*
X04767Y-00797*
Y-00826*
X04773Y-00844*
X04779Y-00855*
X04791Y-00867*
X04802Y-00873*
X04825*
X04837Y-00867*
X04849Y-00855*
X04854Y-00844*
X04894Y-00792D02*
X04889Y-00797D01*
X04894Y-00803*
X049Y-00797*
X04894Y-00792*
Y-00861D02*
X04889Y-00867D01*
X04894Y-00873*
X049Y-00867*
X04894Y-00861*
X01157Y-02519D02*
X01182D01*
X0117*
Y-02444*
X01157Y-02456*
X0122Y-02519D02*
Y-02507D01*
X01233*
Y-02519*
X0122*
X01333Y-02444D02*
X01308Y-02456D01*
X01283Y-02481*
Y-02507*
X01296Y-02519*
X01321*
X01333Y-02507*
Y-02494*
X01321Y-02481*
X01283*
X01359Y-02519D02*
Y-02469D01*
X01371*
X01384Y-02481*
Y-02519*
Y-02481*
X01396Y-02469*
X01409Y-02481*
Y-02519*
X01434D02*
Y-02469D01*
X01447*
X01459Y-02481*
Y-02519*
Y-02481*
X01472Y-02469*
X01485Y-02481*
Y-02519*
X00709Y-02274D02*
X00658D01*
Y-02312*
X00683*
X00658*
Y-02349*
X00734D02*
Y-02274D01*
X00772*
X00784Y-02286*
Y-02312*
X00772Y-02324*
X00734*
X00759D02*
X00784Y-02349D01*
X00847D02*
Y-02274D01*
X00809Y-02312*
X0086*
X0379Y-02072D02*
X03802Y-02059D01*
X03827*
X0384Y-02072*
Y-02122*
X03827Y-02135*
X03802*
X0379Y-02122*
Y-02072*
X03865Y-02135D02*
X0389D01*
X03878*
Y-02059*
X03865Y-02072*
X05001Y-02048D02*
Y-02098D01*
X05026Y-02123*
X05052Y-02098*
Y-02048*
X05127Y-02123D02*
X05077D01*
X05127Y-02073*
Y-0206*
X05115Y-02048*
X05089*
X05077Y-0206*
X04788Y-02716D02*
X04814D01*
X04801*
Y-02641*
X04788Y-02653*
X04902Y-02641D02*
X04877Y-02653D01*
X04851Y-02679*
Y-02704*
X04864Y-02716*
X04889*
X04902Y-02704*
Y-02691*
X04889Y-02679*
X04851*
X04927Y-02716D02*
X04977Y-02666D01*
X05003Y-02653D02*
X05015Y-02641D01*
X0504*
X05053Y-02653*
Y-02704*
X0504Y-02716*
X05015*
X05003Y-02704*
Y-02653*
X05078D02*
X05091Y-02641D01*
X05116*
X05129Y-02653*
Y-02666*
X05116Y-02679*
X05129Y-02691*
Y-02704*
X05116Y-02716*
X05091*
X05078Y-02704*
Y-02691*
X05091Y-02679*
X05078Y-02666*
Y-02653*
X05091Y-02679D02*
X05116D01*
X05154Y-02716D02*
X05204Y-02666D01*
X0528Y-02716D02*
X05229D01*
X0528Y-02666*
Y-02653*
X05267Y-02641*
X05242*
X05229Y-02653*
X05305D02*
X05318Y-02641D01*
X05343*
X05355Y-02653*
Y-02704*
X05343Y-02716*
X05318*
X05305Y-02704*
Y-02653*
X05381Y-02716D02*
X05406D01*
X05393*
Y-02641*
X05381Y-02653*
X05444D02*
X05456Y-02641D01*
X05481*
X05494Y-02653*
Y-02666*
X05481Y-02679*
X05494Y-02691*
Y-02704*
X05481Y-02716*
X05456*
X05444Y-02704*
Y-02691*
X05456Y-02679*
X05444Y-02666*
Y-02653*
X05456Y-02679D02*
X05481D01*
X00048Y-02095D02*
Y-02158D01*
X00061Y-0217*
X00086*
X00098Y-02158*
Y-02095*
X00174D02*
X00124D01*
Y-02133*
X00149*
X00124*
Y-0217*
X0025Y-02107D02*
X00237Y-02095D01*
X00212*
X00199Y-02107*
Y-0212*
X00212Y-02133*
X00237*
X0025Y-02145*
Y-02158*
X00237Y-0217*
X00212*
X00199Y-02158*
X00325Y-02107D02*
X00313Y-02095D01*
X00287*
X00275Y-02107*
Y-02158*
X00287Y-0217*
X00313*
X00325Y-02158*
X03757Y-01398D02*
X03783Y-01466D01*
X03809Y-01398D02*
X03783Y-01466D01*
X03824Y-01398D02*
X03827Y-01401D01*
X03831Y-01398*
X03827Y-01395*
X03824Y-01398*
X03827Y-01421D02*
Y-01466D01*
X03882Y-01421D02*
Y-01466D01*
Y-0143D02*
X03875Y-01424D01*
X03869Y-01421*
X03859*
X03852Y-01424*
X03846Y-0143*
X03843Y-0144*
Y-01447*
X03846Y-01456*
X03852Y-01463*
X03859Y-01466*
X03869*
X03875Y-01463*
X03882Y-01456*
X03935Y-0143D02*
X03932Y-01424D01*
X03922Y-01421*
X03913*
X03903Y-01424*
X039Y-0143*
X03903Y-01437*
X03909Y-0144*
X03926Y-01443*
X03932Y-01447*
X03935Y-01453*
Y-01456*
X03932Y-01463*
X03922Y-01466*
X03913*
X03903Y-01463*
X039Y-01456*
X03953Y-01421D02*
X0395Y-01424D01*
X03953Y-01427*
X03956Y-01424*
X03953Y-01421*
Y-0146D02*
X0395Y-01463D01*
X03953Y-01466*
X03956Y-01463*
X03953Y-0146*
X04025Y-01398D02*
Y-01466D01*
Y-01398D02*
X04067D01*
X04025Y-0143D02*
X04051D01*
X04091Y-01421D02*
X04084Y-01424D01*
X04078Y-0143*
X04075Y-0144*
Y-01447*
X04078Y-01456*
X04084Y-01463*
X04091Y-01466*
X041*
X04107Y-01463*
X04113Y-01456*
X04117Y-01447*
Y-0144*
X04113Y-0143*
X04107Y-01424*
X041Y-01421*
X04091*
X04132D02*
Y-01466D01*
Y-0144D02*
X04135Y-0143D01*
X04141Y-01424*
X04148Y-01421*
X04158*
X04203Y-0143D02*
X04196Y-01424D01*
X0419Y-01421*
X0418*
X04173Y-01424*
X04167Y-0143*
X04164Y-0144*
Y-01447*
X04167Y-01456*
X04173Y-01463*
X0418Y-01466*
X0419*
X04196Y-01463*
X04203Y-01456*
X04217Y-0144D02*
X04256D01*
Y-01434*
X04253Y-01427*
X0425Y-01424*
X04243Y-01421*
X04233*
X04227Y-01424*
X0422Y-0143*
X04217Y-0144*
Y-01447*
X0422Y-01456*
X04227Y-01463*
X04233Y-01466*
X04243*
X0425Y-01463*
X04256Y-01456*
X04373Y-01414D02*
X0437Y-01408D01*
X04363Y-01401*
X04357Y-01398*
X04344*
X04337Y-01401*
X04331Y-01408*
X04327Y-01414*
X04324Y-01424*
Y-0144*
X04327Y-0145*
X04331Y-01456*
X04337Y-01463*
X04344Y-01466*
X04357*
X04363Y-01463*
X0437Y-01456*
X04373Y-0145*
X04408Y-01421D02*
X04402Y-01424D01*
X04395Y-0143*
X04392Y-0144*
Y-01447*
X04395Y-01456*
X04402Y-01463*
X04408Y-01466*
X04418*
X04424Y-01463*
X04431Y-01456*
X04434Y-01447*
Y-0144*
X04431Y-0143*
X04424Y-01424*
X04418Y-01421*
X04408*
X04449D02*
Y-01466D01*
Y-01434D02*
X04459Y-01424D01*
X04465Y-01421*
X04475*
X04482Y-01424*
X04485Y-01434*
Y-01466*
Y-01434D02*
X04495Y-01424D01*
X04501Y-01421*
X04511*
X04517Y-01424*
X0452Y-01434*
Y-01466*
X04542Y-01421D02*
Y-01489D01*
Y-0143D02*
X04548Y-01424D01*
X04555Y-01421*
X04565*
X04571Y-01424*
X04578Y-0143*
X04581Y-0144*
Y-01447*
X04578Y-01456*
X04571Y-01463*
X04565Y-01466*
X04555*
X04548Y-01463*
X04542Y-01456*
X04595Y-01398D02*
Y-01466D01*
X0461Y-0144D02*
X04649D01*
Y-01434*
X04645Y-01427*
X04642Y-01424*
X04636Y-01421*
X04626*
X04619Y-01424*
X04613Y-0143*
X0461Y-0144*
Y-01447*
X04613Y-01456*
X04619Y-01463*
X04626Y-01466*
X04636*
X04642Y-01463*
X04649Y-01456*
X04673Y-01398D02*
Y-01453D01*
X04676Y-01463*
X04683Y-01466*
X04689*
X04663Y-01421D02*
X04686D01*
X04699Y-0144D02*
X04738D01*
Y-01434*
X04735Y-01427*
X04731Y-01424*
X04725Y-01421*
X04715*
X04709Y-01424*
X04702Y-0143*
X04699Y-0144*
Y-01447*
X04702Y-01456*
X04709Y-01463*
X04715Y-01466*
X04725*
X04731Y-01463*
X04738Y-01456*
X04829Y-01398D02*
Y-01466D01*
X04806Y-01398D02*
X04851D01*
X04859Y-0144D02*
X04898D01*
Y-01434*
X04895Y-01427*
X04892Y-01424*
X04885Y-01421*
X04876*
X04869Y-01424*
X04863Y-0143*
X04859Y-0144*
Y-01447*
X04863Y-01456*
X04869Y-01463*
X04876Y-01466*
X04885*
X04892Y-01463*
X04898Y-01456*
X04913Y-01421D02*
Y-01466D01*
Y-01434D02*
X04923Y-01424D01*
X04929Y-01421*
X04939*
X04945Y-01424*
X04949Y-01434*
Y-01466*
X04976Y-01398D02*
Y-01453D01*
X04979Y-01463*
X04986Y-01466*
X04992*
X04966Y-01421D02*
X04989D01*
X05009Y-01398D02*
X05012Y-01401D01*
X05015Y-01398*
X05012Y-01395*
X05009Y-01398*
X05012Y-01421D02*
Y-01466D01*
X05027Y-01421D02*
Y-01466D01*
Y-01434D02*
X05037Y-01424D01*
X05043Y-01421*
X05053*
X0506Y-01424*
X05063Y-01434*
Y-01466*
X0512Y-01421D02*
Y-01473D01*
X05116Y-01482*
X05113Y-01486*
X05107Y-01489*
X05097*
X0509Y-01486*
X0512Y-0143D02*
X05113Y-01424D01*
X05107Y-01421*
X05097*
X0509Y-01424*
X05084Y-0143*
X05081Y-0144*
Y-01447*
X05084Y-01456*
X0509Y-01463*
X05097Y-01466*
X05107*
X05113Y-01463*
X0512Y-01456*
G54D37*
X01858Y-02461D02*
Y-02537D01*
X01909*
X01946Y-02487D02*
X01972D01*
X01984Y-02499*
Y-02537*
X01946*
X01934Y-02524*
X01946Y-02512*
X01984*
X02009Y-02487D02*
Y-02524D01*
X02022Y-02537*
X0206*
Y-0255*
X02047Y-02562*
X02035*
X0206Y-02537D02*
Y-02487D01*
X02123Y-02537D02*
X02098D01*
X02085Y-02524*
Y-02499*
X02098Y-02487*
X02123*
X02135Y-02499*
Y-02512*
X02085*
X02161Y-02487D02*
Y-02537D01*
Y-02512*
X02173Y-02499*
X02186Y-02487*
X02198*
X02236Y-02537D02*
X02274D01*
X02287Y-02524*
X02274Y-02512*
X02249*
X02236Y-02499*
X02249Y-02487*
X02287*
X02312D02*
X02324D01*
Y-02499*
X02312*
Y-02487*
Y-02524D02*
X02324D01*
Y-02537*
X02312*
Y-02524*
X0245Y-02474D02*
X02463Y-02461D01*
X02488*
X02501Y-02474*
Y-02524*
X02488Y-02537*
X02463*
X0245Y-02524*
Y-02474*
X02576Y-02537D02*
X02526D01*
X02576Y-02487*
Y-02474*
X02564Y-02461*
X02539*
X02526Y-02474*
X-00003Y-02461D02*
Y-02537D01*
X00034*
X00046Y-02524*
Y-02512*
X00034Y-02499*
X-00003*
X00034*
X00046Y-02487*
Y-02474*
X00034Y-02461*
X-00003*
X00084Y-02537D02*
X00109D01*
X00122Y-02524*
Y-02499*
X00109Y-02487*
X00084*
X00071Y-02499*
Y-02524*
X00084Y-02537*
X0016Y-02487D02*
X00185D01*
X00197Y-02499*
Y-02537*
X0016*
X00147Y-02524*
X0016Y-02512*
X00197*
X00223Y-02487D02*
Y-02537D01*
Y-02512*
X00235Y-02499*
X00248Y-02487*
X0026*
X00349Y-02461D02*
Y-02537D01*
X00311*
X00298Y-02524*
Y-02499*
X00311Y-02487*
X00349*
X00449Y-02461D02*
X005D01*
X00475*
Y-02537*
X00525D02*
X0055D01*
X00538*
Y-02487*
X00525*
X00638D02*
X00601D01*
X00588Y-02499*
Y-02524*
X00601Y-02537*
X00638*
X00664D02*
Y-02461D01*
Y-02512D02*
X00701Y-02487D01*
X00664Y-02512D02*
X00701Y-02537D01*
X00739D02*
Y-02487D01*
X00777*
X0079Y-02499*
Y-02537*
X00853D02*
X00827D01*
X00815Y-02524*
Y-02499*
X00827Y-02487*
X00853*
X00865Y-02499*
Y-02512*
X00815*
X0089Y-02537D02*
X00928D01*
X00941Y-02524*
X00928Y-02512*
X00903*
X0089Y-02499*
X00903Y-02487*
X00941*
X00966Y-02537D02*
X01004D01*
X01016Y-02524*
X01004Y-02512*
X00979*
X00966Y-02499*
X00979Y-02487*
X01016*
X01042D02*
X01054D01*
Y-02499*
X01042*
Y-02487*
Y-02524D02*
X01054D01*
Y-02537*
X01042*
Y-02524*
X01909Y-02286D02*
X01896Y-02274D01*
X01871*
X01858Y-02286*
Y-02299*
X01871Y-02312*
X01896*
X01909Y-02324*
Y-02337*
X01896Y-02349*
X01871*
X01858Y-02337*
X01934Y-02349D02*
X01959D01*
X01946*
Y-02299*
X01934*
X01997Y-02349D02*
X02022D01*
X02009*
Y-02274*
X01997*
X0206Y-02349D02*
Y-02274D01*
Y-02324D02*
X02098Y-02299D01*
X0206Y-02324D02*
X02098Y-02349D01*
X02135D02*
X02173D01*
X02186Y-02337*
X02173Y-02324*
X02148*
X02135Y-02312*
X02148Y-02299*
X02186*
X02261D02*
X02224D01*
X02211Y-02312*
Y-02337*
X02224Y-02349*
X02261*
X02287Y-02299D02*
Y-02349D01*
Y-02324*
X02299Y-02312*
X02312Y-02299*
X02324*
X024Y-02349D02*
X02375D01*
X02362Y-02337*
Y-02312*
X02375Y-02299*
X024*
X02413Y-02312*
Y-02324*
X02362*
X02476Y-02349D02*
X0245D01*
X02438Y-02337*
Y-02312*
X0245Y-02299*
X02476*
X02488Y-02312*
Y-02324*
X02438*
X02513Y-02349D02*
Y-02299D01*
X02551*
X02564Y-02312*
Y-02349*
X02715Y-02299D02*
X02677D01*
X02665Y-02312*
Y-02337*
X02677Y-02349*
X02715*
X02753D02*
X02778D01*
X02791Y-02337*
Y-02312*
X02778Y-02299*
X02753*
X0274Y-02312*
Y-02337*
X02753Y-02349*
X02816D02*
X02841D01*
X02828*
Y-02274*
X02816*
X02891Y-02349D02*
X02917D01*
X02929Y-02337*
Y-02312*
X02917Y-02299*
X02891*
X02879Y-02312*
Y-02337*
X02891Y-02349*
X02954Y-02299D02*
Y-02349D01*
Y-02324*
X02967Y-02312*
X0298Y-02299*
X02992*
X0303D02*
X03043D01*
Y-02312*
X0303*
Y-02299*
Y-02337D02*
X03043D01*
Y-02349*
X0303*
Y-02337*
X03169Y-02299D02*
Y-02337D01*
X03181Y-02349*
X03194Y-02337*
X03206Y-02349*
X03219Y-02337*
Y-02299*
X03244Y-02274D02*
Y-02349D01*
Y-02312*
X03257Y-02299*
X03282*
X03295Y-02312*
Y-02349*
X0332D02*
X03345D01*
X03332*
Y-02299*
X0332*
X03395Y-02286D02*
Y-02299D01*
X03383*
X03408*
X03395*
Y-02337*
X03408Y-02349*
X03484D02*
X03458D01*
X03446Y-02337*
Y-02312*
X03458Y-02299*
X03484*
X03496Y-02312*
Y-02324*
X03446*
X0367Y-0245D02*
Y-02525D01*
X03707*
X0372Y-02513*
Y-02462*
X03707Y-0245*
X0367*
X03745Y-02475D02*
Y-02525D01*
Y-025*
X03758Y-02488*
X0377Y-02475*
X03783*
X03833D02*
X03859D01*
X03871Y-02488*
Y-02525*
X03833*
X03821Y-02513*
X03833Y-025*
X03871*
X03896Y-02475D02*
Y-02513D01*
X03909Y-02525*
X03922Y-02513*
X03934Y-02525*
X03947Y-02513*
Y-02475*
X03972Y-02525D02*
X03997D01*
X03985*
Y-02475*
X03972*
X04035Y-02525D02*
Y-02475D01*
X04073*
X04085Y-02488*
Y-02525*
X04136Y-02551D02*
X04148D01*
X04161Y-02538*
Y-02475*
X04123*
X04111Y-02488*
Y-02513*
X04123Y-02525*
X04161*
X-00003Y-02349D02*
Y-02274D01*
X00021Y-02299*
X00046Y-02274*
Y-02349*
X00071D02*
Y-02299D01*
X00097Y-02274*
X00122Y-02299*
Y-02349*
Y-02312*
X00071*
X00147Y-02274D02*
X00197D01*
X00172*
Y-02349*
X00273Y-02274D02*
X00223D01*
Y-02349*
X00273*
X00223Y-02312D02*
X00248D01*
X00298Y-02349D02*
Y-02274D01*
X00336*
X00349Y-02286*
Y-02312*
X00336Y-02324*
X00298*
X00323D02*
X00349Y-02349D01*
X00374Y-02274D02*
X00399D01*
X00386*
Y-02349*
X00374*
X00399*
X00437D02*
Y-02299D01*
X00462Y-02274*
X00487Y-02299*
Y-02349*
Y-02312*
X00437*
X00512Y-02274D02*
Y-02349D01*
X00563*
X00588Y-02299D02*
X00601D01*
Y-02312*
X00588*
Y-02299*
Y-02337D02*
X00601D01*
Y-02349*
X00588*
Y-02337*
X04973Y-02465D02*
Y-02541D01*
X05011*
X05024Y-02528*
Y-02478*
X05011Y-02465*
X04973*
X05049Y-02541D02*
Y-02491D01*
X05074Y-02465*
X05099Y-02491*
Y-02541*
Y-02503*
X05049*
X05124Y-02465D02*
X05175D01*
X0515*
Y-02541*
X0525Y-02465D02*
X052D01*
Y-02541*
X0525*
X052Y-02503D02*
X05225D01*
G54D93*
X02092Y02451D02*
D01*
X02093Y02451*
X02094Y0245*
X02095Y02449*
X02096Y02448*
X02097Y02448*
X02098Y02447*
X021Y02447*
X02101Y02446*
X02102Y02446*
X02104Y02446*
X02105Y02446*
X02107Y02446*
X02108Y02446*
X02109Y02446*
X02111Y02446*
X02112Y02447*
X02113Y02447*
X02114Y02448*
X02116Y02449*
X02117Y02449*
X02118Y0245*
X02119Y02451*
X0212Y02452*
X02121Y02453*
X02122Y02454*
X02122Y02455*
X02123Y02456*
X02124Y02458*
X02124Y02459*
X02124Y0246*
X02125Y02462*
X02125Y02463*
X02125Y02464*
X02125Y02466*
X02125Y02467*
X02125Y02468*
X02125Y0247*
X02124Y02471*
X02124Y02472*
X02123Y02474*
X02123Y02475*
X02122Y02476*
X02121Y02477*
X0212Y02478*
X02119Y02479*
D01*
X02118Y0248*
X02117Y02481*
X02116Y02482*
X02115Y02483*
X02114Y02483*
X02113Y02484*
X02111Y02484*
X0211Y02485*
X02109Y02485*
X02107Y02485*
X02106Y02485*
X02104Y02485*
X02103Y02485*
X02102Y02485*
X021Y02484*
X02099Y02484*
X02098Y02484*
X02097Y02483*
X02095Y02482*
X02094Y02482*
X02093Y02481*
X02092Y0248*
X02091Y02479*
X0209Y02478*
X02089Y02477*
X02089Y02476*
X02088Y02474*
X02087Y02473*
X02087Y02472*
X02086Y02471*
X02086Y02469*
X02086Y02468*
X02086Y02466*
X02086Y02465*
X02086Y02464*
X02086Y02462*
X02086Y02461*
X02087Y0246*
X02087Y02458*
X02088Y02457*
X02088Y02456*
X02089Y02455*
X0209Y02454*
X02091Y02452*
X02092Y02451*
X0236Y02072D02*
D01*
X0236Y02072*
X0236Y02072*
X0236Y02072*
X0236Y02072*
X0236Y02072*
X0236Y02072*
X0236Y02072*
X0236Y02072*
X0236Y02072*
X0236Y02072*
X0236Y02072*
X0236*
X0236Y02072*
X0236Y02072*
X0236Y02072*
X0236Y02072*
X0236Y02072*
X0236Y02072*
X0236Y02072*
X0236Y02072*
X0236Y02072*
X0236Y02072*
Y02072*
X02353Y0208D02*
D01*
X02353Y0208*
X02353Y0208*
X02352Y0208*
X02352Y0208*
X02352Y0208*
X02352Y0208*
X02352Y0208*
X02352Y0208*
X02352Y02079*
X02352Y02079*
X02352Y02079*
Y02079*
X02352Y02079*
X02352Y02079*
X02352Y02079*
X02352Y02079*
X02352Y02079*
X02352Y02079*
X02352Y02079*
X02353Y02079*
X02353Y02079*
X02353Y02079*
X02353Y02079*
X0261Y02218D02*
D01*
X0261Y02218*
X0261Y02218*
X0261Y02218*
X0261Y02218*
X0261Y02218*
X0261Y02218*
X0261Y02219*
X0261Y02219*
X0261Y02219*
X0261Y02219*
X0261Y02219*
Y02219*
X0261Y02219*
X0261Y02219*
X0261Y02219*
X0261Y02219*
X0261Y02219*
X0261Y02219*
X0261Y02219*
X0261Y02219*
X0261Y02219*
X0261Y02219*
X0261Y02219*
X02603Y02211D02*
D01*
X02603Y02211*
X02603Y02211*
X02603Y02211*
X02603Y02211*
X02603Y02211*
X02603Y02211*
X02603Y02211*
X02603Y02211*
X02603Y02211*
X02603Y02211*
X02603Y02211*
X02603*
X02603Y02211*
X02603Y02211*
X02603Y02211*
X02603Y02211*
X02603Y02211*
X02603Y02211*
X02603Y02211*
X02603Y02211*
X02603Y02211*
X02603Y02211*
X02603Y02211*
X02617Y02706D02*
D01*
X02617Y02706*
X02617Y02706*
X02617Y02706*
X02617Y02706*
X02617Y02706*
X02617Y02706*
X02617Y02706*
X02617Y02706*
X02617Y02706*
X02617Y02706*
X02617Y02706*
X02617*
X02617Y02706*
X02617Y02706*
X02617Y02706*
X02617Y02706*
X02617Y02706*
X02617Y02706*
X02617Y02706*
X02617Y02706*
X02616Y02706*
X02616Y02706*
X02616Y02706*
X02624Y02698D02*
D01*
X02624Y02698*
X02624Y02698*
X02624Y02698*
X02624Y02698*
X02624Y02698*
X02624Y02698*
X02624Y02698*
X02624Y02698*
X02624Y02698*
X02624Y02698*
X02624Y02698*
Y02698*
X02624Y02698*
X02624Y02698*
X02624Y02698*
X02624Y02698*
X02624Y02698*
X02624Y02698*
X02624Y02698*
X02624Y02699*
X02624Y02699*
X02624Y02699*
X02624Y02699*
X02763Y02371D02*
D01*
X02763Y02371*
X02763Y02371*
X02763Y02372*
X02763Y02372*
X02763Y02372*
X02763Y02372*
X02763Y02372*
X02763Y02372*
X02763Y02372*
X02763Y02372*
X02763Y02372*
Y02372*
X02763Y02372*
X02763Y02372*
X02763Y02372*
X02763Y02372*
X02763Y02372*
X02763Y02372*
X02763Y02372*
X02763Y02372*
X02763Y02372*
X02763Y02372*
X02763Y02372*
X02756Y02365D02*
D01*
X02756Y02364*
X02756Y02364*
X02756Y02364*
X02756Y02364*
X02756Y02364*
X02756Y02364*
X02756Y02364*
X02756Y02364*
X02756Y02364*
X02756Y02364*
X02756Y02364*
X02756*
X02756Y02364*
X02756Y02364*
X02756Y02364*
X02756Y02364*
X02756Y02364*
X02756Y02364*
X02756Y02364*
X02756Y02364*
X02756Y02364*
X02756Y02364*
X02756Y02365*
X02464Y02859D02*
D01*
X02464Y02859*
X02464Y02859*
X02464Y02859*
X02464Y02859*
X02464Y02859*
X02464Y02859*
X02464Y02859*
X02464Y02859*
X02464Y02859*
X02464Y02859*
X02464Y02859*
X02464*
X02464Y02859*
X02464Y02859*
X02464Y02859*
X02463Y02859*
X02463Y02859*
X02463Y02859*
X02463Y02859*
X02463Y02859*
X02463Y02859*
X02463Y02859*
X02463Y02859*
X02471Y02851D02*
D01*
X02471Y02851*
X02471Y02851*
X02471Y02851*
X02471Y02851*
X02471Y02851*
X02471Y02851*
X02471Y02851*
X02471Y02851*
X02471Y02851*
X02471Y02851*
X02471Y02851*
Y02851*
X02471Y02851*
X02471Y02851*
X02471Y02852*
X02471Y02852*
X02471Y02852*
X02471Y02852*
X02471Y02852*
X02471Y02852*
X02471Y02852*
X02471Y02852*
X02471*
X02213Y02712D02*
D01*
X02213Y02712*
X02213Y02712*
X02213Y02712*
X02213Y02712*
X02213Y02712*
X02213Y02712*
X02213Y02712*
X02213Y02712*
X02213Y02712*
X02213Y02712*
X02213Y02712*
Y02712*
X02213Y02712*
X02213Y02712*
X02213Y02712*
X02213Y02712*
X02213Y02712*
X02213Y02712*
X02213Y02712*
X02213Y02712*
X02213Y02712*
X02213Y02712*
X02213Y02712*
X02221Y02719D02*
D01*
X02221Y02719*
X02221Y02719*
X02221Y02719*
X02221Y0272*
X02221Y0272*
X02221Y0272*
X02221Y0272*
X02221Y0272*
X02221Y0272*
X02221Y0272*
X02221Y0272*
X02221*
X02221Y0272*
X02221Y0272*
X0222Y0272*
X0222Y0272*
X0222Y0272*
X0222Y0272*
X0222Y02719*
X0222Y02719*
X0222Y02719*
X0222Y02719*
X0222Y02719*
X0206Y02559D02*
D01*
X0206Y02559*
X0206Y02559*
X0206Y02559*
X0206Y02559*
X0206Y02559*
X0206Y02559*
X0206Y02559*
X0206Y02559*
X0206Y02559*
X0206Y02559*
X0206Y02559*
Y02559*
X0206Y02559*
X0206Y02559*
X0206Y02559*
X0206Y02559*
X0206Y02559*
X0206Y02559*
X0206Y02559*
X0206Y02559*
X0206Y02559*
X0206Y02559*
X0206Y02559*
X02068Y02566D02*
D01*
X02068Y02566*
X02068Y02566*
X02068Y02566*
X02068Y02566*
X02068Y02566*
X02068Y02566*
X02068Y02566*
X02068Y02566*
X02068Y02566*
X02068Y02566*
X02067Y02566*
X02067*
X02067Y02566*
X02067Y02566*
X02067Y02566*
X02067Y02566*
X02067Y02566*
X02067Y02566*
X02067Y02566*
X02067Y02566*
X02067Y02566*
X02067Y02566*
X02067Y02566*
X02123Y02309D02*
D01*
X02123Y02309*
X02123Y02309*
X02123Y02309*
X02123Y02309*
X02123Y02309*
X02123Y02309*
X02123Y02309*
X02123Y02309*
X02123Y02309*
X02123Y02309*
X02123Y02309*
X02123*
X02123Y02309*
X02123Y02309*
X02123Y02309*
X02123Y02309*
X02123Y02309*
X02123Y02309*
X02123Y02309*
X02123Y02309*
X02123Y02309*
X02123Y02309*
Y02309*
X02116Y02316D02*
D01*
X02116Y02316*
X02116Y02316*
X02116Y02316*
X02116Y02316*
X02116Y02316*
X02116Y02316*
X02116Y02316*
X02116Y02316*
X02116Y02316*
X02116Y02316*
X02116Y02316*
Y02316*
X02116Y02316*
X02116Y02316*
X02116Y02316*
X02116Y02316*
X02116Y02316*
X02116Y02316*
X02116Y02316*
X02116Y02316*
X02116Y02316*
X02116Y02316*
X02116Y02316*
X02276Y02156D02*
D01*
X02276Y02156*
X02276Y02156*
X02276Y02156*
X02276Y02156*
X02276Y02156*
X02276Y02156*
X02276Y02156*
X02276Y02156*
X02276Y02156*
X02276Y02156*
X02276Y02156*
X02276*
X02276Y02156*
X02276Y02156*
X02276Y02156*
X02276Y02156*
X02276Y02156*
X02276Y02156*
X02276Y02156*
X02276Y02156*
X02277Y02156*
X02277Y02156*
X02277Y02156*
X02269Y02163D02*
D01*
X02269Y02163*
X02269Y02163*
X02269Y02163*
X02269Y02163*
X02269Y02163*
X02269Y02163*
X02269Y02163*
X02269Y02163*
X02269Y02163*
X02269Y02163*
X02269Y02163*
Y02163*
X02269Y02163*
X02269Y02163*
X02269Y02163*
X02269Y02163*
X02269Y02163*
X02269Y02163*
X02269Y02163*
X02269Y02163*
X02269Y02163*
X02269Y02163*
X02269Y02163*
X02527Y02135D02*
D01*
X02527Y02135*
X02527Y02135*
X02527Y02135*
X02527Y02135*
X02527Y02135*
X02527Y02135*
X02527Y02135*
X02527Y02135*
X02527Y02135*
X02527Y02135*
X02527Y02135*
Y02135*
X02527Y02135*
X02527Y02135*
X02527Y02135*
X02527Y02135*
X02527Y02135*
X02527Y02135*
X02527Y02135*
X02527Y02135*
X02527Y02135*
X02527Y02135*
X02527Y02135*
X02519Y02128D02*
D01*
X02519Y02128*
X02519Y02128*
X02519Y02128*
X02519Y02128*
X02519Y02128*
X02519Y02128*
X02519Y02128*
X02519Y02128*
X02519Y02128*
X02519Y02128*
X02519Y02128*
X02519*
X02519Y02128*
X02519Y02128*
X02519Y02128*
X02519Y02128*
X02519Y02128*
X02519Y02128*
X0252Y02128*
X0252Y02128*
X0252Y02128*
X0252Y02128*
X0252Y02128*
X0268Y02288D02*
D01*
X0268Y02288*
X0268Y02288*
X0268Y02288*
X0268Y02288*
X0268Y02288*
X0268Y02288*
X0268Y02288*
X0268Y02288*
X0268Y02288*
X0268Y02288*
X0268Y02288*
Y02288*
X0268Y02288*
X0268Y02288*
X0268Y02288*
X0268Y02288*
X0268Y02288*
X0268Y02288*
X0268Y02288*
X0268Y02288*
X0268Y02288*
X0268Y02288*
X0268Y02289*
X02672Y02281D02*
D01*
X02672Y02281*
X02672Y02281*
X02672Y02281*
X02672Y02281*
X02672Y02281*
X02672Y02281*
X02672Y02281*
X02672Y02281*
X02672Y02281*
X02672Y02281*
X02672Y02281*
X02672*
X02672Y02281*
X02672Y02281*
X02673Y02281*
X02673Y02281*
X02673Y02281*
X02673Y02281*
X02673Y02281*
X02673Y02281*
X02673Y02281*
X02673Y02281*
Y02281*
X02547Y02775D02*
D01*
X02547Y02775*
X02547Y02775*
X02547Y02775*
X02547Y02775*
X02547Y02775*
X02547Y02775*
X02547Y02775*
X02547Y02775*
X02547Y02775*
X02547Y02775*
X02547Y02775*
X02547*
X02547Y02775*
X02547Y02775*
X02547Y02775*
X02547Y02775*
X02547Y02775*
X02547Y02775*
X02547Y02775*
X02547Y02775*
X02547Y02775*
X02547Y02775*
X02547Y02775*
X02554Y02768D02*
D01*
X02554Y02768*
X02554Y02768*
X02554Y02768*
X02554Y02768*
X02554Y02768*
X02554Y02768*
X02554Y02768*
X02554Y02768*
X02554Y02768*
X02554Y02768*
X02554Y02768*
Y02768*
X02554Y02768*
X02554Y02768*
X02554Y02768*
X02554Y02768*
X02554Y02768*
X02554Y02768*
X02554Y02768*
X02554Y02768*
X02554Y02768*
X02554Y02768*
X02554Y02768*
X02701Y02622D02*
D01*
X02701Y02622*
X027Y02622*
X027Y02622*
X027Y02622*
X027Y02622*
X027Y02622*
X027Y02622*
X027Y02622*
X027Y02622*
X027Y02622*
X027Y02622*
X027*
X027Y02622*
X027Y02622*
X027Y02622*
X027Y02622*
X027Y02622*
X027Y02622*
X027Y02622*
X027Y02622*
X027Y02622*
X027Y02622*
X027Y02622*
X02707Y02614D02*
D01*
X02708Y02615*
X02708Y02615*
X02708Y02615*
X02708Y02615*
X02708Y02615*
X02708Y02615*
X02708Y02615*
X02708Y02615*
X02708Y02615*
X02708Y02615*
X02708Y02615*
Y02615*
X02708Y02615*
X02708Y02615*
X02708Y02615*
X02708Y02615*
X02708Y02615*
X02708Y02615*
X02708Y02615*
X02708Y02615*
X02708Y02615*
X02707Y02615*
X02707*
X02784Y02538D02*
D01*
X02784Y02539*
X02784Y02539*
X02784Y02539*
X02784Y02539*
X02784Y02539*
X02784Y02539*
X02784Y02539*
X02784Y02539*
X02784Y02539*
X02784Y02539*
X02784Y02539*
X02784*
X02784Y02539*
X02784Y02539*
X02784Y02539*
X02784Y02539*
X02784Y02539*
X02784Y02539*
X02784Y02539*
X02784Y02539*
X02784Y02539*
X02783Y02538*
X02783Y02538*
X02791Y02531D02*
D01*
X02791Y02531*
X02791Y02531*
X02791Y02531*
X02791Y02531*
X02791Y02531*
X02791Y02531*
X02791Y02531*
X02791Y02531*
X02791Y02531*
X02791Y02531*
X02791Y02531*
Y02531*
X02791Y02531*
X02791Y02531*
X02791Y02531*
X02791Y02531*
X02791Y02531*
X02791Y02531*
X02791Y02531*
X02791Y02531*
X02791Y02531*
X02791Y02532*
X02791Y02532*
X02297Y02796D02*
D01*
X02297Y02796*
X02297Y02796*
X02297Y02796*
X02297Y02796*
X02297Y02796*
X02297Y02796*
X02297Y02796*
X02297Y02796*
X02297Y02796*
X02297Y02796*
X02297Y02796*
Y02796*
X02297Y02796*
X02297Y02796*
X02297Y02796*
X02297Y02796*
X02297Y02796*
X02297Y02796*
X02297Y02796*
X02297Y02795*
X02297Y02795*
X02297Y02795*
X02297Y02795*
X02304Y02803D02*
D01*
X02304Y02803*
X02304Y02803*
X02304Y02803*
X02304Y02803*
X02304Y02803*
X02304Y02803*
X02304Y02803*
X02304Y02803*
X02304Y02803*
X02304Y02803*
X02304Y02803*
X02304*
X02304Y02803*
X02304Y02803*
X02304Y02803*
X02304Y02803*
X02304Y02803*
X02304Y02803*
X02304Y02803*
X02304Y02803*
X02304Y02803*
X02304Y02803*
X02304Y02803*
X02144Y02643D02*
D01*
X02144Y02643*
X02144Y02643*
X02144Y02643*
X02144Y02643*
X02144Y02643*
X02144Y02643*
X02144Y02643*
X02144Y02643*
X02144Y02643*
X02144Y02643*
X02144Y02643*
Y02643*
X02144Y02643*
X02144Y02643*
X02144Y02642*
X02144Y02642*
X02144Y02642*
X02144Y02642*
X02144Y02642*
X02144Y02642*
X02144Y02642*
X02144Y02642*
X02144Y02642*
X02151Y0265D02*
D01*
X02151Y0265*
X02151Y0265*
X02151Y0265*
X02151Y0265*
X02151Y0265*
X02151Y0265*
X02151Y0265*
X02151Y0265*
X02151Y0265*
X02151Y0265*
X02151Y0265*
X02151*
X02151Y0265*
X02151Y0265*
X02151Y0265*
X02151Y0265*
X02151Y0265*
X02151Y0265*
X02151Y0265*
X02151Y0265*
X02151Y0265*
X02151Y0265*
X02151Y0265*
X02039Y02392D02*
D01*
X02039Y02392*
X02039Y02392*
X02039Y02392*
X02039Y02392*
X02039Y02392*
X02039Y02392*
X0204Y02392*
X0204Y02392*
X0204Y02392*
X0204Y02392*
X0204Y02392*
X0204*
X0204Y02392*
X0204Y02392*
X0204Y02392*
X0204Y02392*
X0204Y02392*
X0204Y02392*
X0204Y02392*
X0204Y02392*
X0204Y02392*
X0204Y02392*
X0204Y02392*
X02032Y024D02*
D01*
X02032Y024*
X02032Y024*
X02032Y024*
X02032Y024*
X02032Y024*
X02032Y024*
X02032Y024*
X02032Y024*
X02032Y024*
X02032Y024*
X02032Y024*
Y024*
X02032Y024*
X02032Y02399*
X02032Y02399*
X02032Y02399*
X02032Y02399*
X02032Y02399*
X02032Y02399*
X02032Y02399*
X02032Y02399*
X02032Y02399*
X02032Y02399*
X02192Y02239D02*
D01*
X02192Y02239*
X02193Y02239*
X02193Y02239*
X02193Y02239*
X02193Y02239*
X02193Y02239*
X02193Y02239*
X02193Y02239*
X02193Y02239*
X02193Y02239*
X02193Y02239*
X02193*
X02193Y02239*
X02193Y02239*
X02193Y02239*
X02193Y02239*
X02193Y02239*
X02193Y02239*
X02193Y02239*
X02193Y02239*
X02193Y02239*
X02193Y02239*
X02193Y02239*
X02186Y02247D02*
D01*
X02185Y02247*
X02185Y02247*
X02185Y02247*
X02185Y02247*
X02185Y02247*
X02185Y02247*
X02185Y02247*
X02185Y02247*
X02185Y02247*
X02185Y02246*
X02185Y02246*
Y02246*
X02185Y02246*
X02185Y02246*
X02185Y02246*
X02185Y02246*
X02185Y02246*
X02185Y02246*
X02185Y02246*
X02185Y02246*
X02185Y02246*
X02186Y02246*
X02186Y02246*
X02346Y02086D02*
D01*
X02346Y02086*
X02346Y02086*
X02346Y02086*
X02346Y02086*
X02346Y02086*
X02346Y02086*
X02346Y02086*
X02346Y02086*
X02346Y02086*
X02346Y02086*
X02346Y02086*
X02346*
X02346Y02086*
X02346Y02086*
X02346Y02086*
X02346Y02086*
X02346Y02086*
X02346Y02086*
X02346Y02086*
X02346Y02086*
X02346Y02086*
X02346Y02086*
Y02086*
X02339Y02094D02*
D01*
X02339Y02094*
X02339Y02094*
X02339Y02094*
X02339Y02094*
X02339Y02094*
X02339Y02093*
X02339Y02093*
X02339Y02093*
X02339Y02093*
X02339Y02093*
X02339Y02093*
Y02093*
X02339Y02093*
X02339Y02093*
X02339Y02093*
X02339Y02093*
X02339Y02093*
X02339Y02093*
X02339Y02093*
X02339Y02093*
X02339Y02093*
X02339Y02093*
X02339Y02093*
X02596Y02204D02*
D01*
X02596Y02204*
X02596Y02204*
X02596Y02204*
X02596Y02205*
X02596Y02205*
X02596Y02205*
X02596Y02205*
X02596Y02205*
X02596Y02205*
X02596Y02205*
X02596Y02205*
Y02205*
X02596Y02205*
X02596Y02205*
X02596Y02205*
X02596Y02205*
X02596Y02205*
X02596Y02205*
X02596Y02205*
X02596Y02205*
X02596Y02205*
X02596Y02205*
X02596Y02205*
X02589Y02197D02*
D01*
X02589Y02197*
X02589Y02197*
X02589Y02197*
X02589Y02197*
X02589Y02197*
X02589Y02197*
X02589Y02197*
X02589Y02197*
X02589Y02197*
X02589Y02197*
X02589Y02197*
X02589*
X02589Y02197*
X02589Y02197*
X02589Y02197*
X02589Y02197*
X02589Y02197*
X02589Y02197*
X02589Y02197*
X02589Y02197*
X02589Y02197*
X02589Y02197*
X02589Y02197*
X02631Y02692D02*
D01*
X02631Y02692*
X02631Y02692*
X02631Y02692*
X02631Y02692*
X02631Y02692*
X02631Y02692*
X02631Y02692*
X02631Y02692*
X02631Y02692*
X02631Y02692*
X02631Y02692*
X02631*
X02631Y02692*
X02631Y02692*
X02631Y02692*
X02631Y02692*
X02631Y02692*
X0263Y02692*
X0263Y02692*
X0263Y02692*
X0263Y02692*
X0263Y02692*
X0263Y02692*
X02638Y02684D02*
D01*
X02638Y02684*
X02638Y02684*
X02638Y02684*
X02638Y02684*
X02638Y02684*
X02638Y02684*
X02638Y02684*
X02638Y02684*
X02638Y02684*
X02638Y02684*
X02638Y02684*
Y02684*
X02638Y02684*
X02638Y02684*
X02638Y02684*
X02638Y02684*
X02638Y02685*
X02638Y02685*
X02638Y02685*
X02638Y02685*
X02638Y02685*
X02638Y02685*
X02638*
X02749Y02358D02*
D01*
X02749Y02358*
X02749Y02358*
X02749Y02358*
X02749Y02358*
X02749Y02358*
X02749Y02358*
X02749Y02358*
X02749Y02358*
X02749Y02358*
X02749Y02358*
X02749Y02358*
Y02358*
X02749Y02358*
X02749Y02358*
X02749Y02358*
X02749Y02358*
X02749Y02358*
X02749Y02358*
X02749Y02358*
X02749Y02358*
X02749Y02358*
X02749Y02358*
X02749*
X02742Y02351D02*
D01*
X02742Y02351*
X02742Y02351*
X02742Y02351*
X02742Y02351*
X02742Y02351*
X02742Y0235*
X02742Y0235*
X02742Y0235*
X02742Y0235*
X02742Y0235*
X02742Y0235*
X02742*
X02742Y0235*
X02742Y0235*
X02742Y0235*
X02742Y0235*
X02742Y0235*
X02742Y02351*
X02742Y02351*
X02742Y02351*
X02742Y02351*
X02742Y02351*
X02742*
X02478Y02845D02*
D01*
X02478Y02845*
X02478Y02845*
X02478Y02845*
X02478Y02845*
X02478Y02845*
X02478Y02845*
X02478Y02845*
X02478Y02845*
X02478Y02845*
X02478Y02845*
X02478Y02845*
X02478*
X02477Y02845*
X02477Y02845*
X02477Y02845*
X02477Y02845*
X02477Y02845*
X02477Y02845*
X02477Y02845*
X02477Y02845*
X02477Y02845*
X02477Y02845*
X02477Y02845*
X02485Y02837D02*
D01*
X02485Y02837*
X02485Y02837*
X02485Y02837*
X02485Y02837*
X02485Y02837*
X02485Y02837*
X02485Y02837*
X02485Y02837*
X02485Y02837*
X02485Y02837*
X02485Y02837*
Y02838*
X02485Y02838*
X02485Y02838*
X02485Y02838*
X02485Y02838*
X02485Y02838*
X02485Y02838*
X02485Y02838*
X02485Y02838*
X02485Y02838*
X02485Y02838*
X02485Y02838*
X02714Y02608D02*
D01*
X02714Y02608*
X02714Y02608*
X02714Y02608*
X02714Y02608*
X02714Y02608*
X02714Y02608*
X02714Y02608*
X02714Y02608*
X02714Y02608*
X02714Y02608*
X02714Y02608*
X02714*
X02714Y02608*
X02714Y02608*
X02714Y02608*
X02714Y02608*
X02714Y02608*
X02714Y02608*
X02714Y02608*
X02714Y02608*
X02714Y02608*
X02714Y02608*
X02714Y02608*
X02721Y02601D02*
D01*
X02721Y02601*
X02721Y02601*
X02721Y02601*
X02721Y02601*
X02721Y02601*
X02721Y02601*
X02722Y02601*
X02722Y02601*
X02722Y02601*
X02722Y02601*
X02722Y02601*
Y02601*
X02722Y02601*
X02722Y02601*
X02722Y02601*
X02722Y02601*
X02721Y02601*
X02721Y02601*
X02721Y02601*
X02721Y02601*
X02721Y02601*
X02721Y02601*
X02721*
X02227Y02726D02*
D01*
X02227Y02726*
X02227Y02726*
X02227Y02726*
X02227Y02726*
X02227Y02726*
X02227Y02726*
X02227Y02726*
X02227Y02726*
X02227Y02726*
X02227Y02726*
X02227Y02726*
Y02726*
X02227Y02726*
X02227Y02726*
X02227Y02726*
X02227Y02726*
X02227Y02726*
X02227Y02726*
X02227Y02726*
X02227Y02726*
X02227Y02726*
X02227Y02726*
X02227Y02726*
X02235Y02733D02*
D01*
X02235Y02733*
X02235Y02733*
X02235Y02733*
X02235Y02733*
X02235Y02733*
X02235Y02733*
X02235Y02733*
X02235Y02733*
X02235Y02733*
X02235Y02733*
X02235Y02733*
X02234*
X02234Y02733*
X02234Y02733*
X02234Y02733*
X02234Y02733*
X02234Y02733*
X02234Y02733*
X02234Y02733*
X02234Y02733*
X02234Y02733*
X02234Y02733*
X02234Y02733*
X02074Y02573D02*
D01*
X02074Y02573*
X02074Y02573*
X02074Y02573*
X02074Y02573*
X02074Y02573*
X02074Y02573*
X02074Y02573*
X02074Y02573*
X02074Y02573*
X02074Y02573*
X02074Y02573*
Y02573*
X02074Y02573*
X02074Y02573*
X02074Y02573*
X02074Y02573*
X02074Y02573*
X02074Y02573*
X02074Y02573*
X02074Y02573*
X02074Y02573*
X02074Y02573*
X02074Y02573*
X02082Y0258D02*
D01*
X02082Y0258*
X02082Y0258*
X02082Y0258*
X02082Y0258*
X02082Y0258*
X02082Y0258*
X02082Y0258*
X02081Y0258*
X02081Y0258*
X02081Y0258*
X02081Y0258*
X02081*
X02081Y0258*
X02081Y0258*
X02081Y0258*
X02081Y0258*
X02081Y0258*
X02081Y0258*
X02081Y0258*
X02081Y0258*
X02081Y0258*
X02081Y0258*
X02081Y0258*
X02109Y02323D02*
D01*
X02109Y02323*
X02109Y02323*
X02109Y02323*
X02109Y02323*
X02109Y02323*
X02109Y02323*
X02109Y02323*
X02109Y02323*
X02109Y02323*
X02109Y02323*
X02109Y02323*
X02109*
X02109Y02323*
X02109Y02323*
X02109Y02323*
X02109Y02323*
X02109Y02323*
X02109Y02323*
X02109Y02323*
X02109Y02323*
X02109Y02323*
X0211Y02323*
Y02323*
X02102Y0233D02*
D01*
X02102Y0233*
X02102Y0233*
X02102Y0233*
X02102Y0233*
X02102Y0233*
X02102Y0233*
X02102Y0233*
X02102Y0233*
X02102Y0233*
X02102Y0233*
X02102Y0233*
Y0233*
X02102Y0233*
X02102Y0233*
X02102Y0233*
X02102Y0233*
X02102Y0233*
X02102Y0233*
X02102Y0233*
X02102Y0233*
X02102Y0233*
X02102Y0233*
X02102Y0233*
X02262Y0217D02*
D01*
X02262Y0217*
X02262Y0217*
X02262Y0217*
X02262Y0217*
X02262Y0217*
X02262Y0217*
X02262Y0217*
X02262Y0217*
X02262Y0217*
X02262Y0217*
X02262Y0217*
X02262*
X02262Y0217*
X02262Y0217*
X02262Y0217*
X02262Y0217*
X02263Y0217*
X02263Y0217*
X02263Y0217*
X02263Y0217*
X02263Y0217*
X02263Y0217*
X02263Y0217*
X02255Y02177D02*
D01*
X02255Y02177*
X02255Y02177*
X02255Y02177*
X02255Y02177*
X02255Y02177*
X02255Y02177*
X02255Y02177*
X02255Y02177*
X02255Y02177*
X02255Y02177*
X02255Y02177*
Y02177*
X02255Y02177*
X02255Y02177*
X02255Y02177*
X02255Y02177*
X02255Y02177*
X02255Y02177*
X02255Y02177*
X02255Y02177*
X02255Y02177*
X02255Y02177*
X02255Y02177*
X02513Y02121D02*
D01*
X02513Y02121*
X02513Y02121*
X02513Y02121*
X02513Y02121*
X02513Y02121*
X02513Y02121*
X02513Y02121*
X02513Y02121*
X02513Y02121*
X02513Y02121*
X02513Y02121*
Y02121*
X02513Y02121*
X02513Y02121*
X02513Y02121*
X02513Y02121*
X02513Y02121*
X02513Y02121*
X02513Y02121*
X02513Y02121*
X02513Y02121*
X02513Y02121*
X02513Y02121*
X02505Y02114D02*
D01*
X02505Y02114*
X02505Y02114*
X02505Y02114*
X02505Y02114*
X02505Y02114*
X02505Y02114*
X02505Y02114*
X02505Y02114*
X02505Y02114*
X02505Y02114*
X02505Y02114*
X02505*
X02505Y02114*
X02505Y02114*
X02505Y02114*
X02506Y02114*
X02506Y02114*
X02506Y02114*
X02506Y02114*
X02506Y02114*
X02506Y02114*
X02506Y02114*
X02506Y02114*
X02666Y02274D02*
D01*
X02666Y02274*
X02666Y02274*
X02666Y02274*
X02666Y02274*
X02666Y02274*
X02666Y02274*
X02666Y02274*
X02666Y02274*
X02666Y02274*
X02666Y02274*
X02666Y02274*
Y02274*
X02666Y02274*
X02666Y02274*
X02666Y02274*
X02666Y02274*
X02666Y02274*
X02666Y02274*
X02666Y02275*
X02666Y02275*
X02666Y02275*
X02666Y02275*
X02666*
X02658Y02267D02*
D01*
X02658Y02267*
X02658Y02267*
X02658Y02267*
X02658Y02267*
X02658Y02267*
X02658Y02267*
X02658Y02267*
X02658Y02267*
X02658Y02267*
X02658Y02267*
X02658Y02267*
X02659*
X02659Y02267*
X02659Y02267*
X02659Y02267*
X02659Y02267*
X02659Y02267*
X02659Y02267*
X02659Y02267*
X02659Y02267*
X02659Y02267*
X02659Y02267*
X02659Y02267*
X02561Y02761D02*
D01*
X02561Y02761*
X02561Y02761*
X02561Y02761*
X02561Y02761*
X02561Y02761*
X02561Y02761*
X02561Y02761*
X02561Y02761*
X02561Y02761*
X02561Y02761*
X02561Y02761*
X02561*
X02561Y02761*
X02561Y02761*
X02561Y02761*
X02561Y02761*
X02561Y02761*
X02561Y02761*
X02561Y02761*
X02561Y02761*
X02561Y02761*
X02561Y02761*
X02561Y02761*
X02568Y02754D02*
D01*
X02568Y02754*
X02568Y02754*
X02568Y02754*
X02568Y02754*
X02568Y02754*
X02568Y02754*
X02568Y02754*
X02568Y02754*
X02568Y02754*
X02568Y02754*
X02568Y02754*
Y02754*
X02568Y02754*
X02568Y02754*
X02568Y02754*
X02568Y02754*
X02568Y02754*
X02568Y02754*
X02568Y02754*
X02568Y02754*
X02568Y02754*
X02568Y02754*
X02568Y02754*
X02798Y02525D02*
D01*
X02798Y02525*
X02798Y02525*
X02798Y02525*
X02798Y02525*
X02798Y02525*
X02798Y02525*
X02798Y02525*
X02798Y02525*
X02798Y02525*
X02798Y02525*
X02798Y02525*
X02798*
X02798Y02525*
X02798Y02525*
X02798Y02525*
X02798Y02525*
X02798Y02525*
X02798Y02525*
X02797Y02525*
X02797Y02525*
X02797Y02525*
X02797Y02525*
X02797Y02525*
X02805Y02517D02*
D01*
X02805Y02517*
X02805Y02517*
X02805Y02517*
X02805Y02517*
X02805Y02517*
X02805Y02517*
X02805Y02517*
X02805Y02517*
X02805Y02517*
X02805Y02517*
X02805Y02517*
Y02517*
X02805Y02517*
X02805Y02517*
X02805Y02517*
X02805Y02517*
X02805Y02517*
X02805Y02518*
X02805Y02518*
X02805Y02518*
X02805Y02518*
X02805Y02518*
X02805Y02518*
X02311Y0281D02*
D01*
X02311Y0281*
X02311Y0281*
X02311Y0281*
X02311Y0281*
X02311Y0281*
X02311Y0281*
X02311Y0281*
X02311Y0281*
X02311Y0281*
X02311Y0281*
X02311Y0281*
Y0281*
X02311Y0281*
X02311Y0281*
X02311Y0281*
X02311Y0281*
X02311Y02809*
X02311Y02809*
X02311Y02809*
X02311Y02809*
X02311Y02809*
X02311Y02809*
X02311Y02809*
X02318Y02817D02*
D01*
X02318Y02817*
X02318Y02817*
X02318Y02817*
X02318Y02817*
X02318Y02817*
X02318Y02817*
X02318Y02817*
X02318Y02817*
X02318Y02817*
X02318Y02817*
X02318Y02817*
X02318*
X02318Y02817*
X02318Y02817*
X02318Y02817*
X02318Y02817*
X02318Y02817*
X02318Y02817*
X02318Y02817*
X02318Y02817*
X02318Y02817*
X02318Y02817*
X02318Y02817*
X02158Y02657D02*
D01*
X02158Y02657*
X02158Y02657*
X02158Y02657*
X02158Y02657*
X02158Y02657*
X02158Y02657*
X02158Y02657*
X02158Y02657*
X02158Y02657*
X02158Y02657*
X02158Y02657*
Y02656*
X02158Y02656*
X02158Y02656*
X02158Y02656*
X02158Y02656*
X02158Y02656*
X02158Y02656*
X02158Y02656*
X02158Y02656*
X02158Y02656*
X02158Y02656*
X02165Y02664D02*
D01*
X02165Y02664*
X02165Y02664*
X02165Y02664*
X02165Y02664*
X02165Y02664*
X02165Y02664*
X02165Y02664*
X02165Y02664*
X02165Y02664*
X02165Y02664*
X02165Y02664*
X02165*
X02165Y02664*
X02165Y02664*
X02165Y02664*
X02165Y02664*
X02165Y02664*
X02165Y02664*
X02165Y02664*
X02165Y02664*
X02165Y02664*
X02165Y02664*
X02165Y02664*
X02025Y02406D02*
D01*
X02025Y02406*
X02025Y02406*
X02026Y02406*
X02026Y02406*
X02026Y02406*
X02026Y02406*
X02026Y02406*
X02026Y02406*
X02026Y02406*
X02026Y02406*
X02026Y02406*
X02026*
X02026Y02406*
X02026Y02406*
X02026Y02406*
X02026Y02406*
X02026Y02406*
X02026Y02406*
X02026Y02406*
X02026Y02406*
X02026Y02406*
X02026Y02406*
X02026Y02406*
X02018Y02414D02*
D01*
X02018Y02414*
X02018Y02414*
X02018Y02414*
X02018Y02414*
X02018Y02414*
X02018Y02414*
X02018Y02414*
X02018Y02414*
X02018Y02414*
X02018Y02414*
X02018Y02413*
Y02413*
X02018Y02413*
X02018Y02413*
X02018Y02413*
X02018Y02413*
X02018Y02413*
X02018Y02413*
X02018Y02413*
X02018Y02413*
X02018Y02413*
X02018Y02413*
X02018Y02413*
X02179Y02253D02*
D01*
X02179Y02253*
X02179Y02253*
X02179Y02253*
X02179Y02253*
X02179Y02253*
X02179Y02253*
X02179Y02253*
X02179Y02253*
X02179Y02253*
X02179Y02253*
X02179Y02253*
X02179*
X02179Y02253*
X02179Y02253*
X02179Y02253*
X02179Y02253*
X02179Y02253*
X02179Y02253*
X02179Y02253*
X02179Y02253*
X02179Y02253*
X02179Y02253*
X02179Y02253*
X02172Y02261D02*
D01*
X02172Y02261*
X02172Y02261*
X02172Y02261*
X02172Y02261*
X02172Y02261*
X02172Y02261*
X02171Y0226*
X02171Y0226*
X02171Y0226*
X02171Y0226*
X02171Y0226*
Y0226*
X02171Y0226*
X02171Y0226*
X02171Y0226*
X02171Y0226*
X02172Y0226*
X02172Y0226*
X02172Y0226*
X02172Y0226*
X02172Y0226*
X02172Y0226*
X02172Y0226*
X02332Y021D02*
D01*
X02332Y021*
X02332Y021*
X02332Y021*
X02332Y021*
X02332Y021*
X02332Y021*
X02332Y021*
X02332Y021*
X02332Y021*
X02332Y021*
X02332Y021*
X02332*
X02332Y021*
X02332Y021*
X02332Y021*
X02332Y021*
X02332Y021*
X02332Y021*
X02332Y021*
X02332Y021*
X02332Y021*
X02332Y021*
X02332*
X02325Y02108D02*
D01*
X02325Y02108*
X02325Y02107*
X02325Y02107*
X02325Y02107*
X02325Y02107*
X02325Y02107*
X02325Y02107*
X02325Y02107*
X02325Y02107*
X02325Y02107*
X02325Y02107*
Y02107*
X02325Y02107*
X02325Y02107*
X02325Y02107*
X02325Y02107*
X02325Y02107*
X02325Y02107*
X02325Y02107*
X02325Y02107*
X02325Y02107*
X02325Y02107*
X02325Y02107*
X02582Y02191D02*
D01*
X02582Y02191*
X02582Y02191*
X02582Y02191*
X02582Y02191*
X02582Y02191*
X02582Y02191*
X02582Y02191*
X02582Y02191*
X02582Y02191*
X02582Y02191*
X02582Y02191*
Y02191*
X02582Y02191*
X02582Y02191*
X02582Y02191*
X02582Y02191*
X02582Y02191*
X02582Y02191*
X02582Y02191*
X02582Y02191*
X02582Y02191*
X02582Y02191*
X02582Y02191*
X02575Y02184D02*
D01*
X02575Y02184*
X02575Y02184*
X02575Y02183*
X02575Y02183*
X02575Y02183*
X02575Y02183*
X02575Y02183*
X02575Y02183*
X02575Y02183*
X02575Y02183*
X02575Y02183*
X02575*
X02575Y02183*
X02575Y02183*
X02575Y02183*
X02575Y02183*
X02575Y02183*
X02575Y02183*
X02575Y02183*
X02575Y02183*
X02575Y02184*
X02575Y02184*
X02575Y02184*
X02735Y02344D02*
D01*
X02735Y02344*
X02735Y02344*
X02735Y02344*
X02735Y02344*
X02735Y02344*
X02735Y02344*
X02735Y02344*
X02735Y02344*
X02735Y02344*
X02735Y02344*
X02735Y02344*
Y02344*
X02735Y02344*
X02735Y02344*
X02735Y02344*
X02735Y02344*
X02735Y02344*
X02735Y02344*
X02735Y02344*
X02735Y02344*
X02735Y02344*
X02735Y02344*
X02735*
X02728Y02337D02*
D01*
X02728Y02337*
X02728Y02337*
X02728Y02337*
X02728Y02337*
X02728Y02337*
X02728Y02337*
X02728Y02337*
X02728Y02337*
X02728Y02337*
X02728Y02337*
X02728Y02337*
X02728*
X02728Y02337*
X02728Y02337*
X02728Y02337*
X02728Y02337*
X02728Y02337*
X02728Y02337*
X02728Y02337*
X02728Y02337*
X02728Y02337*
X02728Y02337*
X02728Y02337*
X02492Y02831D02*
D01*
X02492Y02831*
X02492Y02831*
X02492Y02831*
X02492Y02831*
X02492Y02831*
X02492Y02831*
X02492Y02831*
X02492Y02831*
X02492Y02831*
X02491Y02831*
X02491Y02831*
X02491*
X02491Y02831*
X02491Y02831*
X02491Y02831*
X02491Y02831*
X02491Y02831*
X02491Y02831*
X02491Y02831*
X02491Y02831*
X02491Y02831*
X02491Y02831*
X02491Y02831*
X02499Y02823D02*
D01*
X02499Y02823*
X02499Y02823*
X02499Y02823*
X02499Y02823*
X02499Y02823*
X02499Y02823*
X02499Y02823*
X02499Y02823*
X02499Y02823*
X02499Y02824*
X02499Y02824*
Y02824*
X02499Y02824*
X02499Y02824*
X02499Y02824*
X02499Y02824*
X02499Y02824*
X02499Y02824*
X02499Y02824*
X02499Y02824*
X02499Y02824*
X02499Y02824*
X02499Y02824*
X02645Y02678D02*
D01*
X02645Y02678*
X02645Y02678*
X02645Y02678*
X02645Y02678*
X02645Y02678*
X02645Y02678*
X02645Y02678*
X02645Y02678*
X02645Y02678*
X02645Y02678*
X02645Y02678*
X02645*
X02645Y02678*
X02644Y02678*
X02644Y02678*
X02644Y02678*
X02644Y02678*
X02644Y02678*
X02644Y02678*
X02644Y02678*
X02644Y02678*
X02644Y02678*
X02644Y02678*
X02652Y0267D02*
D01*
X02652Y0267*
X02652Y0267*
X02652Y0267*
X02652Y0267*
X02652Y0267*
X02652Y0267*
X02652Y0267*
X02652Y0267*
X02652Y0267*
X02652Y0267*
X02652Y0267*
Y0267*
X02652Y0267*
X02652Y02671*
X02652Y02671*
X02652Y02671*
X02652Y02671*
X02652Y02671*
X02652Y02671*
X02652Y02671*
X02652Y02671*
X02652Y02671*
X02652*
X02728Y02594D02*
D01*
X02728Y02594*
X02728Y02594*
X02728Y02594*
X02728Y02594*
X02728Y02594*
X02728Y02594*
X02728Y02594*
X02728Y02594*
X02728Y02594*
X02728Y02594*
X02728Y02594*
X02728*
X02728Y02594*
X02728Y02594*
X02728Y02594*
X02728Y02594*
X02728Y02594*
X02728Y02594*
X02728Y02594*
X02728Y02594*
X02728Y02594*
X02728Y02594*
X02728Y02594*
X02735Y02587D02*
D01*
X02735Y02587*
X02735Y02587*
X02735Y02587*
X02735Y02587*
X02735Y02587*
X02735Y02587*
X02735Y02587*
X02735Y02587*
X02735Y02587*
X02735Y02587*
X02735Y02587*
Y02587*
X02735Y02587*
X02735Y02587*
X02735Y02587*
X02735Y02587*
X02735Y02587*
X02735Y02587*
X02735Y02587*
X02735Y02587*
X02735Y02587*
X02735Y02587*
X02735Y02587*
X02241Y0274D02*
D01*
X02241Y0274*
X02241Y0274*
X02241Y0274*
X02241Y0274*
X02241Y0274*
X02241Y0274*
X02241Y0274*
X02241Y0274*
X02241Y0274*
X02241Y0274*
X02241Y0274*
Y0274*
X02241Y0274*
X02241Y0274*
X02241Y0274*
X02241Y0274*
X02241Y0274*
X02241Y0274*
X02241Y0274*
X02241Y0274*
X02241Y0274*
X02241Y0274*
X02241Y0274*
X02249Y02747D02*
D01*
X02249Y02747*
X02249Y02747*
X02249Y02747*
X02249Y02747*
X02249Y02747*
X02249Y02747*
X02249Y02747*
X02249Y02747*
X02248Y02747*
X02248Y02747*
X02248Y02747*
X02248*
X02248Y02747*
X02248Y02747*
X02248Y02747*
X02248Y02747*
X02248Y02747*
X02248Y02747*
X02248Y02747*
X02248Y02747*
X02248Y02747*
X02248Y02747*
X02248Y02747*
X02088Y02587D02*
D01*
X02088Y02587*
X02088Y02587*
X02088Y02587*
X02088Y02587*
X02088Y02587*
X02088Y02587*
X02088Y02587*
X02088Y02587*
X02088Y02587*
X02088Y02587*
X02088Y02587*
Y02587*
X02088Y02587*
X02088Y02587*
X02088Y02587*
X02088Y02587*
X02088Y02587*
X02088Y02587*
X02088Y02587*
X02088Y02587*
X02088Y02587*
X02088Y02587*
X02088Y02587*
X02096Y02594D02*
D01*
X02096Y02594*
X02096Y02594*
X02096Y02594*
X02096Y02594*
X02095Y02594*
X02095Y02594*
X02095Y02594*
X02095Y02594*
X02095Y02594*
X02095Y02594*
X02095Y02594*
X02095*
X02095Y02594*
X02095Y02594*
X02095Y02594*
X02095Y02594*
X02095Y02594*
X02095Y02594*
X02095Y02594*
X02095Y02594*
X02095Y02594*
X02095Y02594*
X02095Y02594*
Y02337D02*
D01*
X02095Y02337*
X02095Y02337*
X02095Y02337*
X02095Y02337*
X02095Y02337*
X02095Y02337*
X02095Y02337*
X02095Y02337*
X02095Y02337*
X02095Y02337*
X02095Y02337*
X02095*
X02095Y02337*
X02095Y02337*
X02095Y02337*
X02095Y02337*
X02095Y02337*
X02095Y02337*
X02096Y02337*
X02096Y02337*
X02096Y02337*
X02096Y02337*
X02096Y02337*
X02088Y02344D02*
D01*
X02088Y02344*
X02088Y02344*
X02088Y02344*
X02088Y02344*
X02088Y02344*
X02088Y02344*
X02088Y02344*
X02088Y02344*
X02088Y02344*
X02088Y02344*
X02088Y02344*
Y02344*
X02088Y02344*
X02088Y02344*
X02088Y02344*
X02088Y02344*
X02088Y02344*
X02088Y02344*
X02088Y02344*
X02088Y02344*
X02088Y02344*
X02088Y02344*
X02088Y02344*
X02248Y02184D02*
D01*
X02248Y02184*
X02248Y02184*
X02248Y02183*
X02248Y02183*
X02248Y02183*
X02248Y02183*
X02248Y02183*
X02248Y02183*
X02248Y02183*
X02248Y02183*
X02248Y02183*
X02248*
X02248Y02183*
X02249Y02183*
X02249Y02183*
X02249Y02183*
X02249Y02183*
X02249Y02183*
X02249Y02183*
X02249Y02183*
X02249Y02184*
X02249Y02184*
X02249Y02184*
X02241Y02191D02*
D01*
X02241Y02191*
X02241Y02191*
X02241Y02191*
X02241Y02191*
X02241Y02191*
X02241Y02191*
X02241Y02191*
X02241Y02191*
X02241Y02191*
X02241Y02191*
X02241Y02191*
Y02191*
X02241Y02191*
X02241Y02191*
X02241Y02191*
X02241Y02191*
X02241Y02191*
X02241Y02191*
X02241Y02191*
X02241Y02191*
X02241Y02191*
X02241Y02191*
X02241Y02191*
X02499Y02107D02*
D01*
X02499Y02107*
X02499Y02107*
X02499Y02107*
X02499Y02107*
X02499Y02107*
X02499Y02107*
X02499Y02107*
X02499Y02107*
X02499Y02107*
X02499Y02107*
X02499Y02107*
Y02107*
X02499Y02107*
X02499Y02107*
X02499Y02107*
X02499Y02107*
X02499Y02107*
X02499Y02107*
X02499Y02107*
X02499Y02107*
X02499Y02108*
X02499Y02108*
X02499*
X02491Y021D02*
D01*
X02491Y021*
X02491Y021*
X02491Y021*
X02491Y021*
X02491Y021*
X02491Y021*
X02491Y021*
X02491Y021*
X02491Y021*
X02491Y021*
X02491Y021*
X02491*
X02492Y021*
X02492Y021*
X02492Y021*
X02492Y021*
X02492Y021*
X02492Y021*
X02492Y021*
X02492Y021*
X02492Y021*
X02492Y021*
X02492Y021*
X02206Y02225D02*
D01*
X02206Y02225*
X02206Y02225*
X02206Y02225*
X02206Y02225*
X02207Y02225*
X02207Y02225*
X02207Y02225*
X02207Y02225*
X02207Y02225*
X02207Y02225*
X02207Y02225*
X02207*
X02207Y02225*
X02207Y02225*
X02207Y02225*
X02207Y02225*
X02207Y02225*
X02207Y02225*
X02207Y02225*
X02207Y02225*
X02207Y02225*
X02207Y02225*
X02207Y02225*
X02199Y02233D02*
D01*
X02199Y02233*
X02199Y02233*
X02199Y02233*
X02199Y02233*
X02199Y02233*
X02199Y02233*
X02199Y02233*
X02199Y02233*
X02199Y02233*
X02199Y02233*
X02199Y02233*
Y02233*
X02199Y02232*
X02199Y02232*
X02199Y02232*
X02199Y02232*
X02199Y02232*
X02199Y02232*
X02199Y02232*
X02199Y02232*
X02199Y02232*
X02199Y02232*
X02199Y02232*
X02652Y0226D02*
D01*
X02652Y0226*
X02652Y0226*
X02652Y0226*
X02652Y0226*
X02652Y0226*
X02652Y0226*
X02652Y0226*
X02652Y0226*
X02652Y0226*
X02652Y0226*
X02652Y0226*
Y0226*
X02652Y0226*
X02652Y0226*
X02652Y0226*
X02652Y02261*
X02652Y02261*
X02652Y02261*
X02652Y02261*
X02652Y02261*
X02652Y02261*
X02652Y02261*
X02652Y02261*
X02644Y02253D02*
D01*
X02644Y02253*
X02644Y02253*
X02644Y02253*
X02644Y02253*
X02644Y02253*
X02644Y02253*
X02644Y02253*
X02644Y02253*
X02645Y02253*
X02645Y02253*
X02645Y02253*
X02645*
X02645Y02253*
X02645Y02253*
X02645Y02253*
X02645Y02253*
X02645Y02253*
X02645Y02253*
X02645Y02253*
X02645Y02253*
X02645Y02253*
X02645Y02253*
Y02253*
X02575Y02747D02*
D01*
X02575Y02747*
X02575Y02747*
X02575Y02747*
X02575Y02747*
X02575Y02747*
X02575Y02747*
X02575Y02747*
X02575Y02747*
X02575Y02747*
X02575Y02747*
X02575Y02747*
X02575*
X02575Y02747*
X02575Y02747*
X02575Y02747*
X02575Y02747*
X02575Y02747*
X02575Y02747*
X02575Y02747*
X02575Y02747*
X02575Y02747*
X02575Y02747*
X02575Y02747*
X02582Y0274D02*
D01*
X02582Y0274*
X02582Y0274*
X02582Y0274*
X02582Y0274*
X02582Y0274*
X02582Y0274*
X02582Y0274*
X02582Y0274*
X02582Y0274*
X02582Y0274*
X02582Y0274*
Y0274*
X02582Y0274*
X02582Y0274*
X02582Y0274*
X02582Y0274*
X02582Y0274*
X02582Y0274*
X02582Y0274*
X02582Y0274*
X02582Y0274*
X02582Y0274*
X02582Y0274*
X02805Y02413D02*
D01*
X02805Y02413*
X02805Y02413*
X02805Y02413*
X02805Y02413*
X02805Y02413*
X02805Y02413*
X02805Y02413*
X02805Y02413*
X02805Y02413*
X02805Y02413*
X02805Y02413*
Y02414*
X02805Y02414*
X02805Y02414*
X02805Y02414*
X02805Y02414*
X02805Y02414*
X02805Y02414*
X02805Y02414*
X02805Y02414*
X02805Y02414*
X02805Y02414*
X02805Y02414*
X02797Y02406D02*
D01*
X02797Y02406*
X02797Y02406*
X02797Y02406*
X02797Y02406*
X02798Y02406*
X02798Y02406*
X02798Y02406*
X02798Y02406*
X02798Y02406*
X02798Y02406*
X02798Y02406*
X02798*
X02798Y02406*
X02798Y02406*
X02798Y02406*
X02798Y02406*
X02798Y02406*
X02798Y02406*
X02798Y02406*
X02798Y02406*
X02798Y02406*
X02798Y02406*
X02798Y02406*
X02325Y02824D02*
D01*
X02325Y02824*
X02325Y02824*
X02325Y02824*
X02325Y02824*
X02325Y02824*
X02325Y02824*
X02325Y02824*
X02325Y02824*
X02325Y02824*
X02325Y02824*
X02325Y02824*
Y02824*
X02325Y02824*
X02325Y02823*
X02325Y02823*
X02325Y02823*
X02325Y02823*
X02325Y02823*
X02325Y02823*
X02325Y02823*
X02325Y02823*
X02325Y02823*
X02325Y02823*
X02332Y02831D02*
D01*
X02332Y02831*
X02332Y02831*
X02332Y02831*
X02332Y02831*
X02332Y02831*
X02332Y02831*
X02332Y02831*
X02332Y02831*
X02332Y02831*
X02332Y02831*
X02332Y02831*
X02332*
X02332Y02831*
X02332Y02831*
X02332Y02831*
X02332Y02831*
X02332Y02831*
X02332Y02831*
X02332Y02831*
X02332Y02831*
X02332Y02831*
X02332Y02831*
X02332Y02831*
X02172Y02671D02*
D01*
X02172Y02671*
X02172Y02671*
X02172Y02671*
X02172Y02671*
X02172Y02671*
X02172Y02671*
X02172Y02671*
X02171Y02671*
X02171Y02671*
X02171Y0267*
X02171Y0267*
Y0267*
X02171Y0267*
X02171Y0267*
X02171Y0267*
X02172Y0267*
X02172Y0267*
X02172Y0267*
X02172Y0267*
X02172Y0267*
X02172Y0267*
X02172Y0267*
X02179Y02678D02*
D01*
X02179Y02678*
X02179Y02678*
X02179Y02678*
X02179Y02678*
X02179Y02678*
X02179Y02678*
X02179Y02678*
X02179Y02678*
X02179Y02678*
X02179Y02678*
X02179Y02678*
X02179*
X02179Y02678*
X02179Y02678*
X02179Y02678*
X02179Y02678*
X02179Y02678*
X02179Y02678*
X02179Y02678*
X02179Y02678*
X02179Y02678*
X02179Y02678*
X02179Y02678*
X02018Y02518D02*
D01*
X02018Y02518*
X02018Y02518*
X02018Y02518*
X02018Y02518*
X02018Y02517*
X02018Y02517*
X02018Y02517*
X02018Y02517*
X02018Y02517*
X02018Y02517*
X02018Y02517*
Y02517*
X02018Y02517*
X02018Y02517*
X02018Y02517*
X02018Y02517*
X02018Y02517*
X02018Y02517*
X02018Y02517*
X02018Y02517*
X02018Y02517*
X02018Y02517*
X02018Y02517*
X02026Y02525D02*
D01*
X02026Y02525*
X02026Y02525*
X02026Y02525*
X02026Y02525*
X02026Y02525*
X02026Y02525*
X02026Y02525*
X02026Y02525*
X02026Y02525*
X02026Y02525*
X02026Y02525*
X02026*
X02026Y02525*
X02026Y02525*
X02026Y02525*
X02026Y02525*
X02026Y02525*
X02026Y02525*
X02026Y02525*
X02025Y02525*
X02025Y02525*
X02025Y02525*
X02025Y02525*
X02165Y02267D02*
D01*
X02165Y02267*
X02165Y02267*
X02165Y02267*
X02165Y02267*
X02165Y02267*
X02165Y02267*
X02165Y02267*
X02165Y02267*
X02165Y02267*
X02165Y02267*
X02165Y02267*
X02165*
X02165Y02267*
X02165Y02267*
X02165Y02267*
X02165Y02267*
X02165Y02267*
X02165Y02267*
X02165Y02267*
X02165Y02267*
X02165Y02267*
X02165Y02267*
X02165Y02267*
X02158Y02275D02*
D01*
X02158Y02275*
X02158Y02275*
X02158Y02275*
X02158Y02274*
X02158Y02274*
X02158Y02274*
X02158Y02274*
X02158Y02274*
X02158Y02274*
X02158Y02274*
X02158Y02274*
Y02274*
X02158Y02274*
X02158Y02274*
X02158Y02274*
X02158Y02274*
X02158Y02274*
X02158Y02274*
X02158Y02274*
X02158Y02274*
X02158Y02274*
X02158Y02274*
X02158Y02274*
X02318Y02114D02*
D01*
X02318Y02114*
X02318Y02114*
X02318Y02114*
X02318Y02114*
X02318Y02114*
X02318Y02114*
X02318Y02114*
X02318Y02114*
X02318Y02114*
X02318Y02114*
X02318Y02114*
X02318*
X02318Y02114*
X02318Y02114*
X02318Y02114*
X02318Y02114*
X02318Y02114*
X02318Y02114*
X02318Y02114*
X02318Y02114*
X02318Y02114*
X02318Y02114*
X02318Y02114*
X02311Y02121D02*
D01*
X02311Y02121*
X02311Y02121*
X02311Y02121*
X02311Y02121*
X02311Y02121*
X02311Y02121*
X02311Y02121*
X02311Y02121*
X02311Y02121*
X02311Y02121*
X02311Y02121*
Y02121*
X02311Y02121*
X02311Y02121*
X02311Y02121*
X02311Y02121*
X02311Y02121*
X02311Y02121*
X02311Y02121*
X02311Y02121*
X02311Y02121*
X02311Y02121*
X02311Y02121*
X02568Y02177D02*
D01*
X02568Y02177*
X02568Y02177*
X02568Y02177*
X02568Y02177*
X02568Y02177*
X02568Y02177*
X02568Y02177*
X02568Y02177*
X02568Y02177*
X02568Y02177*
X02568Y02177*
Y02177*
X02568Y02177*
X02568Y02177*
X02568Y02177*
X02568Y02177*
X02568Y02177*
X02568Y02177*
X02568Y02177*
X02568Y02177*
X02568Y02177*
X02568Y02177*
X02568Y02177*
X02561Y0217D02*
D01*
X02561Y0217*
X02561Y0217*
X02561Y0217*
X02561Y0217*
X02561Y0217*
X02561Y0217*
X02561Y0217*
X02561Y0217*
X02561Y0217*
X02561Y0217*
X02561Y0217*
X02561*
X02561Y0217*
X02561Y0217*
X02561Y0217*
X02561Y0217*
X02561Y0217*
X02561Y0217*
X02561Y0217*
X02561Y0217*
X02561Y0217*
X02561Y0217*
X02561Y0217*
X02721Y0233D02*
D01*
X02721Y0233*
X02721Y0233*
X02721Y0233*
X02721Y0233*
X02721Y0233*
X02721Y0233*
X02722Y0233*
X02722Y0233*
X02722Y0233*
X02722Y0233*
X02722Y0233*
Y0233*
X02722Y0233*
X02722Y0233*
X02722Y0233*
X02722Y0233*
X02721Y0233*
X02721Y0233*
X02721Y0233*
X02721Y0233*
X02721Y0233*
X02721Y0233*
X02721*
X02714Y02323D02*
D01*
X02714Y02323*
X02714Y02323*
X02714Y02323*
X02714Y02323*
X02714Y02323*
X02714Y02323*
X02714Y02323*
X02714Y02323*
X02714Y02323*
X02714Y02323*
X02714Y02323*
X02714*
X02714Y02323*
X02714Y02323*
X02714Y02323*
X02714Y02323*
X02714Y02323*
X02714Y02323*
X02714Y02323*
X02714Y02323*
X02714Y02323*
X02714Y02323*
Y02323*
X02506Y02817D02*
D01*
X02506Y02817*
X02506Y02817*
X02506Y02817*
X02506Y02817*
X02506Y02817*
X02506Y02817*
X02505Y02817*
X02505Y02817*
X02505Y02817*
X02505Y02817*
X02505Y02817*
X02505*
X02505Y02817*
X02505Y02817*
X02505Y02817*
X02505Y02817*
X02505Y02817*
X02505Y02817*
X02505Y02817*
X02505Y02817*
X02505Y02817*
X02505Y02817*
X02505Y02817*
X02513Y02809D02*
D01*
X02513Y02809*
X02513Y02809*
X02513Y02809*
X02513Y02809*
X02513Y02809*
X02513Y02809*
X02513Y0281*
X02513Y0281*
X02513Y0281*
X02513Y0281*
X02513Y0281*
Y0281*
X02513Y0281*
X02513Y0281*
X02513Y0281*
X02513Y0281*
X02513Y0281*
X02513Y0281*
X02513Y0281*
X02513Y0281*
X02513Y0281*
X02513Y0281*
X02513Y0281*
X02659Y02664D02*
D01*
X02659Y02664*
X02659Y02664*
X02659Y02664*
X02659Y02664*
X02659Y02664*
X02659Y02664*
X02659Y02664*
X02659Y02664*
X02659Y02664*
X02659Y02664*
X02659Y02664*
X02658*
X02658Y02664*
X02658Y02664*
X02658Y02664*
X02658Y02664*
X02658Y02664*
X02658Y02664*
X02658Y02664*
X02658Y02664*
X02658Y02664*
X02658Y02664*
X02658Y02664*
X02666Y02656D02*
D01*
X02666Y02656*
X02666Y02656*
X02666Y02656*
X02666Y02656*
X02666Y02656*
X02666Y02656*
X02666Y02656*
X02666Y02656*
X02666Y02656*
X02666Y02656*
X02666Y02657*
Y02657*
X02666Y02657*
X02666Y02657*
X02666Y02657*
X02666Y02657*
X02666Y02657*
X02666Y02657*
X02666Y02657*
X02666Y02657*
X02666Y02657*
X02666Y02657*
X02666*
X02742Y0258D02*
D01*
X02742Y0258*
X02742Y0258*
X02742Y0258*
X02742Y0258*
X02742Y0258*
X02742Y0258*
X02742Y0258*
X02742Y0258*
X02742Y0258*
X02742Y0258*
X02742Y0258*
X02742*
X02742Y0258*
X02742Y0258*
X02742Y0258*
X02742Y0258*
X02742Y0258*
X02742Y0258*
X02742Y0258*
X02742Y0258*
X02742Y0258*
X02742Y0258*
X02742Y0258*
X02749Y02573D02*
D01*
X02749Y02573*
X02749Y02573*
X02749Y02573*
X02749Y02573*
X02749Y02573*
X02749Y02573*
X02749Y02573*
X02749Y02573*
X02749Y02573*
X02749Y02573*
X02749Y02573*
Y02573*
X02749Y02573*
X02749Y02573*
X02749Y02573*
X02749Y02573*
X02749Y02573*
X02749Y02573*
X02749Y02573*
X02749Y02573*
X02749Y02573*
X02749Y02573*
X02749Y02573*
X02255Y02754D02*
D01*
X02255Y02754*
X02255Y02754*
X02255Y02754*
X02255Y02754*
X02255Y02754*
X02255Y02754*
X02255Y02754*
X02255Y02754*
X02255Y02754*
X02255Y02754*
X02255Y02754*
Y02754*
X02255Y02754*
X02255Y02754*
X02255Y02754*
X02255Y02754*
X02255Y02754*
X02255Y02754*
X02255Y02754*
X02255Y02754*
X02255Y02754*
X02255Y02754*
X02255Y02754*
X02263Y02761D02*
D01*
X02263Y02761*
X02263Y02761*
X02263Y02761*
X02263Y02761*
X02263Y02761*
X02262Y02761*
X02262Y02761*
X02262Y02761*
X02262Y02761*
X02262Y02761*
X02262Y02761*
X02262*
X02262Y02761*
X02262Y02761*
X02262Y02761*
X02262Y02761*
X02262Y02761*
X02262Y02761*
X02262Y02761*
X02262Y02761*
X02262Y02761*
X02262Y02761*
X02262Y02761*
X02102Y02601D02*
D01*
X02102Y02601*
X02102Y02601*
X02102Y02601*
X02102Y02601*
X02102Y02601*
X02102Y02601*
X02102Y02601*
X02102Y02601*
X02102Y02601*
X02102Y02601*
X02102Y02601*
Y02601*
X02102Y02601*
X02102Y02601*
X02102Y02601*
X02102Y02601*
X02102Y02601*
X02102Y02601*
X02102Y02601*
X02102Y02601*
X02102Y02601*
X02102Y02601*
X02102Y02601*
X0211Y02608D02*
D01*
X02109Y02608*
X02109Y02608*
X02109Y02608*
X02109Y02608*
X02109Y02608*
X02109Y02608*
X02109Y02608*
X02109Y02608*
X02109Y02608*
X02109Y02608*
X02109Y02608*
X02109*
X02109Y02608*
X02109Y02608*
X02109Y02608*
X02109Y02608*
X02109Y02608*
X02109Y02608*
X02109Y02608*
X02109Y02608*
X02109Y02608*
X02109Y02608*
X02109Y02608*
X02081Y02351D02*
D01*
X02081Y02351*
X02081Y02351*
X02081Y02351*
X02081Y02351*
X02081Y02351*
X02081Y0235*
X02081Y0235*
X02081Y0235*
X02081Y0235*
X02081Y0235*
X02081Y0235*
X02081*
X02081Y0235*
X02081Y0235*
X02082Y0235*
X02082Y0235*
X02082Y0235*
X02082Y02351*
X02082Y02351*
X02082Y02351*
X02082Y02351*
X02082Y02351*
X02082*
X02074Y02358D02*
D01*
X02074Y02358*
X02074Y02358*
X02074Y02358*
X02074Y02358*
X02074Y02358*
X02074Y02358*
X02074Y02358*
X02074Y02358*
X02074Y02358*
X02074Y02358*
X02074Y02358*
Y02358*
X02074Y02358*
X02074Y02358*
X02074Y02358*
X02074Y02358*
X02074Y02358*
X02074Y02358*
X02074Y02358*
X02074Y02358*
X02074Y02358*
X02074Y02358*
X02074Y02358*
X02234Y02197D02*
D01*
X02234Y02197*
X02234Y02197*
X02234Y02197*
X02234Y02197*
X02234Y02197*
X02234Y02197*
X02234Y02197*
X02234Y02197*
X02234Y02197*
X02234Y02197*
X02235Y02197*
X02235*
X02235Y02197*
X02235Y02197*
X02235Y02197*
X02235Y02197*
X02235Y02197*
X02235Y02197*
X02235Y02197*
X02235Y02197*
X02235Y02197*
X02235Y02197*
X02235Y02197*
X02227Y02205D02*
D01*
X02227Y02205*
X02227Y02205*
X02227Y02205*
X02227Y02205*
X02227Y02205*
X02227Y02205*
X02227Y02205*
X02227Y02205*
X02227Y02205*
X02227Y02205*
X02227Y02205*
Y02205*
X02227Y02205*
X02227Y02205*
X02227Y02205*
X02227Y02205*
X02227Y02205*
X02227Y02205*
X02227Y02204*
X02227Y02204*
X02227Y02204*
X02227Y02204*
X02227Y02204*
X02485Y02093D02*
D01*
X02485Y02093*
X02485Y02093*
X02485Y02093*
X02485Y02093*
X02485Y02093*
X02485Y02093*
X02485Y02093*
X02485Y02093*
X02485Y02093*
X02485Y02093*
X02485Y02093*
Y02093*
X02485Y02093*
X02485Y02093*
X02485Y02093*
X02485Y02093*
X02485Y02094*
X02485Y02094*
X02485Y02094*
X02485Y02094*
X02485Y02094*
X02485Y02094*
X02485*
X02477Y02086D02*
D01*
X02477Y02086*
X02477Y02086*
X02477Y02086*
X02477Y02086*
X02477Y02086*
X02477Y02086*
X02477Y02086*
X02477Y02086*
X02477Y02086*
X02478Y02086*
X02478Y02086*
X02478*
X02478Y02086*
X02478Y02086*
X02478Y02086*
X02478Y02086*
X02478Y02086*
X02478Y02086*
X02478Y02086*
X02478Y02086*
X02478Y02086*
X02478Y02086*
Y02086*
X02638Y02246D02*
D01*
X02638Y02246*
X02638Y02246*
X02638Y02246*
X02638Y02246*
X02638Y02246*
X02638Y02246*
X02638Y02246*
X02638Y02246*
X02638Y02246*
X02638Y02246*
X02638Y02246*
Y02246*
X02638Y02247*
X02638Y02247*
X02638Y02247*
X02638Y02247*
X02638Y02247*
X02638Y02247*
X02638Y02247*
X02638Y02247*
X02638Y02247*
X02638Y02247*
X02638Y02247*
X0263Y02239D02*
D01*
X0263Y02239*
X0263Y02239*
X0263Y02239*
X0263Y02239*
X0263Y02239*
X02631Y02239*
X02631Y02239*
X02631Y02239*
X02631Y02239*
X02631Y02239*
X02631Y02239*
X02631*
X02631Y02239*
X02631Y02239*
X02631Y02239*
X02631Y02239*
X02631Y02239*
X02631Y02239*
X02631Y02239*
X02631Y02239*
X02631Y02239*
X02631Y02239*
X02631Y02239*
X02589Y02733D02*
D01*
X02589Y02733*
X02589Y02733*
X02589Y02733*
X02589Y02733*
X02589Y02733*
X02589Y02733*
X02589Y02733*
X02589Y02733*
X02589Y02733*
X02589Y02733*
X02589Y02733*
X02589*
X02589Y02733*
X02589Y02733*
X02589Y02733*
X02589Y02733*
X02589Y02733*
X02589Y02733*
X02589Y02733*
X02589Y02733*
X02589Y02733*
X02589Y02733*
X02589Y02733*
X02596Y02726D02*
D01*
X02596Y02726*
X02596Y02726*
X02596Y02726*
X02596Y02726*
X02596Y02726*
X02596Y02726*
X02596Y02726*
X02596Y02726*
X02596Y02726*
X02596Y02726*
X02596Y02726*
Y02726*
X02596Y02726*
X02596Y02726*
X02596Y02726*
X02596Y02726*
X02596Y02726*
X02596Y02726*
X02596Y02726*
X02596Y02726*
X02596Y02726*
X02596Y02726*
X02596Y02726*
X02791Y02399D02*
D01*
X02791Y02399*
X02791Y02399*
X02791Y02399*
X02791Y02399*
X02791Y02399*
X02791Y02399*
X02791Y02399*
X02791Y02399*
X02791Y024*
X02791Y024*
X02791Y024*
Y024*
X02791Y024*
X02791Y024*
X02791Y024*
X02791Y024*
X02791Y024*
X02791Y024*
X02791Y024*
X02791Y024*
X02791Y024*
X02791Y024*
X02791Y024*
X02783Y02392D02*
D01*
X02784Y02392*
X02784Y02392*
X02784Y02392*
X02784Y02392*
X02784Y02392*
X02784Y02392*
X02784Y02392*
X02784Y02392*
X02784Y02392*
X02784Y02392*
X02784Y02392*
X02784*
X02784Y02392*
X02784Y02392*
X02784Y02392*
X02784Y02392*
X02784Y02392*
X02784Y02392*
X02784Y02392*
X02784Y02392*
X02784Y02392*
X02784Y02392*
X02784Y02392*
X02339Y02838D02*
D01*
X02339Y02838*
X02339Y02838*
X02339Y02838*
X02339Y02838*
X02339Y02838*
X02339Y02838*
X02339Y02838*
X02339Y02838*
X02339Y02838*
X02339Y02838*
X02339Y02837*
Y02837*
X02339Y02837*
X02339Y02837*
X02339Y02837*
X02339Y02837*
X02339Y02837*
X02339Y02837*
X02339Y02837*
X02339Y02837*
X02339Y02837*
X02339Y02837*
X02339Y02837*
X02346Y02845D02*
D01*
X02346Y02845*
X02346Y02845*
X02346Y02845*
X02346Y02845*
X02346Y02845*
X02346Y02845*
X02346Y02845*
X02346Y02845*
X02346Y02845*
X02346Y02845*
X02346Y02845*
X02346*
X02346Y02845*
X02346Y02845*
X02346Y02845*
X02346Y02845*
X02346Y02845*
X02346Y02845*
X02346Y02845*
X02346Y02845*
X02346Y02845*
X02346Y02845*
X02346Y02845*
X02186Y02685D02*
D01*
X02185Y02685*
X02185Y02685*
X02185Y02685*
X02185Y02685*
X02185Y02685*
X02185Y02685*
X02185Y02684*
X02185Y02684*
X02185Y02684*
X02185Y02684*
X02185Y02684*
Y02684*
X02185Y02684*
X02185Y02684*
X02185Y02684*
X02185Y02684*
X02185Y02684*
X02185Y02684*
X02185Y02684*
X02185Y02684*
X02185Y02684*
X02186Y02684*
X02186Y02684*
X02193Y02692D02*
D01*
X02193Y02692*
X02193Y02692*
X02193Y02692*
X02193Y02692*
X02193Y02692*
X02193Y02692*
X02193Y02692*
X02193Y02692*
X02193Y02692*
X02193Y02692*
X02193Y02692*
X02193*
X02193Y02692*
X02193Y02692*
X02193Y02692*
X02193Y02692*
X02193Y02692*
X02193Y02692*
X02193Y02692*
X02193Y02692*
X02193Y02692*
X02192Y02692*
X02192Y02692*
X02032Y02532D02*
D01*
X02032Y02532*
X02032Y02531*
X02032Y02531*
X02032Y02531*
X02032Y02531*
X02032Y02531*
X02032Y02531*
X02032Y02531*
X02032Y02531*
X02032Y02531*
X02032Y02531*
Y02531*
X02032Y02531*
X02032Y02531*
X02032Y02531*
X02032Y02531*
X02032Y02531*
X02032Y02531*
X02032Y02531*
X02032Y02531*
X02032Y02531*
X02032Y02531*
X02032Y02531*
X0204Y02538D02*
D01*
X0204Y02539*
X0204Y02539*
X0204Y02539*
X0204Y02539*
X0204Y02539*
X0204Y02539*
X0204Y02539*
X0204Y02539*
X0204Y02539*
X0204Y02539*
X0204Y02539*
X0204*
X0204Y02539*
X0204Y02539*
X0204Y02539*
X0204Y02539*
X02039Y02539*
X02039Y02539*
X02039Y02539*
X02039Y02539*
X02039Y02539*
X02039Y02538*
X02039Y02538*
X02151Y02281D02*
D01*
X02151Y02281*
X02151Y02281*
X02151Y02281*
X02151Y02281*
X02151Y02281*
X02151Y02281*
X02151Y02281*
X02151Y02281*
X02151Y02281*
X02151Y02281*
X02151Y02281*
X02151*
X02151Y02281*
X02151Y02281*
X02151Y02281*
X02151Y02281*
X02151Y02281*
X02151Y02281*
X02151Y02281*
X02151Y02281*
X02151Y02281*
X02151Y02281*
Y02281*
X02144Y02289D02*
D01*
X02144Y02288*
X02144Y02288*
X02144Y02288*
X02144Y02288*
X02144Y02288*
X02144Y02288*
X02144Y02288*
X02144Y02288*
X02144Y02288*
X02144Y02288*
X02144Y02288*
Y02288*
X02144Y02288*
X02144Y02288*
X02144Y02288*
X02144Y02288*
X02144Y02288*
X02144Y02288*
X02144Y02288*
X02144Y02288*
X02144Y02288*
X02144Y02288*
X02144Y02288*
X02304Y02128D02*
D01*
X02304Y02128*
X02304Y02128*
X02304Y02128*
X02304Y02128*
X02304Y02128*
X02304Y02128*
X02304Y02128*
X02304Y02128*
X02304Y02128*
X02304Y02128*
X02304Y02128*
X02304*
X02304Y02128*
X02304Y02128*
X02304Y02128*
X02304Y02128*
X02304Y02128*
X02304Y02128*
X02304Y02128*
X02304Y02128*
X02304Y02128*
X02304Y02128*
X02304*
X02297Y02135D02*
D01*
X02297Y02135*
X02297Y02135*
X02297Y02135*
X02297Y02135*
X02297Y02135*
X02297Y02135*
X02297Y02135*
X02297Y02135*
X02297Y02135*
X02297Y02135*
X02297Y02135*
Y02135*
X02297Y02135*
X02297Y02135*
X02297Y02135*
X02297Y02135*
X02297Y02135*
X02297Y02135*
X02297Y02135*
X02297Y02135*
X02297Y02135*
X02297Y02135*
X02297Y02135*
X02554Y02163D02*
D01*
X02554Y02163*
X02554Y02163*
X02554Y02163*
X02554Y02163*
X02554Y02163*
X02554Y02163*
X02554Y02163*
X02554Y02163*
X02554Y02163*
X02554Y02163*
X02554Y02163*
Y02163*
X02554Y02163*
X02554Y02163*
X02554Y02163*
X02554Y02163*
X02554Y02163*
X02554Y02163*
X02554Y02163*
X02554Y02163*
X02554Y02163*
X02554Y02163*
X02554Y02163*
X02547Y02156D02*
D01*
X02547Y02156*
X02547Y02156*
X02547Y02156*
X02547Y02156*
X02547Y02156*
X02547Y02156*
X02547Y02156*
X02547Y02156*
X02547Y02156*
X02547Y02156*
X02547Y02156*
X02547*
X02547Y02156*
X02547Y02156*
X02547Y02156*
X02547Y02156*
X02547Y02156*
X02547Y02156*
X02547Y02156*
X02547Y02156*
X02547Y02156*
X02547Y02156*
X02547Y02156*
X02707Y02316D02*
D01*
X02708Y02316*
X02708Y02316*
X02708Y02316*
X02708Y02316*
X02708Y02316*
X02708Y02316*
X02708Y02316*
X02708Y02316*
X02708Y02316*
X02708Y02316*
X02708Y02316*
Y02316*
X02708Y02316*
X02708Y02316*
X02708Y02316*
X02708Y02316*
X02708Y02316*
X02708Y02316*
X02708Y02316*
X02708Y02316*
X02708Y02316*
X02707Y02316*
X02707*
X027Y02309D02*
D01*
X027Y02309*
X027Y02309*
X027Y02309*
X027Y02309*
X027Y02309*
X027Y02309*
X027Y02309*
X027Y02309*
X027Y02309*
X027Y02309*
X027Y02309*
X027*
X027Y02309*
X027Y02309*
X027Y02309*
X027Y02309*
X027Y02309*
X027Y02309*
X027Y02309*
X027Y02309*
X02701Y02309*
X02701Y02309*
Y02309*
X0252Y02803D02*
D01*
X0252Y02803*
X0252Y02803*
X0252Y02803*
X02519Y02803*
X02519Y02803*
X02519Y02803*
X02519Y02803*
X02519Y02803*
X02519Y02803*
X02519Y02803*
X02519Y02803*
X02519*
X02519Y02803*
X02519Y02803*
X02519Y02803*
X02519Y02803*
X02519Y02803*
X02519Y02803*
X02519Y02803*
X02519Y02803*
X02519Y02803*
X02519Y02803*
X02519Y02803*
X02527Y02795D02*
D01*
X02527Y02795*
X02527Y02795*
X02527Y02796*
X02527Y02796*
X02527Y02796*
X02527Y02796*
X02527Y02796*
X02527Y02796*
X02527Y02796*
X02527Y02796*
X02527Y02796*
Y02796*
X02527Y02796*
X02527Y02796*
X02527Y02796*
X02527Y02796*
X02527Y02796*
X02527Y02796*
X02527Y02796*
X02527Y02796*
X02527Y02796*
X02527Y02796*
X02527Y02796*
X02673Y0265D02*
D01*
X02673Y0265*
X02673Y0265*
X02673Y0265*
X02673Y0265*
X02673Y0265*
X02673Y0265*
X02673Y0265*
X02672Y0265*
X02672Y0265*
X02672Y0265*
X02672Y0265*
X02672*
X02672Y0265*
X02672Y0265*
X02672Y0265*
X02672Y0265*
X02672Y0265*
X02672Y0265*
X02672Y0265*
X02672Y0265*
X02672Y0265*
X02672Y0265*
X02672Y0265*
X0268Y02642D02*
D01*
X0268Y02642*
X0268Y02642*
X0268Y02642*
X0268Y02642*
X0268Y02642*
X0268Y02642*
X0268Y02642*
X0268Y02643*
X0268Y02643*
X0268Y02643*
X0268Y02643*
Y02643*
X0268Y02643*
X0268Y02643*
X0268Y02643*
X0268Y02643*
X0268Y02643*
X0268Y02643*
X0268Y02643*
X0268Y02643*
X0268Y02643*
X0268Y02643*
X0268*
X02756Y02566D02*
D01*
X02756Y02566*
X02756Y02566*
X02756Y02566*
X02756Y02566*
X02756Y02566*
X02756Y02566*
X02756Y02566*
X02756Y02566*
X02756Y02566*
X02756Y02566*
X02756Y02566*
X02756*
X02756Y02566*
X02756Y02566*
X02756Y02566*
X02756Y02566*
X02756Y02566*
X02756Y02566*
X02756Y02566*
X02756Y02566*
X02756Y02566*
X02756Y02566*
X02756Y02566*
X02763Y02559D02*
D01*
X02763Y02559*
X02763Y02559*
X02763Y02559*
X02763Y02559*
X02763Y02559*
X02763Y02559*
X02763Y02559*
X02763Y02559*
X02763Y02559*
X02763Y02559*
X02763Y02559*
Y02559*
X02763Y02559*
X02763Y02559*
X02763Y02559*
X02763Y02559*
X02763Y02559*
X02763Y02559*
X02763Y02559*
X02763Y02559*
X02763Y02559*
X02763Y02559*
X02763Y02559*
X02269Y02768D02*
D01*
X02269Y02768*
X02269Y02768*
X02269Y02768*
X02269Y02768*
X02269Y02768*
X02269Y02768*
X02269Y02768*
X02269Y02768*
X02269Y02768*
X02269Y02768*
X02269Y02768*
Y02768*
X02269Y02768*
X02269Y02768*
X02269Y02768*
X02269Y02768*
X02269Y02768*
X02269Y02768*
X02269Y02768*
X02269Y02768*
X02269Y02768*
X02269Y02768*
X02269Y02768*
X02277Y02775D02*
D01*
X02277Y02775*
X02277Y02775*
X02276Y02775*
X02276Y02775*
X02276Y02775*
X02276Y02775*
X02276Y02775*
X02276Y02775*
X02276Y02775*
X02276Y02775*
X02276Y02775*
X02276*
X02276Y02775*
X02276Y02775*
X02276Y02775*
X02276Y02775*
X02276Y02775*
X02276Y02775*
X02276Y02775*
X02276Y02775*
X02276Y02775*
X02276Y02775*
X02276Y02775*
X02116Y02615D02*
D01*
X02116Y02615*
X02116Y02615*
X02116Y02615*
X02116Y02615*
X02116Y02615*
X02116Y02615*
X02116Y02615*
X02116Y02615*
X02116Y02615*
X02116Y02615*
X02116Y02615*
Y02615*
X02116Y02615*
X02116Y02615*
X02116Y02615*
X02116Y02615*
X02116Y02615*
X02116Y02615*
X02116Y02615*
X02116Y02615*
X02116Y02615*
X02116Y02614*
X02116Y02614*
X02123Y02622D02*
D01*
X02123Y02622*
X02123Y02622*
X02123Y02622*
X02123Y02622*
X02123Y02622*
X02123Y02622*
X02123Y02622*
X02123Y02622*
X02123Y02622*
X02123Y02622*
X02123Y02622*
X02123*
X02123Y02622*
X02123Y02622*
X02123Y02622*
X02123Y02622*
X02123Y02622*
X02123Y02622*
X02123Y02622*
X02123Y02622*
X02123Y02622*
X02123Y02622*
X02123Y02622*
X02067Y02365D02*
D01*
X02067Y02364*
X02067Y02364*
X02067Y02364*
X02067Y02364*
X02067Y02364*
X02067Y02364*
X02067Y02364*
X02067Y02364*
X02067Y02364*
X02067Y02364*
X02067Y02364*
X02068*
X02068Y02364*
X02068Y02364*
X02068Y02364*
X02068Y02364*
X02068Y02364*
X02068Y02364*
X02068Y02364*
X02068Y02364*
X02068Y02364*
X02068Y02364*
X02068Y02365*
X0206Y02372D02*
D01*
X0206Y02372*
X0206Y02372*
X0206Y02372*
X0206Y02372*
X0206Y02372*
X0206Y02372*
X0206Y02372*
X0206Y02372*
X0206Y02372*
X0206Y02372*
X0206Y02372*
Y02372*
X0206Y02372*
X0206Y02372*
X0206Y02372*
X0206Y02372*
X0206Y02372*
X0206Y02372*
X0206Y02372*
X0206Y02372*
X0206Y02371*
X0206Y02371*
X0206Y02371*
X0222Y02211D02*
D01*
X0222Y02211*
X0222Y02211*
X0222Y02211*
X0222Y02211*
X0222Y02211*
X0222Y02211*
X0222Y02211*
X02221Y02211*
X02221Y02211*
X02221Y02211*
X02221Y02211*
X02221*
X02221Y02211*
X02221Y02211*
X02221Y02211*
X02221Y02211*
X02221Y02211*
X02221Y02211*
X02221Y02211*
X02221Y02211*
X02221Y02211*
X02221Y02211*
X02221Y02211*
X02213Y02219D02*
D01*
X02213Y02219*
X02213Y02219*
X02213Y02219*
X02213Y02219*
X02213Y02219*
X02213Y02219*
X02213Y02219*
X02213Y02219*
X02213Y02219*
X02213Y02219*
X02213Y02219*
Y02219*
X02213Y02219*
X02213Y02219*
X02213Y02219*
X02213Y02218*
X02213Y02218*
X02213Y02218*
X02213Y02218*
X02213Y02218*
X02213Y02218*
X02213Y02218*
X02213Y02218*
X02471Y02079D02*
D01*
X02471Y02079*
X02471Y02079*
X02471Y02079*
X02471Y02079*
X02471Y02079*
X02471Y02079*
X02471Y02079*
X02471Y02079*
X02471Y02079*
X02471Y02079*
X02471Y02079*
Y02079*
X02471Y02079*
X02471Y0208*
X02471Y0208*
X02471Y0208*
X02471Y0208*
X02471Y0208*
X02471Y0208*
X02471Y0208*
X02471Y0208*
X02471Y0208*
X02471*
X02463Y02072D02*
D01*
X02463Y02072*
X02463Y02072*
X02463Y02072*
X02463Y02072*
X02463Y02072*
X02463Y02072*
X02464Y02072*
X02464Y02072*
X02464Y02072*
X02464Y02072*
X02464Y02072*
X02464*
X02464Y02072*
X02464Y02072*
X02464Y02072*
X02464Y02072*
X02464Y02072*
X02464Y02072*
X02464Y02072*
X02464Y02072*
X02464Y02072*
X02464Y02072*
Y02072*
X02624Y02232D02*
D01*
X02624Y02232*
X02624Y02232*
X02624Y02232*
X02624Y02232*
X02624Y02232*
X02624Y02232*
X02624Y02232*
X02624Y02232*
X02624Y02232*
X02624Y02233*
X02624Y02233*
Y02233*
X02624Y02233*
X02624Y02233*
X02624Y02233*
X02624Y02233*
X02624Y02233*
X02624Y02233*
X02624Y02233*
X02624Y02233*
X02624Y02233*
X02624Y02233*
X02624Y02233*
X02616Y02225D02*
D01*
X02616Y02225*
X02617Y02225*
X02617Y02225*
X02617Y02225*
X02617Y02225*
X02617Y02225*
X02617Y02225*
X02617Y02225*
X02617Y02225*
X02617Y02225*
X02617Y02225*
X02617*
X02617Y02225*
X02617Y02225*
X02617Y02225*
X02617Y02225*
X02617Y02225*
X02617Y02225*
X02617Y02225*
X02617Y02225*
X02617Y02225*
X02617Y02225*
X02617Y02225*
X02603Y02719D02*
D01*
X02603Y02719*
X02603Y02719*
X02603Y02719*
X02603Y0272*
X02603Y0272*
X02603Y0272*
X02603Y0272*
X02603Y0272*
X02603Y0272*
X02603Y0272*
X02603Y0272*
X02603*
X02603Y0272*
X02603Y0272*
X02603Y0272*
X02603Y0272*
X02603Y0272*
X02603Y0272*
X02603Y02719*
X02603Y02719*
X02603Y02719*
X02603Y02719*
X02603Y02719*
X0261Y02712D02*
D01*
X0261Y02712*
X0261Y02712*
X0261Y02712*
X0261Y02712*
X0261Y02712*
X0261Y02712*
X0261Y02712*
X0261Y02712*
X0261Y02712*
X0261Y02712*
X0261Y02712*
Y02712*
X0261Y02712*
X0261Y02712*
X0261Y02712*
X0261Y02712*
X0261Y02712*
X0261Y02712*
X0261Y02712*
X0261Y02712*
X0261Y02712*
X0261Y02712*
X0261Y02712*
X02777Y02385D02*
D01*
X02777Y02385*
X02777Y02385*
X02777Y02385*
X02777Y02385*
X02777Y02385*
X02777Y02386*
X02777Y02386*
X02777Y02386*
X02777Y02386*
X02777Y02386*
X02777Y02386*
Y02386*
X02777Y02386*
X02777Y02386*
X02777Y02386*
X02777Y02386*
X02777Y02386*
X02777Y02386*
X02777Y02386*
X02777Y02386*
X02777Y02386*
X02777Y02386*
X02777Y02386*
X0277Y02378D02*
D01*
X0277Y02378*
X0277Y02378*
X0277Y02378*
X0277Y02378*
X0277Y02378*
X0277Y02378*
X0277Y02378*
X0277Y02378*
X0277Y02378*
X0277Y02378*
X0277Y02378*
X0277*
X0277Y02378*
X0277Y02378*
X0277Y02378*
X0277Y02378*
X0277Y02378*
X0277Y02378*
X0277Y02378*
X0277Y02378*
X0277Y02378*
X0277Y02378*
X0277*
X02353Y02852D02*
D01*
X02353Y02852*
X02353Y02852*
X02352Y02852*
X02352Y02852*
X02352Y02852*
X02352Y02852*
X02352Y02852*
X02352Y02851*
X02352Y02851*
X02352Y02851*
X02352Y02851*
Y02851*
X02352Y02851*
X02352Y02851*
X02352Y02851*
X02352Y02851*
X02352Y02851*
X02352Y02851*
X02352Y02851*
X02353Y02851*
X02353Y02851*
X02353Y02851*
X02353Y02851*
X0236Y02859D02*
D01*
X0236Y02859*
X0236Y02859*
X0236Y02859*
X0236Y02859*
X0236Y02859*
X0236Y02859*
X0236Y02859*
X0236Y02859*
X0236Y02859*
X0236Y02859*
X0236Y02859*
X0236*
X0236Y02859*
X0236Y02859*
X0236Y02859*
X0236Y02859*
X0236Y02859*
X0236Y02859*
X0236Y02859*
X0236Y02859*
X0236Y02859*
X0236Y02859*
X0236Y02859*
X02199Y02699D02*
D01*
X02199Y02699*
X02199Y02699*
X02199Y02698*
X02199Y02698*
X02199Y02698*
X02199Y02698*
X02199Y02698*
X02199Y02698*
X02199Y02698*
X02199Y02698*
X02199Y02698*
Y02698*
X02199Y02698*
X02199Y02698*
X02199Y02698*
X02199Y02698*
X02199Y02698*
X02199Y02698*
X02199Y02698*
X02199Y02698*
X02199Y02698*
X02199Y02698*
X02199Y02698*
X02207Y02706D02*
D01*
X02207Y02706*
X02207Y02706*
X02207Y02706*
X02207Y02706*
X02207Y02706*
X02207Y02706*
X02207Y02706*
X02207Y02706*
X02207Y02706*
X02207Y02706*
X02207Y02706*
X02207*
X02207Y02706*
X02207Y02706*
X02207Y02706*
X02207Y02706*
X02207Y02706*
X02206Y02706*
X02206Y02706*
X02206Y02706*
X02206Y02706*
X02206Y02706*
X02206Y02706*
X02046Y02545D02*
D01*
X02046Y02545*
X02046Y02545*
X02046Y02545*
X02046Y02545*
X02046Y02545*
X02046Y02545*
X02046Y02545*
X02046Y02545*
X02046Y02545*
X02046Y02545*
X02046Y02545*
Y02545*
X02046Y02545*
X02046Y02545*
X02046Y02545*
X02046Y02545*
X02046Y02545*
X02046Y02545*
X02046Y02545*
X02046Y02545*
X02046Y02545*
X02046Y02545*
X02046Y02545*
X02054Y02552D02*
D01*
X02054Y02552*
X02054Y02552*
X02054Y02552*
X02054Y02552*
X02054Y02552*
X02054Y02552*
X02054Y02553*
X02054Y02553*
X02054Y02553*
X02054Y02553*
X02054Y02553*
X02054*
X02054Y02553*
X02053Y02553*
X02053Y02553*
X02053Y02553*
X02053Y02552*
X02053Y02552*
X02053Y02552*
X02053Y02552*
X02053Y02552*
X02053Y02552*
X02053Y02552*
X02137Y02295D02*
D01*
X02137Y02295*
X02137Y02295*
X02137Y02295*
X02137Y02295*
X02137Y02295*
X02137Y02295*
X02137Y02295*
X02137Y02295*
X02137Y02295*
X02137Y02295*
X02137Y02295*
X02137*
X02137Y02295*
X02137Y02295*
X02137Y02295*
X02137Y02295*
X02137Y02295*
X02137Y02295*
X02137Y02295*
X02137Y02295*
X02137Y02295*
X02137Y02295*
Y02295*
X0213Y02302D02*
D01*
X0213Y02302*
X0213Y02302*
X0213Y02302*
X0213Y02302*
X0213Y02302*
X0213Y02302*
X0213Y02302*
X0213Y02302*
X0213Y02302*
X0213Y02302*
X0213Y02302*
Y02302*
X0213Y02302*
X0213Y02302*
X0213Y02302*
X0213Y02302*
X0213Y02302*
X0213Y02302*
X0213Y02302*
X0213Y02302*
X0213Y02302*
X0213Y02302*
X0213Y02302*
X0229Y02142D02*
D01*
X0229Y02142*
X0229Y02142*
X0229Y02142*
X0229Y02142*
X0229Y02142*
X0229Y02142*
X0229Y02142*
X0229Y02142*
X0229Y02142*
X0229Y02142*
X0229Y02142*
X0229*
X0229Y02142*
X0229Y02142*
X0229Y02142*
X0229Y02142*
X0229Y02142*
X0229Y02142*
X0229Y02142*
X0229Y02142*
X0229Y02142*
X0229Y02142*
X0229Y02142*
X02283Y02149D02*
D01*
X02283Y02149*
X02283Y02149*
X02283Y02149*
X02283Y02149*
X02283Y02149*
X02283Y02149*
X02283Y02149*
X02283Y02149*
X02283Y02149*
X02283Y02149*
X02283Y02149*
Y02149*
X02283Y02149*
X02283Y02149*
X02283Y02149*
X02283Y02149*
X02283Y02149*
X02283Y02149*
X02283Y02149*
X02283Y02149*
X02283Y02149*
X02283Y02149*
X02283Y02149*
X0254D02*
D01*
X0254Y02149*
X0254Y02149*
X02541Y02149*
X02541Y02149*
X02541Y02149*
X02541Y02149*
X02541Y02149*
X02541Y02149*
X02541Y02149*
X02541Y02149*
X02541Y02149*
Y02149*
X02541Y02149*
X02541Y02149*
X02541Y02149*
X02541Y02149*
X02541Y02149*
X02541Y02149*
X02541Y02149*
X02541Y02149*
X0254Y02149*
X0254Y02149*
X0254Y02149*
X02533Y02142D02*
D01*
X02533Y02142*
X02533Y02142*
X02533Y02142*
X02533Y02142*
X02533Y02142*
X02533Y02142*
X02533Y02142*
X02533Y02142*
X02533Y02142*
X02533Y02142*
X02533Y02142*
X02533*
X02533Y02142*
X02533Y02142*
X02533Y02142*
X02533Y02142*
X02533Y02142*
X02533Y02142*
X02533Y02142*
X02533Y02142*
X02533Y02142*
X02533Y02142*
X02534Y02142*
X02694Y02302D02*
D01*
X02694Y02302*
X02694Y02302*
X02694Y02302*
X02694Y02302*
X02694Y02302*
X02694Y02302*
X02694Y02302*
X02694Y02302*
X02694Y02302*
X02694Y02302*
X02694Y02302*
Y02302*
X02694Y02302*
X02694Y02302*
X02694Y02302*
X02694Y02302*
X02694Y02302*
X02694Y02302*
X02694Y02302*
X02694Y02302*
X02694Y02302*
X02694Y02302*
X02694*
X02686Y02295D02*
D01*
X02686Y02295*
X02686Y02295*
X02686Y02295*
X02686Y02295*
X02686Y02295*
X02686Y02295*
X02686Y02295*
X02686Y02295*
X02686Y02295*
X02686Y02295*
X02686Y02295*
X02686*
X02686Y02295*
X02686Y02295*
X02686Y02295*
X02686Y02295*
X02686Y02295*
X02687Y02295*
X02687Y02295*
X02687Y02295*
X02687Y02295*
X02687Y02295*
Y02295*
X02534Y02789D02*
D01*
X02533Y02789*
X02533Y02789*
X02533Y02789*
X02533Y02789*
X02533Y02789*
X02533Y02789*
X02533Y02789*
X02533Y02789*
X02533Y02789*
X02533Y02789*
X02533Y02789*
X02533*
X02533Y02789*
X02533Y02789*
X02533Y02789*
X02533Y02789*
X02533Y02789*
X02533Y02789*
X02533Y02789*
X02533Y02789*
X02533Y02789*
X02533Y02789*
X02533Y02789*
X0254Y02782D02*
D01*
X0254Y02782*
X0254Y02782*
X02541Y02782*
X02541Y02782*
X02541Y02782*
X02541Y02782*
X02541Y02782*
X02541Y02782*
X02541Y02782*
X02541Y02782*
X02541Y02782*
Y02782*
X02541Y02782*
X02541Y02782*
X02541Y02782*
X02541Y02782*
X02541Y02782*
X02541Y02782*
X02541Y02782*
X02541Y02782*
X0254Y02782*
X0254Y02782*
X0254Y02782*
X02687Y02636D02*
D01*
X02687Y02636*
X02687Y02636*
X02687Y02636*
X02687Y02636*
X02686Y02636*
X02686Y02636*
X02686Y02636*
X02686Y02636*
X02686Y02636*
X02686Y02636*
X02686Y02636*
X02686*
X02686Y02636*
X02686Y02636*
X02686Y02636*
X02686Y02636*
X02686Y02636*
X02686Y02636*
X02686Y02636*
X02686Y02636*
X02686Y02636*
X02686Y02636*
X02686Y02636*
X02694Y02628D02*
D01*
X02694Y02628*
X02694Y02628*
X02694Y02628*
X02694Y02628*
X02694Y02629*
X02694Y02629*
X02694Y02629*
X02694Y02629*
X02694Y02629*
X02694Y02629*
X02694Y02629*
Y02629*
X02694Y02629*
X02694Y02629*
X02694Y02629*
X02694Y02629*
X02694Y02629*
X02694Y02629*
X02694Y02629*
X02694Y02629*
X02694Y02629*
X02694Y02629*
X02694*
X0277Y02552D02*
D01*
X0277Y02552*
X0277Y02552*
X0277Y02552*
X0277Y02552*
X0277Y02552*
X0277Y02552*
X0277Y02553*
X0277Y02553*
X0277Y02553*
X0277Y02553*
X0277Y02553*
X0277*
X0277Y02553*
X0277Y02553*
X0277Y02553*
X0277Y02553*
X0277Y02552*
X0277Y02552*
X0277Y02552*
X0277Y02552*
X0277Y02552*
X0277Y02552*
X0277Y02552*
X02777Y02545D02*
D01*
X02777Y02545*
X02777Y02545*
X02777Y02545*
X02777Y02545*
X02777Y02545*
X02777Y02545*
X02777Y02545*
X02777Y02545*
X02777Y02545*
X02777Y02545*
X02777Y02545*
Y02545*
X02777Y02545*
X02777Y02545*
X02777Y02545*
X02777Y02545*
X02777Y02545*
X02777Y02545*
X02777Y02545*
X02777Y02545*
X02777Y02545*
X02777Y02545*
X02777Y02545*
X02283Y02782D02*
D01*
X02283Y02782*
X02283Y02782*
X02283Y02782*
X02283Y02782*
X02283Y02782*
X02283Y02782*
X02283Y02782*
X02283Y02782*
X02283Y02782*
X02283Y02782*
X02283Y02782*
Y02782*
X02283Y02782*
X02283Y02782*
X02283Y02782*
X02283Y02782*
X02283Y02782*
X02283Y02782*
X02283Y02782*
X02283Y02782*
X02283Y02782*
X02283Y02782*
X02283Y02782*
X0229Y02789D02*
D01*
X0229Y02789*
X0229Y02789*
X0229Y02789*
X0229Y02789*
X0229Y02789*
X0229Y02789*
X0229Y02789*
X0229Y02789*
X0229Y02789*
X0229Y02789*
X0229Y02789*
X0229*
X0229Y02789*
X0229Y02789*
X0229Y02789*
X0229Y02789*
X0229Y02789*
X0229Y02789*
X0229Y02789*
X0229Y02789*
X0229Y02789*
X0229Y02789*
X0229Y02789*
X0213Y02629D02*
D01*
X0213Y02629*
X0213Y02629*
X0213Y02629*
X0213Y02629*
X0213Y02629*
X0213Y02629*
X0213Y02629*
X0213Y02629*
X0213Y02629*
X0213Y02629*
X0213Y02629*
Y02629*
X0213Y02629*
X0213Y02629*
X0213Y02629*
X0213Y02629*
X0213Y02629*
X0213Y02629*
X0213Y02628*
X0213Y02628*
X0213Y02628*
X0213Y02628*
X0213Y02628*
X02137Y02636D02*
D01*
X02137Y02636*
X02137Y02636*
X02137Y02636*
X02137Y02636*
X02137Y02636*
X02137Y02636*
X02137Y02636*
X02137Y02636*
X02137Y02636*
X02137Y02636*
X02137Y02636*
X02137*
X02137Y02636*
X02137Y02636*
X02137Y02636*
X02137Y02636*
X02137Y02636*
X02137Y02636*
X02137Y02636*
X02137Y02636*
X02137Y02636*
X02137Y02636*
X02137Y02636*
X02053Y02378D02*
D01*
X02053Y02378*
X02053Y02378*
X02053Y02378*
X02053Y02378*
X02053Y02378*
X02053Y02378*
X02053Y02378*
X02053Y02378*
X02053Y02378*
X02054Y02378*
X02054Y02378*
X02054*
X02054Y02378*
X02054Y02378*
X02054Y02378*
X02054Y02378*
X02054Y02378*
X02054Y02378*
X02054Y02378*
X02054Y02378*
X02054Y02378*
X02054Y02378*
X02054*
X02046Y02386D02*
D01*
X02046Y02386*
X02046Y02386*
X02046Y02386*
X02046Y02386*
X02046Y02386*
X02046Y02386*
X02046Y02386*
X02046Y02386*
X02046Y02386*
X02046Y02386*
X02046Y02386*
Y02386*
X02046Y02386*
X02046Y02386*
X02046Y02386*
X02046Y02386*
X02046Y02385*
X02046Y02385*
X02046Y02385*
X02046Y02385*
X02046Y02385*
X02046Y02385*
X02046Y02385*
X02423Y02835D02*
X02426Y02841D01*
X02398Y0209D02*
X02426D01*
X02423Y02835D02*
X02782Y02477D01*
X02036Y02479D02*
X02042Y02477D01*
X02782D02*
X02788Y02479D01*
X02042Y02477D02*
X024Y02835D01*
X02036Y02479D02*
X02398Y02841D01*
X024Y02835*
X02426Y0209D02*
X02788Y02451D01*
X02036D02*
X02042Y02454D01*
X02782D02*
X02788Y02451D01*
X02042Y02454D02*
Y02477D01*
X02036Y02451D02*
Y02479D01*
X02423Y02095D02*
X02426Y0209D01*
X02782Y02454D02*
Y02477D01*
X02423Y02095D02*
X02782Y02454D01*
X024Y02095D02*
X02423D01*
X02398Y02841D02*
X02426D01*
X02788Y02479*
X02036Y02451D02*
X02398Y0209D01*
X02788Y02451D02*
Y02479D01*
X02398Y0209D02*
X024Y02095D01*
Y02835D02*
X02423D01*
X02042Y02454D02*
X024Y02095D01*
X02375Y02102D02*
X0238Y02107D01*
X02363Y0209D02*
X02365Y02093D01*
X0236Y02072D02*
X0237Y02082D01*
X02373Y02085*
X02365Y02093D02*
X02369Y02097D01*
X02353Y0208D02*
X02363Y0209D01*
X02369Y02097D02*
X02375Y02102D01*
X02353Y02079D02*
X0236Y02072D01*
X02382Y02094D02*
X02388Y021D01*
X02377Y02089D02*
X02382Y02094D01*
X02373Y02085D02*
X02377Y02089D01*
X02575Y02239D02*
X02581Y02233D01*
X0259Y02224D02*
X02592Y02221D01*
X026Y02229D02*
X0261Y02219D01*
X02597Y02232D02*
X026Y02229D01*
X02586Y02228D02*
X0259Y02224D01*
X02592Y02221D02*
X02603Y02211D01*
X02581Y02233D02*
X02586Y02228D01*
X02603Y02211D02*
X0261Y02218D01*
X02583Y02246D02*
X02588Y02241D01*
X02593Y02236*
X02597Y02232*
X02596Y0267D02*
X02602Y02676D01*
X02611Y02685D02*
X02614Y02688D01*
X02606Y02695D02*
X02616Y02706D01*
X02604Y02693D02*
X02606Y02695D01*
X02607Y02681D02*
X02611Y02685D01*
X02614Y02688D02*
X02624Y02698D01*
X02602Y02676D02*
X02607Y02681D01*
X02617Y02706D02*
X02624Y02699D01*
X02589Y02678D02*
X02594Y02684D01*
X026Y02689*
X02604Y02693*
X02728Y02392D02*
X02734Y02386D01*
X02743Y02377D02*
X02746Y02375D01*
X02753Y02382D02*
X02763Y02372D01*
X0275Y02385D02*
X02753Y02382D01*
X02739Y02381D02*
X02743Y02377D01*
X02746Y02375D02*
X02756Y02365D01*
X02734Y02386D02*
X02739Y02381D01*
X02756Y02365D02*
X02763Y02371D01*
X02736Y024D02*
X02741Y02394D01*
X02746Y02389*
X0275Y02385*
X02443Y02824D02*
X02449Y02829D01*
X02458Y02838D02*
X02461Y02841D01*
X02453Y02849D02*
X02463Y02859D01*
X0245Y02846D02*
X02453Y02849D01*
X02454Y02834D02*
X02458Y02838D01*
X02461Y02841D02*
X02471Y02851D01*
X02449Y02829D02*
X02454Y02834D01*
X02464Y02859D02*
X02471Y02852D01*
X02436Y02831D02*
X02441Y02837D01*
X02446Y02842*
X0245Y02846*
X02243Y02697D02*
X02248Y02692D01*
X02231Y02709D02*
X02234Y02707D01*
X02213Y02712D02*
X02223Y02702D01*
X02226Y02699*
X02234Y02707D02*
X02238Y02703D01*
X02221Y02719D02*
X02231Y02709D01*
X02238Y02703D02*
X02243Y02697D01*
X02213Y02712D02*
X0222Y02719D01*
X02235Y0269D02*
X02241Y02684D01*
X0223Y02695D02*
X02235Y0269D01*
X02226Y02699D02*
X0223Y02695D01*
X0209Y02544D02*
X02095Y02539D01*
X02078Y02556D02*
X02081Y02553D01*
X0206Y02559D02*
X0207Y02549D01*
X02073Y02546*
X02081Y02553D02*
X02085Y02549D01*
X02068Y02566D02*
X02078Y02556D01*
X02085Y02549D02*
X0209Y02544D01*
X0206Y02559D02*
X02067Y02566D01*
X02082Y02537D02*
X02088Y02531D01*
X02077Y02542D02*
X02082Y02537D01*
X02073Y02546D02*
X02077Y02542D01*
X02138Y02338D02*
X02143Y02344D01*
X02126Y02326D02*
X02129Y02329D01*
X02123Y02309D02*
X02134Y02319D01*
X02136Y02322*
X02129Y02329D02*
X02133Y02333D01*
X02116Y02316D02*
X02126Y02326D01*
X02133Y02333D02*
X02138Y02338D01*
X02116Y02316D02*
X02123Y02309D01*
X02145Y02331D02*
X02151Y02336D01*
X0214Y02326D02*
X02145Y02331D01*
X02136Y02322D02*
X0214Y02326D01*
X02291Y02185D02*
X02297Y02191D01*
X02279Y02173D02*
X02282Y02176D01*
X02277Y02156D02*
X02287Y02166D01*
X02289Y02169*
X02282Y02176D02*
X02286Y0218D01*
X02269Y02163D02*
X02279Y02173D01*
X02286Y0218D02*
X02291Y02185D01*
X02269Y02163D02*
X02276Y02156D01*
X02299Y02178D02*
X02304Y02183D01*
X02293Y02173D02*
X02299Y02178D01*
X02289Y02169D02*
X02293Y02173D01*
X02491Y02155D02*
X02497Y0215D01*
X02506Y02141D02*
X02509Y02138D01*
X02516Y02145D02*
X02527Y02135D01*
X02514Y02148D02*
X02516Y02145D01*
X02502Y02145D02*
X02506Y02141D01*
X02509Y02138D02*
X02519Y02128D01*
X02497Y0215D02*
X02502Y02145D01*
X0252Y02128D02*
X02527Y02135D01*
X02499Y02163D02*
X02505Y02157D01*
X0251Y02152*
X02514Y02148*
X02645Y02309D02*
X0265Y02303D01*
X02659Y02294D02*
X02662Y02291D01*
X0267Y02299D02*
X0268Y02289D01*
X02667Y02301D02*
X0267Y02299D01*
X02655Y02298D02*
X02659Y02294D01*
X02662Y02291D02*
X02672Y02281D01*
X0265Y02303D02*
X02655Y02298D01*
X02673Y02281D02*
X0268Y02288D01*
X02652Y02316D02*
X02658Y0231D01*
X02663Y02305*
X02667Y02301*
X02527Y0274D02*
X02532Y02746D01*
X02542Y02755D02*
X02544Y02757D01*
X02537Y02765D02*
X02547Y02775D01*
X02534Y02762D02*
X02537Y02765D01*
X02538Y02751D02*
X02542Y02755D01*
X02544Y02757D02*
X02554Y02768D01*
X02532Y02746D02*
X02538Y02751D01*
X02547Y02775D02*
X02554Y02768D01*
X02519Y02748D02*
X02525Y02753D01*
X0253Y02758*
X02534Y02762*
X0268Y02587D02*
X02686Y02593D01*
X02695Y02602D02*
X02697Y02604D01*
X0269Y02612D02*
X027Y02622D01*
X02687Y02609D02*
X0269Y02612D01*
X02691Y02598D02*
X02695Y02602D01*
X02697Y02604D02*
X02707Y02614D01*
X02686Y02593D02*
X02691Y02598D01*
X02701Y02622D02*
X02707Y02615D01*
X02672Y02594D02*
X02678Y026D01*
X02683Y02605*
X02687Y02609*
X02763Y02503D02*
X02769Y02509D01*
X02778Y02518D02*
X02781Y02521D01*
X02773Y02528D02*
X02783Y02538D01*
X02771Y02526D02*
X02773Y02528D01*
X02774Y02514D02*
X02778Y02518D01*
X02781Y02521D02*
X02791Y02531D01*
X02769Y02509D02*
X02774Y02514D01*
X02784Y02538D02*
X02791Y02532D01*
X02756Y02511D02*
X02762Y02517D01*
X02767Y02522*
X02771Y02526*
X02326Y02781D02*
X02332Y02775D01*
X02315Y02793D02*
X02317Y0279D01*
X02297Y02795D02*
X02307Y02785D01*
X0231Y02783*
X02317Y0279D02*
X02321Y02786D01*
X02304Y02803D02*
X02315Y02793D01*
X02321Y02786D02*
X02326Y02781D01*
X02297Y02796D02*
X02304Y02803D01*
X02319Y02773D02*
X02324Y02768D01*
X02314Y02779D02*
X02319Y02773D01*
X0231Y02783D02*
X02314Y02779D01*
X02173Y02628D02*
X02179Y02622D01*
X02161Y0264D02*
X02164Y02637D01*
X02144Y02642D02*
X02154Y02632D01*
X02157Y02629*
X02164Y02637D02*
X02168Y02633D01*
X02151Y0265D02*
X02161Y0264D01*
X02168Y02633D02*
X02173Y02628D01*
X02144Y02643D02*
X02151Y0265D01*
X02166Y0262D02*
X02171Y02615D01*
X02161Y02625D02*
X02166Y0262D01*
X02157Y02629D02*
X02161Y02625D01*
X02054Y02422D02*
X0206Y02427D01*
X02043Y0241D02*
X02045Y02413D01*
X0204Y02392D02*
X0205Y02402D01*
X02053Y02405*
X02045Y02413D02*
X02049Y02417D01*
X02032Y024D02*
X02043Y0241D01*
X02049Y02417D02*
X02054Y02422D01*
X02032Y02399D02*
X02039Y02392D01*
X02062Y02414D02*
X02067Y0242D01*
X02057Y02409D02*
X02062Y02414D01*
X02053Y02405D02*
X02057Y02409D01*
X02207Y02269D02*
X02213Y02274D01*
X02196Y02257D02*
X02198Y0226D01*
X02193Y02239D02*
X02203Y02249D01*
X02206Y02252*
X02198Y0226D02*
X02202Y02264D01*
X02186Y02247D02*
X02196Y02257D01*
X02202Y02264D02*
X02207Y02269D01*
X02186Y02246D02*
X02192Y02239D01*
X02215Y02261D02*
X02221Y02267D01*
X0221Y02256D02*
X02215Y02261D01*
X02206Y02252D02*
X0221Y02256D01*
X02361Y02116D02*
X02366Y02121D01*
X02349Y02104D02*
X02352Y02107D01*
X02346Y02086D02*
X02356Y02096D01*
X02359Y02099*
X02352Y02107D02*
X02356Y0211D01*
X02339Y02094D02*
X02349Y02104D01*
X02356Y0211D02*
X02361Y02116D01*
X02339Y02093D02*
X02346Y02086D01*
X02368Y02108D02*
X02374Y02114D01*
X02363Y02103D02*
X02368Y02108D01*
X02359Y02099D02*
X02363Y02103D01*
X02561Y02225D02*
X02567Y02219D01*
X02576Y0221D02*
X02579Y02208D01*
X02586Y02215D02*
X02596Y02205D01*
X02583Y02218D02*
X02586Y02215D01*
X02572Y02214D02*
X02576Y0221D01*
X02579Y02208D02*
X02589Y02197D01*
X02567Y02219D02*
X02572Y02214D01*
X02589Y02197D02*
X02596Y02204D01*
X02569Y02233D02*
X02574Y02227D01*
X02579Y02222*
X02583Y02218*
X0261Y02657D02*
X02616Y02662D01*
X02625Y02671D02*
X02628Y02674D01*
X0262Y02681D02*
X0263Y02692D01*
X02618Y02679D02*
X0262Y02681D01*
X02621Y02667D02*
X02625Y02671D01*
X02628Y02674D02*
X02638Y02684D01*
X02616Y02662D02*
X02621Y02667D01*
X02631Y02692D02*
X02638Y02685D01*
X02603Y02664D02*
X02608Y0267D01*
X02614Y02675*
X02618Y02679*
X02714Y02378D02*
X0272Y02373D01*
X02729Y02363D02*
X02732Y02361D01*
X02739Y02368D02*
X02749Y02358D01*
X02736Y02371D02*
X02739Y02368D01*
X02725Y02367D02*
X02729Y02363D01*
X02732Y02361D02*
X02742Y02351D01*
X0272Y02373D02*
X02725Y02367D01*
X02742Y02351D02*
X02749Y02358D01*
X02722Y02386D02*
X02727Y0238D01*
X02732Y02375*
X02736Y02371*
X02457Y0281D02*
X02463Y02815D01*
X02472Y02824D02*
X02475Y02827D01*
X02467Y02835D02*
X02477Y02845D01*
X02464Y02832D02*
X02467Y02835D01*
X02468Y0282D02*
X02472Y02824D01*
X02475Y02827D02*
X02485Y02837D01*
X02463Y02815D02*
X02468Y0282D01*
X02478Y02845D02*
X02485Y02838D01*
X0245Y02817D02*
X02455Y02823D01*
X0246Y02828*
X02464Y02832*
X02694Y02573D02*
X02699Y02579D01*
X02709Y02588D02*
X02711Y0259D01*
X02704Y02598D02*
X02714Y02608D01*
X02701Y02595D02*
X02704Y02598D01*
X02705Y02584D02*
X02709Y02588D01*
X02711Y0259D02*
X02721Y02601D01*
X02699Y02579D02*
X02705Y02584D01*
X02714Y02608D02*
X02721Y02601D01*
X02686Y02581D02*
X02692Y02586D01*
X02697Y02591*
X02701Y02595*
X02257Y02711D02*
X02262Y02706D01*
X02245Y02723D02*
X02248Y0272D01*
X02227Y02726D02*
X02237Y02716D01*
X0224Y02713*
X02248Y0272D02*
X02252Y02716D01*
X02235Y02733D02*
X02245Y02723D01*
X02252Y02716D02*
X02257Y02711D01*
X02227Y02726D02*
X02234Y02733D01*
X02249Y02704D02*
X02255Y02698D01*
X02244Y02709D02*
X02249Y02704D01*
X0224Y02713D02*
X02244Y02709D01*
X02104Y02558D02*
X02109Y02553D01*
X02092Y0257D02*
X02095Y02567D01*
X02074Y02573D02*
X02084Y02563D01*
X02087Y0256*
X02095Y02567D02*
X02099Y02563D01*
X02082Y0258D02*
X02092Y0257D01*
X02099Y02563D02*
X02104Y02558D01*
X02074Y02573D02*
X02081Y0258D01*
X02096Y02551D02*
X02102Y02545D01*
X02091Y02556D02*
X02096Y02551D01*
X02087Y0256D02*
X02091Y02556D01*
X02124Y02352D02*
X0213Y02358D01*
X02112Y0234D02*
X02115Y02343D01*
X0211Y02323D02*
X0212Y02333D01*
X02122Y02336*
X02115Y02343D02*
X02119Y02347D01*
X02102Y0233D02*
X02112Y0234D01*
X02119Y02347D02*
X02124Y02352D01*
X02102Y0233D02*
X02109Y02323D01*
X02131Y02345D02*
X02137Y0235D01*
X02126Y0234D02*
X02131Y02345D01*
X02122Y02336D02*
X02126Y0234D01*
X02277Y02199D02*
X02283Y02205D01*
X02265Y02187D02*
X02268Y0219D01*
X02263Y0217D02*
X02273Y0218D01*
X02276Y02183*
X02268Y0219D02*
X02272Y02194D01*
X02255Y02177D02*
X02265Y02187D01*
X02272Y02194D02*
X02277Y02199D01*
X02255Y02177D02*
X02262Y0217D01*
X02285Y02192D02*
X0229Y02197D01*
X02279Y02186D02*
X02285Y02192D01*
X02276Y02183D02*
X02279Y02186D01*
X02478Y02142D02*
X02483Y02136D01*
X02492Y02127D02*
X02495Y02124D01*
X02503Y02132D02*
X02513Y02121D01*
X025Y02134D02*
X02503Y02132D01*
X02488Y02131D02*
X02492Y02127D01*
X02495Y02124D02*
X02505Y02114D01*
X02483Y02136D02*
X02488Y02131D01*
X02506Y02114D02*
X02513Y02121D01*
X02485Y02149D02*
X02491Y02143D01*
X02496Y02138*
X025Y02134*
X02631Y02295D02*
X02636Y02289D01*
X02645Y0228D02*
X02648Y02277D01*
X02656Y02285D02*
X02666Y02275D01*
X02653Y02287D02*
X02656Y02285D01*
X02641Y02284D02*
X02645Y0228D01*
X02648Y02277D02*
X02658Y02267D01*
X02636Y02289D02*
X02641Y02284D01*
X02659Y02267D02*
X02666Y02274D01*
X02638Y02302D02*
X02644Y02297D01*
X02649Y02291*
X02653Y02287*
X02541Y02726D02*
X02546Y02732D01*
X02555Y02741D02*
X02558Y02744D01*
X02551Y02751D02*
X02561Y02761D01*
X02548Y02748D02*
X02551Y02751D01*
X02551Y02737D02*
X02555Y02741D01*
X02558Y02744D02*
X02568Y02754D01*
X02546Y02732D02*
X02551Y02737D01*
X02561Y02761D02*
X02568Y02754D01*
X02533Y02734D02*
X02539Y02739D01*
X02544Y02744*
X02548Y02748*
X02777Y02489D02*
X02783Y02495D01*
X02792Y02504D02*
X02795Y02507D01*
X02787Y02514D02*
X02797Y02525D01*
X02785Y02512D02*
X02787Y02514D01*
X02788Y025D02*
X02792Y02504D01*
X02795Y02507D02*
X02805Y02517D01*
X02783Y02495D02*
X02788Y025D01*
X02798Y02525D02*
X02805Y02518D01*
X0277Y02497D02*
X02775Y02503D01*
X02781Y02508*
X02785Y02512*
X0234Y02795D02*
X02346Y02789D01*
X02328Y02807D02*
X02331Y02804D01*
X02311Y02809D02*
X02321Y02799D01*
X02324Y02796*
X02331Y02804D02*
X02335Y028D01*
X02318Y02817D02*
X02328Y02807D01*
X02335Y028D02*
X0234Y02795D01*
X02311Y0281D02*
X02318Y02817D01*
X02333Y02787D02*
X02338Y02782D01*
X02328Y02792D02*
X02333Y02787D01*
X02324Y02796D02*
X02328Y02792D01*
X02187Y02642D02*
X02193Y02636D01*
X02175Y02654D02*
X02178Y02651D01*
X02158Y02656D02*
X02168Y02646D01*
X02171Y02643*
X02178Y02651D02*
X02182Y02647D01*
X02165Y02664D02*
X02175Y02654D01*
X02182Y02647D02*
X02187Y02642D01*
X02158Y02657D02*
X02165Y02664D01*
X0218Y02634D02*
X02185Y02629D01*
X02175Y02639D02*
X0218Y02634D01*
X02171Y02643D02*
X02175Y02639D01*
X0204Y02436D02*
X02046Y02441D01*
X02029Y02424D02*
X02031Y02427D01*
X02026Y02406D02*
X02036Y02416D01*
X02039Y02419*
X02031Y02427D02*
X02035Y02431D01*
X02018Y02414D02*
X02029Y02424D01*
X02035Y02431D02*
X0204Y02436D01*
X02018Y02413D02*
X02025Y02406D01*
X02048Y02428D02*
X02054Y02434D01*
X02043Y02423D02*
X02048Y02428D01*
X02039Y02419D02*
X02043Y02423D01*
X02194Y02283D02*
X02199Y02288D01*
X02182Y02271D02*
X02184Y02274D01*
X02179Y02253D02*
X02189Y02263D01*
X02192Y02266*
X02184Y02274D02*
X02188Y02278D01*
X02172Y02261D02*
X02182Y02271D01*
X02188Y02278D02*
X02194Y02283D01*
X02172Y0226D02*
X02179Y02253D01*
X02201Y02275D02*
X02207Y02281D01*
X02196Y0227D02*
X02201Y02275D01*
X02192Y02266D02*
X02196Y0227D01*
X02347Y0213D02*
X02352Y02135D01*
X02335Y02118D02*
X02338Y0212D01*
X02332Y021D02*
X02342Y0211D01*
X02345Y02113*
X02338Y0212D02*
X02342Y02124D01*
X02325Y02108D02*
X02335Y02118D01*
X02342Y02124D02*
X02347Y0213D01*
X02325Y02107D02*
X02332Y021D01*
X02354Y02122D02*
X0236Y02128D01*
X02349Y02117D02*
X02354Y02122D01*
X02345Y02113D02*
X02349Y02117D01*
X02547Y02211D02*
X02553Y02206D01*
X02562Y02196D02*
X02565Y02194D01*
X02572Y02201D02*
X02582Y02191D01*
X02569Y02204D02*
X02572Y02201D01*
X02558Y022D02*
X02562Y02196D01*
X02565Y02194D02*
X02575Y02184D01*
X02553Y02206D02*
X02558Y022D01*
X02575Y02184D02*
X02582Y02191D01*
X02555Y02219D02*
X0256Y02213D01*
X02565Y02208*
X02569Y02204*
X027Y02364D02*
X02706Y02359D01*
X02715Y0235D02*
X02718Y02347D01*
X02725Y02354D02*
X02735Y02344D01*
X02722Y02357D02*
X02725Y02354D01*
X02711Y02354D02*
X02715Y0235D01*
X02718Y02347D02*
X02728Y02337D01*
X02706Y02359D02*
X02711Y02354D01*
X02728Y02337D02*
X02735Y02344D01*
X02708Y02372D02*
X02713Y02366D01*
X02718Y02361*
X02722Y02357*
X02471Y02796D02*
X02477Y02801D01*
X02486Y0281D02*
X02489Y02813D01*
X02481Y02821D02*
X02491Y02831D01*
X02478Y02818D02*
X02481Y02821D01*
X02482Y02806D02*
X02486Y0281D01*
X02489Y02813D02*
X02499Y02823D01*
X02477Y02801D02*
X02482Y02806D01*
X02492Y02831D02*
X02499Y02824D01*
X02464Y02803D02*
X02469Y02809D01*
X02474Y02814*
X02478Y02818*
X02624Y02643D02*
X0263Y02648D01*
X02639Y02657D02*
X02642Y0266D01*
X02634Y02668D02*
X02644Y02678D01*
X02631Y02665D02*
X02634Y02668D01*
X02635Y02653D02*
X02639Y02657D01*
X02642Y0266D02*
X02652Y0267D01*
X0263Y02648D02*
X02635Y02653D01*
X02645Y02678D02*
X02652Y02671D01*
X02617Y0265D02*
X02622Y02656D01*
X02627Y02661*
X02631Y02665*
X02708Y02559D02*
X02713Y02565D01*
X02722Y02574D02*
X02725Y02577D01*
X02718Y02584D02*
X02728Y02594D01*
X02715Y02581D02*
X02718Y02584D01*
X02718Y0257D02*
X02722Y02574D01*
X02725Y02577D02*
X02735Y02587D01*
X02713Y02565D02*
X02718Y0257D01*
X02728Y02594D02*
X02735Y02587D01*
X027Y02567D02*
X02706Y02572D01*
X02711Y02577*
X02715Y02581*
X02271Y02725D02*
X02276Y0272D01*
X02259Y02737D02*
X02262Y02734D01*
X02241Y0274D02*
X02251Y0273D01*
X02254Y02727*
X02262Y02734D02*
X02266Y0273D01*
X02249Y02747D02*
X02259Y02737D01*
X02266Y0273D02*
X02271Y02725D01*
X02241Y0274D02*
X02248Y02747D01*
X02263Y02718D02*
X02269Y02712D01*
X02258Y02723D02*
X02263Y02718D01*
X02254Y02727D02*
X02258Y02723D01*
X02118Y02572D02*
X02123Y02567D01*
X02106Y02584D02*
X02108Y02581D01*
X02088Y02587D02*
X02098Y02577D01*
X02101Y02574*
X02108Y02581D02*
X02112Y02577D01*
X02096Y02594D02*
X02106Y02584D01*
X02112Y02577D02*
X02118Y02572D01*
X02088Y02587D02*
X02095Y02594D01*
X0211Y02565D02*
X02116Y02559D01*
X02105Y0257D02*
X0211Y02565D01*
X02101Y02574D02*
X02105Y0257D01*
X0211Y02366D02*
X02116Y02372D01*
X02098Y02354D02*
X02101Y02357D01*
X02096Y02337D02*
X02106Y02347D01*
X02108Y0235*
X02101Y02357D02*
X02105Y02361D01*
X02088Y02344D02*
X02098Y02354D01*
X02105Y02361D02*
X0211Y02366D01*
X02088Y02344D02*
X02095Y02337D01*
X02118Y02359D02*
X02123Y02364D01*
X02112Y02354D02*
X02118Y02359D01*
X02108Y0235D02*
X02112Y02354D01*
X02263Y02213D02*
X02269Y02219D01*
X02251Y02201D02*
X02254Y02204D01*
X02249Y02184D02*
X02259Y02194D01*
X02262Y02196*
X02254Y02204D02*
X02258Y02208D01*
X02241Y02191D02*
X02251Y02201D01*
X02258Y02208D02*
X02263Y02213D01*
X02241Y02191D02*
X02248Y02184D01*
X02271Y02206D02*
X02276Y02211D01*
X02266Y022D02*
X02271Y02206D01*
X02262Y02196D02*
X02266Y022D01*
X02464Y02128D02*
X02469Y02122D01*
X02478Y02113D02*
X02481Y0211D01*
X02489Y02118D02*
X02499Y02108D01*
X02486Y0212D02*
X02489Y02118D01*
X02474Y02117D02*
X02478Y02113D01*
X02481Y0211D02*
X02491Y021D01*
X02469Y02122D02*
X02474Y02117D01*
X02492Y021D02*
X02499Y02107D01*
X02471Y02135D02*
X02477Y0213D01*
X02482Y02124*
X02486Y0212*
X02221Y02255D02*
X02227Y0226D01*
X0221Y02243D02*
X02212Y02246D01*
X02207Y02225D02*
X02217Y02235D01*
X0222Y02238*
X02212Y02246D02*
X02216Y0225D01*
X02199Y02233D02*
X0221Y02243D01*
X02216Y0225D02*
X02221Y02255D01*
X02199Y02232D02*
X02206Y02225D01*
X02229Y02247D02*
X02235Y02253D01*
X02224Y02242D02*
X02229Y02247D01*
X0222Y02238D02*
X02224Y02242D01*
X02617Y02281D02*
X02622Y02275D01*
X02631Y02266D02*
X02634Y02263D01*
X02642Y02271D02*
X02652Y02261D01*
X02639Y02274D02*
X02642Y02271D01*
X02627Y0227D02*
X02631Y02266D01*
X02634Y02263D02*
X02644Y02253D01*
X02622Y02275D02*
X02627Y0227D01*
X02645Y02253D02*
X02652Y0226D01*
X02624Y02288D02*
X0263Y02283D01*
X02635Y02278*
X02639Y02274*
X02555Y02712D02*
X0256Y02718D01*
X02569Y02727D02*
X02572Y0273D01*
X02565Y02737D02*
X02575Y02747D01*
X02562Y02734D02*
X02565Y02737D01*
X02565Y02723D02*
X02569Y02727D01*
X02572Y0273D02*
X02582Y0274D01*
X0256Y02718D02*
X02565Y02723D01*
X02575Y02747D02*
X02582Y0274D01*
X02547Y0272D02*
X02553Y02725D01*
X02558Y0273*
X02562Y02734*
X0277Y02434D02*
X02775Y02428D01*
X02785Y02419D02*
X02787Y02416D01*
X02795Y02424D02*
X02805Y02414D01*
X02792Y02427D02*
X02795Y02424D01*
X02781Y02423D02*
X02785Y02419D01*
X02787Y02416D02*
X02797Y02406D01*
X02775Y02428D02*
X02781Y02423D01*
X02798Y02406D02*
X02805Y02413D01*
X02777Y02441D02*
X02783Y02436D01*
X02788Y02431*
X02792Y02427*
X02354Y02809D02*
X0236Y02803D01*
X02342Y02821D02*
X02345Y02818D01*
X02325Y02823D02*
X02335Y02813D01*
X02338Y0281*
X02345Y02818D02*
X02349Y02814D01*
X02332Y02831D02*
X02342Y02821D01*
X02349Y02814D02*
X02354Y02809D01*
X02325Y02824D02*
X02332Y02831D01*
X02347Y02801D02*
X02352Y02796D01*
X02342Y02806D02*
X02347Y02801D01*
X02338Y0281D02*
X02342Y02806D01*
X02201Y02656D02*
X02207Y0265D01*
X02189Y02668D02*
X02192Y02665D01*
X02172Y0267D02*
X02182Y0266D01*
X02184Y02657*
X02192Y02665D02*
X02196Y02661D01*
X02179Y02678D02*
X02189Y02668D01*
X02196Y02661D02*
X02201Y02656D01*
X02172Y02671D02*
X02179Y02678D01*
X02194Y02648D02*
X02199Y02643D01*
X02188Y02653D02*
X02194Y02648D01*
X02184Y02657D02*
X02188Y02653D01*
X02048Y02503D02*
X02054Y02497D01*
X02036Y02514D02*
X02039Y02512D01*
X02018Y02517D02*
X02029Y02507D01*
X02031Y02504*
X02039Y02512D02*
X02043Y02508D01*
X02026Y02525D02*
X02036Y02514D01*
X02043Y02508D02*
X02048Y02503D01*
X02018Y02518D02*
X02025Y02525D01*
X0204Y02495D02*
X02046Y02489D01*
X02035Y025D02*
X0204Y02495D01*
X02031Y02504D02*
X02035Y025D01*
X0218Y02297D02*
X02185Y02302D01*
X02168Y02285D02*
X02171Y02287D01*
X02165Y02267D02*
X02175Y02277D01*
X02178Y0228*
X02171Y02287D02*
X02175Y02291D01*
X02158Y02275D02*
X02168Y02285D01*
X02175Y02291D02*
X0218Y02297D01*
X02158Y02274D02*
X02165Y02267D01*
X02187Y02289D02*
X02193Y02295D01*
X02182Y02284D02*
X02187Y02289D01*
X02178Y0228D02*
X02182Y02284D01*
X02333Y02143D02*
X02338Y02149D01*
X02321Y02132D02*
X02324Y02134D01*
X02318Y02114D02*
X02328Y02124D01*
X02331Y02127*
X02324Y02134D02*
X02328Y02138D01*
X02311Y02121D02*
X02321Y02132D01*
X02328Y02138D02*
X02333Y02143D01*
X02311Y02121D02*
X02318Y02114D01*
X0234Y02136D02*
X02346Y02142D01*
X02335Y02131D02*
X0234Y02136D01*
X02331Y02127D02*
X02335Y02131D01*
X02533Y02197D02*
X02539Y02192D01*
X02548Y02183D02*
X02551Y0218D01*
X02558Y02187D02*
X02568Y02177D01*
X02555Y0219D02*
X02558Y02187D01*
X02544Y02186D02*
X02548Y02183D01*
X02551Y0218D02*
X02561Y0217D01*
X02539Y02192D02*
X02544Y02186D01*
X02561Y0217D02*
X02568Y02177D01*
X02541Y02205D02*
X02546Y02199D01*
X02551Y02194*
X02555Y0219*
X02686Y0235D02*
X02692Y02345D01*
X02701Y02336D02*
X02704Y02333D01*
X02711Y0234D02*
X02721Y0233D01*
X02709Y02343D02*
X02711Y0234D01*
X02697Y0234D02*
X02701Y02336D01*
X02704Y02333D02*
X02714Y02323D01*
X02692Y02345D02*
X02697Y0234D01*
X02714Y02323D02*
X02721Y0233D01*
X02694Y02358D02*
X02699Y02352D01*
X02705Y02347*
X02709Y02343*
X02485Y02782D02*
X02491Y02787D01*
X025Y02796D02*
X02503Y02799D01*
X02495Y02807D02*
X02505Y02817D01*
X02492Y02804D02*
X02495Y02807D01*
X02496Y02792D02*
X025Y02796D01*
X02503Y02799D02*
X02513Y02809D01*
X02491Y02787D02*
X02496Y02792D01*
X02506Y02817D02*
X02513Y0281D01*
X02478Y02789D02*
X02483Y02795D01*
X02488Y028*
X02492Y02804*
X02638Y02629D02*
X02644Y02634D01*
X02653Y02643D02*
X02656Y02646D01*
X02648Y02654D02*
X02658Y02664D01*
X02645Y02651D02*
X02648Y02654D01*
X02649Y02639D02*
X02653Y02643D01*
X02656Y02646D02*
X02666Y02656D01*
X02644Y02634D02*
X02649Y02639D01*
X02659Y02664D02*
X02666Y02657D01*
X02631Y02636D02*
X02636Y02642D01*
X02641Y02647*
X02645Y02651*
X02722Y02545D02*
X02727Y02551D01*
X02736Y0256D02*
X02739Y02563D01*
X02732Y0257D02*
X02742Y0258D01*
X02729Y02567D02*
X02732Y0257D01*
X02732Y02556D02*
X02736Y0256D01*
X02739Y02563D02*
X02749Y02573D01*
X02727Y02551D02*
X02732Y02556D01*
X02742Y0258D02*
X02749Y02573D01*
X02714Y02553D02*
X0272Y02558D01*
X02725Y02563*
X02729Y02567*
X02285Y02739D02*
X0229Y02734D01*
X02273Y02751D02*
X02276Y02748D01*
X02255Y02754D02*
X02265Y02744D01*
X02268Y02741*
X02276Y02748D02*
X02279Y02744D01*
X02263Y02761D02*
X02273Y02751D01*
X02279Y02744D02*
X02285Y02739D01*
X02255Y02754D02*
X02262Y02761D01*
X02277Y02732D02*
X02283Y02726D01*
X02272Y02737D02*
X02277Y02732D01*
X02268Y02741D02*
X02272Y02737D01*
X02131Y02586D02*
X02137Y02581D01*
X0212Y02598D02*
X02122Y02595D01*
X02102Y02601D02*
X02112Y0259D01*
X02115Y02588*
X02122Y02595D02*
X02126Y02591D01*
X0211Y02608D02*
X0212Y02598D01*
X02126Y02591D02*
X02131Y02586D01*
X02102Y02601D02*
X02109Y02608D01*
X02124Y02579D02*
X0213Y02573D01*
X02119Y02584D02*
X02124Y02579D01*
X02115Y02588D02*
X02119Y02584D01*
X02096Y0238D02*
X02102Y02386D01*
X02084Y02368D02*
X02087Y02371D01*
X02082Y02351D02*
X02092Y02361D01*
X02095Y02363*
X02087Y02371D02*
X02091Y02375D01*
X02074Y02358D02*
X02084Y02368D01*
X02091Y02375D02*
X02096Y0238D01*
X02074Y02358D02*
X02081Y02351D01*
X02104Y02373D02*
X02109Y02378D01*
X02099Y02367D02*
X02104Y02373D01*
X02095Y02363D02*
X02099Y02367D01*
X02249Y02227D02*
X02255Y02233D01*
X02237Y02215D02*
X0224Y02218D01*
X02235Y02197D02*
X02245Y02208D01*
X02248Y0221*
X0224Y02218D02*
X02244Y02222D01*
X02227Y02205D02*
X02237Y02215D01*
X02244Y02222D02*
X02249Y02227D01*
X02227Y02204D02*
X02234Y02197D01*
X02257Y02219D02*
X02262Y02225D01*
X02252Y02214D02*
X02257Y02219D01*
X02248Y0221D02*
X02252Y02214D01*
X0245Y02114D02*
X02455Y02108D01*
X02464Y02099D02*
X02467Y02096D01*
X02475Y02104D02*
X02485Y02094D01*
X02472Y02107D02*
X02475Y02104D01*
X0246Y02103D02*
X02464Y02099D01*
X02467Y02096D02*
X02477Y02086D01*
X02455Y02108D02*
X0246Y02103D01*
X02478Y02086D02*
X02485Y02093D01*
X02457Y02121D02*
X02463Y02116D01*
X02468Y0211*
X02472Y02107*
X02603Y02267D02*
X02608Y02261D01*
X02618Y02252D02*
X0262Y02249D01*
X02628Y02257D02*
X02638Y02247D01*
X02625Y0226D02*
X02628Y02257D01*
X02614Y02256D02*
X02618Y02252D01*
X0262Y02249D02*
X0263Y02239D01*
X02608Y02261D02*
X02614Y02256D01*
X02631Y02239D02*
X02638Y02246D01*
X0261Y02274D02*
X02616Y02269D01*
X02621Y02264*
X02625Y0226*
X02569Y02698D02*
X02574Y02704D01*
X02583Y02713D02*
X02586Y02716D01*
X02579Y02723D02*
X02589Y02733D01*
X02576Y0272D02*
X02579Y02723D01*
X02579Y02709D02*
X02583Y02713D01*
X02586Y02716D02*
X02596Y02726D01*
X02574Y02704D02*
X02579Y02709D01*
X02589Y02733D02*
X02596Y02726D01*
X02561Y02706D02*
X02567Y02711D01*
X02572Y02716*
X02576Y0272*
X02756Y0242D02*
X02762Y02414D01*
X02771Y02405D02*
X02773Y02402D01*
X02781Y0241D02*
X02791Y024D01*
X02778Y02413D02*
X02781Y0241D01*
X02767Y02409D02*
X02771Y02405D01*
X02773Y02402D02*
X02783Y02392D01*
X02762Y02414D02*
X02767Y02409D01*
X02784Y02392D02*
X02791Y02399D01*
X02763Y02427D02*
X02769Y02422D01*
X02774Y02417*
X02778Y02413*
X02368Y02823D02*
X02374Y02817D01*
X02356Y02835D02*
X02359Y02832D01*
X02339Y02837D02*
X02349Y02827D01*
X02352Y02824*
X02359Y02832D02*
X02363Y02828D01*
X02346Y02845D02*
X02356Y02835D01*
X02363Y02828D02*
X02368Y02823D01*
X02339Y02838D02*
X02346Y02845D01*
X02361Y02815D02*
X02366Y0281D01*
X02356Y0282D02*
X02361Y02815D01*
X02352Y02824D02*
X02356Y0282D01*
X02215Y0267D02*
X02221Y02664D01*
X02203Y02681D02*
X02206Y02679D01*
X02186Y02684D02*
X02196Y02674D01*
X02198Y02671*
X02206Y02679D02*
X0221Y02675D01*
X02193Y02692D02*
X02203Y02681D01*
X0221Y02675D02*
X02215Y0267D01*
X02186Y02685D02*
X02192Y02692D01*
X02207Y02662D02*
X02213Y02657D01*
X02202Y02667D02*
X02207Y02662D01*
X02198Y02671D02*
X02202Y02667D01*
X02062Y02517D02*
X02067Y02511D01*
X0205Y02528D02*
X02053Y02526D01*
X02032Y02531D02*
X02043Y02521D01*
X02045Y02518*
X02053Y02526D02*
X02057Y02522D01*
X0204Y02538D02*
X0205Y02528D01*
X02057Y02522D02*
X02062Y02517D01*
X02032Y02532D02*
X02039Y02538D01*
X02054Y02509D02*
X0206Y02503D01*
X02049Y02514D02*
X02054Y02509D01*
X02045Y02518D02*
X02049Y02514D01*
X02166Y0231D02*
X02171Y02316D01*
X02154Y02299D02*
X02157Y02301D01*
X02151Y02281D02*
X02161Y02291D01*
X02164Y02294*
X02157Y02301D02*
X02161Y02305D01*
X02144Y02289D02*
X02154Y02299D01*
X02161Y02305D02*
X02166Y0231D01*
X02144Y02288D02*
X02151Y02281D01*
X02173Y02303D02*
X02179Y02309D01*
X02168Y02298D02*
X02173Y02303D01*
X02164Y02294D02*
X02168Y02298D01*
X02319Y02157D02*
X02324Y02163D01*
X02307Y02145D02*
X0231Y02148D01*
X02304Y02128D02*
X02315Y02138D01*
X02317Y02141*
X0231Y02148D02*
X02314Y02152D01*
X02297Y02135D02*
X02307Y02145D01*
X02314Y02152D02*
X02319Y02157D01*
X02297Y02135D02*
X02304Y02128D01*
X02326Y0215D02*
X02332Y02155D01*
X02321Y02145D02*
X02326Y0215D01*
X02317Y02141D02*
X02321Y02145D01*
X02519Y02183D02*
X02525Y02178D01*
X02534Y02169D02*
X02537Y02166D01*
X02544Y02173D02*
X02554Y02163D01*
X02542Y02176D02*
X02544Y02173D01*
X0253Y02173D02*
X02534Y02169D01*
X02537Y02166D02*
X02547Y02156D01*
X02525Y02178D02*
X0253Y02173D01*
X02547Y02156D02*
X02554Y02163D01*
X02527Y02191D02*
X02532Y02185D01*
X02538Y0218*
X02542Y02176*
X02672Y02336D02*
X02678Y02331D01*
X02687Y02322D02*
X0269Y02319D01*
X02697Y02326D02*
X02707Y02316D01*
X02695Y02329D02*
X02697Y02326D01*
X02683Y02326D02*
X02687Y02322D01*
X0269Y02319D02*
X027Y02309D01*
X02678Y02331D02*
X02683Y02326D01*
X02701Y02309D02*
X02707Y02316D01*
X0268Y02344D02*
X02686Y02338D01*
X02691Y02333*
X02695Y02329*
X02499Y02768D02*
X02505Y02773D01*
X02514Y02783D02*
X02516Y02785D01*
X02509Y02793D02*
X02519Y02803D01*
X02506Y0279D02*
X02509Y02793D01*
X0251Y02779D02*
X02514Y02783D01*
X02516Y02785D02*
X02527Y02795D01*
X02505Y02773D02*
X0251Y02779D01*
X0252Y02803D02*
X02527Y02796D01*
X02491Y02775D02*
X02497Y02781D01*
X02502Y02786*
X02506Y0279*
X02652Y02615D02*
X02658Y0262D01*
X02667Y02629D02*
X0267Y02632D01*
X02662Y0264D02*
X02672Y0265D01*
X02659Y02637D02*
X02662Y0264D01*
X02663Y02625D02*
X02667Y02629D01*
X0267Y02632D02*
X0268Y02642D01*
X02658Y0262D02*
X02663Y02625D01*
X02673Y0265D02*
X0268Y02643D01*
X02645Y02622D02*
X0265Y02628D01*
X02655Y02633*
X02659Y02637*
X02736Y02531D02*
X02741Y02537D01*
X0275Y02546D02*
X02753Y02549D01*
X02746Y02556D02*
X02756Y02566D01*
X02743Y02553D02*
X02746Y02556D01*
X02746Y02542D02*
X0275Y02546D01*
X02753Y02549D02*
X02763Y02559D01*
X02741Y02537D02*
X02746Y02542D01*
X02756Y02566D02*
X02763Y02559D01*
X02728Y02539D02*
X02734Y02544D01*
X02739Y02549*
X02743Y02553*
X02299Y02753D02*
X02304Y02748D01*
X02287Y02765D02*
X02289Y02762D01*
X02269Y02768D02*
X02279Y02757D01*
X02282Y02755*
X02289Y02762D02*
X02293Y02758D01*
X02277Y02775D02*
X02287Y02765D01*
X02293Y02758D02*
X02299Y02753D01*
X02269Y02768D02*
X02276Y02775D01*
X02291Y02746D02*
X02297Y0274D01*
X02286Y02751D02*
X02291Y02746D01*
X02282Y02755D02*
X02286Y02751D01*
X02145Y026D02*
X02151Y02594D01*
X02134Y02612D02*
X02136Y02609D01*
X02116Y02614D02*
X02126Y02604D01*
X02129Y02602*
X02136Y02609D02*
X0214Y02605D01*
X02123Y02622D02*
X02134Y02612D01*
X0214Y02605D02*
X02145Y026D01*
X02116Y02615D02*
X02123Y02622D01*
X02138Y02593D02*
X02143Y02587D01*
X02133Y02598D02*
X02138Y02593D01*
X02129Y02602D02*
X02133Y02598D01*
X02082Y02394D02*
X02088Y024D01*
X0207Y02382D02*
X02073Y02385D01*
X02068Y02365D02*
X02078Y02375D01*
X02081Y02377*
X02073Y02385D02*
X02077Y02389D01*
X0206Y02372D02*
X0207Y02382D01*
X02077Y02389D02*
X02082Y02394D01*
X0206Y02371D02*
X02067Y02365D01*
X0209Y02386D02*
X02095Y02392D01*
X02085Y02381D02*
X0209Y02386D01*
X02081Y02377D02*
X02085Y02381D01*
X02235Y02241D02*
X02241Y02246D01*
X02223Y02229D02*
X02226Y02232D01*
X02221Y02211D02*
X02231Y02221D01*
X02234Y02224*
X02226Y02232D02*
X0223Y02236D01*
X02213Y02219D02*
X02223Y02229D01*
X0223Y02236D02*
X02235Y02241D01*
X02213Y02218D02*
X0222Y02211D01*
X02243Y02233D02*
X02248Y02239D01*
X02238Y02228D02*
X02243Y02233D01*
X02234Y02224D02*
X02238Y02228D01*
X02436Y021D02*
X02441Y02094D01*
X0245Y02085D02*
X02453Y02082D01*
X02461Y0209D02*
X02471Y0208D01*
X02458Y02093D02*
X02461Y0209D01*
X02446Y02089D02*
X0245Y02085D01*
X02453Y02082D02*
X02463Y02072D01*
X02441Y02094D02*
X02446Y02089D01*
X02464Y02072D02*
X02471Y02079D01*
X02443Y02107D02*
X02449Y02102D01*
X02454Y02097*
X02458Y02093*
X02589Y02253D02*
X02594Y02247D01*
X02604Y02238D02*
X02606Y02235D01*
X02614Y02243D02*
X02624Y02233D01*
X02611Y02246D02*
X02614Y02243D01*
X026Y02242D02*
X02604Y02238D01*
X02606Y02235D02*
X02616Y02225D01*
X02594Y02247D02*
X026Y02242D01*
X02617Y02225D02*
X02624Y02232D01*
X02596Y0226D02*
X02602Y02255D01*
X02607Y0225*
X02611Y02246*
X02583Y02684D02*
X02588Y0269D01*
X02597Y02699D02*
X026Y02702D01*
X02592Y02709D02*
X02603Y02719D01*
X0259Y02707D02*
X02592Y02709D01*
X02593Y02695D02*
X02597Y02699D01*
X026Y02702D02*
X0261Y02712D01*
X02588Y0269D02*
X02593Y02695D01*
X02603Y02719D02*
X0261Y02712D01*
X02575Y02692D02*
X02581Y02697D01*
X02586Y02703*
X0259Y02707*
X02742Y02406D02*
X02748Y024D01*
X02757Y02391D02*
X02759Y02389D01*
X02767Y02396D02*
X02777Y02386D01*
X02764Y02399D02*
X02767Y02396D01*
X02753Y02395D02*
X02757Y02391D01*
X02759Y02389D02*
X0277Y02378D01*
X02748Y024D02*
X02753Y02395D01*
X0277Y02378D02*
X02777Y02385D01*
X0275Y02413D02*
X02755Y02408D01*
X0276Y02403*
X02764Y02399*
X02382Y02837D02*
X02388Y02831D01*
X0237Y02849D02*
X02373Y02846D01*
X02353Y02851D02*
X02363Y02841D01*
X02365Y02838*
X02373Y02846D02*
X02377Y02842D01*
X0236Y02859D02*
X0237Y02849D01*
X02377Y02842D02*
X02382Y02837D01*
X02353Y02852D02*
X0236Y02859D01*
X02375Y02829D02*
X0238Y02824D01*
X02369Y02834D02*
X02375Y02829D01*
X02365Y02838D02*
X02369Y02834D01*
X02229Y02684D02*
X02235Y02678D01*
X02217Y02695D02*
X0222Y02693D01*
X02199Y02698D02*
X0221Y02688D01*
X02212Y02685*
X0222Y02693D02*
X02224Y02689D01*
X02207Y02706D02*
X02217Y02695D01*
X02224Y02689D02*
X02229Y02684D01*
X02199Y02699D02*
X02206Y02706D01*
X02221Y02676D02*
X02227Y0267D01*
X02216Y02681D02*
X02221Y02676D01*
X02212Y02685D02*
X02216Y02681D01*
X02076Y0253D02*
X02081Y02525D01*
X02064Y02542D02*
X02067Y0254D01*
X02046Y02545D02*
X02056Y02535D01*
X02059Y02532*
X02067Y0254D02*
X02071Y02536D01*
X02054Y02552D02*
X02064Y02542D01*
X02071Y02536D02*
X02076Y0253D01*
X02046Y02545D02*
X02053Y02552D01*
X02068Y02523D02*
X02074Y02517D01*
X02063Y02528D02*
X02068Y02523D01*
X02059Y02532D02*
X02063Y02528D01*
X02152Y02324D02*
X02157Y0233D01*
X0214Y02313D02*
X02143Y02315D01*
X02137Y02295D02*
X02147Y02305D01*
X0215Y02308*
X02143Y02315D02*
X02147Y02319D01*
X0213Y02302D02*
X0214Y02313D01*
X02147Y02319D02*
X02152Y02324D01*
X0213Y02302D02*
X02137Y02295D01*
X02159Y02317D02*
X02165Y02322D01*
X02154Y02312D02*
X02159Y02317D01*
X0215Y02308D02*
X02154Y02312D01*
X02305Y02171D02*
X02311Y02177D01*
X02293Y02159D02*
X02296Y02162D01*
X0229Y02142D02*
X02301Y02152D01*
X02303Y02155*
X02296Y02162D02*
X023Y02166D01*
X02283Y02149D02*
X02293Y02159D01*
X023Y02166D02*
X02305Y02171D01*
X02283Y02149D02*
X0229Y02142D01*
X02312Y02164D02*
X02318Y02169D01*
X02307Y02159D02*
X02312Y02164D01*
X02303Y02155D02*
X02307Y02159D01*
X02505Y02169D02*
X02511Y02164D01*
X0252Y02155D02*
X02523Y02152D01*
X0253Y02159D02*
X0254Y02149D01*
X02528Y02162D02*
X0253Y02159D01*
X02516Y02159D02*
X0252Y02155D01*
X02523Y02152D02*
X02533Y02142D01*
X02511Y02164D02*
X02516Y02159D01*
X02534Y02142D02*
X0254Y02149D01*
X02513Y02177D02*
X02518Y02171D01*
X02524Y02166*
X02528Y02162*
X02659Y02322D02*
X02664Y02317D01*
X02673Y02308D02*
X02676Y02305D01*
X02683Y02313D02*
X02694Y02302D01*
X02681Y02315D02*
X02683Y02313D01*
X02669Y02312D02*
X02673Y02308D01*
X02676Y02305D02*
X02686Y02295D01*
X02664Y02317D02*
X02669Y02312D01*
X02687Y02295D02*
X02694Y02302D01*
X02666Y0233D02*
X02672Y02324D01*
X02677Y02319*
X02681Y02315*
X02513Y02754D02*
X02518Y0276D01*
X02528Y02769D02*
X0253Y02771D01*
X02523Y02779D02*
X02533Y02789D01*
X0252Y02776D02*
X02523Y02779D01*
X02524Y02765D02*
X02528Y02769D01*
X0253Y02771D02*
X0254Y02782D01*
X02518Y0276D02*
X02524Y02765D01*
X02534Y02789D02*
X0254Y02782D01*
X02505Y02761D02*
X02511Y02767D01*
X02516Y02772*
X0252Y02776*
X02666Y02601D02*
X02672Y02606D01*
X02681Y02616D02*
X02683Y02618D01*
X02676Y02626D02*
X02686Y02636D01*
X02673Y02623D02*
X02676Y02626D01*
X02677Y02612D02*
X02681Y02616D01*
X02683Y02618D02*
X02694Y02628D01*
X02672Y02606D02*
X02677Y02612D01*
X02687Y02636D02*
X02694Y02629D01*
X02659Y02608D02*
X02664Y02614D01*
X02669Y02619*
X02673Y02623*
X0275Y02517D02*
X02755Y02523D01*
X02764Y02532D02*
X02767Y02535D01*
X02759Y02542D02*
X0277Y02552D01*
X02757Y0254D02*
X02759Y02542D01*
X0276Y02528D02*
X02764Y02532D01*
X02767Y02535D02*
X02777Y02545D01*
X02755Y02523D02*
X0276Y02528D01*
X0277Y02552D02*
X02777Y02545D01*
X02742Y02525D02*
X02748Y0253D01*
X02753Y02536*
X02757Y0254*
X02312Y02767D02*
X02318Y02761D01*
X02301Y02779D02*
X02303Y02776D01*
X02283Y02782D02*
X02293Y02771D01*
X02296Y02769*
X02303Y02776D02*
X02307Y02772D01*
X0229Y02789D02*
X02301Y02779D01*
X02307Y02772D02*
X02312Y02767D01*
X02283Y02782D02*
X0229Y02789D01*
X02305Y0276D02*
X02311Y02754D01*
X023Y02765D02*
X02305Y0276D01*
X02296Y02769D02*
X023Y02765D01*
X02159Y02614D02*
X02165Y02608D01*
X02147Y02626D02*
X0215Y02623D01*
X0213Y02628D02*
X0214Y02618D01*
X02143Y02616*
X0215Y02623D02*
X02154Y02619D01*
X02137Y02636D02*
X02147Y02626D01*
X02154Y02619D02*
X02159Y02614D01*
X0213Y02629D02*
X02137Y02636D01*
X02152Y02606D02*
X02157Y02601D01*
X02147Y02612D02*
X02152Y02606D01*
X02143Y02616D02*
X02147Y02612D01*
X02068Y02408D02*
X02074Y02413D01*
X02056Y02396D02*
X02059Y02399D01*
X02054Y02378D02*
X02064Y02389D01*
X02067Y02391*
X02059Y02399D02*
X02063Y02403D01*
X02046Y02386D02*
X02056Y02396D01*
X02063Y02403D02*
X02068Y02408D01*
X02046Y02385D02*
X02053Y02378D01*
X02076Y024D02*
X02081Y02406D01*
X02071Y02395D02*
X02076Y024D01*
X02067Y02391D02*
X02071Y02395D01*
G54D94*
X00037Y-01801D02*
X00104D01*
X0007*
Y-01901*
X00137Y-01801D02*
X0017D01*
X00154*
Y-01901*
X00137*
X0017*
X0022Y-01801D02*
X00287D01*
X00254*
Y-01901*
X0032Y-01801D02*
Y-01884D01*
X00337Y-01901*
X0037*
X00387Y-01884*
Y-01801*
X0042D02*
Y-01901D01*
X00487*
X0057Y-01801D02*
X00537D01*
X0052Y-01817*
Y-01884*
X00537Y-01901*
X0057*
X00587Y-01884*
Y-01817*
X0057Y-01801*
X0062Y-01834D02*
X00637D01*
Y-01851*
X0062*
Y-01834*
Y-01884D02*
X00637D01*
Y-01901*
X0062*
Y-01884*
X00803Y-01801D02*
X0087D01*
X00837*
Y-01901*
X00903Y-01801D02*
X0097D01*
X00937*
Y-01901*
X0107D02*
X01053Y-01884D01*
X01037Y-01901*
X0102*
X01003Y-01884*
Y-01867*
X0102Y-01851*
X01003Y-01834*
Y-01817*
X0102Y-01801*
X01037*
X01053Y-01817*
Y-01834*
X01037Y-01851*
X01053Y-01867*
Y-01884*
X0107Y-01851D02*
X01053Y-01867D01*
X0102Y-01851D02*
X01037D01*
X0117Y-01817D02*
X01153Y-01801D01*
X0112*
X01103Y-01817*
Y-01884*
X0112Y-01901*
X01153*
X0117Y-01884*
X01303Y-01901D02*
Y-01834D01*
X01336Y-01801*
X0137Y-01834*
Y-01901*
Y-01851*
X01303*
X01403Y-01801D02*
Y-01901D01*
X0147*
X01503Y-01801D02*
X0157D01*
X01536*
Y-01901*
X0177D02*
X01703D01*
X0177Y-01834*
Y-01817*
X01753Y-01801*
X0172*
X01703Y-01817*
X01803D02*
X0182Y-01801D01*
X01853*
X0187Y-01817*
Y-01884*
X01853Y-01901*
X0182*
X01803Y-01884*
Y-01817*
X01903Y-01901D02*
X01936D01*
X0192*
Y-01801*
X01903Y-01817*
X01986D02*
X02003Y-01801D01*
X02036*
X02053Y-01817*
Y-01834*
X02036Y-01851*
X02053Y-01867*
Y-01884*
X02036Y-01901*
X02003*
X01986Y-01884*
Y-01867*
X02003Y-01851*
X01986Y-01834*
Y-01817*
X02003Y-01851D02*
X02036D01*
G54D95*
X03752Y-01906D02*
Y-01811D01*
X03799*
X03815Y-01826*
Y-01858*
X03799Y-01874*
X03752*
X03783D02*
X03815Y-01906D01*
X0391Y-01811D02*
X03847D01*
Y-01906*
X0391*
X03847Y-01858D02*
X03878D01*
X03942Y-01811D02*
Y-01874D01*
X03973Y-01906*
X04005Y-01874*
Y-01811*
X04037Y-01906D02*
Y-0189D01*
X04052*
Y-01906*
X04037*
X04891Y-01785D02*
Y-01849D01*
X04923Y-0188*
X04954Y-01849*
Y-01785*
X05049D02*
X04986D01*
Y-0188*
X05049*
X04986Y-01833D02*
X05018D01*
X05081Y-0188D02*
Y-01785D01*
X05128*
X05144Y-01801*
Y-01833*
X05128Y-01849*
X05081*
X05113D02*
X05144Y-0188D01*
X05176D02*
Y-01864D01*
X05192*
Y-0188*
X05176*
G54D96*
X03927Y02809D02*
Y02769D01*
X03887Y02809*
X03877*
X03867Y02799*
Y02779*
X03877Y02769*
Y02829D02*
X03867Y02839D01*
Y02859*
X03877Y02869*
X03917*
X03927Y02859*
Y02839*
X03917Y02829*
X03877*
Y02889D02*
X03867Y02899D01*
Y02919*
X03877Y02929*
X03917*
X03927Y02919*
Y02899*
X03917Y02889*
X03877*
X03927Y02949D02*
X03917D01*
Y02959*
X03927*
Y02949*
Y03039D02*
Y02999D01*
X03887Y03039*
X03877*
X03867Y03029*
Y03009*
X03877Y02999*
X03927Y03089D02*
X03867D01*
X03897Y03059*
Y03099*
X03927Y03199D02*
X03907Y03179D01*
X03887*
X03867Y03199*
X03927Y03229D02*
X03887D01*
Y03239*
X03897Y03249*
X03927*
X03897*
X03887Y03259*
X03897Y03269*
X03927*
Y03289D02*
Y03309D01*
Y03299*
X03887*
Y03289*
X03927Y03339D02*
Y03359D01*
Y03349*
X03867*
Y03339*
X03927Y03389D02*
X03907Y03409D01*
X03887*
X03867Y03389*
X-00219Y01367D02*
X-00229Y01377D01*
X-00229Y01397*
X-00219Y01407*
X-00209Y01407*
X-00199Y01397*
X-00199Y01387*
X-00199Y01397*
X-00189Y01407*
X-00179Y01407*
X-00169Y01397*
X-00169Y01377*
X-00179Y01367*
X-00228Y01467D02*
X-00228Y01427D01*
X-00199Y01427*
X-00208Y01447*
X-00208Y01457*
X-00198Y01467*
X-00178Y01467*
X-00168Y01457*
X-00169Y01437*
X-00179Y01427*
X-00218Y01487D02*
X-00228Y01497D01*
X-00228Y01517*
X-00218Y01527*
X-00178Y01527*
X-00168Y01517*
X-00168Y01497*
X-00178Y01487*
X-00218Y01487*
X-00228Y01547D02*
X-00228Y01587D01*
X-00218Y01587*
X-00178Y01547*
X-00168Y01547*
X-00168Y01607D02*
X-00178Y01607D01*
X-00178Y01617*
X-00168Y01617*
X-00168Y01607*
X-00168Y01687D02*
X-00228Y01687D01*
X-00198Y01657*
X-00198Y01697*
X-00218Y01717D02*
X-00228Y01727D01*
X-00228Y01747*
X-00218Y01757*
X-00208Y01757*
X-00198Y01747*
X-00188Y01757*
X-00178Y01757*
X-00168Y01747*
X-00168Y01727*
X-00178Y01717*
X-00188Y01717*
X-00198Y01727*
X-00208Y01717*
X-00218Y01717*
X-00198Y01727D02*
X-00198Y01747D01*
X-00168Y01807D02*
X-00228Y01807D01*
X-00198Y01777*
X-00198Y01817*
X-00168Y01917D02*
X-00188Y01897D01*
X-00208Y01897*
X-00228Y01917*
X-00168Y01947D02*
X-00208Y01947D01*
X-00208Y01957*
X-00198Y01967*
X-00168Y01967*
X-00198Y01967*
X-00208Y01977*
X-00198Y01987*
X-00168Y01987*
X-00168Y02007D02*
X-00168Y02027D01*
X-00168Y02017*
X-00208Y02017*
X-00208Y02007*
X-00168Y02057D02*
X-00168Y02077D01*
X-00168Y02067*
X-00228Y02067*
X-00228Y02057*
X-00168Y02107D02*
X-00187Y02127D01*
X-00207Y02127*
X-00228Y02107*
X01424Y03783D02*
X01434Y03793D01*
X01454Y03793*
X01464Y03783*
X01464Y03773*
X01454Y03763*
X01444Y03763*
X01454Y03763*
X01464Y03753*
X01464Y03743*
X01454Y03733*
X01434Y03733*
X01424Y03743*
X01524Y03793D02*
X01504Y03783D01*
X01484Y03763*
X01484Y03743*
X01494Y03733*
X01514Y03733*
X01524Y03743*
X01524Y03753*
X01514Y03763*
X01484Y03763*
X01584Y03734D02*
X01544Y03733D01*
X01584Y03774*
X01584Y03784*
X01574Y03793*
X01554Y03793*
X01544Y03783*
X01604Y03784D02*
X01614Y03794D01*
X01634Y03794*
X01644Y03784*
X01644Y03744*
X01634Y03734*
X01614Y03734*
X01604Y03744*
X01604Y03784*
X01664Y03734D02*
X01664Y03744D01*
X01674Y03744*
X01674Y03734*
X01664Y03734*
X01744Y03734D02*
X01744Y03794D01*
X01714Y03764*
X01754Y03764*
X01774Y03794D02*
X01814Y03794D01*
X01814Y03784*
X01774Y03744*
X01774Y03734*
X01874Y03794D02*
X01834Y03794D01*
X01834Y03764*
X01854Y03774*
X01864Y03774*
X01874Y03764*
X01874Y03744*
X01864Y03734*
X01844Y03734*
X01834Y03744*
X01974Y03734D02*
X01954Y03754D01*
X01954Y03774*
X01974Y03794*
X02004Y03734D02*
X02004Y03774D01*
X02014Y03774*
X02024Y03764*
X02024Y03734*
X02024Y03764*
X02034Y03774*
X02044Y03764*
X02044Y03734*
X02064Y03734D02*
X02084Y03734D01*
X02074Y03734*
X02074Y03774*
X02064Y03774*
X02114Y03734D02*
X02134Y03734D01*
X02124Y03734*
X02124Y03794*
X02114Y03794*
X02164Y03734D02*
X02184Y03754D01*
X02184Y03774*
X02164Y03794*
X03849Y00108D02*
Y00068D01*
X03809Y00108*
X03799*
X03789Y00098*
Y00078*
X03799Y00068*
Y00128D02*
X03789Y00138D01*
Y00158*
X03799Y00168*
X03839*
X03849Y00158*
Y00138*
X03839Y00128*
X03799*
Y00188D02*
X03789Y00198D01*
Y00218*
X03799Y00228*
X03839*
X03849Y00218*
Y00198*
X03839Y00188*
X03799*
X03849Y00248D02*
X03839D01*
Y00258*
X03849*
Y00248*
Y00338D02*
Y00298D01*
X03809Y00338*
X03799*
X03789Y00328*
Y00308*
X03799Y00298*
X03849Y00388D02*
X03789D01*
X03819Y00358*
Y00398*
X03849Y00498D02*
X03829Y00478D01*
X03809*
X03789Y00498*
X03849Y00528D02*
X03809D01*
Y00538*
X03819Y00548*
X03849*
X03819*
X03809Y00558*
X03819Y00568*
X03849*
Y00588D02*
Y00608D01*
Y00598*
X03809*
Y00588*
X03849Y00638D02*
Y00658D01*
Y00648*
X03789*
Y00638*
X03849Y00688D02*
X03829Y00708D01*
X03809*
X03789Y00688*
M02*