%FSTAX23Y23*%
%MOIN*%
%SFA1B1*%

%IPPOS*%
%AMD10*
4,1,4,0.031900,0.004200,0.004200,0.031900,-0.031900,-0.004200,-0.004200,-0.031900,0.031900,0.004200,0.0*
%
%AMD13*
4,1,4,-0.025000,0.000000,0.000000,-0.025000,0.025000,0.000000,0.000000,0.025000,-0.025000,0.000000,0.0*
%
%AMD15*
4,1,4,0.000000,0.025000,-0.025000,0.000000,0.000000,-0.025000,0.025000,0.000000,0.000000,0.025000,0.0*
%
%AMD16*
4,1,4,0.000000,0.033400,-0.033400,0.000000,0.000000,-0.033400,0.033400,0.000000,0.000000,0.033400,0.0*
%
%AMD18*
4,1,4,0.033400,0.000000,0.000000,0.033400,-0.033400,0.000000,0.000000,-0.033400,0.033400,0.000000,0.0*
%
%AMD22*
4,1,4,-0.024300,-0.016000,-0.016000,-0.024300,0.024300,0.016000,0.016000,0.024300,-0.024300,-0.016000,0.0*
1,1,0.011810,-0.020200,-0.020200*
1,1,0.011810,0.020200,0.020200*
%
%AMD23*
4,1,4,-0.016000,0.024300,-0.024300,0.016000,0.016000,-0.024300,0.024300,-0.016000,-0.016000,0.024300,0.0*
1,1,0.011810,-0.020200,0.020200*
1,1,0.011810,0.020200,-0.020200*
%
%AMD24*
4,1,4,0.029200,-0.043100,0.043100,-0.029200,-0.029200,0.043100,-0.043100,0.029200,0.029200,-0.043100,0.0*
%
%AMD26*
4,1,8,0.013800,0.033500,-0.013800,0.033500,-0.027600,0.019700,-0.027600,-0.019700,-0.013800,-0.033500,0.013800,-0.033500,0.027600,-0.019700,0.027600,0.019700,0.013800,0.033500,0.0*
1,1,0.027560,0.013800,0.019700*
1,1,0.027560,-0.013800,0.019700*
1,1,0.027560,-0.013800,-0.019700*
1,1,0.027560,0.013800,-0.019700*
%
G04~CAMADD=10~9~0.0~0.0~393.7~511.8~0.0~0.0~0~0.0~0.0~0.0~0.0~0~0.0~0.0~0.0~0.0~0~0.0~0.0~0.0~315.0~638.0~637.0*
%ADD10D10*%
%ADD11R,0.031500X0.031500*%
%ADD12R,0.060000X0.060000*%
G04~CAMADD=13~10~0.0~354.3~0.0~0.0~0.0~0.0~0~0.0~0.0~0.0~0.0~0~0.0~0.0~0.0~0.0~0~0.0~0.0~0.0~135.0~354.3~0.0*
%ADD13D13*%
%ADD14R,0.035430X0.035430*%
G04~CAMADD=15~10~0.0~354.3~0.0~0.0~0.0~0.0~0~0.0~0.0~0.0~0.0~0~0.0~0.0~0.0~0.0~0~0.0~0.0~0.0~405.0~354.3~0.0*
%ADD15D15*%
G04~CAMADD=16~10~0.0~472.4~0.0~0.0~0.0~0.0~0~0.0~0.0~0.0~0.0~0~0.0~0.0~0.0~0.0~0~0.0~0.0~0.0~405.0~472.4~0.0*
%ADD16D16*%
%ADD17R,0.047240X0.047240*%
G04~CAMADD=18~10~0.0~472.4~0.0~0.0~0.0~0.0~0~0.0~0.0~0.0~0.0~0~0.0~0.0~0.0~0.0~0~0.0~0.0~0.0~315.0~472.4~0.0*
%ADD18D18*%
%ADD19R,0.035430X0.035430*%
%ADD20R,0.031500X0.062990*%
%ADD21R,0.078740X0.118110*%
G04~CAMADD=22~3~0.0~0.0~118.1~689.0~0.0~0.0~0~0.0~0.0~0.0~0.0~0~0.0~0.0~0.0~0.0~0~0.0~0.0~0.0~135.0~520.0~520.0*
%ADD22D22*%
G04~CAMADD=23~3~0.0~0.0~118.1~689.0~0.0~0.0~0~0.0~0.0~0.0~0.0~0~0.0~0.0~0.0~0.0~0~0.0~0.0~0.0~45.0~520.0~520.0*
%ADD23D23*%
G04~CAMADD=24~9~0.0~0.0~196.8~1023.6~0.0~0.0~0~0.0~0.0~0.0~0.0~0~0.0~0.0~0.0~0.0~0~0.0~0.0~0.0~225.0~862.0~861.0*
%ADD24D24*%
%ADD25R,0.030000X0.030000*%
G04~CAMADD=26~8~0.0~0.0~551.2~669.3~137.8~0.0~15~0.0~0.0~0.0~0.0~0~0.0~0.0~0.0~0.0~0~0.0~0.0~0.0~0.0~551.2~669.3*
%ADD26D26*%
%ADD27R,0.030000X0.030000*%
%ADD28R,0.031500X0.031500*%
%ADD29C,0.062990*%
%ADD30R,0.074800X0.074800*%
%ADD31O,0.157480X0.070870*%
%ADD32O,0.157480X0.073230*%
%ADD33R,0.043310X0.086610*%
%ADD39C,0.157480*%
%ADD40C,0.060000*%
%ADD41R,0.070000X0.070000*%
%ADD42C,0.070000*%
%ADD43C,0.059050*%
%ADD44R,0.059050X0.059050*%
%ADD45R,0.059050X0.059050*%
%LNpcb_ttc_rf4463f30-1*%
%LPD*%
G54D10*
X02037Y0202D03*
X01981Y02076D03*
G54D11*
X02788Y0318D03*
X02733D03*
X02844D03*
X02899D03*
X01558Y02796D03*
X01503D03*
X01668Y02795D03*
X01734Y03024D03*
X01789D03*
G54D12*
X01366Y02903D03*
X01501D03*
G54D13*
X01993Y01978D03*
X01954Y01939D03*
X01938Y02034D03*
X01899Y01995D03*
X02098Y02695D03*
X02137Y02734D03*
G54D14*
X01732Y02961D03*
X01787D03*
X02435Y01975D03*
X0238D03*
G54D15*
X02099Y02199D03*
X0206Y02237D03*
X02015Y02293D03*
X01976Y02332D03*
X02704Y02738D03*
X02665Y02777D03*
G54D16*
X02052Y0216D03*
X02Y02212D03*
X02754Y0278D03*
X02702Y02832D03*
X01958Y02262D03*
X01907Y02314D03*
G54D17*
X0244Y01911D03*
X02367D03*
G54D18*
X02048Y02733D03*
X021Y02785D03*
G54D19*
X02537Y01975D03*
Y0203D03*
G54D20*
X01159Y0327D03*
X01257D03*
X01355D03*
X01109D03*
X01208D03*
X01306D03*
X02742Y0328D03*
X0284D03*
X02938D03*
X02692D03*
X02791D03*
X02889D03*
G54D21*
X01458Y03392D03*
X01007D03*
X03041Y03402D03*
X0259D03*
G54D22*
X02034Y02421D03*
X02048Y02407D03*
X02062Y02393D03*
X02076Y02379D03*
X02089Y02365D03*
X02103Y02351D03*
X02117Y02337D03*
X02131Y02324D03*
X02145Y0231D03*
X02159Y02296D03*
X02173Y02282D03*
X02187Y02268D03*
X02201Y02254D03*
X02215Y0224D03*
X02229Y02226D03*
X02243Y02212D03*
X02257Y02198D03*
X0227Y02184D03*
X02284Y0217D03*
X02298Y02157D03*
X02312Y02143D03*
X02326Y02129D03*
X0234Y02115D03*
X02354Y02101D03*
X02368Y02087D03*
X0279Y02509D03*
X02776Y02523D03*
X02762Y02537D03*
X02748Y0255D03*
X02734Y02564D03*
X0272Y02578D03*
X02706Y02592D03*
X02692Y02606D03*
X02678Y0262D03*
X02664Y02634D03*
X0265Y02648D03*
X02637Y02662D03*
X02623Y02676D03*
X02609Y0269D03*
X02595Y02704D03*
X02581Y02717D03*
X02567Y02731D03*
X02553Y02745D03*
X02539Y02759D03*
X02525Y02773D03*
X02511Y02787D03*
X02497Y02801D03*
X02483Y02815D03*
X02469Y02829D03*
X02456Y02843D03*
G54D23*
X02456Y02087D03*
X02469Y02101D03*
X02483Y02115D03*
X02497Y02129D03*
X02511Y02143D03*
X02525Y02157D03*
X02539Y0217D03*
X02553Y02184D03*
X02567Y02198D03*
X02581Y02212D03*
X02595Y02226D03*
X02609Y0224D03*
X02623Y02254D03*
X02637Y02268D03*
X0265Y02282D03*
X02664Y02296D03*
X02678Y0231D03*
X02692Y02324D03*
X02706Y02337D03*
X0272Y02351D03*
X02734Y02365D03*
X02748Y02379D03*
X02762Y02393D03*
X02776Y02407D03*
X0279Y02421D03*
X02368Y02843D03*
X02354Y02829D03*
X0234Y02815D03*
X02326Y02801D03*
X02312Y02787D03*
X02298Y02773D03*
X02284Y02759D03*
X0227Y02745D03*
X02257Y02731D03*
X02243Y02717D03*
X02229Y02704D03*
X02215Y0269D03*
X02201Y02676D03*
X02187Y02662D03*
X02173Y02648D03*
X02159Y02634D03*
X02145Y0262D03*
X02131Y02606D03*
X02117Y02592D03*
X02103Y02578D03*
X02089Y02564D03*
X02076Y0255D03*
X02062Y02537D03*
X02048Y02523D03*
X02034Y02509D03*
G54D24*
X02098Y02964D03*
X02056Y02923D03*
X02014Y02881D03*
G54D25*
X01613Y02795D03*
G54D26*
X01788Y03107D03*
X01634D03*
G54D27*
X02648Y01931D03*
G54D28*
X02648Y01876D03*
Y01979D03*
Y02034D03*
G54D29*
X00214Y01513D03*
X01731D03*
G54D30*
X00305Y01422D03*
X00124D03*
X00305Y01603D03*
X00124D03*
X01641D03*
X01822D03*
X01641Y01422D03*
X01822D03*
G54D31*
X02877Y00411D03*
Y00568D03*
Y00725D03*
Y00883D03*
Y0104D03*
Y01198D03*
Y01355D03*
Y01513D03*
X02051Y00411D03*
Y00568D03*
Y00725D03*
Y00883D03*
Y0104D03*
Y01198D03*
Y01355D03*
X01348Y00411D03*
Y00568D03*
Y00725D03*
Y00883D03*
Y0104D03*
Y01198D03*
Y01355D03*
Y01513D03*
X00521Y00411D03*
Y00568D03*
Y00725D03*
Y00883D03*
Y0104D03*
Y01198D03*
Y01355D03*
G54D32*
X02051Y01513D03*
X00521D03*
G54D33*
X03144Y00129D03*
X03018D03*
G54D39*
X00128Y03345D03*
X035Y03194D03*
X00128Y00195D03*
X03501Y00293D03*
G54D40*
X01387Y02796D03*
X0008Y02398D03*
Y02302D03*
Y02206D03*
X0023Y00816D03*
Y00635D03*
G54D41*
X00352Y0342D03*
X0147Y03086D03*
X00744Y0342D03*
G54D42*
X00452Y0342D03*
X0137Y03086D03*
X00644Y0342D03*
G54D43*
X01558Y02351D03*
X01416D03*
X01854Y02866D03*
X01132Y02501D03*
X01027D03*
X00922D03*
X01132Y02351D03*
X01274D03*
X01585Y0202D03*
X01581Y02112D03*
X02198Y00126D03*
X01862Y00396D03*
Y00558D03*
Y00721D03*
Y00883D03*
Y01046D03*
X02812Y00138D03*
X02641Y00135D03*
X02327Y03411D03*
Y03311D03*
X02227Y03411D03*
Y03311D03*
X02127Y03411D03*
Y03311D03*
X02027Y03411D03*
Y03311D03*
X01927Y03411D03*
Y03311D03*
X01827Y03411D03*
Y03311D03*
X01727Y03411D03*
X0289Y02293D03*
Y02392D03*
X02948Y02786D03*
X03501Y00593D03*
X03401D03*
X03501Y00693D03*
X03401D03*
X03501Y00793D03*
X03401D03*
X03501Y00893D03*
X03401D03*
X03501Y00993D03*
X03401D03*
X03501Y01093D03*
X03401D03*
X03501Y01193D03*
X03401D03*
X03501Y01293D03*
X03401D03*
X03501Y01393D03*
X03401D03*
X03501Y01493D03*
X03401D03*
X03501Y01593D03*
X03401D03*
X03501Y01693D03*
X03401D03*
X03501Y01793D03*
X03401D03*
X03501Y01893D03*
X03401D03*
X03501Y01993D03*
X03401D03*
X03501Y02093D03*
X03401D03*
X03501Y02193D03*
X03401Y02192D03*
X03501Y02293D03*
X03401D03*
X03501Y02393D03*
X03401D03*
X03501Y02493D03*
X034D03*
X03501Y02593D03*
X034D03*
X03501Y02693D03*
X03401D03*
X03501Y02793D03*
X03401D03*
X03501Y02893D03*
X03401D03*
X03501Y02993D03*
X03401Y00493D03*
X03501D03*
X03301D03*
X03201D03*
X03301Y02993D03*
X03201Y02893D03*
X03301D03*
X03201Y02793D03*
X03301D03*
X03201Y02693D03*
X03301D03*
X03201Y02593D03*
X03301D03*
X03201Y02493D03*
X03301D03*
X03201Y02393D03*
X03301D03*
X03201Y02293D03*
X03301D03*
X03201Y02192D03*
X03301Y02193D03*
X03201Y02093D03*
X03301D03*
X03201Y01993D03*
X03301D03*
X03201Y01893D03*
X03301D03*
X03201Y01793D03*
X03301D03*
X03201Y01693D03*
X03301D03*
X03201Y01593D03*
X03301D03*
X03201Y01493D03*
X03301D03*
X03201Y01393D03*
X03301D03*
X03201Y01293D03*
X03301D03*
X03201Y01193D03*
X03301D03*
X03201Y01093D03*
X03301D03*
X03201Y00993D03*
X03301D03*
X03201Y00893D03*
X03301D03*
X03201Y00793D03*
X03301D03*
X03201Y00693D03*
X03301D03*
X03201Y00593D03*
X03301D03*
G54D44*
X01727Y03311D03*
G54D45*
X034Y02993D03*
X03201D03*
M02*