%FSTAX23Y23*%
%MOIN*%
%SFA1B1*%

%IPPOS*%
%ADD35C,0.010000*%
%ADD51C,0.009840*%
%ADD52C,0.005910*%
%ADD56C,0.003940*%
%ADD98C,0.039370*%
%ADD99C,0.011810*%
%LNpcb_ttc_rf4463f30-1*%
%LPD*%
G54D35*
X01426Y03253D02*
D01*
X01426Y03254*
X01425Y03256*
X01425Y03257*
X01425Y03258*
X01425Y03259*
X01424Y0326*
X01424Y03261*
X01423Y03262*
X01422Y03263*
X01422Y03264*
X01421Y03265*
X0142Y03266*
X01419Y03267*
X01418Y03267*
X01417Y03268*
X01416Y03269*
X01415Y03269*
X01414Y03269*
X01413Y0327*
X01412Y0327*
X0141Y0327*
X01409Y0327*
X01408*
X01407Y0327*
X01406Y0327*
X01404Y0327*
X01403Y03269*
X01402Y03269*
X01401Y03269*
X014Y03268*
X01399Y03267*
X01398Y03267*
X01397Y03266*
X01396Y03265*
X01396Y03264*
X01395Y03263*
X01394Y03262*
X01394Y03261*
X01393Y0326*
X01393Y03259*
X01392Y03258*
X01392Y03257*
X01392Y03256*
X01392Y03254*
X01392Y03253*
X01392Y03252*
X01392Y03251*
X01392Y0325*
X01392Y03249*
X01393Y03247*
X01393Y03246*
X01394Y03245*
X01394Y03244*
X01395Y03243*
X01396Y03242*
X01396Y03241*
X01397Y03241*
X01398Y0324*
X01399Y03239*
X014Y03239*
X01401Y03238*
X01402Y03237*
X01403Y03237*
X01404Y03237*
X01406Y03237*
X01407Y03236*
X01408Y03236*
X01409*
X0141Y03236*
X01412Y03237*
X01413Y03237*
X01414Y03237*
X01415Y03237*
X01416Y03238*
X01417Y03239*
X01418Y03239*
X01419Y0324*
X0142Y03241*
X01421Y03241*
X01422Y03242*
X01422Y03243*
X01423Y03244*
X01424Y03245*
X01424Y03246*
X01425Y03247*
X01425Y03249*
X01425Y0325*
X01425Y03251*
X01426Y03252*
X01426Y03253*
X02054Y02427D02*
D01*
X02054Y02429*
X02054Y02431*
X02053Y02432*
X02053Y02434*
X02052Y02435*
X02052Y02437*
X02051Y02438*
X0205Y0244*
X02049Y02441*
X02048Y02442*
X02047Y02444*
X02046Y02445*
X02045Y02446*
X02043Y02447*
X02042Y02448*
X02041Y02448*
X02039Y02449*
X02038Y0245*
X02036Y0245*
X02034Y0245*
X02033Y02451*
X02031Y02451*
X02029*
X02028Y02451*
X02026Y0245*
X02025Y0245*
X02023Y0245*
X02022Y02449*
X0202Y02448*
X02019Y02448*
X02017Y02447*
X02016Y02446*
X02015Y02445*
X02013Y02444*
X02012Y02442*
X02011Y02441*
X0201Y0244*
X0201Y02438*
X02009Y02437*
X02008Y02435*
X02008Y02434*
X02007Y02432*
X02007Y02431*
X02007Y02429*
X02007Y02427*
X02007Y02426*
X02007Y02424*
X02007Y02422*
X02008Y02421*
X02008Y02419*
X02009Y02418*
X0201Y02416*
X0201Y02415*
X02011Y02413*
X02012Y02412*
X02013Y02411*
X02015Y0241*
X02016Y02409*
X02017Y02408*
X02019Y02407*
X0202Y02406*
X02022Y02405*
X02023Y02405*
X02025Y02404*
X02026Y02404*
X02028Y02404*
X02029Y02404*
X02031*
X02033Y02404*
X02034Y02404*
X02036Y02404*
X02038Y02405*
X02039Y02405*
X02041Y02406*
X02042Y02407*
X02043Y02408*
X02045Y02409*
X02046Y0241*
X02047Y02411*
X02048Y02412*
X02049Y02413*
X0205Y02415*
X02051Y02416*
X02052Y02418*
X02052Y02419*
X02053Y02421*
X02053Y02422*
X02054Y02424*
X02054Y02426*
X02054Y02427*
X02105Y02965D02*
D01*
X02105Y02966*
X02105Y02966*
X02105Y02967*
X02105Y02967*
X02105Y02968*
X02104Y02968*
X02104Y02968*
X02104Y02969*
X02104Y02969*
X02104Y0297*
X02103Y0297*
X02103Y0297*
X02103Y02971*
X02102Y02971*
X02102Y02971*
X02101Y02971*
X02101Y02972*
X021Y02972*
X021Y02972*
X021Y02972*
X02099Y02972*
X02099Y02972*
X02098*
X02098Y02972*
X02097Y02972*
X02097Y02972*
X02096Y02972*
X02096Y02972*
X02096Y02971*
X02095Y02971*
X02095Y02971*
X02094Y02971*
X02094Y0297*
X02094Y0297*
X02093Y0297*
X02093Y02969*
X02093Y02969*
X02093Y02968*
X02092Y02968*
X02092Y02968*
X02092Y02967*
X02092Y02967*
X02092Y02966*
X02092Y02966*
X02092Y02965*
X02092Y02965*
X02092Y02964*
X02092Y02964*
X02092Y02964*
X02092Y02963*
X02092Y02963*
X02093Y02962*
X02093Y02962*
X02093Y02962*
X02093Y02961*
X02094Y02961*
X02094Y0296*
X02094Y0296*
X02095Y0296*
X02095Y0296*
X02096Y02959*
X02096Y02959*
X02096Y02959*
X02097Y02959*
X02097Y02959*
X02098Y02959*
X02098Y02959*
X02099*
X02099Y02959*
X021Y02959*
X021Y02959*
X021Y02959*
X02101Y02959*
X02101Y02959*
X02102Y0296*
X02102Y0296*
X02103Y0296*
X02103Y0296*
X02103Y02961*
X02104Y02961*
X02104Y02962*
X02104Y02962*
X02104Y02962*
X02104Y02963*
X02105Y02963*
X02105Y02964*
X02105Y02964*
X02105Y02964*
X02105Y02965*
X02105Y02965*
X03009Y03263D02*
D01*
X03009Y03264*
X03008Y03265*
X03008Y03267*
X03008Y03268*
X03008Y03269*
X03007Y0327*
X03007Y03271*
X03006Y03272*
X03005Y03273*
X03005Y03274*
X03004Y03275*
X03003Y03276*
X03002Y03276*
X03001Y03277*
X03Y03278*
X02999Y03278*
X02998Y03279*
X02997Y03279*
X02996Y0328*
X02995Y0328*
X02993Y0328*
X02992Y0328*
X02991*
X0299Y0328*
X02989Y0328*
X02988Y0328*
X02986Y03279*
X02985Y03279*
X02984Y03278*
X02983Y03278*
X02982Y03277*
X02981Y03276*
X0298Y03276*
X02979Y03275*
X02979Y03274*
X02978Y03273*
X02977Y03272*
X02977Y03271*
X02976Y0327*
X02976Y03269*
X02975Y03268*
X02975Y03267*
X02975Y03265*
X02975Y03264*
X02975Y03263*
X02975Y03262*
X02975Y03261*
X02975Y0326*
X02975Y03258*
X02976Y03257*
X02976Y03256*
X02977Y03255*
X02977Y03254*
X02978Y03253*
X02979Y03252*
X02979Y03251*
X0298Y0325*
X02981Y0325*
X02982Y03249*
X02983Y03248*
X02984Y03248*
X02985Y03247*
X02986Y03247*
X02988Y03247*
X02989Y03246*
X0299Y03246*
X02991Y03246*
X02992*
X02993Y03246*
X02995Y03246*
X02996Y03247*
X02997Y03247*
X02998Y03247*
X02999Y03248*
X03Y03248*
X03001Y03249*
X03002Y0325*
X03003Y0325*
X03004Y03251*
X03005Y03252*
X03005Y03253*
X03006Y03254*
X03007Y03255*
X03007Y03256*
X03008Y03257*
X03008Y03258*
X03008Y0326*
X03008Y03261*
X03009Y03262*
X03009Y03263*
X02394Y03215D02*
X02396Y03217D01*
X0169Y03215D02*
X02394D01*
X01688Y03218D02*
X0169Y03215D01*
X01688Y03218D02*
Y03453D01*
X01688Y03436D02*
Y03476D01*
X0169Y03478*
X02394*
X02396Y03475*
Y03217D02*
Y03475D01*
X01938Y02072D02*
X02033Y01977D01*
X0208Y02025*
X01985Y02119D02*
X0208Y02025D01*
X01938Y02072D02*
X01985Y02119D01*
X01335Y02869D02*
X01537D01*
X01332Y02872D02*
X01335Y02869D01*
X01332Y02872D02*
Y02937D01*
X01334Y02939*
X01534*
X01537Y02936*
Y02869D02*
Y02936D01*
X00955Y03224D02*
Y03464D01*
Y03224D02*
X01511D01*
X00955Y03464D02*
X01508D01*
X01511Y03461*
Y03224D02*
Y03461D01*
X02405Y01993D02*
X02878Y02466D01*
X02416Y02928D02*
X02878Y02466D01*
X0241Y02928D02*
X02416D01*
X01945Y02463D02*
X0241Y02928D01*
X01945Y02452D02*
Y02463D01*
Y02452D02*
X02405Y01993D01*
X01832Y03061D02*
Y03158D01*
X01602D02*
X01832D01*
X01602Y03061D02*
Y03158D01*
Y03061D02*
X01832D01*
X00357Y01373D02*
X00359D01*
Y01764*
X0007Y01652D02*
X00359D01*
X0007Y01764D02*
X00359D01*
X0007Y01375D02*
Y01762D01*
X00068Y01373D02*
X0007Y01375D01*
X00068Y01373D02*
X00357D01*
X01586D02*
X01874D01*
X01586D02*
X01588Y01375D01*
Y01762*
Y01764D02*
X01876D01*
X01588Y01652D02*
X01876D01*
Y01373D02*
Y01764D01*
X01874Y01373D02*
X01876D01*
X02538Y03234D02*
Y03474D01*
Y03234D02*
X03094D01*
X02538Y03474D02*
X03091D01*
X03094Y03471*
Y03234D02*
Y03471D01*
X01884Y03417D02*
X01864D01*
X01874*
Y03367*
X01864Y03357*
X01854*
X01844Y03367*
X01904Y03357D02*
Y03417D01*
X01934*
X01944Y03407*
Y03387*
X01934Y03377*
X01904*
X01964Y03357D02*
X01984D01*
X01974*
Y03417*
X01964Y03407*
G54D51*
X01964Y00214D02*
X02957D01*
X01964Y01713D02*
X02957D01*
Y00214D02*
Y01713D01*
X01964Y00214D02*
Y01713D01*
X00434Y00214D02*
X01427D01*
X00434Y01713D02*
X01427D01*
Y00214D02*
Y01713D01*
X00434Y00214D02*
Y01713D01*
G54D52*
X01938Y02072D02*
X01985Y02119D01*
X01938Y02072D02*
X02033Y01977D01*
X0208Y02025*
X01985Y02119D02*
X0208Y02025D01*
G54D56*
X0315Y00438D02*
X03551D01*
Y03051*
X0315D02*
X03551D01*
X00302Y0337D02*
Y0347D01*
X00502*
Y0337D02*
Y0347D01*
X00302Y0337D02*
X00502D01*
X02715Y03163D02*
Y03172D01*
Y0319D02*
Y03199D01*
Y03172D02*
Y0319D01*
X02716Y03161D02*
X02806D01*
Y03199*
X02715Y032D02*
X02805D01*
X02917Y03188D02*
Y03197D01*
Y03161D02*
Y0317D01*
Y03188*
X02826Y03199D02*
X02916D01*
X02826Y03161D02*
Y03199D01*
X02827Y0316D02*
X02917D01*
X01519Y03037D02*
Y03136D01*
X01319Y03037D02*
X01519D01*
X01319D02*
Y03136D01*
X01519*
X00594Y03471D02*
X00794D01*
X00594Y03371D02*
Y03471D01*
Y03371D02*
X00794D01*
Y03471*
X01994Y02007D02*
X02023Y01979D01*
X01922Y01936D02*
X01994Y02007D01*
X01924Y01934D02*
X01951Y01907D01*
X02023Y01979*
X01939Y02063D02*
X01968Y02034D01*
X01868Y01991D02*
X01939Y02063D01*
X01869Y0199D02*
X01896Y01963D01*
X01968Y02034*
X01711Y02942D02*
Y02982D01*
Y02942D02*
X01812D01*
Y02944D02*
Y02982D01*
X01711D02*
X01812D01*
X021Y02169D02*
X02128Y02197D01*
X02056Y02269D02*
X02128Y02197D01*
X02028Y0224D02*
X02055Y02267D01*
X02028Y0224D02*
X021Y02169D01*
X02457Y01954D02*
Y01994D01*
X02356D02*
X02457D01*
X02356Y01992D02*
Y01954D01*
X02457*
X0205Y02125D02*
X02086Y02162D01*
X02002Y02247D02*
X02086Y02162D01*
X01965Y0221D02*
X02002Y02247D01*
X01965Y0221D02*
X0205Y02125D01*
X01972Y02201D02*
X02009Y02238D01*
X02464Y01884D02*
Y01937D01*
X02344D02*
X02464D01*
X02344Y01884D02*
Y01937D01*
Y01884D02*
X02464D01*
X02356Y01883D02*
Y01936D01*
X02068Y02695D02*
X02097Y02666D01*
X02168Y02738*
X0214Y02766D02*
X02167Y02739D01*
X02068Y02695D02*
X0214Y02766D01*
X02752Y02745D02*
X02789Y02782D01*
X02704Y02867D02*
X02789Y02782D01*
X02667Y0283D02*
X02704Y02867D01*
X02667Y0283D02*
X02752Y02745D01*
X02675Y02821D02*
X02712Y02858D01*
X02013Y02735D02*
X0205Y02698D01*
X02135Y02783*
X02098Y0282D02*
X02135Y02783D01*
X02013Y02735D02*
X02098Y0282D01*
X02089Y02813D02*
X02126Y02776D01*
X02016Y02263D02*
X02045Y02291D01*
X01973Y02363D02*
X02045Y02291D01*
X01944Y02334D02*
X01972Y02362D01*
X01944Y02334D02*
X02016Y02263D01*
X01956Y02226D02*
X01993Y02263D01*
X01908Y02348D02*
X01993Y02263D01*
X01871Y02311D02*
X01908Y02348D01*
X01871Y02311D02*
X01956Y02226D01*
X01879Y02302D02*
X01916Y02339D01*
X02516Y01953D02*
X02557D01*
Y02054*
X02516D02*
X02555D01*
X02516Y01953D02*
Y02054D01*
X0208Y03033D02*
X02168Y02946D01*
X0207Y02848D02*
X02168Y02946D01*
X01947Y029D02*
X02035Y02813D01*
X0207Y02848*
X01947Y029D02*
X0208Y03033D01*
X01485Y02778D02*
Y02787D01*
Y02806D02*
Y02815D01*
Y02787D02*
Y02806D01*
X01486Y02777D02*
X01576D01*
Y02814*
X01485Y02815D02*
X01575D01*
X01595Y02776D02*
X01684D01*
X01594Y02777D02*
Y02816D01*
X01684*
X01807Y03032D02*
Y03041D01*
Y03004D02*
Y03013D01*
Y03032*
X01716Y03042D02*
X01806D01*
X01716Y03005D02*
Y03042D01*
X01717Y03004D02*
X01807D01*
X02705Y02708D02*
X02734Y02737D01*
X02662Y02809D02*
X02734Y02737D01*
X02633Y0278D02*
X02661Y02807D01*
X02633Y0278D02*
X02705Y02708D01*
X02629Y0186D02*
Y01948D01*
X0263Y01949D02*
X02669D01*
Y0186D02*
Y01949D01*
X02631Y02051D02*
X0264D01*
X02658D02*
X02667D01*
X0264D02*
X02658D01*
X02629Y01961D02*
Y0205D01*
Y01961D02*
X02667D01*
X02668Y01962D02*
Y02051D01*
X0315Y00438D02*
X03556D01*
X0315D02*
Y03051D01*
X03556*
Y00438D02*
Y03051D01*
X0207Y00194D02*
Y00233D01*
X02051Y00214D02*
X0209D01*
X0054Y00194D02*
Y00233D01*
X00521Y00214D02*
X0056D01*
X02988Y00078D02*
Y00175D01*
Y00078D02*
X0317D01*
X03169Y00079D02*
Y00175D01*
X02988D02*
X03169D01*
X00323Y03384D02*
Y03404D01*
X00333*
X00336Y034*
Y03394*
X00333Y03391*
X00323*
X00343Y034D02*
X00346Y03404D01*
X00353*
X00356Y034*
Y03397*
X00353Y03394*
X00349*
X00353*
X00356Y03391*
Y03387*
X00353Y03384*
X00346*
X00343Y03387*
X01979Y02097D02*
X01977Y02094D01*
Y02085*
X01986*
X01988Y02087*
X01977Y02085D02*
X0197Y02078D01*
X0199Y02081D02*
X01995D01*
X02Y02076*
Y02071*
X01997Y02069*
X01993*
X0199Y02071*
X01993Y02069*
Y02064*
X0199Y02062*
X01986*
X01981Y02067*
Y02071*
X02724Y03175D02*
Y03195D01*
X02734*
X02738Y03192*
Y03185*
X02734Y03182*
X02724*
X02731D02*
X02738Y03175D01*
X02744Y03192D02*
X02747Y03195D01*
X02754*
X02757Y03192*
Y03189*
X02754Y03185*
X02751*
X02754*
X02757Y03182*
Y03179*
X02754Y03175*
X02747*
X02744Y03179*
X02908Y03184D02*
Y03165D01*
X02898*
X02894Y03168*
Y03174*
X02898Y03178*
X02908*
X02901D02*
X02894Y03184D01*
X02875D02*
X02888D01*
X02875Y03171*
Y03168*
X02878Y03165*
X02885*
X02888Y03168*
X01332Y029D02*
Y02919D01*
X01342*
X01345Y02916*
Y0291*
X01342Y02906*
X01332*
X01339D02*
X01345Y029D01*
X01352D02*
X01358D01*
X01355*
Y02919*
X01352Y02916*
X01498Y03123D02*
Y03103D01*
X01488*
X01485Y03106*
Y03113*
X01488Y03116*
X01498*
X01469Y03123D02*
Y03103D01*
X01479Y03113*
X01466*
X00773Y03457D02*
Y03437D01*
X00763*
X0076Y0344*
Y03447*
X00763Y0345*
X00773*
X0074Y03457D02*
X00753D01*
X0074Y03444*
Y0344*
X00744Y03437*
X0075*
X00753Y0344*
X01946Y01945D02*
X01941D01*
X01936Y0194*
Y01935*
X01946Y01926*
X0195*
X01955Y01931*
Y01935*
X01969Y01945D02*
X01955Y01959D01*
Y01945*
X01964Y01954*
X01891Y02D02*
X01886D01*
X01882Y01996*
Y01991*
X01891Y01982*
X01896*
X019Y01986*
Y01991*
X01907Y01993D02*
X01912Y01998D01*
X0191Y01996*
X01896Y02009*
Y02005*
X01789Y02952D02*
X01792Y02949D01*
X01799*
X01802Y02952*
Y02965*
X01799Y02968*
X01792*
X01789Y02965*
X01782Y02952D02*
X01779Y02949D01*
X01773*
X01769Y02952*
Y02955*
X01773Y02958*
X01769Y02962*
Y02965*
X01773Y02968*
X01779*
X01782Y02965*
Y02962*
X01779Y02958*
X01782Y02955*
Y02952*
X01779Y02958D02*
X01773D01*
X02065Y02245D02*
Y0225D01*
X02061Y02255*
X02056*
X02047Y02245*
Y02241*
X02052Y02236*
X02056*
X02059Y02229D02*
X02063Y02225D01*
X02061Y02227*
X02075Y02241*
X0207*
X02082Y02229D02*
X02086D01*
X02091Y02225*
Y0222*
X02082Y02211*
X02077*
X02072Y02215*
Y0222*
X02082Y02229*
X02379Y01984D02*
X02375Y01987D01*
X02369*
X02365Y01984*
Y01971*
X02369Y01968*
X02375*
X02379Y01971*
X02385Y01984D02*
X02388Y01987D01*
X02395*
X02398Y01984*
Y01981*
X02395Y01978*
X02392*
X02395*
X02398Y01974*
Y01971*
X02395Y01968*
X02388*
X02385Y01971*
X02003Y02222D02*
Y02227D01*
X01998Y02232*
X01993*
X01984Y02222*
Y02218*
X01989Y02213*
X01993*
X01996Y02206D02*
X02Y02202D01*
X01998Y02204*
X02012Y02218*
X02007*
X02019Y02206D02*
X02024D01*
X02028Y02202*
Y02197*
X02026Y02195*
X02021*
X02019Y02197*
X02021Y02195*
Y0219*
X02019Y02188*
X02014*
X0201Y02192*
Y02197*
X02367Y01924D02*
X02363Y01928D01*
X02357*
X02354Y01924*
Y01911*
X02357Y01908*
X02363*
X02367Y01911*
X02373Y01928D02*
X02386D01*
Y01924*
X02373Y01911*
Y01908*
X02145Y02729D02*
X0215D01*
X02154Y02733*
Y02738*
X02145Y02747*
X0214*
X02136Y02743*
Y02738*
X02133Y02713D02*
X02136Y0272D01*
Y02729*
X02131Y02733*
X02126*
X02122Y02729*
Y02724*
X02124Y02722*
X02129*
X02136Y02729*
X02712Y02842D02*
Y02847D01*
X02707Y02851*
X02702*
X02693Y02842*
Y02837*
X02698Y02833*
X02702*
X02705Y02826D02*
X02709Y02821D01*
X02707Y02823*
X02721Y02837*
X02716*
X02723Y02807D02*
X02737Y02821D01*
X02723*
X02732Y02812*
X0211Y02776D02*
X02115D01*
X02119Y0278*
Y02785*
X0211Y02794*
X02105*
X02101Y0279*
Y02785*
X02098Y02759D02*
X02108Y02769D01*
X02101Y02776*
X02098Y02769*
X02096Y02766*
X02091*
X02087Y02771*
Y02776*
X02091Y0278*
X02096*
X01982Y02339D02*
Y02344D01*
X01977Y02349*
X01973*
X01963Y02339*
Y02335*
X01968Y0233*
X01973*
X01977Y02326D02*
Y02321D01*
X01982Y02316*
X01987*
X01996Y02326*
Y0233*
X01991Y02335*
X01987*
X01984Y02333*
Y02328*
X01991Y02321*
X01916Y02323D02*
Y02328D01*
X01911Y02333*
X01907*
X01897Y02323*
Y02319*
X01902Y02314*
X01907*
X01909Y02307D02*
X01914Y02303D01*
X01911Y02305*
X01925Y02319*
X01921*
X0193Y02286D02*
X01921Y02296D01*
X01939*
X01941Y02298*
Y02303*
X01937Y02307*
X01932*
X02546Y02031D02*
X0255Y02035D01*
Y02041*
X02546Y02045*
X02533*
X0253Y02041*
Y02035*
X02533Y02031*
X0253Y02012D02*
Y02025D01*
X02543Y02012*
X02546*
X0255Y02015*
Y02022*
X02546Y02025*
X01487Y03318D02*
Y03298D01*
X01477*
X01474Y03301*
Y03308*
X01477Y03311*
X01487*
X01454Y03298D02*
X01467D01*
Y03308*
X01461Y03305*
X01457*
X01454Y03308*
Y03314*
X01457Y03318*
X01464*
X01467Y03314*
X02176Y02472D02*
X022Y02449D01*
X02209*
X02218Y02459*
Y02468*
X02195Y02491*
X02246Y02486D02*
X02218Y02514D01*
Y02486*
X02237Y02505*
X02154Y02947D02*
X02152Y02949D01*
X02142*
Y0294*
X02145Y02938*
X02142Y02949D02*
X02135Y02956D01*
X02119Y0294D02*
X02133Y02926D01*
Y0294*
X02124Y02931*
X01495Y02791D02*
Y02811D01*
X01504*
X01508Y02808*
Y02801*
X01504Y02798*
X01495*
X01501D02*
X01508Y02791D01*
X01527Y02811D02*
X01514D01*
Y02801*
X01521Y02804*
X01524*
X01527Y02801*
Y02794*
X01524Y02791*
X01518*
X01514Y02794*
X01596Y02808D02*
Y02788D01*
X01606*
X01609Y02792*
Y02805*
X01606Y02808*
X01596*
X01629Y02788D02*
X01616D01*
X01629Y02801*
Y02805*
X01626Y02808*
X01619*
X01616Y02805*
X01797Y03028D02*
Y03008D01*
X01788*
X01784Y03012*
Y03018*
X01788Y03021*
X01797*
X01791D02*
X01784Y03028D01*
X01765Y03008D02*
X01771Y03012D01*
X01778Y03018*
Y03025*
X01774Y03028*
X01768*
X01765Y03025*
Y03021*
X01768Y03018*
X01778*
X0162Y03113D02*
Y03133D01*
X0163*
X01633Y0313*
Y03123*
X0163Y0312*
X0162*
X01653Y03133D02*
X01647Y0313D01*
X0164Y03123*
Y03117*
X01643Y03113*
X0165*
X01653Y03117*
Y0312*
X0165Y03123*
X0164*
X02671Y02785D02*
Y0279D01*
X02666Y02794*
X02662*
X02652Y02785*
Y02781*
X02657Y02776*
X02662*
X02664Y02769D02*
X02669Y02764D01*
X02666Y02767*
X0268Y02781*
X02676*
Y02757D02*
X0268Y02753D01*
X02678Y02755*
X02692Y02769*
X02687*
X02661Y01947D02*
X02641D01*
Y01937*
X02644Y01934*
X02657*
X02661Y01937*
Y01947*
X02641Y01928D02*
Y01921D01*
Y01924*
X02661*
X02657Y01928*
X02644Y02042D02*
X02663D01*
Y02032*
X0266Y02029*
X02653*
X0265Y02032*
Y02042*
Y02036D02*
X02644Y02029D01*
Y02013D02*
X02663D01*
X02653Y02023*
Y02009*
X03225Y02385D02*
X03258D01*
X03265Y02392*
Y02405*
X03258Y02411*
X03225*
X03232Y02425D02*
X03225Y02431D01*
Y02444*
X03232Y02451*
X03238*
X03245Y02444*
Y02438*
Y02444*
X03252Y02451*
X03258*
X03265Y02444*
Y02431*
X03258Y02425*
X00293Y01495D02*
Y01498D01*
X00287Y01505*
X0028Y01498*
Y01495*
X00287Y01505D02*
Y01514D01*
X00274D02*
X00267D01*
X0027*
Y01495*
X00274Y01498*
X01811Y01495D02*
Y01498D01*
X01804Y01505*
X01798Y01498*
Y01495*
X01804Y01505D02*
Y01514D01*
X01778D02*
X01791D01*
X01778Y01501*
Y01498*
X01781Y01495*
X01788*
X01791Y01498*
X02231Y01645D02*
Y01612D01*
X02238Y01606*
X02251*
X02258Y01612*
Y01645*
X02271Y01606D02*
X02284D01*
X02277*
Y01645*
X02271Y01638*
X00701Y01645D02*
Y01612D01*
X00708Y01606*
X00721*
X00728Y01612*
Y01645*
X00767Y01606D02*
X00741D01*
X00767Y01632*
Y01638*
X0076Y01645*
X00747*
X00741Y01638*
X03155Y00085D02*
X03168D01*
Y00095*
X03162*
X03168*
Y00105*
X03149Y00085D02*
Y00105D01*
X03139*
X03135Y00102*
Y00098*
X03139Y00095*
X03149*
X03139*
X03135Y00092*
Y00089*
X03139Y00085*
X03149*
X03129Y00105D02*
X03122D01*
X03126*
Y00085*
X03129Y00089*
X0307Y03328D02*
Y03308D01*
X0306*
X03057Y03311*
Y03318*
X0306Y03321*
X0307*
X0305Y03328D02*
X03044D01*
X03047*
Y03308*
X0305Y03311*
G54D98*
X02807Y01642D02*
D01*
X02807Y01643*
X02807Y01644*
X02807Y01646*
X02806Y01647*
X02806Y01648*
X02805Y0165*
X02805Y01651*
X02804Y01652*
X02803Y01653*
X02802Y01654*
X02802Y01655*
X02801Y01656*
X02799Y01657*
X02798Y01658*
X02797Y01659*
X02796Y01659*
X02795Y0166*
X02793Y0166*
X02792Y01661*
X02791Y01661*
X02789Y01661*
X02788Y01661*
X02787*
X02785Y01661*
X02784Y01661*
X02783Y01661*
X02781Y0166*
X0278Y0166*
X02779Y01659*
X02778Y01659*
X02776Y01658*
X02775Y01657*
X02774Y01656*
X02773Y01655*
X02772Y01654*
X02771Y01653*
X02771Y01652*
X0277Y01651*
X02769Y0165*
X02769Y01648*
X02768Y01647*
X02768Y01646*
X02768Y01644*
X02768Y01643*
X02768Y01642*
X02768Y0164*
X02768Y01639*
X02768Y01638*
X02768Y01636*
X02769Y01635*
X02769Y01634*
X0277Y01632*
X02771Y01631*
X02771Y0163*
X02772Y01629*
X02773Y01628*
X02774Y01627*
X02775Y01626*
X02776Y01625*
X02778Y01625*
X02779Y01624*
X0278Y01623*
X02781Y01623*
X02783Y01623*
X02784Y01622*
X02785Y01622*
X02787Y01622*
X02788*
X02789Y01622*
X02791Y01622*
X02792Y01623*
X02793Y01623*
X02795Y01623*
X02796Y01624*
X02797Y01625*
X02798Y01625*
X02799Y01626*
X02801Y01627*
X02802Y01628*
X02802Y01629*
X02803Y0163*
X02804Y01631*
X02805Y01632*
X02805Y01634*
X02806Y01635*
X02806Y01636*
X02807Y01638*
X02807Y01639*
X02807Y0164*
X02807Y01642*
X01277D02*
D01*
X01277Y01643*
X01277Y01644*
X01277Y01646*
X01276Y01647*
X01276Y01648*
X01275Y0165*
X01275Y01651*
X01274Y01652*
X01273Y01653*
X01273Y01654*
X01272Y01655*
X01271Y01656*
X0127Y01657*
X01268Y01658*
X01267Y01659*
X01266Y01659*
X01265Y0166*
X01264Y0166*
X01262Y01661*
X01261Y01661*
X01259Y01661*
X01258Y01661*
X01257*
X01255Y01661*
X01254Y01661*
X01253Y01661*
X01251Y0166*
X0125Y0166*
X01249Y01659*
X01248Y01659*
X01246Y01658*
X01245Y01657*
X01244Y01656*
X01243Y01655*
X01242Y01654*
X01242Y01653*
X01241Y01652*
X0124Y01651*
X01239Y0165*
X01239Y01648*
X01239Y01647*
X01238Y01646*
X01238Y01644*
X01238Y01643*
X01238Y01642*
X01238Y0164*
X01238Y01639*
X01238Y01638*
X01239Y01636*
X01239Y01635*
X01239Y01634*
X0124Y01632*
X01241Y01631*
X01242Y0163*
X01242Y01629*
X01243Y01628*
X01244Y01627*
X01245Y01626*
X01246Y01625*
X01248Y01625*
X01249Y01624*
X0125Y01623*
X01251Y01623*
X01253Y01623*
X01254Y01622*
X01255Y01622*
X01257Y01622*
X01258*
X01259Y01622*
X01261Y01622*
X01262Y01623*
X01264Y01623*
X01265Y01623*
X01266Y01624*
X01267Y01625*
X01268Y01625*
X0127Y01626*
X01271Y01627*
X01272Y01628*
X01273Y01629*
X01273Y0163*
X01274Y01631*
X01275Y01632*
X01275Y01634*
X01276Y01635*
X01276Y01636*
X01277Y01638*
X01277Y01639*
X01277Y0164*
X01277Y01642*
G54D99*
X01685Y0278D02*
Y02813D01*
X02633Y01859D02*
X02666D01*
M02*