%FSTAX23Y23*%
%MOIN*%
%SFA1B1*%

%IPPOS*%
%ADD35C,0.010000*%
%ADD49C,0.019680*%
%ADD50C,0.023620*%
%ADD51C,0.009840*%
%ADD52C,0.005910*%
%ADD53C,0.001000*%
%ADD54C,0.007870*%
%ADD55C,0.008000*%
%ADD56C,0.003940*%
%ADD57R,0.013000X0.030000*%
%ADD58R,0.025000X0.060000*%
%ADD59R,0.030000X0.013000*%
%LNpcb_ttc_rf4463f30-1*%
%LPD*%
G54D35*
X02986Y01704D02*
D01*
X02986Y01707*
X02985Y0171*
X02985Y01712*
X02984Y01715*
X02984Y01717*
X02983Y0172*
X02981Y01722*
X0298Y01724*
X02979Y01727*
X02977Y01729*
X02975Y01731*
X02973Y01732*
X02971Y01734*
X02969Y01736*
X02967Y01737*
X02965Y01738*
X02962Y01739*
X0296Y0174*
X02957Y01741*
X02955Y01742*
X02952Y01742*
X02949Y01742*
X02947*
X02944Y01742*
X02941Y01742*
X02939Y01741*
X02936Y0174*
X02934Y01739*
X02931Y01738*
X02929Y01737*
X02927Y01736*
X02925Y01734*
X02923Y01732*
X02921Y01731*
X02919Y01729*
X02917Y01727*
X02916Y01724*
X02914Y01722*
X02913Y0172*
X02912Y01717*
X02911Y01715*
X02911Y01712*
X0291Y0171*
X0291Y01707*
X0291Y01704*
X0291Y01702*
X0291Y01699*
X02911Y01696*
X02911Y01694*
X02912Y01691*
X02913Y01689*
X02914Y01686*
X02916Y01684*
X02917Y01682*
X02919Y0168*
X02921Y01678*
X02923Y01676*
X02925Y01674*
X02927Y01673*
X02929Y01671*
X02931Y0167*
X02934Y01669*
X02936Y01668*
X02939Y01667*
X02941Y01667*
X02944Y01667*
X02947Y01666*
X02949*
X02952Y01667*
X02955Y01667*
X02957Y01667*
X0296Y01668*
X02962Y01669*
X02965Y0167*
X02967Y01671*
X02969Y01673*
X02971Y01674*
X02973Y01676*
X02975Y01678*
X02977Y0168*
X02979Y01682*
X0298Y01684*
X02981Y01686*
X02983Y01689*
X02984Y01691*
X02984Y01694*
X02985Y01696*
X02985Y01699*
X02986Y01702*
X02986Y01704*
X01442Y01698D02*
D01*
X01442Y01701*
X01442Y01704*
X01441Y01707*
X0144Y01709*
X0144Y01712*
X01439Y01715*
X01437Y01717*
X01436Y0172*
X01434Y01722*
X01433Y01724*
X01431Y01726*
X01429Y01728*
X01427Y0173*
X01424Y01732*
X01422Y01733*
X01419Y01734*
X01417Y01736*
X01414Y01736*
X01412Y01737*
X01409Y01738*
X01406Y01738*
X01403Y01738*
X014*
X01398Y01738*
X01395Y01738*
X01392Y01737*
X01389Y01736*
X01387Y01736*
X01384Y01734*
X01382Y01733*
X01379Y01732*
X01377Y0173*
X01375Y01728*
X01373Y01726*
X01371Y01724*
X01369Y01722*
X01368Y0172*
X01366Y01717*
X01365Y01715*
X01364Y01712*
X01363Y01709*
X01363Y01707*
X01362Y01704*
X01362Y01701*
X01362Y01698*
X01362Y01696*
X01362Y01693*
X01363Y0169*
X01363Y01687*
X01364Y01685*
X01365Y01682*
X01366Y01679*
X01368Y01677*
X01369Y01675*
X01371Y01673*
X01373Y0167*
X01375Y01669*
X01377Y01667*
X01379Y01665*
X01382Y01664*
X01384Y01662*
X01387Y01661*
X01389Y0166*
X01392Y01659*
X01395Y01659*
X01398Y01658*
X014Y01658*
X01403*
X01406Y01658*
X01409Y01659*
X01412Y01659*
X01414Y0166*
X01417Y01661*
X01419Y01662*
X01422Y01664*
X01424Y01665*
X01427Y01667*
X01429Y01669*
X01431Y0167*
X01433Y01673*
X01434Y01675*
X01436Y01677*
X01437Y01679*
X01439Y01682*
X0144Y01685*
X0144Y01687*
X01441Y0169*
X01442Y01693*
X01442Y01696*
X01442Y01698*
X01378Y03321D02*
Y03438D01*
X01079Y03321D02*
X01378D01*
X01079Y03438D02*
X01378D01*
X01079Y03321D02*
Y03438D01*
X01624Y03158D02*
X01805D01*
X01625Y0306D02*
X01806D01*
X00263Y01652D02*
X00357D01*
X00358Y01651*
X00069Y01652D02*
X00162D01*
X00358Y01373D02*
Y01651D01*
X00069Y01373D02*
X00358D01*
X00069D02*
Y01652D01*
X00101Y01655D02*
Y01764D01*
X00334*
X00335Y01655D02*
Y01765D01*
X01852Y01655D02*
Y01765D01*
X01618Y01764D02*
X01851D01*
X01618Y01655D02*
Y01764D01*
X01587Y01373D02*
Y01652D01*
Y01373D02*
X01875D01*
Y01651*
X01587Y01652D02*
X01679D01*
X01874D02*
X01875Y01651D01*
X01781Y01652D02*
X01874D01*
X02961Y03331D02*
Y03448D01*
X02662Y03331D02*
X02961D01*
X02662Y03448D02*
X02961D01*
X02662Y03331D02*
Y03448D01*
X00126Y02173D02*
Y02421D01*
X00292Y00634D02*
Y00825D01*
X0043Y0311D02*
X00463D01*
X00446*
Y0306*
X0048Y0311D02*
X00513D01*
X00496*
Y0306*
X00563Y03102D02*
X00555Y0311D01*
X00538*
X0053Y03102*
Y03068*
X00538Y0306*
X00555*
X00563Y03068*
X00259Y03026D02*
X00226D01*
Y03001*
X00242*
X00226*
Y02976*
X00276D02*
X00292D01*
X00284*
Y03026*
X00276*
X00317Y02976D02*
X00334D01*
X00326*
Y03009*
X00317*
X00376Y02959D02*
X00384D01*
X00392Y02968*
Y03009*
X00367*
X00359Y03001*
Y02984*
X00367Y02976*
X00392*
X00409Y03026D02*
Y02976D01*
Y03001*
X00417Y03009*
X00434*
X00442Y03001*
Y02976*
X00467Y03018D02*
Y03009D01*
X00459*
X00476*
X00467*
Y02984*
X00476Y02976*
X00551D02*
Y03026D01*
X00567Y03009*
X00584Y03026*
Y02976*
X00609D02*
X00625D01*
X00634Y02984*
Y03001*
X00625Y03009*
X00609*
X006Y03001*
Y02984*
X00609Y02976*
X00684Y03026D02*
Y02976D01*
X00659*
X0065Y02984*
Y03001*
X00659Y03009*
X00684*
X00725Y02976D02*
X00709D01*
X007Y02984*
Y03001*
X00709Y03009*
X00725*
X00734Y03001*
Y02993*
X007*
X0075Y02976D02*
X00767D01*
X00759*
Y03026*
X0075*
X00305Y02925D02*
X00271D01*
Y029*
X00288*
X00271*
Y02875*
X00321D02*
X00338D01*
X0033*
Y02925*
X00321*
X00371Y02875D02*
X00388D01*
X00396Y02884*
Y029*
X00388Y02909*
X00371*
X00363Y029*
Y02884*
X00371Y02875*
X00413Y02909D02*
Y02875D01*
Y02892*
X00421Y029*
X0043Y02909*
X00438*
X00463Y02875D02*
X0048D01*
X00471*
Y02909*
X00463*
X00505Y02859D02*
Y02909D01*
X0053*
X00538Y029*
Y02884*
X0053Y02875*
X00505*
X00563Y02909D02*
X0058D01*
X00588Y029*
Y02875*
X00563*
X00555Y02884*
X00563Y02892*
X00588*
X00638Y02917D02*
X0063Y02925D01*
X00613*
X00605Y02917*
Y02909*
X00613Y029*
X0063*
X00638Y02892*
Y02884*
X0063Y02875*
X00613*
X00605Y02884*
X00663Y02909D02*
X0068D01*
X00688Y029*
Y02875*
X00663*
X00655Y02884*
X00663Y02892*
X00688*
X00713Y02917D02*
Y02909D01*
X00705*
X00721*
X00713*
Y02884*
X00721Y02875*
X00284Y02825D02*
Y02783D01*
X00292Y02775*
X00309*
X00317Y02783*
Y02825*
X00367D02*
X00334D01*
Y028*
X00351*
X00334*
Y02775*
X00417Y02816D02*
X00409Y02825D01*
X00392*
X00384Y02816*
Y02808*
X00392Y028*
X00409*
X00417Y02791*
Y02783*
X00409Y02775*
X00392*
X00384Y02783*
X00467Y02816D02*
X00459Y02825D01*
X00442*
X00434Y02816*
Y02783*
X00442Y02775*
X00459*
X00467Y02783*
X00567Y02775D02*
X00534D01*
X00567Y02808*
Y02816*
X00559Y02825*
X00542*
X00534Y02816*
X00584D02*
X00592Y02825D01*
X00609*
X00617Y02816*
Y02783*
X00609Y02775*
X00592*
X00584Y02783*
Y02816*
X00634Y02775D02*
X0065D01*
X00642*
Y02825*
X00634Y02816*
X00675D02*
X00684Y02825D01*
X007*
X00709Y02816*
Y02808*
X007Y028*
X00709Y02791*
Y02783*
X007Y02775*
X00684*
X00675Y02783*
Y02791*
X00684Y028*
X00675Y02808*
Y02816*
X00684Y028D02*
X007D01*
X0197Y01733D02*
Y01701D01*
X01977Y01694*
X0199*
X01996Y01701*
Y01733*
X02009Y01694D02*
X02022D01*
X02016*
Y01733*
X02009Y01727*
X00201Y03427D02*
Y03467D01*
X00221*
X00227Y0346*
Y03447*
X00221Y03441*
X00201*
X0024Y0346D02*
X00247Y03467D01*
X0026*
X00267Y0346*
Y03454*
X0026Y03447*
X00254*
X0026*
X00267Y03441*
Y03434*
X0026Y03427*
X00247*
X0024Y03434*
X02572Y0203D02*
X02565Y02024D01*
Y02011*
X02572Y02004*
X02598*
X02605Y02011*
Y02024*
X02598Y0203*
X02605Y0207D02*
Y02044D01*
X02578Y0207*
X02572*
X02565Y02063*
Y0205*
X02572Y02044*
X01831Y0241D02*
Y0242D01*
X01821Y02429*
X01812*
X01794Y0241*
Y02401*
X01803Y02392*
X01812*
X01817Y02378D02*
X01826Y02369D01*
X01821Y02373*
X01849Y02401*
X0184*
X01858Y02336D02*
X0184Y02355D01*
X01877*
X01882Y02359*
Y02369*
X01872Y02378*
X01863*
X01887Y02436D02*
Y02445D01*
X01878Y02455*
X01869*
X0185Y02436*
Y02427*
X01859Y02417*
X01869*
X01878Y02408D02*
Y02399D01*
X01887Y0239*
X01897*
X01915Y02408*
Y02417*
X01906Y02427*
X01897*
X01892Y02422*
Y02413*
X01906Y02399*
X01955Y02683D02*
X01946D01*
X01937Y02673*
Y02664*
X01955Y02645*
X01965*
X01974Y02655*
Y02664*
X01979Y02715D02*
X0196Y02697D01*
X01974Y02683*
X01979Y02697*
X01983Y02701*
X01993*
X02002Y02692*
Y02683*
X01993Y02673*
X01983*
X0262Y02947D02*
Y02956D01*
X02611Y02966*
X02601*
X02583Y02947*
Y02938*
X02592Y02929*
X02601*
X02606Y02915D02*
X02615Y02905D01*
X02611Y0291*
X02639Y02938*
X02629*
X02643Y02877D02*
X02671Y02905D01*
X02643*
X02662Y02887*
X02013Y0263D02*
X02003D01*
X01994Y02621*
Y02611*
X02013Y02593*
X02022*
X02031Y02602*
Y02611*
X02036Y02662D02*
X02031Y02648D01*
Y0263*
X0204Y02621*
X0205*
X02059Y0263*
Y02639*
X02054Y02644*
X02045*
X02031Y0263*
X02576Y02892D02*
Y02901D01*
X02567Y0291*
X02558*
X02539Y02892*
Y02883*
X02548Y02873*
X02558*
X02562Y02859D02*
X02572Y0285D01*
X02567Y02855*
X02595Y02883*
X02586*
Y02836D02*
X02595Y02827D01*
X0259Y02832*
X02618Y02859*
X02609*
X02263Y01921D02*
X02257Y01928D01*
X02243*
X02237Y01921*
Y01895*
X02243Y01888*
X02257*
X02263Y01895*
X02276Y01928D02*
X02303D01*
Y01921*
X02276Y01895*
Y01888*
X02118Y02123D02*
Y02132D01*
X02109Y02142*
X02099*
X02081Y02123*
Y02114*
X0209Y02104*
X02099*
X02104Y02091D02*
X02113Y02081D01*
X02109Y02086*
X02137Y02114*
X02127*
X0215Y02091D02*
X0216D01*
X02169Y02081*
Y02072*
X02164Y02067*
X02155*
X0215Y02072*
X02155Y02067*
Y02058*
X0215Y02053*
X02141*
X02132Y02063*
Y02072*
X02263Y01991D02*
X02257Y01998D01*
X02243*
X02237Y01991*
Y01965*
X02243Y01959*
X02257*
X02263Y01965*
X02276Y01991D02*
X02283Y01998D01*
X02296*
X02303Y01991*
Y01985*
X02296Y01978*
X02289*
X02296*
X02303Y01972*
Y01965*
X02296Y01959*
X02283*
X02276Y01965*
X02162Y02161D02*
Y02171D01*
X02153Y0218*
X02144*
X02125Y02161*
Y02152*
X02134Y02143*
X02144*
X02148Y02129D02*
X02157Y02119D01*
X02153Y02124*
X02181Y02152*
X02171*
X02195Y02129D02*
X02204D01*
X02213Y02119*
Y0211*
X02195Y02092*
X02185*
X02176Y02101*
Y0211*
X02195Y02129*
X01863Y02979D02*
X01857Y02986D01*
X01843*
X01837Y02979*
Y02953*
X01843Y02946*
X01857*
X01863Y02953*
X01876Y02979D02*
X01883Y02986D01*
X01896*
X01903Y02979*
Y02973*
X01896Y02966*
X01903Y02959*
Y02953*
X01896Y02946*
X01883*
X01876Y02953*
Y02959*
X01883Y02966*
X01876Y02973*
Y02979*
X01883Y02966D02*
X01896D01*
X01834Y01955D02*
X01825D01*
X01815Y01945*
Y01936*
X01834Y01918*
X01843*
X01852Y01927*
Y01936*
X01866Y01941D02*
X01876Y0195D01*
X01871Y01945*
X01843Y01973*
Y01964*
X01877Y01892D02*
X01867D01*
X01858Y01882*
Y01873*
X01877Y01855*
X01886*
X01895Y01864*
Y01873*
X01923Y01892D02*
X01895Y01919D01*
Y01892*
X01914Y0191*
X01617Y02879D02*
Y0284D01*
X01637*
X01643Y02847*
Y02873*
X01637Y02879*
X01617*
X01683Y0284D02*
X01657D01*
X01683Y02866*
Y02873*
X01676Y02879*
X01663*
X01657Y02873*
X02699Y01962D02*
Y01923D01*
X02718*
X02725Y0193*
Y01956*
X02718Y01962*
X02699*
X02738Y01923D02*
X02751D01*
X02745*
Y01962*
X02738Y01956*
X03073Y00288D02*
X03047D01*
Y00268*
X0306*
X03047*
Y00248*
X03086Y00288D02*
Y00248D01*
X03106*
X03112Y00255*
Y00261*
X03106Y00268*
X03086*
X03106*
X03112Y00275*
Y00281*
X03106Y00288*
X03086*
X03125Y00248D02*
X03139D01*
X03132*
Y00288*
X03125Y00281*
X03122Y034D02*
Y0344D01*
X03142*
X03148Y03433*
Y0342*
X03142Y03413*
X03122*
X03161Y034D02*
X03174D01*
X03168*
Y0344*
X03161Y03433*
X00984Y03231D02*
Y0327D01*
X01004*
X0101Y03263*
Y0325*
X01004Y03244*
X00984*
X0105Y0327D02*
X01024D01*
Y0325*
X01037Y03257*
X01043*
X0105Y0325*
Y03237*
X01043Y03231*
X0103*
X01024Y03237*
X00827Y03422D02*
Y03461D01*
X00846*
X00853Y03455*
Y03442*
X00846Y03435*
X00827*
X00892Y03422D02*
X00866D01*
X00892Y03448*
Y03455*
X00886Y03461*
X00873*
X00866Y03455*
X01218Y03126D02*
Y03165D01*
X01238*
X01244Y03159*
Y03146*
X01238Y03139*
X01218*
X01277Y03126D02*
Y03165D01*
X01257Y03146*
X01284*
X01864Y03088D02*
Y03128D01*
X01883*
X0189Y03121*
Y03108*
X01883Y03102*
X01864*
X01929Y03128D02*
X01916Y03121D01*
X01903Y03108*
Y03095*
X0191Y03088*
X01923*
X01929Y03095*
Y03102*
X01923Y03108*
X01903*
X01242Y02947D02*
Y02986D01*
X01261*
X01268Y0298*
Y02967*
X01261Y0296*
X01242*
X01255D02*
X01268Y02947D01*
X01281D02*
X01294D01*
X01288*
Y02986*
X01281Y0298*
X01496Y02713D02*
Y02752D01*
X01516*
X01522Y02746*
Y02733*
X01516Y02726*
X01496*
X01509D02*
X01522Y02713D01*
X01562Y02752D02*
X01535D01*
Y02733*
X01548Y02739*
X01555*
X01562Y02733*
Y02719*
X01555Y02713*
X01542*
X01535Y02719*
X02679Y02004D02*
Y02044D01*
X02698*
X02705Y02037*
Y02024*
X02698Y02017*
X02679*
X02692D02*
X02705Y02004D01*
X02738D02*
Y02044D01*
X02718Y02024*
X02744*
X01839Y03009D02*
Y03048D01*
X01859*
X01865Y03041*
Y03028*
X01859Y03022*
X01839*
X01852D02*
X01865Y03009D01*
X01904Y03048D02*
X01891Y03041D01*
X01878Y03028*
Y03015*
X01885Y03009*
X01898*
X01904Y03015*
Y03022*
X01898Y03028*
X01878*
X02718Y03094D02*
Y03133D01*
X02738*
X02745Y03127*
Y03114*
X02738Y03107*
X02718*
X02732D02*
X02745Y03094D01*
X02784D02*
X02758D01*
X02784Y0312*
Y03127*
X02777Y03133*
X02764*
X02758Y03127*
X02826Y03094D02*
Y03133D01*
X02846*
X02853Y03127*
Y03114*
X02846Y03107*
X02826*
X02839D02*
X02853Y03094D01*
X02866Y03127D02*
X02872Y03133D01*
X02885*
X02892Y03127*
Y0312*
X02885Y03114*
X02879*
X02885*
X02892Y03107*
Y03101*
X02885Y03094*
X02872*
X02866Y03101*
X02536Y00083D02*
Y0011D01*
Y00096*
X02575*
Y00123D02*
X02536D01*
Y00142*
X02542Y00149*
X02555*
X02562Y00142*
Y00123*
X02536Y00188D02*
Y00162D01*
X02555*
X02549Y00175*
Y00182*
X02555Y00188*
X02569*
X02575Y00182*
Y00169*
X02569Y00162*
X0273Y00083D02*
Y0011D01*
Y00096*
X0277*
Y00123D02*
X0273D01*
Y00142*
X02737Y00149*
X0275*
X02756Y00142*
Y00123*
X0273Y00188D02*
X02737Y00175D01*
X0275Y00162*
X02763*
X0277Y00169*
Y00182*
X02763Y00188*
X02756*
X0275Y00182*
Y00162*
X01676Y01082D02*
X01703D01*
X01689*
Y01042*
X01716D02*
Y01082D01*
X01735*
X01742Y01075*
Y01062*
X01735Y01056*
X01716*
X01755Y01082D02*
X01781D01*
Y01075*
X01755Y01049*
Y01042*
X01676Y00917D02*
X01703D01*
X01689*
Y00877*
X01716D02*
Y00917D01*
X01735*
X01742Y0091*
Y00897*
X01735Y0089*
X01716*
X01755Y0091D02*
X01762Y00917D01*
X01775*
X01781Y0091*
Y00903*
X01775Y00897*
X01781Y0089*
Y00884*
X01775Y00877*
X01762*
X01755Y00884*
Y0089*
X01762Y00897*
X01755Y00903*
Y0091*
X01762Y00897D02*
X01775D01*
X01676Y00751D02*
X01703D01*
X01689*
Y00712*
X01716D02*
Y00751D01*
X01735*
X01742Y00745*
Y00732*
X01735Y00725*
X01716*
X01755Y00712D02*
X01768D01*
X01762*
Y00751*
X01755Y00745*
X01676Y00586D02*
X01703D01*
X01689*
Y00547*
X01716D02*
Y00586D01*
X01735*
X01742Y00579*
Y00566*
X01735Y0056*
X01716*
X01781Y00547D02*
X01755D01*
X01781Y00573*
Y00579*
X01775Y00586*
X01762*
X01755Y00579*
X01676Y00421D02*
X01703D01*
X01689*
Y00381*
X01716D02*
Y00421D01*
X01735*
X01742Y00414*
Y00401*
X01735Y00395*
X01716*
X01755Y00414D02*
X01762Y00421D01*
X01775*
X01781Y00414*
Y00408*
X01775Y00401*
X01768*
X01775*
X01781Y00395*
Y00388*
X01775Y00381*
X01762*
X01755Y00388*
X0226Y00085D02*
Y00112D01*
Y00098*
X02299*
Y00125D02*
X0226D01*
Y00144*
X02266Y00151*
X02279*
X02286Y00144*
Y00125*
X02299Y00184D02*
X0226D01*
X02279Y00164*
Y0019*
X02821Y02236D02*
X02847D01*
X02834*
Y02196*
X0286D02*
Y02236D01*
X0288*
X02886Y02229*
Y02216*
X0288Y02209*
X0286*
X02899Y02196D02*
X02913D01*
X02906*
Y02236*
X02899Y02229*
X02959Y02236D02*
X02932D01*
Y02216*
X02945Y02223*
X02952*
X02959Y02216*
Y02203*
X02952Y02196*
X02939*
X02932Y02203*
X0284Y02471D02*
X02866D01*
X02853*
Y02431*
X02879D02*
Y02471D01*
X02899*
X02905Y02464*
Y02451*
X02899Y02445*
X02879*
X02918Y02431D02*
X02931D01*
X02925*
Y02471*
X02918Y02464*
X02977Y02471D02*
X02964Y02464D01*
X02951Y02451*
Y02438*
X02958Y02431*
X02971*
X02977Y02438*
Y02445*
X02971Y02451*
X02951*
X02895Y02879D02*
X02921D01*
X02908*
Y0284*
X02934D02*
Y02879D01*
X02954*
X0296Y02873*
Y0286*
X02954Y02853*
X02934*
X02973Y0284D02*
X02987D01*
X0298*
Y02879*
X02973Y02873*
X03006Y02879D02*
X03033D01*
Y02873*
X03006Y02847*
Y0284*
X01381Y02131D02*
X01407D01*
X01394*
Y02091*
X0142D02*
Y02131D01*
X0144*
X01447Y02124*
Y02111*
X0144Y02104*
X0142*
X0146Y02091D02*
X01473D01*
X01466*
Y02131*
X0146Y02124*
X01493D02*
X01499Y02131D01*
X01512*
X01519Y02124*
Y02117*
X01512Y02111*
X01506*
X01512*
X01519Y02104*
Y02098*
X01512Y02091*
X01499*
X01493Y02098*
X01379Y02035D02*
X01405D01*
X01392*
Y01996*
X01418D02*
Y02035D01*
X01438*
X01445Y02028*
Y02015*
X01438Y02009*
X01418*
X01458Y01996D02*
X01471D01*
X01464*
Y02035*
X01458Y02028*
X0151Y01996D02*
Y02035D01*
X01491Y02015*
X01517*
X01257Y02167D02*
Y02193D01*
Y0218*
X01297*
Y02206D02*
X01257D01*
Y02226*
X01264Y02232*
X01277*
X01284Y02226*
Y02206*
X01297Y02246D02*
Y02259D01*
Y02252*
X01257*
X01264Y02246*
Y02278D02*
X01257Y02285D01*
Y02298*
X01264Y02305*
X0129*
X01297Y02298*
Y02285*
X0129Y02278*
X01264*
X01108Y02185D02*
Y02212D01*
Y02198*
X01148*
Y02225D02*
X01108D01*
Y02244*
X01115Y02251*
X01128*
X01134Y02244*
Y02225*
X01141Y02264D02*
X01148Y02271D01*
Y02284*
X01141Y0229*
X01115*
X01108Y02284*
Y02271*
X01115Y02264*
X01121*
X01128Y02271*
Y0229*
X00908Y02557D02*
Y02583D01*
Y0257*
X00948*
Y02596D02*
X00908D01*
Y02616*
X00915Y02622*
X00928*
X00934Y02616*
Y02596*
X00948Y02635D02*
Y02648D01*
Y02642*
X00908*
X00915Y02635*
Y02668D02*
X00908Y02675D01*
Y02688*
X00915Y02694*
X00921*
X00928Y02688*
X00934Y02694*
X00941*
X00948Y02688*
Y02675*
X00941Y02668*
X00934*
X00928Y02675*
X00921Y02668*
X00915*
X00928Y02675D02*
Y02688D01*
X01005Y02552D02*
Y02578D01*
Y02565*
X01044*
Y02592D02*
X01005D01*
Y02611*
X01012Y02618*
X01025*
X01031Y02611*
Y02592*
X01044Y02631D02*
Y02644D01*
Y02638*
X01005*
X01012Y02631*
X01038Y02664D02*
X01044Y0267D01*
Y02683*
X01038Y0269*
X01012*
X01005Y02683*
Y0267*
X01012Y02664*
X01018*
X01025Y0267*
Y0269*
X01113Y02548D02*
Y02574D01*
Y02561*
X01153*
Y02587D02*
X01113D01*
Y02607*
X0112Y02613*
X01133*
X0114Y02607*
Y02587*
X01153Y02652D02*
Y02626D01*
X01126Y02652*
X0112*
X01113Y02646*
Y02633*
X0112Y02626*
Y02666D02*
X01113Y02672D01*
Y02685*
X0112Y02692*
X01146*
X01153Y02685*
Y02672*
X01146Y02666*
X0112*
X01778Y02809D02*
X01804D01*
X01791*
Y0277*
X01818D02*
Y02809D01*
X01837*
X01844Y02803*
Y0279*
X01837Y02783*
X01818*
X01883Y0277D02*
X01857D01*
X01883Y02796*
Y02803*
X01877Y02809*
X01864*
X01857Y02803*
X01896Y0277D02*
X01909D01*
X01903*
Y02809*
X01896Y02803*
X01392Y024D02*
Y02427D01*
Y02413*
X01431*
Y0244D02*
X01392D01*
Y02459*
X01399Y02466*
X01412*
X01418Y02459*
Y0244*
X01431Y02479D02*
Y02492D01*
Y02486*
X01392*
X01399Y02479*
X01431Y02512D02*
Y02525D01*
Y02518*
X01392*
X01399Y02512*
X01538Y02396D02*
Y02422D01*
Y02409*
X01577*
Y02435D02*
X01538D01*
Y02455*
X01544Y02461*
X01557*
X01564Y02455*
Y02435*
X01577Y02474D02*
Y02487D01*
Y02481*
X01538*
X01544Y02474*
X01577Y02533D02*
Y02507D01*
X01551Y02533*
X01544*
X01538Y02527*
Y02514*
X01544Y02507*
X00433Y01711D02*
Y01679D01*
X00439Y01672*
X00452*
X00459Y01679*
Y01711*
X00498Y01672D02*
X00472D01*
X00498Y01698*
Y01705*
X00492Y01711*
X00478*
X00472Y01705*
X00105Y01342D02*
Y01335D01*
X00119Y01322*
X00132Y01335*
Y01342*
X00119Y01322D02*
Y01303D01*
X00145D02*
X00158D01*
X00151*
Y01342*
X00145Y01335*
X01612Y01334D02*
Y01327D01*
X01625Y01314*
X01638Y01327*
Y01334*
X01625Y01314D02*
Y01294D01*
X01678D02*
X01651D01*
X01678Y01321*
Y01327*
X01671Y01334*
X01658*
X01651Y01327*
X02123Y03061D02*
Y03055D01*
X02136Y03042*
X02149Y03055*
Y03061*
X02136Y03042D02*
Y03022D01*
X02182D02*
Y03061D01*
X02162Y03042*
X02189*
X01888Y02118D02*
X01892Y02114D01*
X01911*
Y02132*
X01906Y02137*
X01911Y02114D02*
X01925Y021D01*
X0192Y02141D02*
Y02151D01*
X0193Y0216*
X01939*
X01943Y02155*
Y02146*
X01939Y02141*
X01943Y02146*
X01953*
X01957Y02141*
Y02132*
X01948Y02123*
X01939*
X0243Y03257D02*
X02417D01*
X02424*
Y03224*
X02417Y03217*
X0241*
X02404Y03224*
X02443Y03217D02*
Y03257D01*
X02463*
X02469Y0325*
Y03237*
X02463Y0323*
X02443*
X02483Y03217D02*
X02496D01*
X02489*
Y03257*
X02483Y0325*
X03068Y02825D02*
Y02792D01*
X03075Y02786*
X03088*
X03094Y02792*
Y02825*
X03107Y02819D02*
X03114Y02825D01*
X03127*
X03134Y02819*
Y02812*
X03127Y02805*
X0312*
X03127*
X03134Y02799*
Y02792*
X03127Y02786*
X03114*
X03107Y02792*
X01894Y02553D02*
Y02521D01*
X01901Y02514*
X01914*
X0192Y02521*
Y02553*
X01953Y02514D02*
Y02553D01*
X01933Y02534*
X0196*
X00608Y03306D02*
Y03345D01*
X00628*
X00634Y03339*
Y03325*
X00628Y03319*
X00608*
X00621D02*
X00634Y03306D01*
X00648Y03332D02*
X00674Y03306D01*
X00661Y03319*
X00674Y03332*
X00648Y03306*
X00731Y03345D02*
X00757D01*
X00744*
Y03306*
X0077Y03332D02*
X00797Y03306D01*
X00783Y03319*
X00797Y03332*
X0077Y03306*
X00245Y03312D02*
Y03352D01*
X00265*
X00271Y03345*
Y03332*
X00265Y03325*
X00245*
X00258D02*
X00271Y03312D01*
X00311Y03352D02*
X00285D01*
Y03332*
X00298*
X00285*
Y03312*
X00324Y03306D02*
X0035D01*
X00363Y03352D02*
X00389D01*
X00376*
Y03312*
X00403Y03339D02*
X00429Y03312D01*
X00416Y03325*
X00429Y03339*
X00403Y03312*
X01187Y03096D02*
Y0307D01*
X012Y03057*
X01214Y0307*
Y03096*
X01253Y03083D02*
X01233D01*
X01227Y03076*
Y03063*
X01233Y03057*
X01253*
X01292Y03083D02*
X01273D01*
X01266Y03076*
Y03063*
X01273Y03057*
X01292*
X01199Y02919D02*
Y02893D01*
X01212Y0288*
X01225Y02893*
Y02919*
X01265Y02906D02*
X01245D01*
X01238Y02899*
Y02886*
X01245Y0288*
X01265*
X01304Y02906D02*
X01284D01*
X01278Y02899*
Y02886*
X01284Y0288*
X01304*
X01675Y0324D02*
X01701D01*
X01688*
Y032*
X01714Y0324D02*
Y032D01*
X01734*
X0174Y03207*
Y03233*
X01734Y0324*
X01714*
X01773D02*
X0176D01*
X01753Y03233*
Y03207*
X0176Y032*
X01773*
X0178Y03207*
Y03233*
X01773Y0324*
X016Y02747D02*
X01606Y02754D01*
X0162*
X01626Y02747*
Y02741*
X0162Y02734*
X01613*
X0162*
X01626Y02728*
Y02721*
X0162Y02714*
X01606*
X016Y02721*
X01639Y02754D02*
Y02728D01*
X01652Y02714*
X01665Y02728*
Y02754*
X01679Y02747D02*
X01685Y02754D01*
X01698*
X01705Y02747*
Y02741*
X01698Y02734*
X01692*
X01698*
X01705Y02728*
Y02721*
X01698Y02714*
X01685*
X01679Y02721*
X02718Y01898D02*
X02713Y01903D01*
X02702*
X02697Y01898*
Y01893*
X02702Y01887*
X02713*
X02718Y01882*
Y01877*
X02713Y01872*
X02702*
X02697Y01877*
X02729Y01893D02*
Y01877D01*
X02734Y01872*
X0275*
Y01866*
X02744Y01861*
X02739*
X0275Y01872D02*
Y01893D01*
X0276Y01872D02*
X02776D01*
X02781Y01877*
X02776Y01882*
X02765*
X0276Y01887*
X02765Y01893*
X02781*
X02797Y01898D02*
Y01893D01*
X02792*
X02802*
X02797*
Y01877*
X02802Y01872*
X02834D02*
X02823D01*
X02818Y01877*
Y01887*
X02823Y01893*
X02834*
X02839Y01887*
Y01882*
X02818*
X02849Y01872D02*
Y01893D01*
X02855*
X0286Y01887*
Y01872*
Y01887*
X02865Y01893*
X0287Y01887*
Y01872*
X02881Y01866D02*
X02902D01*
X02928Y01903D02*
X02918D01*
X02912Y01898*
Y01877*
X02918Y01872*
X02928*
X02933Y01877*
Y01898*
X02928Y01903*
X02944Y01872D02*
Y01893D01*
X0296*
X02965Y01887*
Y01872*
X00156Y02257D02*
X00149Y02251D01*
Y02238*
X00156Y02231*
X00182*
X00188Y02238*
Y02251*
X00182Y02257*
X00169*
Y02244*
X00188Y0227D02*
X00149D01*
X00188Y02297*
X00149*
Y0231D02*
X00188D01*
Y02329*
X00182Y02336*
X00156*
X00149Y02329*
Y0231*
X00355Y00616D02*
X00315D01*
Y00635*
X00322Y00642*
X00335*
X00342Y00635*
Y00616*
Y00629D02*
X00355Y00642D01*
X00315Y00681D02*
Y00655D01*
X00335*
Y00668*
Y00655*
X00355*
X00361Y00694D02*
Y00721D01*
X00322Y0076D02*
X00315Y00753D01*
Y0074*
X00322Y00734*
X00348*
X00355Y0074*
Y00753*
X00348Y0076*
X00335*
Y00747*
X00355Y00773D02*
X00315D01*
X00355Y00799*
X00315*
Y00812D02*
X00355D01*
Y00832*
X00348Y00839*
X00322*
X00315Y00832*
Y00812*
X01327Y02744D02*
X01334Y0275D01*
X01347*
X01353Y02744*
Y02737*
X01347Y02731*
X0134*
X01347*
X01353Y02724*
Y02717*
X01347Y02711*
X01334*
X01327Y02717*
X01366Y0275D02*
Y02724D01*
X0138Y02711*
X01393Y02724*
Y0275*
X01406Y02744D02*
X01412Y0275D01*
X01425*
X01432Y02744*
Y02737*
X01425Y02731*
X01419*
X01425*
X01432Y02724*
Y02717*
X01425Y02711*
X01412*
X01406Y02717*
X03112Y03322D02*
Y03349D01*
X03126Y03362*
X03139Y03349*
Y03322*
Y03342*
X03112*
X03152Y03322D02*
Y03362D01*
X03178Y03322*
Y03362*
X03191D02*
X03217D01*
X03204*
Y03322*
G54D49*
X01405Y03295D02*
D01*
X01405Y03295*
X01405Y03295*
X01405Y03295*
X01405Y03296*
X01405Y03296*
X01405Y03296*
X01405Y03296*
X01405Y03296*
X01405Y03297*
X01404Y03297*
X01404Y03297*
X01404Y03297*
X01404Y03297*
X01404Y03298*
X01403Y03298*
X01403Y03298*
X01403Y03298*
X01403Y03298*
X01403Y03298*
X01402Y03298*
X01402Y03298*
X01402Y03298*
X01402*
X01401Y03298*
X01401Y03298*
X01401Y03298*
X01401Y03298*
X014Y03298*
X014Y03298*
X014Y03298*
X014Y03298*
X01399Y03297*
X01399Y03297*
X01399Y03297*
X01399Y03297*
X01399Y03297*
X01399Y03296*
X01399Y03296*
X01398Y03296*
X01398Y03296*
X01398Y03296*
X01398Y03295*
X01398Y03295*
X01398Y03295*
X01398Y03295*
X01398Y03294*
X01398Y03294*
X01398Y03294*
X01398Y03294*
X01398Y03293*
X01398Y03293*
X01399Y03293*
X01399Y03293*
X01399Y03292*
X01399Y03292*
X01399Y03292*
X01399Y03292*
X01399Y03292*
X014Y03292*
X014Y03292*
X014Y03291*
X014Y03291*
X01401Y03291*
X01401Y03291*
X01401Y03291*
X01401Y03291*
X01402Y03291*
X01402*
X01402Y03291*
X01402Y03291*
X01403Y03291*
X01403Y03291*
X01403Y03291*
X01403Y03291*
X01403Y03292*
X01404Y03292*
X01404Y03292*
X01404Y03292*
X01404Y03292*
X01404Y03292*
X01405Y03292*
X01405Y03293*
X01405Y03293*
X01405Y03293*
X01405Y03293*
X01405Y03294*
X01405Y03294*
X01405Y03294*
X01405Y03294*
X01405Y03295*
X02988Y03304D02*
D01*
X02988Y03305*
X02988Y03305*
X02988Y03305*
X02988Y03305*
X02988Y03306*
X02988Y03306*
X02988Y03306*
X02988Y03306*
X02988Y03307*
X02987Y03307*
X02987Y03307*
X02987Y03307*
X02987Y03307*
X02987Y03307*
X02987Y03307*
X02986Y03308*
X02986Y03308*
X02986Y03308*
X02986Y03308*
X02985Y03308*
X02985Y03308*
X02985Y03308*
X02985*
X02984Y03308*
X02984Y03308*
X02984Y03308*
X02984Y03308*
X02983Y03308*
X02983Y03308*
X02983Y03307*
X02983Y03307*
X02983Y03307*
X02982Y03307*
X02982Y03307*
X02982Y03307*
X02982Y03307*
X02982Y03306*
X02982Y03306*
X02982Y03306*
X02981Y03306*
X02981Y03305*
X02981Y03305*
X02981Y03305*
X02981Y03305*
X02981Y03304*
X02981Y03304*
X02981Y03304*
X02981Y03304*
X02981Y03303*
X02981Y03303*
X02982Y03303*
X02982Y03303*
X02982Y03303*
X02982Y03302*
X02982Y03302*
X02982Y03302*
X02982Y03302*
X02983Y03302*
X02983Y03301*
X02983Y03301*
X02983Y03301*
X02983Y03301*
X02984Y03301*
X02984Y03301*
X02984Y03301*
X02984Y03301*
X02985Y03301*
X02985*
X02985Y03301*
X02985Y03301*
X02986Y03301*
X02986Y03301*
X02986Y03301*
X02986Y03301*
X02987Y03301*
X02987Y03301*
X02987Y03302*
X02987Y03302*
X02987Y03302*
X02987Y03302*
X02988Y03302*
X02988Y03303*
X02988Y03303*
X02988Y03303*
X02988Y03303*
X02988Y03303*
X02988Y03304*
X02988Y03304*
X02988Y03304*
X02988Y03304*
G54D50*
X02128Y02465D02*
D01*
X02128Y02466*
X02128Y02466*
X02128Y02467*
X02128Y02468*
X02128Y02469*
X02127Y0247*
X02127Y0247*
X02127Y02471*
X02126Y02472*
X02126Y02472*
X02125Y02473*
X02125Y02474*
X02124Y02474*
X02123Y02475*
X02123Y02475*
X02122Y02475*
X02121Y02476*
X0212Y02476*
X02119Y02476*
X02119Y02476*
X02118Y02477*
X02117Y02477*
X02116*
X02115Y02477*
X02115Y02476*
X02114Y02476*
X02113Y02476*
X02112Y02476*
X02111Y02475*
X02111Y02475*
X0211Y02475*
X02109Y02474*
X02109Y02474*
X02108Y02473*
X02108Y02472*
X02107Y02472*
X02107Y02471*
X02106Y0247*
X02106Y0247*
X02106Y02469*
X02105Y02468*
X02105Y02467*
X02105Y02466*
X02105Y02466*
X02105Y02465*
X02105Y02464*
X02105Y02463*
X02105Y02462*
X02105Y02462*
X02106Y02461*
X02106Y0246*
X02106Y02459*
X02107Y02459*
X02107Y02458*
X02108Y02457*
X02108Y02457*
X02109Y02456*
X02109Y02456*
X0211Y02455*
X02111Y02455*
X02111Y02454*
X02112Y02454*
X02113Y02454*
X02114Y02453*
X02115Y02453*
X02115Y02453*
X02116Y02453*
X02117*
X02118Y02453*
X02119Y02453*
X02119Y02453*
X0212Y02454*
X02121Y02454*
X02122Y02454*
X02123Y02455*
X02123Y02455*
X02124Y02456*
X02125Y02456*
X02125Y02457*
X02126Y02457*
X02126Y02458*
X02127Y02459*
X02127Y02459*
X02127Y0246*
X02128Y02461*
X02128Y02462*
X02128Y02462*
X02128Y02463*
X02128Y02464*
X02128Y02465*
X02822Y01641D02*
D01*
X02821Y01643*
X02821Y01645*
X02821Y01648*
X0282Y0165*
X0282Y01652*
X02819Y01655*
X02818Y01657*
X02816Y01659*
X02815Y01661*
X02814Y01663*
X02812Y01664*
X0281Y01666*
X02808Y01668*
X02806Y01669*
X02804Y0167*
X02802Y01671*
X028Y01672*
X02798Y01673*
X02796Y01674*
X02793Y01674*
X02791Y01675*
X02789Y01675*
X02786*
X02784Y01675*
X02781Y01674*
X02779Y01674*
X02777Y01673*
X02775Y01672*
X02772Y01671*
X0277Y0167*
X02768Y01669*
X02766Y01668*
X02764Y01666*
X02763Y01664*
X02761Y01663*
X0276Y01661*
X02758Y01659*
X02757Y01657*
X02756Y01655*
X02755Y01652*
X02754Y0165*
X02754Y01648*
X02753Y01645*
X02753Y01643*
X02753Y01641*
X02753Y01638*
X02753Y01636*
X02754Y01634*
X02754Y01631*
X02755Y01629*
X02756Y01627*
X02757Y01625*
X02758Y01623*
X0276Y01621*
X02761Y01619*
X02763Y01617*
X02764Y01615*
X02766Y01614*
X02768Y01612*
X0277Y01611*
X02772Y0161*
X02775Y01609*
X02777Y01608*
X02779Y01607*
X02781Y01607*
X02784Y01607*
X02786Y01606*
X02789*
X02791Y01607*
X02793Y01607*
X02796Y01607*
X02798Y01608*
X028Y01609*
X02802Y0161*
X02804Y01611*
X02806Y01612*
X02808Y01614*
X0281Y01615*
X02812Y01617*
X02814Y01619*
X02815Y01621*
X02816Y01623*
X02818Y01625*
X02819Y01627*
X0282Y01629*
X0282Y01631*
X02821Y01634*
X02821Y01636*
X02821Y01638*
X02822Y01641*
X01292D02*
D01*
X01292Y01643*
X01291Y01645*
X01291Y01648*
X0129Y0165*
X0129Y01652*
X01289Y01655*
X01288Y01657*
X01286Y01659*
X01285Y01661*
X01284Y01663*
X01282Y01664*
X0128Y01666*
X01279Y01668*
X01277Y01669*
X01275Y0167*
X01272Y01671*
X0127Y01672*
X01268Y01673*
X01266Y01674*
X01263Y01674*
X01261Y01675*
X01259Y01675*
X01256*
X01254Y01675*
X01251Y01674*
X01249Y01674*
X01247Y01673*
X01245Y01672*
X01242Y01671*
X0124Y0167*
X01238Y01669*
X01236Y01668*
X01235Y01666*
X01233Y01664*
X01231Y01663*
X0123Y01661*
X01228Y01659*
X01227Y01657*
X01226Y01655*
X01225Y01652*
X01225Y0165*
X01224Y01648*
X01224Y01645*
X01223Y01643*
X01223Y01641*
X01223Y01638*
X01224Y01636*
X01224Y01634*
X01225Y01631*
X01225Y01629*
X01226Y01627*
X01227Y01625*
X01228Y01623*
X0123Y01621*
X01231Y01619*
X01233Y01617*
X01235Y01615*
X01236Y01614*
X01238Y01612*
X0124Y01611*
X01242Y0161*
X01245Y01609*
X01247Y01608*
X01249Y01607*
X01251Y01607*
X01254Y01607*
X01256Y01606*
X01259*
X01261Y01607*
X01263Y01607*
X01266Y01607*
X01268Y01608*
X0127Y01609*
X01272Y0161*
X01275Y01611*
X01277Y01612*
X01279Y01614*
X0128Y01615*
X01282Y01617*
X01284Y01619*
X01285Y01621*
X01286Y01623*
X01288Y01625*
X01289Y01627*
X0129Y01629*
X0129Y01631*
X01291Y01634*
X01291Y01636*
X01292Y01638*
X01292Y01641*
G54D51*
X02019Y0244D02*
D01*
X02019Y02441*
X02019Y02441*
X02019Y02442*
X02019Y02442*
X02019Y02442*
X02019Y02442*
X02019Y02443*
X02018Y02443*
X02018Y02443*
X02018Y02444*
X02018Y02444*
X02018Y02444*
X02017Y02444*
X02017Y02445*
X02017Y02445*
X02016Y02445*
X02016Y02445*
X02016Y02445*
X02016Y02445*
X02015Y02445*
X02015Y02445*
X02014Y02445*
X02014*
X02014Y02445*
X02013Y02445*
X02013Y02445*
X02013Y02445*
X02012Y02445*
X02012Y02445*
X02012Y02445*
X02012Y02445*
X02011Y02444*
X02011Y02444*
X02011Y02444*
X02011Y02444*
X0201Y02443*
X0201Y02443*
X0201Y02443*
X0201Y02442*
X0201Y02442*
X0201Y02442*
X02009Y02442*
X02009Y02441*
X02009Y02441*
X02009Y0244*
X02009Y0244*
X02009Y0244*
X02009Y02439*
X0201Y02439*
X0201Y02439*
X0201Y02438*
X0201Y02438*
X0201Y02438*
X0201Y02438*
X02011Y02437*
X02011Y02437*
X02011Y02437*
X02011Y02437*
X02012Y02436*
X02012Y02436*
X02012Y02436*
X02012Y02436*
X02013Y02436*
X02013Y02436*
X02013Y02436*
X02014Y02436*
X02014Y02436*
X02014*
X02015Y02436*
X02015Y02436*
X02016Y02436*
X02016Y02436*
X02016Y02436*
X02016Y02436*
X02017Y02436*
X02017Y02436*
X02017Y02437*
X02018Y02437*
X02018Y02437*
X02018Y02437*
X02018Y02438*
X02018Y02438*
X02019Y02438*
X02019Y02438*
X02019Y02439*
X02019Y02439*
X02019Y02439*
X02019Y0244*
X02019Y0244*
X02019Y0244*
G54D52*
X0209Y0304D02*
D01*
X0209Y03041*
X0209Y03041*
X0209Y03041*
X0209Y03041*
X0209Y03041*
X0209Y03042*
X0209Y03042*
X0209Y03042*
X0209Y03042*
X0209Y03042*
X02089Y03043*
X02089Y03043*
X02089Y03043*
X02089Y03043*
X02089Y03043*
X02089Y03043*
X02088Y03043*
X02088Y03043*
X02088Y03043*
X02088Y03043*
X02087Y03043*
X02087Y03043*
X02087*
X02087Y03043*
X02087Y03043*
X02086Y03043*
X02086Y03043*
X02086Y03043*
X02086Y03043*
X02086Y03043*
X02085Y03043*
X02085Y03043*
X02085Y03043*
X02085Y03043*
X02085Y03042*
X02085Y03042*
X02084Y03042*
X02084Y03042*
X02084Y03042*
X02084Y03041*
X02084Y03041*
X02084Y03041*
X02084Y03041*
X02084Y03041*
X02084Y0304*
X02084Y0304*
X02084Y0304*
X02084Y0304*
X02084Y03039*
X02084Y03039*
X02084Y03039*
X02084Y03039*
X02084Y03039*
X02085Y03038*
X02085Y03038*
X02085Y03038*
X02085Y03038*
X02085Y03038*
X02085Y03038*
X02086Y03038*
X02086Y03038*
X02086Y03037*
X02086Y03037*
X02086Y03037*
X02087Y03037*
X02087Y03037*
X02087Y03037*
X02087*
X02087Y03037*
X02088Y03037*
X02088Y03037*
X02088Y03037*
X02088Y03037*
X02089Y03038*
X02089Y03038*
X02089Y03038*
X02089Y03038*
X02089Y03038*
X02089Y03038*
X0209Y03038*
X0209Y03038*
X0209Y03039*
X0209Y03039*
X0209Y03039*
X0209Y03039*
X0209Y03039*
X0209Y0304*
X0209Y0304*
X0209Y0304*
X0209Y0304*
X01985Y02119D02*
X0208Y02025D01*
X02033Y01977D02*
X0208Y02025D01*
X01938Y02072D02*
X02033Y01977D01*
X01938Y02072D02*
X01985Y02119D01*
G54D53*
X00468Y02695D02*
X00501D01*
X00462Y02694D02*
X00507D01*
X00457Y02693D02*
X00512D01*
X00453Y02692D02*
X00516D01*
X00449Y02691D02*
X0052D01*
X00446Y0269D02*
X00523D01*
X00443Y02689D02*
X00526D01*
X0044Y02688D02*
X00471D01*
X00499D02*
X00529D01*
X00437Y02687D02*
X00464D01*
X00505D02*
X00532D01*
X00435Y02686D02*
X00459D01*
X0051D02*
X00534D01*
X00433Y02685D02*
X00455D01*
X00514D02*
X00536D01*
X00431Y02684D02*
X00452D01*
X00475D02*
X00478D01*
X00485D02*
X00494D01*
X00517D02*
X00538D01*
X00429Y02683D02*
X00448D01*
X00474D02*
X00479D01*
X00485D02*
X00496D01*
X00521D02*
X0054D01*
X00427Y02682D02*
X00446D01*
X00459D02*
X00466D01*
X00474D02*
X00479D01*
X00485D02*
X00497D01*
X00524D02*
X00542D01*
X00425Y02681D02*
X00443D01*
X00457D02*
X00468D01*
X00474D02*
X00479D01*
X00485D02*
X00497D01*
X00507D02*
X00511D01*
X00526D02*
X00544D01*
X00423Y0268D02*
X0044D01*
X00456D02*
X00468D01*
X00474D02*
X00479D01*
X00485D02*
X00498D01*
X00506D02*
X00511D01*
X00529D02*
X00546D01*
X00421Y02679D02*
X00438D01*
X00456D02*
X00469D01*
X00474D02*
X00479D01*
X00485D02*
X00498D01*
X00505D02*
X00512D01*
X00531D02*
X00548D01*
X0042Y02678D02*
X00436D01*
X00456D02*
X00469D01*
X00474D02*
X00479D01*
X00484D02*
X0049D01*
X00492D02*
X00498D01*
X00504D02*
X00512D01*
X00533D02*
X00549D01*
X00418Y02677D02*
X00434D01*
X00456D02*
X00469D01*
X00474D02*
X0048D01*
X00484D02*
X00498D01*
X00503D02*
X00512D01*
X00535D02*
X00551D01*
X00417Y02676D02*
X00432D01*
X00441D02*
X00447D01*
X00456D02*
X00462D01*
X00463D02*
X00469D01*
X00474D02*
X0048D01*
X00484D02*
X00497D01*
X00503D02*
X00512D01*
X00523D02*
X00527D01*
X00537D02*
X00552D01*
X00415Y02675D02*
X0043D01*
X00439D02*
X00449D01*
X00456D02*
X00469D01*
X00474D02*
X0048D01*
X00484D02*
X00497D01*
X00502D02*
X00513D01*
X00521D02*
X0053D01*
X00539D02*
X00554D01*
X00414Y02674D02*
X00428D01*
X00438D02*
X0045D01*
X00456D02*
X00468D01*
X00474D02*
X0048D01*
X00484D02*
X00496D01*
X00501D02*
X00513D01*
X00521D02*
X00532D01*
X00541D02*
X00555D01*
X00412Y02673D02*
X00426D01*
X00437D02*
X00451D01*
X00456D02*
X00468D01*
X00474D02*
X0048D01*
X00484D02*
X0049D01*
X00492D02*
X00493D01*
X005D02*
X00513D01*
X0052D02*
X00532D01*
X00543D02*
X00557D01*
X00411Y02672D02*
X00425D01*
X00436D02*
X00452D01*
X00456D02*
X00469D01*
X00474D02*
X0048D01*
X00484D02*
X0049D01*
X005D02*
X00513D01*
X0052D02*
X00532D01*
X00545D02*
X00558D01*
X0041Y02671D02*
X00423D01*
X00436D02*
X00452D01*
X00457D02*
X0047D01*
X00474D02*
X0048D01*
X00484D02*
X0049D01*
X00499D02*
X00513D01*
X00519D02*
X00532D01*
X00546D02*
X00559D01*
X00409Y0267D02*
X00421D01*
X00436D02*
X00442D01*
X00446D02*
X00452D01*
X00457D02*
X0047D01*
X00475D02*
X0048D01*
X00484D02*
X0049D01*
X00499D02*
X00513D01*
X00519D02*
X00526D01*
X00527D02*
X00532D01*
X00548D02*
X00561D01*
X00407Y02669D02*
X0042D01*
X00435D02*
X00441D01*
X00447D02*
X00452D01*
X00457D02*
X00471D01*
X00475D02*
X0048D01*
X00484D02*
X00489D01*
X00499D02*
X00513D01*
X0052D02*
X00528D01*
X00549D02*
X00562D01*
X00406Y02668D02*
X00418D01*
X00435D02*
X00441D01*
X00447D02*
X00453D01*
X00457D02*
X00463D01*
X00464D02*
X00471D01*
X00475D02*
X00479D01*
X00485D02*
X00489D01*
X00499D02*
X00504D01*
X00507D02*
X00513D01*
X0052D02*
X0053D01*
X00551D02*
X00563D01*
X00405Y02667D02*
X00417D01*
X00435D02*
X00441D01*
X00447D02*
X00452D01*
X00458D02*
X00463D01*
X00466D02*
X0047D01*
X00499D02*
X00503D01*
X00508D02*
X00513D01*
X00521D02*
X0053D01*
X00552D02*
X00564D01*
X00404Y02666D02*
X00416D01*
X00422D02*
X00426D01*
X00435D02*
X00442D01*
X00446D02*
X00452D01*
X00458D02*
X00463D01*
X00508D02*
X00513D01*
X00518D02*
X00522D01*
X00523D02*
X0053D01*
X00543D02*
X00547D01*
X00553D02*
X00565D01*
X00403Y02665D02*
X00414D01*
X00422D02*
X00427D01*
X00436D02*
X00443D01*
X00445D02*
X00452D01*
X00459D02*
X00461D01*
X00508D02*
X00513D01*
X00517D02*
X0053D01*
X00541D02*
X00547D01*
X00555D02*
X00567D01*
X00401Y02664D02*
X00413D01*
X00422D02*
X00427D01*
X00436D02*
X00452D01*
X00482D02*
X00487D01*
X00517D02*
X0053D01*
X00539D02*
X00547D01*
X00556D02*
X00568D01*
X004Y02663D02*
X00412D01*
X00422D02*
X00428D01*
X00437D02*
X00451D01*
X00471D02*
X00499D01*
X00517D02*
X0053D01*
X00538D02*
X00547D01*
X00557D02*
X00569D01*
X00399Y02662D02*
X00411D01*
X00422D02*
X00429D01*
X00437D02*
X0045D01*
X00465D02*
X00504D01*
X00517D02*
X00529D01*
X00536D02*
X00547D01*
X00558D02*
X0057D01*
X00398Y02661D02*
X00409D01*
X00423D02*
X0043D01*
X00438D02*
X00449D01*
X00461D02*
X00508D01*
X00519D02*
X00529D01*
X00535D02*
X00547D01*
X0056D02*
X00571D01*
X00397Y0266D02*
X00408D01*
X00423D02*
X0043D01*
X0044D02*
X00448D01*
X00458D02*
X00512D01*
X00521D02*
X00528D01*
X00533D02*
X00547D01*
X00561D02*
X00572D01*
X00396Y02659D02*
X00407D01*
X00413D02*
X00418D01*
X00424D02*
X00431D01*
X00455D02*
X00474D01*
X00496D02*
X00515D01*
X00532D02*
X00547D01*
X00562D02*
X00573D01*
X00395Y02658D02*
X00406D01*
X00412D02*
X00419D01*
X00424D02*
X00437D01*
X00452D02*
X00468D01*
X00502D02*
X00517D01*
X00531D02*
X00546D01*
X00553D02*
X00557D01*
X00563D02*
X00574D01*
X00394Y02657D02*
X00405D01*
X0041D02*
X00419D01*
X00425D02*
X00437D01*
X00449D02*
X00464D01*
X00506D02*
X0052D01*
X00531D02*
X00546D01*
X00552D02*
X00558D01*
X00564D02*
X00575D01*
X00393Y02656D02*
X00404D01*
X00409D02*
X00418D01*
X00426D02*
X00437D01*
X00447D02*
X0046D01*
X0051D02*
X00522D01*
X00531D02*
X00546D01*
X00552D02*
X00559D01*
X00565D02*
X00576D01*
X00393Y02655D02*
X00403D01*
X00408D02*
X00417D01*
X00426D02*
X00436D01*
X00445D02*
X00457D01*
X00513D02*
X00524D01*
X00531D02*
X00536D01*
X00537D02*
X00546D01*
X00552D02*
X00561D01*
X00566D02*
X00577D01*
X00392Y02654D02*
X00402D01*
X00408D02*
X00421D01*
X00427D02*
X00436D01*
X00443D02*
X00454D01*
X00516D02*
X00526D01*
X00539D02*
X00546D01*
X00553D02*
X00561D01*
X00567D02*
X00577D01*
X00391Y02653D02*
X00401D01*
X00408D02*
X00421D01*
X00428D02*
X00434D01*
X00441D02*
X00451D01*
X00518D02*
X00528D01*
X00539D02*
X00545D01*
X00553D02*
X00562D01*
X00568D02*
X00578D01*
X0039Y02652D02*
X004D01*
X00408D02*
X00421D01*
X00428D02*
X00433D01*
X00439D02*
X00449D01*
X0052D02*
X0053D01*
X00539D02*
X00545D01*
X00552D02*
X00563D01*
X00569D02*
X00579D01*
X00389Y02651D02*
X00399D01*
X00408D02*
X00421D01*
X00437D02*
X00447D01*
X00522D02*
X00532D01*
X00539D02*
X00545D01*
X00551D02*
X00563D01*
X0057D02*
X0058D01*
X00388Y0265D02*
X00398D01*
X00408D02*
X0042D01*
X00436D02*
X00447D01*
X00524D02*
X00533D01*
X0054D02*
X00544D01*
X0055D02*
X00563D01*
X00571D02*
X00581D01*
X00388Y02649D02*
X00397D01*
X00409D02*
X00419D01*
X00434D02*
X00443D01*
X00444D02*
X0045D01*
X00526D02*
X00535D01*
X00541D02*
X00543D01*
X00549D02*
X00563D01*
X00572D02*
X00582D01*
X00387Y02648D02*
X00397D01*
X0041D02*
X00418D01*
X00433D02*
X00441D01*
X00447D02*
X00452D01*
X00528D02*
X00536D01*
X00548D02*
X00557D01*
X00573D02*
X00582D01*
X00386Y02647D02*
X00396D01*
X00411D02*
X00419D01*
X00431D02*
X00439D01*
X00449D02*
X00454D01*
X0053D02*
X00538D01*
X00548D02*
X00556D01*
X00573D02*
X00583D01*
X00385Y02646D02*
X00395D01*
X00412D02*
X0042D01*
X0043D02*
X00438D01*
X00451D02*
X00455D01*
X00531D02*
X00539D01*
X00547D02*
X00555D01*
X00574D02*
X00584D01*
X00385Y02645D02*
X00394D01*
X00413D02*
X0042D01*
X00429D02*
X00436D01*
X00452D02*
X00457D01*
X00533D02*
X0054D01*
X00547D02*
X00554D01*
X00575D02*
X00585D01*
X00384Y02644D02*
X00393D01*
X00414D02*
X0042D01*
X00427D02*
X00435D01*
X00454D02*
X00459D01*
X00534D02*
X00542D01*
X00547D02*
X00553D01*
X00576D02*
X00585D01*
X00383Y02643D02*
X00393D01*
X00414D02*
X0042D01*
X00426D02*
X00433D01*
X00456D02*
X0046D01*
X00535D02*
X00543D01*
X00548D02*
X00552D01*
X00577D02*
X00586D01*
X00382Y02642D02*
X00392D01*
X00415D02*
X0042D01*
X00425D02*
X00432D01*
X00457D02*
X00462D01*
X00537D02*
X00544D01*
X00577D02*
X00587D01*
X00382Y02641D02*
X00391D01*
X00424D02*
X00431D01*
X00459D02*
X00463D01*
X00538D02*
X00545D01*
X00578D02*
X00587D01*
X00381Y0264D02*
X0039D01*
X00423D02*
X0043D01*
X0046D02*
X00464D01*
X00539D02*
X00546D01*
X00579D02*
X00588D01*
X00381Y02639D02*
X0039D01*
X00422D02*
X00429D01*
X00461D02*
X00466D01*
X0054D02*
X00547D01*
X0058D02*
X00589D01*
X0038Y02638D02*
X00389D01*
X00421D02*
X00428D01*
X00463D02*
X00467D01*
X00542D02*
X00548D01*
X0058D02*
X00589D01*
X00379Y02637D02*
X00388D01*
X0042D02*
X00427D01*
X00464D02*
X00469D01*
X00543D02*
X00549D01*
X00581D02*
X0059D01*
X00379Y02636D02*
X00388D01*
X00419D02*
X00425D01*
X00465D02*
X0047D01*
X00544D02*
X0055D01*
X00582D02*
X00591D01*
X00378Y02635D02*
X00387D01*
X00418D02*
X00424D01*
X00466D02*
X00471D01*
X00517D02*
X00518D01*
X00545D02*
X00551D01*
X00582D02*
X00591D01*
X00378Y02634D02*
X00386D01*
X00417D02*
X00423D01*
X00467D02*
X00472D01*
X00516D02*
X0052D01*
X00546D02*
X00552D01*
X00583D02*
X00592D01*
X00377Y02633D02*
X00386D01*
X00416D02*
X00422D01*
X00469D02*
X00474D01*
X00516D02*
X00521D01*
X00547D02*
X00553D01*
X00584D02*
X00592D01*
X00376Y02632D02*
X00385D01*
X00415D02*
X00421D01*
X0047D02*
X00475D01*
X00516D02*
X00521D01*
X00548D02*
X00554D01*
X00584D02*
X00593D01*
X00376Y02631D02*
X00385D01*
X00414D02*
X0042D01*
X00471D02*
X00476D01*
X00516D02*
X0052D01*
X00549D02*
X00555D01*
X00585D02*
X00593D01*
X00375Y0263D02*
X00384D01*
X00413D02*
X0042D01*
X00472D02*
X00477D01*
X00518D02*
X0052D01*
X0055D02*
X00556D01*
X00585D02*
X00594D01*
X00375Y02629D02*
X00383D01*
X00413D02*
X00419D01*
X00473D02*
X00478D01*
X0055D02*
X00557D01*
X00586D02*
X00594D01*
X00374Y02628D02*
X00383D01*
X00412D02*
X00418D01*
X00474D02*
X00479D01*
X0053D02*
X00533D01*
X00551D02*
X00557D01*
X00586D02*
X00595D01*
X00374Y02627D02*
X00382D01*
X00411D02*
X00417D01*
X00475D02*
X0048D01*
X0053D02*
X00534D01*
X00552D02*
X00558D01*
X00587D02*
X00595D01*
X00373Y02626D02*
X00382D01*
X0041D02*
X00416D01*
X00476D02*
X00481D01*
X00529D02*
X00534D01*
X00553D02*
X00559D01*
X00588D02*
X00596D01*
X00373Y02625D02*
X00381D01*
X0041D02*
X00415D01*
X00477D02*
X00482D01*
X00529D02*
X00534D01*
X00554D02*
X0056D01*
X00588D02*
X00596D01*
X00372Y02624D02*
X00381D01*
X00409D02*
X00415D01*
X00478D02*
X00483D01*
X00531D02*
X00533D01*
X00554D02*
X0056D01*
X00589D02*
X00597D01*
X00372Y02623D02*
X0038D01*
X00408D02*
X00414D01*
X00479D02*
X00484D01*
X00555D02*
X00561D01*
X00589D02*
X00597D01*
X00371Y02622D02*
X0038D01*
X00408D02*
X00413D01*
X00479D02*
X00485D01*
X00556D02*
X00562D01*
X0059D02*
X00598D01*
X00371Y02621D02*
X00379D01*
X00407D02*
X00412D01*
X00422D02*
X00432D01*
X00444D02*
X00449D01*
X0048D02*
X00486D01*
X00557D02*
X00562D01*
X0059D02*
X00598D01*
X00371Y0262D02*
X00379D01*
X00406D02*
X00412D01*
X00418D02*
X00438D01*
X00441D02*
X00451D01*
X00481D02*
X00487D01*
X00511D02*
X00513D01*
X00557D02*
X00563D01*
X00591D02*
X00599D01*
X0037Y02619D02*
X00379D01*
X00406D02*
X00411D01*
X00414D02*
X00453D01*
X00482D02*
X00487D01*
X0051D02*
X00515D01*
X00558D02*
X00563D01*
X00591D02*
X00599D01*
X0037Y02618D02*
X00378D01*
X00405D02*
X00455D01*
X00483D02*
X00488D01*
X0051D02*
X00516D01*
X00527D02*
X00531D01*
X00559D02*
X00564D01*
X00591D02*
X00599D01*
X00369Y02617D02*
X00378D01*
X00405D02*
X00457D01*
X00484D02*
X00489D01*
X0051D02*
X00516D01*
X00526D02*
X00531D01*
X00559D02*
X00565D01*
X00592D02*
X006D01*
X00369Y02616D02*
X00377D01*
X00404D02*
X00459D01*
X00485D02*
X0049D01*
X0051D02*
X00515D01*
X00527D02*
X0053D01*
X0056D02*
X00565D01*
X00592D02*
X006D01*
X00369Y02615D02*
X00377D01*
X00404D02*
X00461D01*
X00485D02*
X00491D01*
X00512D02*
X00514D01*
X00528D02*
X0053D01*
X0056D02*
X00566D01*
X00593D02*
X00601D01*
X00368Y02614D02*
X00376D01*
X00403D02*
X00462D01*
X00486D02*
X00491D01*
X00561D02*
X00566D01*
X00593D02*
X00601D01*
X00368Y02613D02*
X00376D01*
X00403D02*
X00465D01*
X00487D02*
X00492D01*
X00562D02*
X00567D01*
X00593D02*
X00601D01*
X00368Y02612D02*
X00376D01*
X00402D02*
X00481D01*
X00488D02*
X00493D01*
X00562D02*
X00567D01*
X00594D02*
X00602D01*
X00367Y02611D02*
X00375D01*
X00402D02*
X00485D01*
X00488D02*
X00493D01*
X00562D02*
X00568D01*
X00594D02*
X00602D01*
X00367Y0261D02*
X00375D01*
X00401D02*
X00486D01*
X00489D02*
X00494D01*
X00563D02*
X00568D01*
X00595D02*
X00602D01*
X00367Y02609D02*
X00375D01*
X00401D02*
X00487D01*
X0049D02*
X00495D01*
X00563D02*
X00568D01*
X00595D02*
X00603D01*
X00367Y02608D02*
X00374D01*
X004D02*
X00488D01*
X0049D02*
X00495D01*
X00564D02*
X00569D01*
X00595D02*
X00603D01*
X00366Y02607D02*
X00374D01*
X004D02*
X00488D01*
X00491D02*
X00496D01*
X00564D02*
X00569D01*
X00596D02*
X00603D01*
X00366Y02606D02*
X00374D01*
X004D02*
X00489D01*
X00492D02*
X00497D01*
X00565D02*
X0057D01*
X00596D02*
X00603D01*
X00366Y02605D02*
X00373D01*
X00399D02*
X0049D01*
X00492D02*
X00497D01*
X00565D02*
X0057D01*
X00596D02*
X00604D01*
X00365Y02604D02*
X00373D01*
X00399D02*
X0049D01*
X00493D02*
X00498D01*
X00565D02*
X0057D01*
X00596D02*
X00604D01*
X00365Y02603D02*
X00373D01*
X00399D02*
X00491D01*
X00494D02*
X00498D01*
X00527D02*
X0053D01*
X00566D02*
X00571D01*
X00597D02*
X00604D01*
X00365Y02602D02*
X00373D01*
X00398D02*
X00491D01*
X00494D02*
X00499D01*
X00526D02*
X00531D01*
X00566D02*
X00571D01*
X00597D02*
X00604D01*
X00365Y02601D02*
X00372D01*
X00398D02*
X00492D01*
X00495D02*
X00499D01*
X00526D02*
X00532D01*
X00566D02*
X00571D01*
X00597D02*
X00605D01*
X00364Y026D02*
X00372D01*
X00398D02*
X00492D01*
X00495D02*
X005D01*
X00525D02*
X00532D01*
X00567D02*
X00572D01*
X00597D02*
X00605D01*
X00364Y02599D02*
X00372D01*
X00397D02*
X00492D01*
X00496D02*
X005D01*
X00526D02*
X00531D01*
X00567D02*
X00572D01*
X00598D02*
X00605D01*
X00364Y02598D02*
X00372D01*
X00397D02*
X00493D01*
X00496D02*
X00501D01*
X00528D02*
X0053D01*
X00567D02*
X00572D01*
X00598D02*
X00605D01*
X00364Y02597D02*
X00371D01*
X00397D02*
X00493D01*
X00497D02*
X00501D01*
X00568D02*
X00573D01*
X00598D02*
X00606D01*
X00364Y02596D02*
X00371D01*
X00396D02*
X00493D01*
X00497D02*
X00502D01*
X00568D02*
X00573D01*
X00598D02*
X00606D01*
X00363Y02595D02*
X00371D01*
X00396D02*
X00493D01*
X00498D02*
X00502D01*
X00568D02*
X00573D01*
X00599D02*
X00606D01*
X00653D02*
X00657D01*
X00363Y02594D02*
X00371D01*
X00396D02*
X00493D01*
X00498D02*
X00503D01*
X00548D02*
X00553D01*
X00568D02*
X00573D01*
X00599D02*
X00606D01*
X0065D02*
X00657D01*
X00363Y02593D02*
X00371D01*
X00396D02*
X00494D01*
X00499D02*
X00503D01*
X00549D02*
X00556D01*
X00569D02*
X00574D01*
X00599D02*
X00606D01*
X00647D02*
X00656D01*
X00363Y02592D02*
X0037D01*
X00396D02*
X00494D01*
X00499D02*
X00504D01*
X00551D02*
X00559D01*
X00569D02*
X00574D01*
X00599D02*
X00606D01*
X00644D02*
X00654D01*
X00363Y02591D02*
X0037D01*
X00395D02*
X00494D01*
X005D02*
X00504D01*
X00553D02*
X00562D01*
X00569D02*
X00574D01*
X00599D02*
X00607D01*
X00641D02*
X00652D01*
X00363Y0259D02*
X0037D01*
X00395D02*
X00494D01*
X005D02*
X00505D01*
X00556D02*
X00564D01*
X0057D02*
X00574D01*
X00599D02*
X00607D01*
X00639D02*
X00648D01*
X00362Y02589D02*
X0037D01*
X00395D02*
X00494D01*
X00501D02*
X00505D01*
X00558D02*
X00567D01*
X0057D02*
X00574D01*
X00599D02*
X00607D01*
X00636D02*
X00645D01*
X00362Y02588D02*
X0037D01*
X00395D02*
X00494D01*
X00501D02*
X00505D01*
X00561D02*
X00574D01*
X006D02*
X00607D01*
X00634D02*
X00643D01*
X00362Y02587D02*
X0037D01*
X00395D02*
X00494D01*
X00501D02*
X00506D01*
X00564D02*
X00575D01*
X006D02*
X00607D01*
X00631D02*
X0064D01*
X00362Y02586D02*
X0037D01*
X00394D02*
X00495D01*
X00502D02*
X00506D01*
X00567D02*
X00576D01*
X006D02*
X00607D01*
X00628D02*
X00637D01*
X00362Y02585D02*
X00369D01*
X00394D02*
X00495D01*
X00502D02*
X00507D01*
X00569D02*
X00578D01*
X00599D02*
X00607D01*
X00625D02*
X00635D01*
X00362Y02584D02*
X00369D01*
X00394D02*
X00495D01*
X00503D02*
X00507D01*
X00571D02*
X00581D01*
X00596D02*
X0061D01*
X00622D02*
X00632D01*
X00362Y02583D02*
X00369D01*
X00394D02*
X00398D01*
X004D02*
X00496D01*
X00503D02*
X00507D01*
X00571D02*
X00584D01*
X00593D02*
X00601D01*
X00602D02*
X00604D01*
X00605D02*
X00613D01*
X00619D02*
X00629D01*
X00362Y02582D02*
X00369D01*
X00394D02*
X00398D01*
X00401D02*
X00496D01*
X00503D02*
X00508D01*
X00571D02*
X00575D01*
X00577D02*
X00586D01*
X00589D02*
X006D01*
X00602D02*
X00604D01*
X00608D02*
X00626D01*
X00362Y02581D02*
X00369D01*
X00394D02*
X00398D01*
X00401D02*
X00496D01*
X00504D02*
X00508D01*
X00571D02*
X00575D01*
X00579D02*
X006D01*
X00602D02*
X00604D01*
X00605D02*
X0061D01*
X00611D02*
X00624D01*
X00362Y0258D02*
X00369D01*
X00394D02*
X00398D01*
X00401D02*
X00497D01*
X00504D02*
X00508D01*
X00571D02*
X00575D01*
X00582D02*
X00591D01*
X00592D02*
X006D01*
X00602D02*
X00604D01*
X00605D02*
X00613D01*
X00614D02*
X00621D01*
X00362Y02579D02*
X00369D01*
X00394D02*
X00398D01*
X004D02*
X00497D01*
X00504D02*
X00509D01*
X00571D02*
X00575D01*
X00584D02*
X00597D01*
X00598D02*
X006D01*
X00602D02*
X00604D01*
X00605D02*
X00616D01*
X00617D02*
X00624D01*
X00362Y02578D02*
X00369D01*
X00394D02*
X00398D01*
X004D02*
X00497D01*
X00505D02*
X00509D01*
X00571D02*
X00576D01*
X00581D02*
X00594D01*
X00598D02*
X006D01*
X00602D02*
X00604D01*
X00605D02*
X00608D01*
X00612D02*
X00627D01*
X00361Y02577D02*
X00369D01*
X00394D02*
X00398D01*
X00399D02*
X00498D01*
X00505D02*
X00509D01*
X00571D02*
X00576D01*
X00578D02*
X00591D01*
X00598D02*
X006D01*
X00602D02*
X00604D01*
X00605D02*
X00608D01*
X00614D02*
X0063D01*
X00361Y02576D02*
X00369D01*
X00394D02*
X00398D01*
X00399D02*
X00498D01*
X00505D02*
X00509D01*
X00571D02*
X00588D01*
X00598D02*
X006D01*
X00602D02*
X00604D01*
X00605D02*
X00608D01*
X00617D02*
X00631D01*
X00361Y02575D02*
X00369D01*
X00394D02*
X00499D01*
X00505D02*
X0051D01*
X00571D02*
X00585D01*
X00598D02*
X006D01*
X00602D02*
X00604D01*
X00606D02*
X00608D01*
X0062D02*
X00627D01*
X00628D02*
X00632D01*
X00361Y02574D02*
X00369D01*
X00394D02*
X00499D01*
X00506D02*
X0051D01*
X00571D02*
X00583D01*
X00597D02*
X006D01*
X00602D02*
X00604D01*
X00606D02*
X00608D01*
X00623D02*
X00628D01*
X00629D02*
X00632D01*
X00361Y02573D02*
X00369D01*
X00393D02*
X00499D01*
X00506D02*
X0051D01*
X00571D02*
X0058D01*
X00597D02*
X006D01*
X00602D02*
X00604D01*
X00606D02*
X00608D01*
X00625D02*
X00628D01*
X0063D02*
X00632D01*
X00361Y02572D02*
X00369D01*
X00393D02*
X00499D01*
X00506D02*
X0051D01*
X00571D02*
X00579D01*
X00596D02*
X00599D01*
X00602D02*
X00604D01*
X00606D02*
X00609D01*
X00626D02*
X00628D01*
X0063D02*
X00632D01*
X00361Y02571D02*
X00369D01*
X00393D02*
X005D01*
X00506D02*
X00511D01*
X00571D02*
X00576D01*
X00577D02*
X00579D01*
X00595D02*
X00599D01*
X00602D02*
X00604D01*
X00607D02*
X0061D01*
X00626D02*
X00628D01*
X0063D02*
X00632D01*
X00362Y0257D02*
X00369D01*
X00394D02*
X005D01*
X00507D02*
X00511D01*
X00571D02*
X00576D01*
X00577D02*
X00579D01*
X00595D02*
X00598D01*
X00602D02*
X00604D01*
X00607D02*
X00611D01*
X00626D02*
X00628D01*
X0063D02*
X00632D01*
X00362Y02569D02*
X00369D01*
X00394D02*
X005D01*
X00507D02*
X00511D01*
X00571D02*
X00576D01*
X00577D02*
X00579D01*
X00593D02*
X00597D01*
X00602D02*
X00604D01*
X00608D02*
X00612D01*
X00626D02*
X00628D01*
X0063D02*
X00632D01*
X00362Y02568D02*
X00369D01*
X00394D02*
X00501D01*
X00507D02*
X00511D01*
X00571D02*
X00576D01*
X00577D02*
X0058D01*
X00591D02*
X00596D01*
X00598D02*
X006D01*
X00602D02*
X00604D01*
X00609D02*
X00614D01*
X00626D02*
X00628D01*
X0063D02*
X00632D01*
X00362Y02567D02*
X00369D01*
X00394D02*
X00398D01*
X00399D02*
X00501D01*
X00507D02*
X00511D01*
X00571D02*
X00576D01*
X00577D02*
X0058D01*
X00588D02*
X006D01*
X00602D02*
X00604D01*
X00605D02*
X00617D01*
X00626D02*
X00628D01*
X0063D02*
X00632D01*
X00362Y02566D02*
X00369D01*
X00394D02*
X00398D01*
X00399D02*
X00501D01*
X00507D02*
X00512D01*
X00571D02*
X00576D01*
X00577D02*
X00581D01*
X00585D02*
X006D01*
X00602D02*
X00604D01*
X00605D02*
X0062D01*
X00624D02*
X00628D01*
X0063D02*
X00632D01*
X00362Y02565D02*
X00369D01*
X00394D02*
X00398D01*
X00399D02*
X00501D01*
X00508D02*
X00512D01*
X0057D02*
X00576D01*
X00578D02*
X00596D01*
X00598D02*
X006D01*
X00602D02*
X00604D01*
X00605D02*
X00608D01*
X00609D02*
X00628D01*
X0063D02*
X00634D01*
X00362Y02564D02*
X00369D01*
X00394D02*
X00399D01*
X004D02*
X00501D01*
X00508D02*
X00512D01*
X00567D02*
X00576D01*
X00579D02*
X00593D01*
X00598D02*
X006D01*
X00602D02*
X00604D01*
X00605D02*
X00608D01*
X00612D02*
X00626D01*
X0063D02*
X00637D01*
X00362Y02563D02*
X00369D01*
X00394D02*
X00399D01*
X004D02*
X00501D01*
X00508D02*
X00512D01*
X00564D02*
X00576D01*
X00582D02*
X0059D01*
X00597D02*
X006D01*
X00602D02*
X00604D01*
X00605D02*
X00608D01*
X00615D02*
X00624D01*
X0063D02*
X0064D01*
X00362Y02562D02*
X00369D01*
X00394D02*
X00399D01*
X004D02*
X00501D01*
X00508D02*
X00512D01*
X00561D02*
X00576D01*
X0058D02*
X00588D01*
X00597D02*
X006D01*
X00602D02*
X00604D01*
X00605D02*
X00608D01*
X00618D02*
X00625D01*
X0063D02*
X00632D01*
X00633D02*
X00643D01*
X00362Y02561D02*
X00369D01*
X00394D02*
X00399D01*
X00401D02*
X00501D01*
X00508D02*
X00512D01*
X00558D02*
X00568D01*
X0057D02*
X00576D01*
X00578D02*
X00585D01*
X00597D02*
X006D01*
X00602D02*
X00604D01*
X00606D02*
X00608D01*
X0062D02*
X00628D01*
X0063D02*
X00632D01*
X00635D02*
X00646D01*
X00362Y0256D02*
X00369D01*
X00394D02*
X00399D01*
X00401D02*
X00501D01*
X00508D02*
X00512D01*
X00555D02*
X00565D01*
X0057D02*
X00576D01*
X00577D02*
X00582D01*
X00597D02*
X006D01*
X00602D02*
X00604D01*
X00606D02*
X00608D01*
X00623D02*
X00628D01*
X0063D02*
X00632D01*
X00638D02*
X00649D01*
X00362Y02559D02*
X0037D01*
X00395D02*
X00399D01*
X00402D02*
X00501D01*
X00508D02*
X00513D01*
X00553D02*
X00562D01*
X0057D02*
X00576D01*
X00577D02*
X0058D01*
X00597D02*
X00599D01*
X00602D02*
X00604D01*
X00606D02*
X00609D01*
X00626D02*
X00628D01*
X0063D02*
X00632D01*
X00642D02*
X00652D01*
X00362Y02558D02*
X0037D01*
X00395D02*
X004D01*
X00402D02*
X005D01*
X00508D02*
X00513D01*
X0055D02*
X00559D01*
X00569D02*
X00576D01*
X00577D02*
X0058D01*
X00596D02*
X00599D01*
X00602D02*
X00604D01*
X00606D02*
X00609D01*
X00626D02*
X00628D01*
X0063D02*
X00632D01*
X00644D02*
X00654D01*
X00363Y02557D02*
X0037D01*
X00395D02*
X004D01*
X00402D02*
X005D01*
X00509D02*
X00513D01*
X00548D02*
X00557D01*
X00567D02*
X00576D01*
X00577D02*
X0058D01*
X00596D02*
X00599D01*
X00602D02*
X00604D01*
X00607D02*
X0061D01*
X00626D02*
X00628D01*
X0063D02*
X00632D01*
X00647D02*
X00656D01*
X00363Y02556D02*
X0037D01*
X00395D02*
X004D01*
X00403D02*
X00499D01*
X00509D02*
X00513D01*
X00548D02*
X00554D01*
X00566D02*
X00576D01*
X00577D02*
X0058D01*
X00595D02*
X00598D01*
X00602D02*
X00604D01*
X00607D02*
X00611D01*
X00626D02*
X00628D01*
X0063D02*
X00632D01*
X0065D02*
X00657D01*
X00363Y02555D02*
X0037D01*
X00395D02*
X004D01*
X00404D02*
X00498D01*
X00509D02*
X00513D01*
X00564D02*
X00576D01*
X00577D02*
X00579D01*
X00593D02*
X00597D01*
X00602D02*
X00604D01*
X00608D02*
X00613D01*
X00626D02*
X00628D01*
X0063D02*
X00632D01*
X00653D02*
X00657D01*
X00363Y02554D02*
X0037D01*
X00395D02*
X004D01*
X00406D02*
X00497D01*
X00509D02*
X00513D01*
X00563D02*
X00576D01*
X00577D02*
X00579D01*
X00591D02*
X00596D01*
X006D02*
X00605D01*
X00609D02*
X00615D01*
X00626D02*
X00628D01*
X0063D02*
X00632D01*
X00363Y02553D02*
X0037D01*
X00396D02*
X00401D01*
X00408D02*
X00497D01*
X00509D02*
X00513D01*
X00561D02*
X00576D01*
X00577D02*
X0058D01*
X00588D02*
X00595D01*
X00597D02*
X00608D01*
X00611D02*
X00618D01*
X00626D02*
X00628D01*
X0063D02*
X00632D01*
X00363Y02552D02*
X00371D01*
X00396D02*
X00401D01*
X0041D02*
X00497D01*
X00509D02*
X00513D01*
X00559D02*
X00576D01*
X00577D02*
X00581D01*
X00585D02*
X00592D01*
X00594D02*
X00602D01*
X00603D02*
X00611D01*
X00613D02*
X0062D01*
X00624D02*
X00628D01*
X0063D02*
X00632D01*
X00364Y02551D02*
X00371D01*
X00396D02*
X00401D01*
X00413D02*
X00497D01*
X00509D02*
X00513D01*
X00557D02*
X00576D01*
X00578D02*
X0059D01*
X00592D02*
X00599D01*
X00606D02*
X00613D01*
X00616D02*
X00628D01*
X0063D02*
X00632D01*
X00364Y0255D02*
X00371D01*
X00396D02*
X00401D01*
X00415D02*
X00497D01*
X00509D02*
X00513D01*
X00555D02*
X00576D01*
X0058D02*
X00587D01*
X00589D02*
X00596D01*
X00609D02*
X00616D01*
X00618D02*
X00626D01*
X0063D02*
X00632D01*
X00364Y02549D02*
X00371D01*
X00397D02*
X00402D01*
X00417D02*
X00497D01*
X00509D02*
X00513D01*
X00553D02*
X00576D01*
X00586D02*
X00594D01*
X00612D02*
X00619D01*
X00622D02*
X00623D01*
X0063D02*
X00632D01*
X00364Y02548D02*
X00371D01*
X00397D02*
X00402D01*
X00419D02*
X00497D01*
X00509D02*
X00513D01*
X00551D02*
X00576D01*
X00583D02*
X00591D01*
X00614D02*
X00622D01*
X0063D02*
X00632D01*
X00364Y02547D02*
X00372D01*
X00397D02*
X00402D01*
X00421D02*
X00497D01*
X00509D02*
X00513D01*
X00549D02*
X00576D01*
X0058D02*
X00588D01*
X00617D02*
X00625D01*
X00629D02*
X00632D01*
X00365Y02546D02*
X00372D01*
X00398D02*
X00402D01*
X00423D02*
X00497D01*
X00509D02*
X00513D01*
X00547D02*
X00576D01*
X00578D02*
X00585D01*
X0062D02*
X00627D01*
X00629D02*
X00632D01*
X00365Y02545D02*
X00372D01*
X00398D02*
X00403D01*
X00426D02*
X00497D01*
X00509D02*
X00513D01*
X00545D02*
X00582D01*
X00623D02*
X00632D01*
X00365Y02544D02*
X00372D01*
X00398D02*
X00403D01*
X00428D02*
X00497D01*
X00509D02*
X00513D01*
X00543D02*
X0058D01*
X00625D02*
X00632D01*
X00365Y02543D02*
X00373D01*
X00399D02*
X00403D01*
X0043D02*
X00497D01*
X00509D02*
X00513D01*
X00541D02*
X00579D01*
X00626D02*
X00631D01*
X00366Y02542D02*
X00373D01*
X00399D02*
X00404D01*
X00432D02*
X00497D01*
X00509D02*
X00513D01*
X00539D02*
X00582D01*
X00623D02*
X0063D01*
X00366Y02541D02*
X00373D01*
X00399D02*
X00404D01*
X00435D02*
X00497D01*
X00509D02*
X00513D01*
X00537D02*
X00585D01*
X0062D02*
X00628D01*
X00366Y0254D02*
X00374D01*
X004D02*
X00405D01*
X00437D02*
X00497D01*
X00509D02*
X00513D01*
X00535D02*
X00587D01*
X00618D02*
X00625D01*
X00354Y02539D02*
X00355D01*
X00366D02*
X00374D01*
X004D02*
X00405D01*
X0044D02*
X00497D01*
X00509D02*
X00513D01*
X00532D02*
X0059D01*
X00615D02*
X00622D01*
X00352Y02538D02*
X00355D01*
X00367D02*
X00374D01*
X00401D02*
X00405D01*
X00443D02*
X00497D01*
X00509D02*
X00513D01*
X0053D02*
X00593D01*
X00612D02*
X0062D01*
X00351Y02537D02*
X00354D01*
X00367D02*
X00375D01*
X00401D02*
X00406D01*
X00447D02*
X00497D01*
X00509D02*
X00513D01*
X00528D02*
X00595D01*
X00609D02*
X00617D01*
X0035Y02536D02*
X00353D01*
X00367D02*
X00375D01*
X00402D02*
X00406D01*
X00451D02*
X00497D01*
X00509D02*
X00513D01*
X00525D02*
X00592D01*
X00594D02*
X00598D01*
X00607D02*
X00614D01*
X00349Y02535D02*
X00352D01*
X00368D02*
X00375D01*
X00402D02*
X00407D01*
X00454D02*
X00497D01*
X00509D02*
X00513D01*
X00523D02*
X00591D01*
X00594D02*
X00611D01*
X00348Y02534D02*
X00352D01*
X00368D02*
X00376D01*
X00402D02*
X00407D01*
X00454D02*
X00497D01*
X00509D02*
X00512D01*
X0052D02*
X00589D01*
X00594D02*
X00609D01*
X00348Y02533D02*
X00351D01*
X00368D02*
X00376D01*
X00403D02*
X00408D01*
X00454D02*
X00497D01*
X00509D02*
X00512D01*
X00518D02*
X00587D01*
X00593D02*
X00605D01*
X00347Y02532D02*
X0035D01*
X00369D02*
X00376D01*
X00403D02*
X00408D01*
X00455D02*
X00497D01*
X00509D02*
X00512D01*
X00515D02*
X00585D01*
X00593D02*
X00601D01*
X00347Y02531D02*
X0035D01*
X00369D02*
X00377D01*
X00404D02*
X00409D01*
X00455D02*
X00497D01*
X00509D02*
X00583D01*
X00592D02*
X00601D01*
X00346Y0253D02*
X00349D01*
X00369D02*
X00377D01*
X00405D02*
X0041D01*
X00456D02*
X00497D01*
X00509D02*
X00581D01*
X00592D02*
X006D01*
X00346Y02529D02*
X00349D01*
X0037D02*
X00378D01*
X00405D02*
X0041D01*
X00456D02*
X00497D01*
X00506D02*
X00578D01*
X00592D02*
X006D01*
X00346Y02528D02*
X00349D01*
X0037D02*
X00378D01*
X00406D02*
X00411D01*
X00456D02*
X00497D01*
X00504D02*
X00576D01*
X00591D02*
X006D01*
X00346Y02527D02*
X00349D01*
X0037D02*
X00379D01*
X00406D02*
X00411D01*
X00457D02*
X00497D01*
X005D02*
X00574D01*
X00591D02*
X00599D01*
X00346Y02526D02*
X00349D01*
X00371D02*
X00379D01*
X00407D02*
X00412D01*
X00457D02*
X00572D01*
X0059D02*
X00599D01*
X00346Y02525D02*
X00349D01*
X00371D02*
X00379D01*
X00407D02*
X00413D01*
X00458D02*
X00569D01*
X0059D02*
X00598D01*
X00346Y02524D02*
X0035D01*
X00372D02*
X0038D01*
X00408D02*
X00413D01*
X00458D02*
X00567D01*
X00589D02*
X00598D01*
X00346Y02523D02*
X0035D01*
X00372D02*
X0038D01*
X00409D02*
X00414D01*
X00458D02*
X00564D01*
X00589D02*
X00597D01*
X00346Y02522D02*
X00351D01*
X00372D02*
X00381D01*
X00409D02*
X00415D01*
X00459D02*
X00562D01*
X00588D02*
X00597D01*
X00347Y02521D02*
X00352D01*
X00373D02*
X00381D01*
X0041D02*
X00416D01*
X00459D02*
X0056D01*
X00588D02*
X00597D01*
X00347Y0252D02*
X00354D01*
X00373D02*
X00382D01*
X00411D02*
X00417D01*
X00459D02*
X00559D01*
X00587D02*
X00596D01*
X00348Y02519D02*
X00355D01*
X00374D02*
X00383D01*
X00411D02*
X00417D01*
X0046D02*
X00558D01*
X00587D02*
X00596D01*
X00349Y02518D02*
X00357D01*
X00374D02*
X00383D01*
X00412D02*
X00418D01*
X0046D02*
X00557D01*
X00586D02*
X00595D01*
X0035Y02517D02*
X0036D01*
X00375D02*
X00384D01*
X00413D02*
X00419D01*
X0046D02*
X00548D01*
X0055D02*
X00556D01*
X00586D02*
X00595D01*
X00351Y02516D02*
X00362D01*
X00375D02*
X00384D01*
X00414D02*
X0042D01*
X00454D02*
X00545D01*
X0055D02*
X00556D01*
X00585D02*
X00594D01*
X00352Y02515D02*
X00366D01*
X00376D02*
X00385D01*
X00414D02*
X00421D01*
X00448D02*
X00542D01*
X00549D02*
X00555D01*
X00585D02*
X00594D01*
X00354Y02514D02*
X0037D01*
X00376D02*
X00385D01*
X00415D02*
X00421D01*
X00441D02*
X00538D01*
X00548D02*
X00554D01*
X00584D02*
X00593D01*
X00356Y02513D02*
X00375D01*
X00377D02*
X00386D01*
X00416D02*
X00422D01*
X00434D02*
X00535D01*
X00547D02*
X00553D01*
X00584D02*
X00593D01*
X00357Y02512D02*
X00386D01*
X00417D02*
X00531D01*
X00546D02*
X00552D01*
X00583D02*
X00592D01*
X00359Y02511D02*
X00527D01*
X00545D02*
X00551D01*
X00582D02*
X00591D01*
X00362Y0251D02*
X00523D01*
X00544D02*
X0055D01*
X00582D02*
X00591D01*
X00364Y02509D02*
X00518D01*
X00543D02*
X00549D01*
X00581D02*
X0059D01*
X00367Y02508D02*
X00513D01*
X00542D02*
X00548D01*
X00581D02*
X0059D01*
X0037Y02507D02*
X00509D01*
X0054D02*
X00547D01*
X0058D02*
X00589D01*
X00373Y02506D02*
X00506D01*
X00539D02*
X00546D01*
X00579D02*
X00588D01*
X00376Y02505D02*
X005D01*
X00502D02*
X00505D01*
X00538D02*
X00545D01*
X00579D02*
X00588D01*
X00381Y02504D02*
X00494D01*
X00502D02*
X00505D01*
X00537D02*
X00544D01*
X00578D02*
X00587D01*
X00383Y02503D02*
X00491D01*
X00502D02*
X00504D01*
X00535D02*
X00543D01*
X00577D02*
X00586D01*
X00384Y02502D02*
X00393D01*
X00394D02*
X00491D01*
X00501D02*
X00504D01*
X00534D02*
X00542D01*
X00576D02*
X00586D01*
X00385Y02501D02*
X00394D01*
X00401D02*
X0049D01*
X00501D02*
X00503D01*
X00532D02*
X0054D01*
X00576D02*
X00585D01*
X00385Y025D02*
X00395D01*
X00415D02*
X00451D01*
X00465D02*
X0049D01*
X005D02*
X00503D01*
X00531D02*
X00539D01*
X00575D02*
X00584D01*
X00386Y02499D02*
X00395D01*
X00432D02*
X0044D01*
X00466D02*
X0049D01*
X005D02*
X00503D01*
X00529D02*
X00538D01*
X00574D02*
X00583D01*
X00387Y02498D02*
X00396D01*
X00434D02*
X00441D01*
X00466D02*
X00489D01*
X005D02*
X00502D01*
X00528D02*
X00536D01*
X00573D02*
X00582D01*
X00387Y02497D02*
X00397D01*
X00435D02*
X00443D01*
X00466D02*
X00489D01*
X00499D02*
X00502D01*
X00526D02*
X00535D01*
X00572D02*
X00581D01*
X00388Y02496D02*
X00398D01*
X00436D02*
X00445D01*
X00467D02*
X00488D01*
X00499D02*
X00501D01*
X00524D02*
X00533D01*
X00571D02*
X00581D01*
X00389Y02495D02*
X00399D01*
X00438D02*
X00447D01*
X00467D02*
X00488D01*
X00499D02*
X00501D01*
X00522D02*
X00531D01*
X0057D02*
X0058D01*
X0039Y02494D02*
X004D01*
X00439D02*
X00449D01*
X00467D02*
X00487D01*
X00499D02*
X005D01*
X00519D02*
X0053D01*
X00569D02*
X00579D01*
X00391Y02493D02*
X00401D01*
X00441D02*
X00452D01*
X00468D02*
X00487D01*
X00517D02*
X00528D01*
X00568D02*
X00578D01*
X00392Y02492D02*
X00402D01*
X00443D02*
X00454D01*
X00468D02*
X00487D01*
X00515D02*
X00526D01*
X00567D02*
X00577D01*
X00393Y02491D02*
X00403D01*
X00445D02*
X00457D01*
X00468D02*
X00486D01*
X00512D02*
X00524D01*
X00566D02*
X00576D01*
X00394Y0249D02*
X00404D01*
X00447D02*
X0046D01*
X00468D02*
X00486D01*
X0051D02*
X00522D01*
X00565D02*
X00576D01*
X00395Y02489D02*
X00405D01*
X0045D02*
X00464D01*
X00468D02*
X00486D01*
X00506D02*
X00519D01*
X00564D02*
X00575D01*
X00396Y02488D02*
X00406D01*
X00452D02*
X00485D01*
X00503D02*
X00517D01*
X00563D02*
X00574D01*
X00397Y02487D02*
X00407D01*
X00455D02*
X00485D01*
X00491D02*
X00514D01*
X00562D02*
X00573D01*
X00398Y02486D02*
X00408D01*
X00458D02*
X00511D01*
X00561D02*
X00572D01*
X00399Y02485D02*
X00409D01*
X00461D02*
X00507D01*
X0056D02*
X00571D01*
X004Y02484D02*
X0041D01*
X00465D02*
X00503D01*
X00559D02*
X0057D01*
X00401Y02483D02*
X00412D01*
X00471D02*
X00497D01*
X00558D02*
X00569D01*
X00402Y02482D02*
X00413D01*
X00556D02*
X00568D01*
X00403Y02481D02*
X00414D01*
X00455D02*
X00458D01*
X00509D02*
X00514D01*
X00555D02*
X00567D01*
X00404Y0248D02*
X00416D01*
X00454D02*
X00459D01*
X00507D02*
X00514D01*
X00554D02*
X00566D01*
X00405Y02479D02*
X00417D01*
X00454D02*
X00459D01*
X00462D02*
X00467D01*
X00506D02*
X00515D01*
X00552D02*
X00564D01*
X00406Y02478D02*
X00418D01*
X00453D02*
X00459D01*
X00462D02*
X00467D01*
X00474D02*
X00476D01*
X00491D02*
X00496D01*
X00505D02*
X00515D01*
X00551D02*
X00563D01*
X00407Y02477D02*
X0042D01*
X00453D02*
X00459D01*
X00462D02*
X00467D01*
X00471D02*
X00483D01*
X00489D02*
X00498D01*
X00504D02*
X00514D01*
X00549D02*
X00562D01*
X00409Y02476D02*
X00421D01*
X00453D02*
X00459D01*
X00461D02*
X00467D01*
X00471D02*
X00483D01*
X00488D02*
X00498D01*
X00504D02*
X00513D01*
X00548D02*
X00561D01*
X0041Y02475D02*
X00423D01*
X00452D02*
X00458D01*
X00461D02*
X00467D01*
X00471D02*
X00483D01*
X00487D02*
X00498D01*
X00504D02*
X0051D01*
X00546D02*
X00559D01*
X00411Y02474D02*
X00425D01*
X00452D02*
X00458D01*
X00461D02*
X00467D01*
X00471D02*
X00483D01*
X00487D02*
X00498D01*
X00504D02*
X00509D01*
X00545D02*
X00558D01*
X00413Y02473D02*
X00426D01*
X00452D02*
X00458D01*
X00461D02*
X00467D01*
X0047D02*
X00483D01*
X00487D02*
X00497D01*
X00503D02*
X00509D01*
X00543D02*
X00556D01*
X00414Y02472D02*
X00428D01*
X00452D02*
X00458D01*
X00461D02*
X00467D01*
X0047D02*
X00476D01*
X00487D02*
X00495D01*
X00503D02*
X00509D01*
X00541D02*
X00555D01*
X00416Y02471D02*
X0043D01*
X00452D02*
X00458D01*
X0046D02*
X00466D01*
X0047D02*
X00481D01*
X00487D02*
X00498D01*
X00504D02*
X00509D01*
X00539D02*
X00554D01*
X00417Y0247D02*
X00432D01*
X00452D02*
X00458D01*
X0046D02*
X00466D01*
X0047D02*
X00482D01*
X00487D02*
X00499D01*
X00504D02*
X00515D01*
X00538D02*
X00552D01*
X00419Y02469D02*
X00434D01*
X00452D02*
X00466D01*
X0047D02*
X00482D01*
X00487D02*
X005D01*
X00504D02*
X00517D01*
X00536D02*
X0055D01*
X0042Y02468D02*
X00436D01*
X00452D02*
X00465D01*
X0047D02*
X00482D01*
X00488D02*
X005D01*
X00505D02*
X00517D01*
X00534D02*
X00549D01*
X00422Y02467D02*
X00438D01*
X00452D02*
X00465D01*
X0047D02*
X00481D01*
X00492D02*
X005D01*
X00505D02*
X00518D01*
X00531D02*
X00547D01*
X00424Y02466D02*
X0044D01*
X00453D02*
X00464D01*
X0047D02*
X00476D01*
X00489D02*
X005D01*
X00506D02*
X00517D01*
X00529D02*
X00545D01*
X00425Y02465D02*
X00443D01*
X00454D02*
X00464D01*
X0047D02*
X00476D01*
X00488D02*
X005D01*
X00508D02*
X00516D01*
X00527D02*
X00543D01*
X00427Y02464D02*
X00445D01*
X00456D02*
X00462D01*
X0047D02*
X00475D01*
X00488D02*
X005D01*
X00524D02*
X00541D01*
X00429Y02463D02*
X00448D01*
X0047D02*
X00475D01*
X00488D02*
X00499D01*
X00521D02*
X00539D01*
X00431Y02462D02*
X00452D01*
X00471D02*
X00475D01*
X00488D02*
X00498D01*
X00518D02*
X00537D01*
X00434Y02461D02*
X00455D01*
X00489D02*
X00494D01*
X00514D02*
X00535D01*
X00436Y0246D02*
X0046D01*
X0051D02*
X00533D01*
X00438Y02459D02*
X00465D01*
X00505D02*
X00531D01*
X00441Y02458D02*
X00472D01*
X00498D02*
X00528D01*
X00443Y02457D02*
X00525D01*
X00446Y02456D02*
X00522D01*
X0045Y02455D02*
X00519D01*
X00453Y02454D02*
X00516D01*
X00457Y02453D02*
X00512D01*
X00462Y02452D02*
X00507D01*
X00469Y02451D02*
X005D01*
G54D54*
X0335Y03058D02*
X03552D01*
X0335Y00438D02*
X03552D01*
Y03058*
X01677Y03261D02*
X02377D01*
X01677Y03461D02*
X02377D01*
X01677Y03261D02*
Y03461D01*
X02377Y03261D02*
Y03461D01*
X02412Y02114D02*
X02762Y02465D01*
X02061D02*
X02412Y02816D01*
X02762Y02465*
X02061D02*
X02412Y02114D01*
X03552Y00438D02*
Y03058D01*
X0335Y00438D02*
X03552D01*
X0335Y03058D02*
X03552D01*
X03151Y00438D02*
X03351D01*
X03151Y03058D02*
X03351D01*
Y00438D02*
Y03058D01*
X03151Y00438D02*
Y03058D01*
X0335Y00438D02*
Y03058D01*
X02069Y00214D02*
Y00362D01*
X0207Y01656D02*
Y01709D01*
X02858Y00215D02*
Y00363D01*
Y01561D02*
Y01709D01*
X0207Y00214D02*
X02858D01*
X0207Y0171D02*
X02858D01*
X00539Y00214D02*
Y00362D01*
X0054Y01656D02*
Y01709D01*
X01328Y00215D02*
Y00363D01*
Y01561D02*
Y01709D01*
X0054Y00214D02*
X01328D01*
X0054Y0171D02*
X01328D01*
X00478Y03343D02*
X00473Y03348D01*
X00463*
X00459Y03343*
Y03323*
X00463Y03318*
X00473*
X00478Y03323*
Y03333*
X00468*
X00488Y03318D02*
Y03348D01*
X00508Y03318*
Y03348*
X00518D02*
Y03318D01*
X00532*
X00537Y03323*
Y03343*
X00532Y03348*
X00518*
X03571Y0268D02*
X03566Y02685D01*
Y02695*
X03571Y02699*
X03576*
X03581Y02695*
X03586Y02699*
X03591*
X03596Y02695*
Y02685*
X03591Y0268*
X03586*
X03581Y02685*
X03576Y0268*
X03571*
X03581Y02685D02*
Y02695D01*
X03092Y02689D02*
Y02709D01*
X03097*
X03116Y02689*
X03121*
X03596Y02268D02*
Y02278D01*
Y02273*
X03566*
X03571Y02268*
X03566Y02312D02*
X03571Y02302D01*
X03581Y02293*
X03591*
X03596Y02298*
Y02307*
X03591Y02312*
X03586*
X03581Y02307*
Y02293*
X03121Y02268D02*
Y02278D01*
Y02273*
X03092*
X03097Y02268*
X03092Y02312D02*
Y02293D01*
X03106*
X03101Y02302*
Y02307*
X03106Y02312*
X03116*
X03121Y02307*
Y02298*
X03116Y02293*
X03596Y01884D02*
Y01864D01*
X03576Y01884*
X03571*
X03566Y01879*
Y01869*
X03571Y01864*
X03596Y01909D02*
X03566D01*
X03581Y01894*
Y01914*
X03121Y01891D02*
Y01871D01*
X03101Y01891*
X03097*
X03092Y01886*
Y01876*
X03097Y01871*
Y01901D02*
X03092Y01906D01*
Y01915*
X03097Y0192*
X03101*
X03106Y01915*
Y01911*
Y01915*
X03111Y0192*
X03116*
X03121Y01915*
Y01906*
X03116Y01901*
X03571Y01466D02*
X03566Y01471D01*
Y01481*
X03571Y01486*
X03576*
X03581Y01481*
Y01476*
Y01481*
X03586Y01486*
X03591*
X03596Y01481*
Y01471*
X03591Y01466*
X03596Y01515D02*
Y01496D01*
X03576Y01515*
X03571*
X03566Y0151*
Y015*
X03571Y01496*
X03097Y01469D02*
X03092Y01474D01*
Y01484*
X03097Y01488*
X03101*
X03106Y01484*
Y01479*
Y01484*
X03111Y01488*
X03116*
X03121Y01484*
Y01474*
X03116Y01469*
X03121Y01498D02*
Y01508D01*
Y01503*
X03092*
X03097Y01498*
X03596Y01078D02*
X03566D01*
X03581Y01063*
Y01083*
X03571Y01092D02*
X03566Y01097D01*
Y01107*
X03571Y01112*
X03591*
X03596Y01107*
Y01097*
X03591Y01092*
X03571*
X03097Y0107D02*
X03092Y01075D01*
Y01085*
X03097Y0109*
X03101*
X03106Y01085*
Y0108*
Y01085*
X03111Y0109*
X03116*
X03121Y01085*
Y01075*
X03116Y0107*
Y01099D02*
X03121Y01104D01*
Y01114*
X03116Y01119*
X03097*
X03092Y01114*
Y01104*
X03097Y01099*
X03101*
X03106Y01104*
Y01119*
X03596Y00779D02*
X03566D01*
X03581Y00764*
Y00784*
X03566Y00813D02*
X03571Y00803D01*
X03581Y00794*
X03591*
X03596Y00799*
Y00808*
X03591Y00813*
X03586*
X03581Y00808*
Y00794*
X03121Y00784D02*
X03092D01*
X03106Y0077*
Y00789*
X03092Y00819D02*
Y00799D01*
X03106*
X03101Y00809*
Y00814*
X03106Y00819*
X03116*
X03121Y00814*
Y00804*
X03116Y00799*
X03571Y01568D02*
X03566Y01563D01*
Y01553*
X03571Y01548*
X03591*
X03596Y01553*
Y01563*
X03591Y01568*
X03581*
Y01558*
X03596Y01577D02*
X03566D01*
X03596Y01597*
X03566*
Y01607D02*
X03596D01*
Y01622*
X03591Y01627*
X03571*
X03566Y01622*
Y01607*
X03095Y01551D02*
X0309Y01546D01*
Y01536*
X03095Y01531*
X03115*
X0312Y01536*
Y01546*
X03115Y01551*
X03105*
Y01541*
X0312Y01561D02*
X0309D01*
X0312Y0158*
X0309*
Y0159D02*
X0312D01*
Y01605*
X03115Y0161*
X03095*
X0309Y01605*
Y0159*
G54D55*
X00302Y0337D02*
Y0347D01*
X00502*
X00302Y0337D02*
X00502D01*
Y0347*
X0152Y03036D02*
Y03136D01*
X0132Y03036D02*
X0152D01*
X0132Y03136D02*
X0152D01*
X0132Y03036D02*
Y03136D01*
X00594Y0337D02*
Y0347D01*
X00794*
X00594Y0337D02*
X00794D01*
Y0347*
X02407Y03291D02*
X02423D01*
X02415*
Y03341*
X02407Y03333*
X02448D02*
X02457Y03341D01*
X02473*
X02482Y03333*
Y03325*
X02473Y03316*
X02465*
X02473*
X02482Y03308*
Y033*
X02473Y03291*
X02457*
X02448Y033*
X02407Y03391D02*
X02423D01*
X02415*
Y03441*
X02407Y03433*
X02473Y03391D02*
Y03441D01*
X02448Y03416*
X02482*
X01607Y03291D02*
X01623D01*
X01615*
Y03341*
X01607Y03333*
X0164Y03391D02*
X01607D01*
X0164Y03425*
Y03433*
X01632Y03441*
X01615*
X01607Y03433*
X03398Y03081D02*
Y03091D01*
Y03086*
X03368*
X03373Y03081*
X03598Y03004D02*
Y02984D01*
X03578Y03004*
X03573*
X03568Y02999*
Y02989*
X03573Y02984*
X03322Y03106D02*
Y03086D01*
X03302Y03106*
X03297*
X03292Y03101*
Y03091*
X03297Y03086*
X03131Y02986D02*
Y02996D01*
Y02991*
X03101*
X03106Y02986*
X03566Y00486D02*
Y00466D01*
X03581*
X03576Y00476*
Y00481*
X03581Y00486*
X03591*
X03596Y00481*
Y00471*
X03591Y00466*
X03596Y00515D02*
Y00496D01*
X03576Y00515*
X03571*
X03566Y0051*
Y005*
X03571Y00496*
X03377Y00398D02*
Y00378D01*
X03392*
X03387Y00388*
Y00393*
X03392Y00398*
X03401*
X03406Y00393*
Y00383*
X03401Y00378*
X03406Y00408D02*
Y00418D01*
Y00413*
X03377*
X03382Y00408*
X03095Y00499D02*
Y00479D01*
X0311*
X03105Y00489*
Y00494*
X0311Y00499*
X03119*
X03124Y00494*
Y00484*
X03119Y00479*
X03124Y00509D02*
Y00518D01*
Y00513*
X03095*
X031Y00509*
X0329Y00393D02*
Y00373D01*
X03305*
X033Y00383*
Y00388*
X03305Y00393*
X03315*
X0332Y00388*
Y00378*
X03315Y00373*
X0332Y00423D02*
Y00403D01*
X033Y00423*
X03295*
X0329Y00418*
Y00408*
X03295Y00403*
X03422Y03074D02*
X03451D01*
X03437*
Y03094*
X03422*
X03451*
Y03124D02*
Y03104D01*
X03432Y03124*
X03427*
X03422Y03119*
Y03109*
X03427Y03104*
X03244Y03075D02*
X03274D01*
X03259*
Y03095*
X03244*
X03274*
Y03105D02*
Y03115D01*
Y0311*
X03244*
X03249Y03105*
G54D56*
X01976Y01945D02*
X01987Y01956D01*
X01959Y01961D02*
X0197Y01972D01*
X01921Y02D02*
X01932Y02011D01*
X01904Y02017D02*
X01916Y02028D01*
X01752Y02973D02*
X01768D01*
X01752Y0295D02*
X01768D01*
X02066Y02215D02*
X02077Y02204D01*
X02082Y02232D02*
X02093Y02221D01*
X024Y01963D02*
X02416D01*
X024Y01987D02*
X02416D01*
X02007Y02177D02*
X02017Y02167D01*
X01958Y02215D02*
X01997Y02253D01*
X02036Y02206D02*
X02045Y02196D01*
X02397Y01891D02*
X02411D01*
X02336Y01883D02*
Y01937D01*
X02397Y01932D02*
X02411D01*
X02104Y02718D02*
X02115Y02729D01*
X0212Y02701D02*
X02132Y02712D01*
X02709Y02797D02*
X02719Y02787D01*
X02661Y02835D02*
X02699Y02873D01*
X02738Y02826D02*
X02748Y02816D01*
X02056Y02768D02*
X02065Y02778D01*
X02103Y02826D02*
X02141Y02788D01*
X02084Y02739D02*
X02094Y02749D01*
X01982Y02309D02*
X01993Y02298D01*
X01999Y02326D02*
X0201Y02315D01*
X01914Y02279D02*
X01924Y02269D01*
X01865Y02316D02*
X01903Y02355D01*
X01942Y02307D02*
X01952Y02297D01*
X02525Y01994D02*
Y0201D01*
X02549Y01994D02*
Y0201D01*
X02082Y03032D02*
X02166Y02947D01*
X01949Y02899D02*
X02082Y03032D01*
X01949Y02899D02*
X02034Y02814D01*
X02166Y02947*
X01635Y02809D02*
X01647Y02795D01*
X01635Y02782D02*
X01647Y02795D01*
X02671Y02755D02*
X02682Y02744D01*
X02688Y02772D02*
X02699Y02761D01*
X02648Y01897D02*
X02661Y01908D01*
X02634D02*
X02648Y01897D01*
X03049Y00085D02*
X03112D01*
X03049Y00172D02*
X03112D01*
G54D57*
X0276Y0318D03*
X02872Y0318D03*
X01531Y02796D03*
X01761Y03024D03*
G54D58*
X01433Y02903D03*
G54D59*
X02648Y02006D03*
M02*